%TF.GenerationSoftware,KiCad,Pcbnew,7.0.11-7.0.11~ubuntu20.04.1*%
%TF.CreationDate,2024-04-28T13:46:05-04:00*%
%TF.ProjectId,Tutorial1,5475746f-7269-4616-9c31-2e6b69636164,0*%
%TF.SameCoordinates,Original*%
%TF.FileFunction,Copper,L2,Bot*%
%TF.FilePolarity,Positive*%
%FSLAX46Y46*%
G04 Gerber Fmt 4.6, Leading zero omitted, Abs format (unit mm)*
G04 Created by KiCad (PCBNEW 7.0.11-7.0.11~ubuntu20.04.1) date 2024-04-28 13:46:05*
%MOMM*%
%LPD*%
G01*
G04 APERTURE LIST*
%TA.AperFunction,ComponentPad*%
%ADD10C,1.600000*%
%TD*%
%TA.AperFunction,ComponentPad*%
%ADD11O,1.600000X1.600000*%
%TD*%
%TA.AperFunction,ComponentPad*%
%ADD12C,1.800000*%
%TD*%
%TA.AperFunction,ComponentPad*%
%ADD13R,1.800000X1.800000*%
%TD*%
%TA.AperFunction,SMDPad,CuDef*%
%ADD14R,2.540000X3.510000*%
%TD*%
%TA.AperFunction,Conductor*%
%ADD15C,0.200000*%
%TD*%
G04 APERTURE END LIST*
D10*
%TO.P,R1,1*%
%TO.N,VCC*%
X145000000Y-115000000D03*
D11*
%TO.P,R1,2*%
%TO.N,/led*%
X132300000Y-115000000D03*
%TD*%
D12*
%TO.P,D1,2,A*%
%TO.N,/led*%
X116460000Y-115540000D03*
D13*
%TO.P,D1,1,K*%
%TO.N,GNDREF*%
X116460000Y-113000000D03*
%TD*%
D14*
%TO.P,BT1,1,+*%
%TO.N,VCC*%
X145650000Y-99608970D03*
%TO.P,BT1,2,-*%
%TO.N,GNDREF*%
X116290000Y-99608970D03*
%TD*%
D15*
%TO.N,VCC*%
X145650000Y-99608970D02*
X145650000Y-114350000D01*
X145650000Y-114350000D02*
X145000000Y-115000000D01*
%TO.N,GNDREF*%
X116290000Y-99608970D02*
X116290000Y-112830000D01*
X116290000Y-112830000D02*
X116460000Y-113000000D01*
%TD*%
%TA.AperFunction,Conductor*%
%TO.N,GNDREF*%
G36*
X150442539Y-85520185D02*
G01*
X150488294Y-85572989D01*
X150499500Y-85624500D01*
X150499500Y-119375500D01*
X150479815Y-119442539D01*
X150427011Y-119488294D01*
X150375500Y-119499500D01*
X111624500Y-119499500D01*
X111557461Y-119479815D01*
X111511706Y-119427011D01*
X111500500Y-119375500D01*
X111500500Y-115540006D01*
X115054700Y-115540006D01*
X115073864Y-115771297D01*
X115073866Y-115771308D01*
X115130842Y-115996300D01*
X115224075Y-116208848D01*
X115351016Y-116403147D01*
X115351019Y-116403151D01*
X115351021Y-116403153D01*
X115508216Y-116573913D01*
X115508219Y-116573915D01*
X115508222Y-116573918D01*
X115691365Y-116716464D01*
X115691371Y-116716468D01*
X115691374Y-116716470D01*
X115895497Y-116826936D01*
X116009487Y-116866068D01*
X116115015Y-116902297D01*
X116115017Y-116902297D01*
X116115019Y-116902298D01*
X116343951Y-116940500D01*
X116343952Y-116940500D01*
X116576048Y-116940500D01*
X116576049Y-116940500D01*
X116804981Y-116902298D01*
X117024503Y-116826936D01*
X117228626Y-116716470D01*
X117411784Y-116573913D01*
X117568979Y-116403153D01*
X117695924Y-116208849D01*
X117789157Y-115996300D01*
X117846134Y-115771305D01*
X117865300Y-115540000D01*
X117865300Y-115539993D01*
X117846135Y-115308702D01*
X117846133Y-115308691D01*
X117789157Y-115083699D01*
X117752443Y-115000001D01*
X130994532Y-115000001D01*
X131014364Y-115226686D01*
X131014366Y-115226697D01*
X131073258Y-115446488D01*
X131073261Y-115446497D01*
X131169431Y-115652732D01*
X131169432Y-115652734D01*
X131299954Y-115839141D01*
X131460858Y-116000045D01*
X131460861Y-116000047D01*
X131647266Y-116130568D01*
X131853504Y-116226739D01*
X132073308Y-116285635D01*
X132235230Y-116299801D01*
X132299998Y-116305468D01*
X132300000Y-116305468D01*
X132300002Y-116305468D01*
X132356673Y-116300509D01*
X132526692Y-116285635D01*
X132746496Y-116226739D01*
X132952734Y-116130568D01*
X133139139Y-116000047D01*
X133300047Y-115839139D01*
X133430568Y-115652734D01*
X133526739Y-115446496D01*
X133585635Y-115226692D01*
X133605468Y-115000001D01*
X143694532Y-115000001D01*
X143714364Y-115226686D01*
X143714366Y-115226697D01*
X143773258Y-115446488D01*
X143773261Y-115446497D01*
X143869431Y-115652732D01*
X143869432Y-115652734D01*
X143999954Y-115839141D01*
X144160858Y-116000045D01*
X144160861Y-116000047D01*
X144347266Y-116130568D01*
X144553504Y-116226739D01*
X144773308Y-116285635D01*
X144935230Y-116299801D01*
X144999998Y-116305468D01*
X145000000Y-116305468D01*
X145000002Y-116305468D01*
X145056673Y-116300509D01*
X145226692Y-116285635D01*
X145446496Y-116226739D01*
X145652734Y-116130568D01*
X145839139Y-116000047D01*
X146000047Y-115839139D01*
X146130568Y-115652734D01*
X146226739Y-115446496D01*
X146285635Y-115226692D01*
X146305468Y-115000000D01*
X146285635Y-114773308D01*
X146233228Y-114577721D01*
X146233229Y-114513536D01*
X146235041Y-114506767D01*
X146235044Y-114506762D01*
X146250500Y-114389361D01*
X146255682Y-114350000D01*
X146251561Y-114318697D01*
X146250500Y-114302512D01*
X146250500Y-101988469D01*
X146270185Y-101921430D01*
X146322989Y-101875675D01*
X146374500Y-101864469D01*
X146967871Y-101864469D01*
X146967872Y-101864469D01*
X147027483Y-101858061D01*
X147162331Y-101807766D01*
X147277546Y-101721516D01*
X147363796Y-101606301D01*
X147414091Y-101471453D01*
X147420500Y-101411843D01*
X147420499Y-97806098D01*
X147414091Y-97746487D01*
X147363884Y-97611876D01*
X147363797Y-97611641D01*
X147363793Y-97611634D01*
X147277547Y-97496425D01*
X147277544Y-97496422D01*
X147162335Y-97410176D01*
X147162328Y-97410172D01*
X147027482Y-97359878D01*
X147027483Y-97359878D01*
X146967883Y-97353471D01*
X146967881Y-97353470D01*
X146967873Y-97353470D01*
X146967864Y-97353470D01*
X144332129Y-97353470D01*
X144332123Y-97353471D01*
X144272516Y-97359878D01*
X144137671Y-97410172D01*
X144137664Y-97410176D01*
X144022455Y-97496422D01*
X144022452Y-97496425D01*
X143936206Y-97611634D01*
X143936202Y-97611641D01*
X143885908Y-97746487D01*
X143879501Y-97806086D01*
X143879501Y-97806093D01*
X143879500Y-97806105D01*
X143879500Y-101411840D01*
X143879501Y-101411846D01*
X143885908Y-101471453D01*
X143936202Y-101606298D01*
X143936206Y-101606305D01*
X144022452Y-101721514D01*
X144022455Y-101721517D01*
X144137664Y-101807763D01*
X144137671Y-101807767D01*
X144182618Y-101824531D01*
X144272517Y-101858061D01*
X144332127Y-101864470D01*
X144925500Y-101864469D01*
X144992539Y-101884153D01*
X145038294Y-101936957D01*
X145049500Y-101988469D01*
X145049500Y-113576576D01*
X145029815Y-113643615D01*
X144977011Y-113689370D01*
X144936308Y-113700104D01*
X144773312Y-113714364D01*
X144773302Y-113714366D01*
X144553511Y-113773258D01*
X144553502Y-113773261D01*
X144347267Y-113869431D01*
X144347265Y-113869432D01*
X144160858Y-113999954D01*
X143999954Y-114160858D01*
X143869432Y-114347265D01*
X143869431Y-114347267D01*
X143773261Y-114553502D01*
X143773258Y-114553511D01*
X143714366Y-114773302D01*
X143714364Y-114773313D01*
X143694532Y-114999998D01*
X143694532Y-115000001D01*
X133605468Y-115000001D01*
X133605468Y-115000000D01*
X133585635Y-114773308D01*
X133526739Y-114553504D01*
X133430568Y-114347266D01*
X133300047Y-114160861D01*
X133300045Y-114160858D01*
X133139141Y-113999954D01*
X132952734Y-113869432D01*
X132952732Y-113869431D01*
X132746497Y-113773261D01*
X132746488Y-113773258D01*
X132526697Y-113714366D01*
X132526693Y-113714365D01*
X132526692Y-113714365D01*
X132526691Y-113714364D01*
X132526686Y-113714364D01*
X132300002Y-113694532D01*
X132299998Y-113694532D01*
X132073313Y-113714364D01*
X132073302Y-113714366D01*
X131853511Y-113773258D01*
X131853502Y-113773261D01*
X131647267Y-113869431D01*
X131647265Y-113869432D01*
X131460858Y-113999954D01*
X131299954Y-114160858D01*
X131169432Y-114347265D01*
X131169431Y-114347267D01*
X131073261Y-114553502D01*
X131073258Y-114553511D01*
X131014366Y-114773302D01*
X131014364Y-114773313D01*
X130994532Y-114999998D01*
X130994532Y-115000001D01*
X117752443Y-115000001D01*
X117695924Y-114871151D01*
X117568981Y-114676849D01*
X117473832Y-114573489D01*
X117442910Y-114510835D01*
X117450770Y-114441409D01*
X117494918Y-114387253D01*
X117521730Y-114373325D01*
X117602084Y-114343355D01*
X117602093Y-114343350D01*
X117717187Y-114257190D01*
X117717190Y-114257187D01*
X117803350Y-114142093D01*
X117803354Y-114142086D01*
X117853596Y-114007379D01*
X117853598Y-114007372D01*
X117859999Y-113947844D01*
X117860000Y-113947827D01*
X117860000Y-113250000D01*
X116835278Y-113250000D01*
X116883625Y-113166260D01*
X116913810Y-113034008D01*
X116903673Y-112898735D01*
X116854113Y-112772459D01*
X116836203Y-112750000D01*
X117860000Y-112750000D01*
X117860000Y-112052172D01*
X117859999Y-112052155D01*
X117853598Y-111992627D01*
X117853596Y-111992620D01*
X117803354Y-111857913D01*
X117803350Y-111857906D01*
X117717190Y-111742812D01*
X117717187Y-111742809D01*
X117602093Y-111656649D01*
X117602086Y-111656645D01*
X117467379Y-111606403D01*
X117467372Y-111606401D01*
X117407844Y-111600000D01*
X116710000Y-111600000D01*
X116710000Y-112625810D01*
X116657453Y-112589984D01*
X116527827Y-112550000D01*
X116426276Y-112550000D01*
X116325862Y-112565135D01*
X116210000Y-112620931D01*
X116210000Y-111600000D01*
X115512155Y-111600000D01*
X115452627Y-111606401D01*
X115452620Y-111606403D01*
X115317913Y-111656645D01*
X115317906Y-111656649D01*
X115202812Y-111742809D01*
X115202809Y-111742812D01*
X115116649Y-111857906D01*
X115116645Y-111857913D01*
X115066403Y-111992620D01*
X115066401Y-111992627D01*
X115060000Y-112052155D01*
X115060000Y-112750000D01*
X116084722Y-112750000D01*
X116036375Y-112833740D01*
X116006190Y-112965992D01*
X116016327Y-113101265D01*
X116065887Y-113227541D01*
X116083797Y-113250000D01*
X115060000Y-113250000D01*
X115060000Y-113947844D01*
X115066401Y-114007372D01*
X115066403Y-114007379D01*
X115116645Y-114142086D01*
X115116649Y-114142093D01*
X115202809Y-114257187D01*
X115202812Y-114257190D01*
X115317906Y-114343350D01*
X115317913Y-114343354D01*
X115398270Y-114373325D01*
X115454204Y-114415196D01*
X115478621Y-114480660D01*
X115463770Y-114548933D01*
X115446168Y-114573489D01*
X115351021Y-114676847D01*
X115351019Y-114676848D01*
X115351016Y-114676853D01*
X115224075Y-114871151D01*
X115130842Y-115083699D01*
X115073866Y-115308691D01*
X115073864Y-115308702D01*
X115054700Y-115539993D01*
X115054700Y-115540006D01*
X111500500Y-115540006D01*
X111500500Y-99858970D01*
X114520000Y-99858970D01*
X114520000Y-101411814D01*
X114526401Y-101471342D01*
X114526403Y-101471349D01*
X114576645Y-101606056D01*
X114576649Y-101606063D01*
X114662809Y-101721157D01*
X114662812Y-101721160D01*
X114777906Y-101807320D01*
X114777913Y-101807324D01*
X114912620Y-101857566D01*
X114912627Y-101857568D01*
X114972155Y-101863969D01*
X114972172Y-101863970D01*
X116040000Y-101863970D01*
X116040000Y-99858970D01*
X116540000Y-99858970D01*
X116540000Y-101863970D01*
X117607828Y-101863970D01*
X117607844Y-101863969D01*
X117667372Y-101857568D01*
X117667379Y-101857566D01*
X117802086Y-101807324D01*
X117802093Y-101807320D01*
X117917187Y-101721160D01*
X117917190Y-101721157D01*
X118003350Y-101606063D01*
X118003354Y-101606056D01*
X118053596Y-101471349D01*
X118053598Y-101471342D01*
X118059999Y-101411814D01*
X118060000Y-101411797D01*
X118060000Y-99858970D01*
X116540000Y-99858970D01*
X116040000Y-99858970D01*
X114520000Y-99858970D01*
X111500500Y-99858970D01*
X111500500Y-99358970D01*
X114520000Y-99358970D01*
X116040000Y-99358970D01*
X116040000Y-97353970D01*
X116540000Y-97353970D01*
X116540000Y-99358970D01*
X118060000Y-99358970D01*
X118060000Y-97806142D01*
X118059999Y-97806125D01*
X118053598Y-97746597D01*
X118053596Y-97746590D01*
X118003354Y-97611883D01*
X118003350Y-97611876D01*
X117917190Y-97496782D01*
X117917187Y-97496779D01*
X117802093Y-97410619D01*
X117802086Y-97410615D01*
X117667379Y-97360373D01*
X117667372Y-97360371D01*
X117607844Y-97353970D01*
X116540000Y-97353970D01*
X116040000Y-97353970D01*
X114972155Y-97353970D01*
X114912627Y-97360371D01*
X114912620Y-97360373D01*
X114777913Y-97410615D01*
X114777906Y-97410619D01*
X114662812Y-97496779D01*
X114662809Y-97496782D01*
X114576649Y-97611876D01*
X114576645Y-97611883D01*
X114526403Y-97746590D01*
X114526401Y-97746597D01*
X114520000Y-97806125D01*
X114520000Y-99358970D01*
X111500500Y-99358970D01*
X111500500Y-85624500D01*
X111520185Y-85557461D01*
X111572989Y-85511706D01*
X111624500Y-85500500D01*
X150375500Y-85500500D01*
X150442539Y-85520185D01*
G37*
%TD.AperFunction*%
%TD*%
M02*
