%TF.GenerationSoftware,KiCad,Pcbnew,7.0.11-7.0.11~ubuntu20.04.1*%
%TF.CreationDate,2024-05-02T13:22:55-04:00*%
%TF.ProjectId,AudioAmpEELv2,41756469-6f41-46d7-9045-454c76322e6b,rev?*%
%TF.SameCoordinates,Original*%
%TF.FileFunction,Copper,L2,Bot*%
%TF.FilePolarity,Positive*%
%FSLAX46Y46*%
G04 Gerber Fmt 4.6, Leading zero omitted, Abs format (unit mm)*
G04 Created by KiCad (PCBNEW 7.0.11-7.0.11~ubuntu20.04.1) date 2024-05-02 13:22:55*
%MOMM*%
%LPD*%
G01*
G04 APERTURE LIST*
%TA.AperFunction,ComponentPad*%
%ADD10R,1.600000X1.600000*%
%TD*%
%TA.AperFunction,ComponentPad*%
%ADD11C,1.600000*%
%TD*%
%TA.AperFunction,ComponentPad*%
%ADD12O,1.600000X1.600000*%
%TD*%
%TA.AperFunction,ComponentPad*%
%ADD13R,2.200000X2.200000*%
%TD*%
%TA.AperFunction,ComponentPad*%
%ADD14O,2.200000X2.200000*%
%TD*%
%TA.AperFunction,ComponentPad*%
%ADD15R,2.100000X2.100000*%
%TD*%
%TA.AperFunction,ComponentPad*%
%ADD16C,2.100000*%
%TD*%
%TA.AperFunction,ComponentPad*%
%ADD17O,1.500000X1.050000*%
%TD*%
%TA.AperFunction,ComponentPad*%
%ADD18R,1.500000X1.050000*%
%TD*%
%TA.AperFunction,Conductor*%
%ADD19C,0.200000*%
%TD*%
G04 APERTURE END LIST*
D10*
%TO.P,C2,1*%
%TO.N,Net-(Q1-C)*%
X137044888Y-93000000D03*
D11*
%TO.P,C2,2*%
%TO.N,Net-(D1-K)*%
X139044888Y-93000000D03*
%TD*%
%TO.P,R3a1,1*%
%TO.N,Net-(R3a1-Pad1)*%
X152470000Y-84110000D03*
D12*
%TO.P,R3a1,2*%
%TO.N,/Vcc (+9V)*%
X152470000Y-73950000D03*
%TD*%
D13*
%TO.P,D2,1,K*%
%TO.N,Net-(D2-K)*%
X146000000Y-110580000D03*
D14*
%TO.P,D2,2,A*%
%TO.N,Net-(D1-K)*%
X146000000Y-100420000D03*
%TD*%
D15*
%TO.P,J3,1,Pin_1*%
%TO.N,/Vcc (+9V)*%
X109000000Y-81380000D03*
D16*
%TO.P,J3,2,Pin_2*%
%TO.N,GNDREF*%
X109000000Y-83920000D03*
%TO.P,J3,3,Pin_3*%
X109000000Y-86460000D03*
%TO.P,J3,4,Pin_4*%
%TO.N,/Vee (-9V)*%
X109000000Y-89000000D03*
%TD*%
D11*
%TO.P,RLoad1,1*%
%TO.N,/Vee (-9V)*%
X179000000Y-101160000D03*
D12*
%TO.P,RLoad1,2*%
%TO.N,/Vout*%
X179000000Y-91000000D03*
%TD*%
%TO.P,R4a1,2*%
%TO.N,Net-(D2-K)*%
X152500000Y-100420000D03*
D11*
%TO.P,R4a1,1*%
%TO.N,Net-(R4a1-Pad1)*%
X152500000Y-110580000D03*
%TD*%
%TO.P,C6,1*%
%TO.N,/Vee (-9V)*%
X109000000Y-111000000D03*
%TO.P,C6,2*%
%TO.N,GNDREF*%
X109000000Y-106000000D03*
%TD*%
D15*
%TO.P,J1,1,Pin_1*%
%TO.N,/Vin*%
X109000000Y-96960000D03*
D16*
%TO.P,J1,2,Pin_2*%
%TO.N,GNDREF*%
X109000000Y-99500000D03*
%TD*%
D12*
%TO.P,R4b1,2*%
%TO.N,Net-(R4a1-Pad1)*%
X159500000Y-100500000D03*
D11*
%TO.P,R4b1,1*%
%TO.N,/Vee (-9V)*%
X159500000Y-110660000D03*
%TD*%
D17*
%TO.P,Q3,3,C*%
%TO.N,/Vee (-9V)*%
X165500000Y-108770000D03*
%TO.P,Q3,2,B*%
%TO.N,Net-(D2-K)*%
X165500000Y-107500000D03*
D18*
%TO.P,Q3,1,E*%
%TO.N,Net-(Q3-E)*%
X165500000Y-106230000D03*
%TD*%
%TO.P,Q2,1,E*%
%TO.N,Net-(Q2-E)*%
X166360000Y-83270000D03*
D17*
%TO.P,Q2,2,B*%
%TO.N,Net-(D1-A)*%
X166360000Y-82000000D03*
%TO.P,Q2,3,C*%
%TO.N,/Vcc (+9V)*%
X166360000Y-80730000D03*
%TD*%
D18*
%TO.P,Q1,1,E*%
%TO.N,Net-(Q1-E)*%
X129000000Y-94270000D03*
D17*
%TO.P,Q1,2,B*%
%TO.N,Net-(Q1-B)*%
X129000000Y-93000000D03*
%TO.P,Q1,3,C*%
%TO.N,Net-(Q1-C)*%
X129000000Y-91730000D03*
%TD*%
D11*
%TO.P,R3b1,1*%
%TO.N,Net-(D1-A)*%
X159410000Y-85530000D03*
D12*
%TO.P,R3b1,2*%
%TO.N,Net-(R3a1-Pad1)*%
X159410000Y-75370000D03*
%TD*%
D10*
%TO.P,C1,1*%
%TO.N,/Vin*%
X115544888Y-93000000D03*
D11*
%TO.P,C1,2*%
%TO.N,Net-(Q1-B)*%
X117544888Y-93000000D03*
%TD*%
%TO.P,R5,1*%
%TO.N,Net-(Q3-E)*%
X172510000Y-103150000D03*
D12*
%TO.P,R5,2*%
%TO.N,/Vout*%
X172510000Y-92990000D03*
%TD*%
D11*
%TO.P,Rc1,1*%
%TO.N,Net-(Q1-C)*%
X128980000Y-84150000D03*
D12*
%TO.P,Rc1,2*%
%TO.N,/Vcc (+9V)*%
X128980000Y-73990000D03*
%TD*%
D11*
%TO.P,C5,1*%
%TO.N,Net-(D1-K)*%
X151500000Y-93000000D03*
%TO.P,C5,2*%
%TO.N,GNDREF*%
X156500000Y-93000000D03*
%TD*%
%TO.P,C4,1*%
%TO.N,GNDREF*%
X115470000Y-79040000D03*
%TO.P,C4,2*%
%TO.N,/Vcc (+9V)*%
X115470000Y-74040000D03*
%TD*%
D15*
%TO.P,J2,1,Pin_1*%
%TO.N,/Vout*%
X178640000Y-107890000D03*
D16*
%TO.P,J2,2,Pin_2*%
%TO.N,/Vee (-9V)*%
X178640000Y-110430000D03*
%TD*%
D11*
%TO.P,R6,1*%
%TO.N,/Vout*%
X172500000Y-89080000D03*
D12*
%TO.P,R6,2*%
%TO.N,Net-(Q2-E)*%
X172500000Y-78920000D03*
%TD*%
D13*
%TO.P,D1,1,K*%
%TO.N,Net-(D1-K)*%
X145990000Y-85820000D03*
D14*
%TO.P,D1,2,A*%
%TO.N,Net-(D1-A)*%
X145990000Y-75660000D03*
%TD*%
D11*
%TO.P,R1,1*%
%TO.N,Net-(Q1-B)*%
X121960000Y-84200000D03*
D12*
%TO.P,R1,2*%
%TO.N,/Vcc (+9V)*%
X121960000Y-74040000D03*
%TD*%
D11*
%TO.P,Re1,1*%
%TO.N,/Vee (-9V)*%
X129000000Y-111160000D03*
D12*
%TO.P,Re1,2*%
%TO.N,Net-(Q1-E)*%
X129000000Y-101000000D03*
%TD*%
D10*
%TO.P,C3,1*%
%TO.N,Net-(Q1-E)*%
X138044888Y-105000000D03*
D11*
%TO.P,C3,2*%
%TO.N,/Vee (-9V)*%
X138044888Y-107500000D03*
%TD*%
%TO.P,R2,1*%
%TO.N,/Vee (-9V)*%
X122000000Y-111160000D03*
D12*
%TO.P,R2,2*%
%TO.N,Net-(Q1-B)*%
X122000000Y-101000000D03*
%TD*%
D19*
%TO.N,Net-(Q1-C)*%
X129000000Y-91730000D02*
X129000000Y-84170000D01*
X129000000Y-84170000D02*
X128980000Y-84150000D01*
X128980000Y-84150000D02*
X137044888Y-92214888D01*
X137044888Y-92214888D02*
X137044888Y-93000000D01*
%TO.N,Net-(D1-A)*%
X159410000Y-85530000D02*
X162940000Y-82000000D01*
X162940000Y-82000000D02*
X166360000Y-82000000D01*
%TO.N,Net-(D2-K)*%
X152500000Y-100420000D02*
X153920000Y-99000000D01*
X153920000Y-99000000D02*
X160500000Y-99000000D01*
X160500000Y-99000000D02*
X162500000Y-101000000D01*
X162500000Y-101000000D02*
X162500000Y-106000000D01*
X162500000Y-106000000D02*
X164000000Y-107500000D01*
X164000000Y-107500000D02*
X165500000Y-107500000D01*
%TO.N,Net-(Q1-B)*%
X121960000Y-84200000D02*
X121960000Y-92960000D01*
X121960000Y-92960000D02*
X122000000Y-93000000D01*
%TO.N,Net-(Q1-C)*%
X128980000Y-91710000D02*
X129000000Y-91730000D01*
%TO.N,Net-(Q1-E)*%
X129000000Y-101000000D02*
X134044888Y-101000000D01*
X134044888Y-101000000D02*
X138044888Y-105000000D01*
%TO.N,Net-(Q3-E)*%
X165500000Y-106230000D02*
X169430000Y-106230000D01*
X169430000Y-106230000D02*
X172510000Y-103150000D01*
%TO.N,/Vout*%
X172510000Y-92990000D02*
X177010000Y-92990000D01*
X177010000Y-92990000D02*
X179000000Y-91000000D01*
%TO.N,Net-(D1-K)*%
X145990000Y-85820000D02*
X145990000Y-92990000D01*
X145990000Y-92990000D02*
X146000000Y-93000000D01*
%TO.N,/Vcc (+9V)*%
X152470000Y-73950000D02*
X160550000Y-73950000D01*
X160550000Y-73950000D02*
X166360000Y-79760000D01*
X166360000Y-79760000D02*
X166360000Y-80730000D01*
%TO.N,Net-(R3a1-Pad1)*%
X152470000Y-84110000D02*
X152470000Y-82310000D01*
X152470000Y-82310000D02*
X159410000Y-75370000D01*
%TO.N,Net-(D1-A)*%
X159410000Y-85530000D02*
X151780000Y-85530000D01*
X145990000Y-79740000D02*
X145990000Y-75660000D01*
X151780000Y-85530000D02*
X145990000Y-79740000D01*
%TO.N,/Vcc (+9V)*%
X128980000Y-73990000D02*
X152430000Y-73990000D01*
X152430000Y-73990000D02*
X152470000Y-73950000D01*
X121960000Y-74040000D02*
X128930000Y-74040000D01*
X128930000Y-74040000D02*
X128980000Y-73990000D01*
X115470000Y-74040000D02*
X121960000Y-74040000D01*
X109000000Y-81380000D02*
X109000000Y-80510000D01*
X109000000Y-80510000D02*
X115470000Y-74040000D01*
%TO.N,/Vee (-9V)*%
X143044888Y-112500000D02*
X157500000Y-112500000D01*
X159500000Y-110660000D02*
X157660000Y-112500000D01*
X157660000Y-112500000D02*
X157500000Y-112500000D01*
X138044888Y-107500000D02*
X143044888Y-112500000D01*
%TO.N,Net-(R4a1-Pad1)*%
X152500000Y-110580000D02*
X152500000Y-107500000D01*
X152500000Y-107500000D02*
X159500000Y-100500000D01*
%TO.N,Net-(D2-K)*%
X146000000Y-110580000D02*
X146000000Y-106920000D01*
X146000000Y-106920000D02*
X152500000Y-100420000D01*
%TO.N,/Vee (-9V)*%
X178640000Y-110430000D02*
X177290000Y-109080000D01*
X178640000Y-110430000D02*
X166930000Y-110430000D01*
X166930000Y-110430000D02*
X165500000Y-109000000D01*
X165500000Y-109000000D02*
X165500000Y-108770000D01*
X159500000Y-110660000D02*
X163610000Y-110660000D01*
X163610000Y-110660000D02*
X165500000Y-108770000D01*
X129000000Y-111160000D02*
X134384888Y-111160000D01*
X134384888Y-111160000D02*
X138044888Y-107500000D01*
%TO.N,Net-(D1-K)*%
X139044888Y-93000000D02*
X146000000Y-93000000D01*
X146000000Y-100420000D02*
X146000000Y-93000000D01*
%TO.N,Net-(Q1-B)*%
X122000000Y-101000000D02*
X122000000Y-93000000D01*
X117544888Y-93000000D02*
X122000000Y-93000000D01*
X122000000Y-93000000D02*
X129000000Y-93000000D01*
%TO.N,/Vin*%
X109000000Y-96960000D02*
X111584888Y-96960000D01*
X111584888Y-96960000D02*
X115544888Y-93000000D01*
%TO.N,Net-(D1-K)*%
X149000000Y-93000000D02*
X146000000Y-93000000D01*
X151500000Y-93000000D02*
X149000000Y-93000000D01*
%TO.N,Net-(Q1-E)*%
X129000000Y-94270000D02*
X129000000Y-101000000D01*
%TO.N,/Vee (-9V)*%
X109000000Y-89000000D02*
X106500000Y-91500000D01*
X106500000Y-108500000D02*
X109000000Y-111000000D01*
X109160000Y-111160000D02*
X109000000Y-111000000D01*
X124000000Y-111160000D02*
X109160000Y-111160000D01*
X179000000Y-101160000D02*
X177290000Y-102870000D01*
X106500000Y-91500000D02*
X106500000Y-108500000D01*
X177290000Y-102870000D02*
X177290000Y-109080000D01*
X121000000Y-111160000D02*
X129000000Y-111160000D01*
%TO.N,/Vout*%
X179000000Y-91000000D02*
X180100000Y-92100000D01*
X180100000Y-92100000D02*
X180100000Y-106430000D01*
X172500000Y-89080000D02*
X177080000Y-89080000D01*
X180100000Y-106430000D02*
X178640000Y-107890000D01*
X177080000Y-89080000D02*
X179000000Y-91000000D01*
%TO.N,Net-(Q2-E)*%
X166360000Y-83270000D02*
X168150000Y-83270000D01*
X168150000Y-83270000D02*
X172500000Y-78920000D01*
%TD*%
%TA.AperFunction,Conductor*%
%TO.N,GNDREF*%
G36*
X184442539Y-72020185D02*
G01*
X184488294Y-72072989D01*
X184499500Y-72124500D01*
X184499500Y-115875500D01*
X184479815Y-115942539D01*
X184427011Y-115988294D01*
X184375500Y-115999500D01*
X103124500Y-115999500D01*
X103057461Y-115979815D01*
X103011706Y-115927011D01*
X103000500Y-115875500D01*
X103000500Y-108500000D01*
X105894318Y-108500000D01*
X105899500Y-108539360D01*
X105899500Y-108539361D01*
X105914955Y-108656760D01*
X105914956Y-108656762D01*
X105968336Y-108785634D01*
X105975464Y-108802841D01*
X106067311Y-108922539D01*
X106071719Y-108928283D01*
X106096769Y-108947504D01*
X106108964Y-108958199D01*
X107708058Y-110557293D01*
X107741543Y-110618616D01*
X107740152Y-110677067D01*
X107714366Y-110773302D01*
X107714364Y-110773313D01*
X107694532Y-110999998D01*
X107694532Y-111000001D01*
X107714364Y-111226686D01*
X107714366Y-111226697D01*
X107773258Y-111446488D01*
X107773261Y-111446497D01*
X107869431Y-111652732D01*
X107869432Y-111652734D01*
X107999954Y-111839141D01*
X108160858Y-112000045D01*
X108160861Y-112000047D01*
X108347266Y-112130568D01*
X108553504Y-112226739D01*
X108773308Y-112285635D01*
X108935230Y-112299801D01*
X108999998Y-112305468D01*
X109000000Y-112305468D01*
X109000002Y-112305468D01*
X109056673Y-112300509D01*
X109226692Y-112285635D01*
X109446496Y-112226739D01*
X109652734Y-112130568D01*
X109839139Y-112000047D01*
X110000047Y-111839139D01*
X110018086Y-111813377D01*
X110072663Y-111769752D01*
X110119661Y-111760500D01*
X120768308Y-111760500D01*
X120835347Y-111780185D01*
X120869880Y-111813374D01*
X120930186Y-111899500D01*
X120999954Y-111999141D01*
X121160858Y-112160045D01*
X121160861Y-112160047D01*
X121347266Y-112290568D01*
X121553504Y-112386739D01*
X121773308Y-112445635D01*
X121935230Y-112459801D01*
X121999998Y-112465468D01*
X122000000Y-112465468D01*
X122000002Y-112465468D01*
X122056673Y-112460509D01*
X122226692Y-112445635D01*
X122446496Y-112386739D01*
X122652734Y-112290568D01*
X122839139Y-112160047D01*
X123000047Y-111999139D01*
X123130118Y-111813375D01*
X123184693Y-111769752D01*
X123231692Y-111760500D01*
X127768308Y-111760500D01*
X127835347Y-111780185D01*
X127869880Y-111813374D01*
X127930186Y-111899500D01*
X127999954Y-111999141D01*
X128160858Y-112160045D01*
X128160861Y-112160047D01*
X128347266Y-112290568D01*
X128553504Y-112386739D01*
X128773308Y-112445635D01*
X128935230Y-112459801D01*
X128999998Y-112465468D01*
X129000000Y-112465468D01*
X129000002Y-112465468D01*
X129056673Y-112460509D01*
X129226692Y-112445635D01*
X129446496Y-112386739D01*
X129652734Y-112290568D01*
X129839139Y-112160047D01*
X130000047Y-111999139D01*
X130130118Y-111813375D01*
X130184693Y-111769752D01*
X130231692Y-111760500D01*
X134337401Y-111760500D01*
X134353585Y-111761560D01*
X134384888Y-111765682D01*
X134384889Y-111765682D01*
X134444355Y-111757853D01*
X134541650Y-111745044D01*
X134687729Y-111684536D01*
X134777959Y-111615300D01*
X134813170Y-111588282D01*
X134832397Y-111563223D01*
X134843078Y-111551043D01*
X137602182Y-108791939D01*
X137663503Y-108758456D01*
X137721954Y-108759847D01*
X137728161Y-108761510D01*
X137818196Y-108785635D01*
X137980118Y-108799801D01*
X138044886Y-108805468D01*
X138044888Y-108805468D01*
X138044890Y-108805468D01*
X138101561Y-108800509D01*
X138271580Y-108785635D01*
X138367820Y-108759847D01*
X138437669Y-108761510D01*
X138487594Y-108791941D01*
X142586687Y-112891034D01*
X142597381Y-112903228D01*
X142616603Y-112928279D01*
X142616604Y-112928280D01*
X142616606Y-112928282D01*
X142742047Y-113024536D01*
X142888126Y-113085044D01*
X142966507Y-113095363D01*
X143044887Y-113105682D01*
X143044888Y-113105682D01*
X143076190Y-113101560D01*
X143092375Y-113100500D01*
X157460639Y-113100500D01*
X157612513Y-113100500D01*
X157628697Y-113101560D01*
X157660000Y-113105682D01*
X157660001Y-113105682D01*
X157712254Y-113098802D01*
X157816762Y-113085044D01*
X157962841Y-113024536D01*
X158088282Y-112928282D01*
X158107509Y-112903223D01*
X158118190Y-112891043D01*
X159057294Y-111951939D01*
X159118615Y-111918456D01*
X159177066Y-111919847D01*
X159196604Y-111925082D01*
X159273308Y-111945635D01*
X159435230Y-111959801D01*
X159499998Y-111965468D01*
X159500000Y-111965468D01*
X159500002Y-111965468D01*
X159556673Y-111960509D01*
X159726692Y-111945635D01*
X159946496Y-111886739D01*
X160152734Y-111790568D01*
X160339139Y-111660047D01*
X160500047Y-111499139D01*
X160630118Y-111313375D01*
X160684693Y-111269752D01*
X160731692Y-111260500D01*
X163562513Y-111260500D01*
X163578697Y-111261560D01*
X163610000Y-111265682D01*
X163610001Y-111265682D01*
X163662254Y-111258802D01*
X163766762Y-111245044D01*
X163912841Y-111184536D01*
X163936411Y-111166450D01*
X164038282Y-111088282D01*
X164057510Y-111063222D01*
X164068189Y-111051044D01*
X165287416Y-109831819D01*
X165348739Y-109798334D01*
X165375097Y-109795500D01*
X165394903Y-109795500D01*
X165461942Y-109815185D01*
X165482584Y-109831819D01*
X166471799Y-110821034D01*
X166482493Y-110833228D01*
X166501718Y-110858282D01*
X166538743Y-110886692D01*
X166627159Y-110954536D01*
X166627161Y-110954536D01*
X166627163Y-110954538D01*
X166695710Y-110982931D01*
X166773238Y-111015044D01*
X166851619Y-111025363D01*
X166929999Y-111035682D01*
X166930000Y-111035682D01*
X166961302Y-111031560D01*
X166977487Y-111030500D01*
X177127632Y-111030500D01*
X177194671Y-111050185D01*
X177240426Y-111102989D01*
X177242193Y-111107047D01*
X177254222Y-111136089D01*
X177381737Y-111344173D01*
X177381738Y-111344176D01*
X177381741Y-111344179D01*
X177540241Y-111529759D01*
X177599121Y-111580047D01*
X177725823Y-111688261D01*
X177725826Y-111688262D01*
X177933910Y-111815777D01*
X178159381Y-111909169D01*
X178159378Y-111909169D01*
X178159384Y-111909170D01*
X178159388Y-111909172D01*
X178396698Y-111966146D01*
X178640000Y-111985294D01*
X178883302Y-111966146D01*
X179120612Y-111909172D01*
X179346089Y-111815777D01*
X179554179Y-111688259D01*
X179739759Y-111529759D01*
X179898259Y-111344179D01*
X180025777Y-111136089D01*
X180119172Y-110910612D01*
X180176146Y-110673302D01*
X180195294Y-110430000D01*
X180176146Y-110186698D01*
X180119172Y-109949388D01*
X180112491Y-109933258D01*
X180025777Y-109723910D01*
X179912550Y-109539142D01*
X179894305Y-109471697D01*
X179915421Y-109405094D01*
X179943962Y-109375088D01*
X180047546Y-109297546D01*
X180133796Y-109182331D01*
X180184091Y-109047483D01*
X180190500Y-108987873D01*
X180190499Y-107240095D01*
X180210184Y-107173057D01*
X180226813Y-107152420D01*
X180491043Y-106888190D01*
X180503223Y-106877509D01*
X180528282Y-106858282D01*
X180624536Y-106732841D01*
X180685044Y-106586762D01*
X180700500Y-106469361D01*
X180705682Y-106430000D01*
X180701561Y-106398697D01*
X180700500Y-106382512D01*
X180700500Y-92147487D01*
X180701561Y-92131301D01*
X180705682Y-92100000D01*
X180705682Y-92099998D01*
X180685044Y-91943239D01*
X180685042Y-91943234D01*
X180679988Y-91931033D01*
X180643298Y-91842454D01*
X180624538Y-91797163D01*
X180624537Y-91797162D01*
X180624536Y-91797159D01*
X180561006Y-91714365D01*
X180528282Y-91671718D01*
X180528280Y-91671716D01*
X180528279Y-91671715D01*
X180503228Y-91652493D01*
X180491034Y-91641799D01*
X180291941Y-91442706D01*
X180258456Y-91381383D01*
X180259847Y-91322931D01*
X180285635Y-91226692D01*
X180305468Y-91000000D01*
X180285635Y-90773308D01*
X180226739Y-90553504D01*
X180130568Y-90347266D01*
X180000047Y-90160861D01*
X180000045Y-90160858D01*
X179839141Y-89999954D01*
X179652734Y-89869432D01*
X179652732Y-89869431D01*
X179446497Y-89773261D01*
X179446488Y-89773258D01*
X179226697Y-89714366D01*
X179226693Y-89714365D01*
X179226692Y-89714365D01*
X179226691Y-89714364D01*
X179226686Y-89714364D01*
X179000002Y-89694532D01*
X178999998Y-89694532D01*
X178773313Y-89714364D01*
X178773302Y-89714366D01*
X178677067Y-89740152D01*
X178607217Y-89738489D01*
X178557293Y-89708058D01*
X177538199Y-88688964D01*
X177527504Y-88676769D01*
X177508283Y-88651719D01*
X177484542Y-88633502D01*
X177382841Y-88555464D01*
X177236762Y-88494956D01*
X177236760Y-88494955D01*
X177119361Y-88479500D01*
X177080000Y-88474318D01*
X177048697Y-88478439D01*
X177032513Y-88479500D01*
X173731692Y-88479500D01*
X173664653Y-88459815D01*
X173630119Y-88426625D01*
X173500047Y-88240861D01*
X173500045Y-88240858D01*
X173339141Y-88079954D01*
X173152734Y-87949432D01*
X173152732Y-87949431D01*
X172946497Y-87853261D01*
X172946488Y-87853258D01*
X172726697Y-87794366D01*
X172726693Y-87794365D01*
X172726692Y-87794365D01*
X172726691Y-87794364D01*
X172726686Y-87794364D01*
X172500002Y-87774532D01*
X172499998Y-87774532D01*
X172273313Y-87794364D01*
X172273302Y-87794366D01*
X172053511Y-87853258D01*
X172053502Y-87853261D01*
X171847267Y-87949431D01*
X171847265Y-87949432D01*
X171660858Y-88079954D01*
X171499954Y-88240858D01*
X171369432Y-88427265D01*
X171369431Y-88427267D01*
X171273261Y-88633502D01*
X171273258Y-88633511D01*
X171214366Y-88853302D01*
X171214364Y-88853313D01*
X171194532Y-89079998D01*
X171194532Y-89080001D01*
X171214364Y-89306686D01*
X171214366Y-89306697D01*
X171273258Y-89526488D01*
X171273261Y-89526497D01*
X171369431Y-89732732D01*
X171369432Y-89732734D01*
X171499954Y-89919141D01*
X171660858Y-90080045D01*
X171660861Y-90080047D01*
X171847266Y-90210568D01*
X172053504Y-90306739D01*
X172273308Y-90365635D01*
X172435230Y-90379801D01*
X172499998Y-90385468D01*
X172500000Y-90385468D01*
X172500002Y-90385468D01*
X172556673Y-90380509D01*
X172726692Y-90365635D01*
X172946496Y-90306739D01*
X173152734Y-90210568D01*
X173339139Y-90080047D01*
X173500047Y-89919139D01*
X173630118Y-89733375D01*
X173684693Y-89689752D01*
X173731692Y-89680500D01*
X176779903Y-89680500D01*
X176846942Y-89700185D01*
X176867584Y-89716819D01*
X177708058Y-90557293D01*
X177741543Y-90618616D01*
X177740152Y-90677067D01*
X177714366Y-90773302D01*
X177714364Y-90773313D01*
X177694532Y-90999998D01*
X177694532Y-91000001D01*
X177714364Y-91226686D01*
X177714366Y-91226697D01*
X177740152Y-91322931D01*
X177738489Y-91392781D01*
X177708058Y-91442705D01*
X176797584Y-92353181D01*
X176736261Y-92386666D01*
X176709903Y-92389500D01*
X173741692Y-92389500D01*
X173674653Y-92369815D01*
X173640119Y-92336625D01*
X173510939Y-92152135D01*
X173510045Y-92150858D01*
X173349141Y-91989954D01*
X173162734Y-91859432D01*
X173162732Y-91859431D01*
X172956497Y-91763261D01*
X172956488Y-91763258D01*
X172736697Y-91704366D01*
X172736693Y-91704365D01*
X172736692Y-91704365D01*
X172736691Y-91704364D01*
X172736686Y-91704364D01*
X172510002Y-91684532D01*
X172509998Y-91684532D01*
X172283313Y-91704364D01*
X172283302Y-91704366D01*
X172063511Y-91763258D01*
X172063502Y-91763261D01*
X171857267Y-91859431D01*
X171857265Y-91859432D01*
X171670858Y-91989954D01*
X171509954Y-92150858D01*
X171379432Y-92337265D01*
X171379431Y-92337267D01*
X171283261Y-92543502D01*
X171283258Y-92543511D01*
X171224366Y-92763302D01*
X171224364Y-92763313D01*
X171204532Y-92989998D01*
X171204532Y-92990001D01*
X171224364Y-93216686D01*
X171224366Y-93216697D01*
X171283258Y-93436488D01*
X171283261Y-93436497D01*
X171379431Y-93642732D01*
X171379432Y-93642734D01*
X171509954Y-93829141D01*
X171670858Y-93990045D01*
X171670861Y-93990047D01*
X171857266Y-94120568D01*
X172063504Y-94216739D01*
X172063509Y-94216740D01*
X172063511Y-94216741D01*
X172100817Y-94226737D01*
X172283308Y-94275635D01*
X172445230Y-94289801D01*
X172509998Y-94295468D01*
X172510000Y-94295468D01*
X172510002Y-94295468D01*
X172566673Y-94290509D01*
X172736692Y-94275635D01*
X172956496Y-94216739D01*
X173162734Y-94120568D01*
X173349139Y-93990047D01*
X173510047Y-93829139D01*
X173640118Y-93643375D01*
X173694693Y-93599752D01*
X173741692Y-93590500D01*
X176962513Y-93590500D01*
X176978697Y-93591560D01*
X177010000Y-93595682D01*
X177010001Y-93595682D01*
X177062254Y-93588802D01*
X177166762Y-93575044D01*
X177312841Y-93514536D01*
X177328306Y-93502669D01*
X177438282Y-93418282D01*
X177457509Y-93393223D01*
X177468190Y-93381043D01*
X178557294Y-92291939D01*
X178618615Y-92258456D01*
X178677066Y-92259847D01*
X178683273Y-92261510D01*
X178773308Y-92285635D01*
X178935230Y-92299801D01*
X178999998Y-92305468D01*
X179000000Y-92305468D01*
X179000002Y-92305468D01*
X179056673Y-92300509D01*
X179226692Y-92285635D01*
X179322932Y-92259847D01*
X179392781Y-92261510D01*
X179442706Y-92291941D01*
X179463181Y-92312416D01*
X179496666Y-92373739D01*
X179499500Y-92400097D01*
X179499500Y-99785863D01*
X179479815Y-99852902D01*
X179427011Y-99898657D01*
X179357853Y-99908601D01*
X179343407Y-99905638D01*
X179226697Y-99874366D01*
X179226693Y-99874365D01*
X179226692Y-99874365D01*
X179226691Y-99874364D01*
X179226686Y-99874364D01*
X179000002Y-99854532D01*
X178999998Y-99854532D01*
X178773313Y-99874364D01*
X178773302Y-99874366D01*
X178553511Y-99933258D01*
X178553502Y-99933261D01*
X178347267Y-100029431D01*
X178347265Y-100029432D01*
X178160858Y-100159954D01*
X177999954Y-100320858D01*
X177869432Y-100507265D01*
X177869431Y-100507267D01*
X177773261Y-100713502D01*
X177773258Y-100713511D01*
X177714366Y-100933302D01*
X177714364Y-100933313D01*
X177694532Y-101159998D01*
X177694532Y-101160001D01*
X177714364Y-101386686D01*
X177714366Y-101386697D01*
X177740152Y-101482931D01*
X177738489Y-101552781D01*
X177708058Y-101602705D01*
X176898965Y-102411798D01*
X176886775Y-102422489D01*
X176861720Y-102441715D01*
X176843494Y-102465468D01*
X176767154Y-102564956D01*
X176765464Y-102567159D01*
X176704956Y-102713237D01*
X176704955Y-102713239D01*
X176684318Y-102869998D01*
X176684318Y-102869999D01*
X176688439Y-102901301D01*
X176689500Y-102917487D01*
X176689500Y-109032512D01*
X176688439Y-109048697D01*
X176684318Y-109079998D01*
X176684318Y-109080000D01*
X176689500Y-109119360D01*
X176689500Y-109119361D01*
X176704955Y-109236760D01*
X176704956Y-109236762D01*
X176761953Y-109374366D01*
X176765464Y-109382841D01*
X176861718Y-109508282D01*
X176861719Y-109508283D01*
X176886769Y-109527504D01*
X176898964Y-109538199D01*
X176978584Y-109617819D01*
X177012069Y-109679142D01*
X177007085Y-109748834D01*
X176965213Y-109804767D01*
X176899749Y-109829184D01*
X176890903Y-109829500D01*
X167230097Y-109829500D01*
X167163058Y-109809815D01*
X167142416Y-109793181D01*
X166685118Y-109335883D01*
X166651633Y-109274560D01*
X166656617Y-109204868D01*
X166663438Y-109189755D01*
X166677023Y-109164341D01*
X166735662Y-108971033D01*
X166755462Y-108770000D01*
X166735662Y-108568967D01*
X166677023Y-108375659D01*
X166581798Y-108197506D01*
X166581794Y-108197502D01*
X166579631Y-108193454D01*
X166565389Y-108125051D01*
X166579631Y-108076546D01*
X166581794Y-108072498D01*
X166581798Y-108072494D01*
X166677023Y-107894341D01*
X166735662Y-107701033D01*
X166755462Y-107500000D01*
X166735662Y-107298967D01*
X166677023Y-107105659D01*
X166677021Y-107105656D01*
X166676694Y-107104576D01*
X166676070Y-107034709D01*
X166690469Y-107005623D01*
X166689544Y-107005118D01*
X166693793Y-106997335D01*
X166693792Y-106997335D01*
X166693796Y-106997331D01*
X166725933Y-106911164D01*
X166767805Y-106855233D01*
X166833269Y-106830816D01*
X166842115Y-106830500D01*
X169382513Y-106830500D01*
X169398697Y-106831560D01*
X169430000Y-106835682D01*
X169430001Y-106835682D01*
X169482254Y-106828802D01*
X169586762Y-106815044D01*
X169732841Y-106754536D01*
X169744750Y-106745398D01*
X169858282Y-106658282D01*
X169877509Y-106633223D01*
X169888190Y-106621043D01*
X172067294Y-104441939D01*
X172128615Y-104408456D01*
X172187066Y-104409847D01*
X172206604Y-104415082D01*
X172283308Y-104435635D01*
X172445230Y-104449801D01*
X172509998Y-104455468D01*
X172510000Y-104455468D01*
X172510002Y-104455468D01*
X172566673Y-104450509D01*
X172736692Y-104435635D01*
X172956496Y-104376739D01*
X173162734Y-104280568D01*
X173349139Y-104150047D01*
X173510047Y-103989139D01*
X173640568Y-103802734D01*
X173736739Y-103596496D01*
X173795635Y-103376692D01*
X173815468Y-103150000D01*
X173795635Y-102923308D01*
X173750916Y-102756415D01*
X173736741Y-102703511D01*
X173736738Y-102703502D01*
X173672135Y-102564962D01*
X173640568Y-102497266D01*
X173510047Y-102310861D01*
X173510045Y-102310858D01*
X173349141Y-102149954D01*
X173162734Y-102019432D01*
X173162732Y-102019431D01*
X172956497Y-101923261D01*
X172956488Y-101923258D01*
X172736697Y-101864366D01*
X172736693Y-101864365D01*
X172736692Y-101864365D01*
X172736691Y-101864364D01*
X172736686Y-101864364D01*
X172510002Y-101844532D01*
X172509998Y-101844532D01*
X172283313Y-101864364D01*
X172283302Y-101864366D01*
X172063511Y-101923258D01*
X172063502Y-101923261D01*
X171857267Y-102019431D01*
X171857265Y-102019432D01*
X171670858Y-102149954D01*
X171509954Y-102310858D01*
X171379432Y-102497265D01*
X171379431Y-102497267D01*
X171283261Y-102703502D01*
X171283258Y-102703511D01*
X171224366Y-102923302D01*
X171224364Y-102923313D01*
X171204532Y-103149998D01*
X171204532Y-103150001D01*
X171224364Y-103376686D01*
X171224366Y-103376697D01*
X171250152Y-103472931D01*
X171248489Y-103542781D01*
X171218058Y-103592705D01*
X169217584Y-105593181D01*
X169156261Y-105626666D01*
X169129903Y-105629500D01*
X166842115Y-105629500D01*
X166775076Y-105609815D01*
X166729321Y-105557011D01*
X166725933Y-105548833D01*
X166693797Y-105462671D01*
X166693793Y-105462664D01*
X166607547Y-105347455D01*
X166607544Y-105347452D01*
X166492335Y-105261206D01*
X166492328Y-105261202D01*
X166357482Y-105210908D01*
X166357483Y-105210908D01*
X166297883Y-105204501D01*
X166297881Y-105204500D01*
X166297873Y-105204500D01*
X166297864Y-105204500D01*
X164702129Y-105204500D01*
X164702123Y-105204501D01*
X164642516Y-105210908D01*
X164507671Y-105261202D01*
X164507664Y-105261206D01*
X164392455Y-105347452D01*
X164392452Y-105347455D01*
X164306206Y-105462664D01*
X164306202Y-105462671D01*
X164255908Y-105597517D01*
X164249501Y-105657116D01*
X164249500Y-105657135D01*
X164249500Y-106600903D01*
X164229815Y-106667942D01*
X164177011Y-106713697D01*
X164107853Y-106723641D01*
X164044297Y-106694616D01*
X164037819Y-106688584D01*
X163136819Y-105787584D01*
X163103334Y-105726261D01*
X163100500Y-105699903D01*
X163100500Y-101047487D01*
X163101561Y-101031301D01*
X163105682Y-101000000D01*
X163105682Y-100999998D01*
X163085044Y-100843239D01*
X163085042Y-100843234D01*
X163076632Y-100822931D01*
X163051185Y-100761495D01*
X163024538Y-100697163D01*
X163024535Y-100697158D01*
X162952451Y-100603216D01*
X162952450Y-100603215D01*
X162938761Y-100585375D01*
X162928281Y-100571716D01*
X162903229Y-100552494D01*
X162891034Y-100541799D01*
X160958199Y-98608964D01*
X160947504Y-98596769D01*
X160928283Y-98571719D01*
X160928279Y-98571716D01*
X160802841Y-98475464D01*
X160656762Y-98414956D01*
X160656760Y-98414955D01*
X160539361Y-98399500D01*
X160500000Y-98394318D01*
X160468697Y-98398439D01*
X160452513Y-98399500D01*
X153967487Y-98399500D01*
X153951302Y-98398439D01*
X153920000Y-98394318D01*
X153880639Y-98399500D01*
X153763239Y-98414955D01*
X153763237Y-98414956D01*
X153617157Y-98475464D01*
X153491718Y-98571716D01*
X153472489Y-98596775D01*
X153461798Y-98608965D01*
X152942705Y-99128058D01*
X152881382Y-99161543D01*
X152822931Y-99160152D01*
X152726697Y-99134366D01*
X152726693Y-99134365D01*
X152726692Y-99134365D01*
X152726691Y-99134364D01*
X152726686Y-99134364D01*
X152500002Y-99114532D01*
X152499998Y-99114532D01*
X152273313Y-99134364D01*
X152273302Y-99134366D01*
X152053511Y-99193258D01*
X152053502Y-99193261D01*
X151847267Y-99289431D01*
X151847265Y-99289432D01*
X151660858Y-99419954D01*
X151499954Y-99580858D01*
X151369432Y-99767265D01*
X151369431Y-99767267D01*
X151273261Y-99973502D01*
X151273258Y-99973511D01*
X151214366Y-100193302D01*
X151214364Y-100193313D01*
X151194532Y-100419998D01*
X151194532Y-100420001D01*
X151214364Y-100646686D01*
X151214366Y-100646697D01*
X151240152Y-100742931D01*
X151238489Y-100812781D01*
X151208058Y-100862705D01*
X145608965Y-106461798D01*
X145596775Y-106472489D01*
X145571720Y-106491715D01*
X145571718Y-106491718D01*
X145490419Y-106597669D01*
X145478943Y-106612625D01*
X145475463Y-106617160D01*
X145414956Y-106763237D01*
X145414955Y-106763239D01*
X145394318Y-106919998D01*
X145394318Y-106919999D01*
X145398439Y-106951301D01*
X145399500Y-106967487D01*
X145399500Y-108855500D01*
X145379815Y-108922539D01*
X145327011Y-108968294D01*
X145275500Y-108979500D01*
X144852129Y-108979500D01*
X144852123Y-108979501D01*
X144792516Y-108985908D01*
X144657671Y-109036202D01*
X144657664Y-109036206D01*
X144542455Y-109122452D01*
X144542452Y-109122455D01*
X144456206Y-109237664D01*
X144456202Y-109237671D01*
X144405908Y-109372517D01*
X144402406Y-109405094D01*
X144399501Y-109432123D01*
X144399500Y-109432135D01*
X144399500Y-111727870D01*
X144399501Y-111727876D01*
X144403196Y-111762247D01*
X144390789Y-111831006D01*
X144343178Y-111882143D01*
X144279906Y-111899500D01*
X143344985Y-111899500D01*
X143277946Y-111879815D01*
X143257304Y-111863181D01*
X139336829Y-107942706D01*
X139303344Y-107881383D01*
X139304735Y-107822931D01*
X139310854Y-107800096D01*
X139330523Y-107726692D01*
X139350356Y-107500000D01*
X139330523Y-107273308D01*
X139271627Y-107053504D01*
X139175456Y-106847266D01*
X139044935Y-106660861D01*
X139044933Y-106660858D01*
X138887801Y-106503726D01*
X138854316Y-106442403D01*
X138859300Y-106372711D01*
X138901172Y-106316778D01*
X138946966Y-106295368D01*
X138952368Y-106294091D01*
X138952371Y-106294091D01*
X139087219Y-106243796D01*
X139202434Y-106157546D01*
X139288684Y-106042331D01*
X139338979Y-105907483D01*
X139345388Y-105847873D01*
X139345387Y-104152128D01*
X139338979Y-104092517D01*
X139300422Y-103989141D01*
X139288685Y-103957671D01*
X139288681Y-103957664D01*
X139202435Y-103842455D01*
X139202432Y-103842452D01*
X139087223Y-103756206D01*
X139087216Y-103756202D01*
X138952370Y-103705908D01*
X138952371Y-103705908D01*
X138892771Y-103699501D01*
X138892769Y-103699500D01*
X138892761Y-103699500D01*
X138892753Y-103699500D01*
X137644985Y-103699500D01*
X137577946Y-103679815D01*
X137557304Y-103663181D01*
X134503087Y-100608964D01*
X134492391Y-100596767D01*
X134473174Y-100571722D01*
X134473171Y-100571720D01*
X134473170Y-100571718D01*
X134347729Y-100475464D01*
X134312783Y-100460989D01*
X134201650Y-100414956D01*
X134201648Y-100414955D01*
X134084249Y-100399500D01*
X134044888Y-100394318D01*
X134013585Y-100398439D01*
X133997401Y-100399500D01*
X130231692Y-100399500D01*
X130164653Y-100379815D01*
X130130119Y-100346625D01*
X130000047Y-100160861D01*
X130000045Y-100160858D01*
X129839140Y-99999953D01*
X129653377Y-99869881D01*
X129609752Y-99815304D01*
X129600500Y-99768306D01*
X129600500Y-95419499D01*
X129620185Y-95352460D01*
X129672989Y-95306705D01*
X129724500Y-95295499D01*
X129797871Y-95295499D01*
X129797872Y-95295499D01*
X129857483Y-95289091D01*
X129992331Y-95238796D01*
X130107546Y-95152546D01*
X130193796Y-95037331D01*
X130244091Y-94902483D01*
X130250500Y-94842873D01*
X130250499Y-93697128D01*
X130244091Y-93637517D01*
X130233735Y-93609752D01*
X130193797Y-93502671D01*
X130189546Y-93494886D01*
X130191621Y-93493752D01*
X130171671Y-93440274D01*
X130176694Y-93395423D01*
X130177021Y-93394344D01*
X130177023Y-93394341D01*
X130235662Y-93201033D01*
X130255462Y-93000000D01*
X130235662Y-92798967D01*
X130177023Y-92605659D01*
X130081798Y-92427506D01*
X130081794Y-92427502D01*
X130079631Y-92423454D01*
X130065389Y-92355051D01*
X130079631Y-92306546D01*
X130081794Y-92302498D01*
X130081798Y-92302494D01*
X130177023Y-92124341D01*
X130235662Y-91931033D01*
X130255462Y-91730000D01*
X130235662Y-91528967D01*
X130177023Y-91335659D01*
X130177021Y-91335656D01*
X130177021Y-91335654D01*
X130081801Y-91157511D01*
X130081799Y-91157509D01*
X130081798Y-91157506D01*
X130011394Y-91071718D01*
X129953647Y-91001352D01*
X129797495Y-90873203D01*
X129797488Y-90873197D01*
X129666047Y-90802941D01*
X129616202Y-90753979D01*
X129600500Y-90693583D01*
X129600500Y-85919097D01*
X129620185Y-85852058D01*
X129672989Y-85806303D01*
X129742147Y-85796359D01*
X129805703Y-85825384D01*
X129812181Y-85831416D01*
X135783961Y-91803196D01*
X135817446Y-91864519D01*
X135812462Y-91934211D01*
X135805115Y-91950298D01*
X135801093Y-91957663D01*
X135750796Y-92092517D01*
X135744389Y-92152116D01*
X135744388Y-92152135D01*
X135744388Y-93847870D01*
X135744389Y-93847876D01*
X135750796Y-93907483D01*
X135801090Y-94042328D01*
X135801094Y-94042335D01*
X135887340Y-94157544D01*
X135887343Y-94157547D01*
X136002552Y-94243793D01*
X136002559Y-94243797D01*
X136137405Y-94294091D01*
X136137404Y-94294091D01*
X136144332Y-94294835D01*
X136197015Y-94300500D01*
X137892760Y-94300499D01*
X137952371Y-94294091D01*
X138087219Y-94243796D01*
X138202434Y-94157546D01*
X138208939Y-94148856D01*
X138264870Y-94106984D01*
X138334561Y-94101997D01*
X138379330Y-94121589D01*
X138392152Y-94130567D01*
X138392154Y-94130568D01*
X138598392Y-94226739D01*
X138818196Y-94285635D01*
X138980118Y-94299801D01*
X139044886Y-94305468D01*
X139044888Y-94305468D01*
X139044890Y-94305468D01*
X139101695Y-94300498D01*
X139271580Y-94285635D01*
X139491384Y-94226739D01*
X139697622Y-94130568D01*
X139884027Y-94000047D01*
X140044935Y-93839139D01*
X140175006Y-93653375D01*
X140229581Y-93609752D01*
X140276580Y-93600500D01*
X145275500Y-93600500D01*
X145342539Y-93620185D01*
X145388294Y-93672989D01*
X145399500Y-93724500D01*
X145399500Y-98853511D01*
X145379815Y-98920550D01*
X145327011Y-98966305D01*
X145322953Y-98968072D01*
X145271140Y-98989533D01*
X145056346Y-99121160D01*
X145056343Y-99121161D01*
X144864776Y-99284776D01*
X144701161Y-99476343D01*
X144701160Y-99476346D01*
X144569533Y-99691140D01*
X144473126Y-99923889D01*
X144414317Y-100168848D01*
X144394551Y-100420000D01*
X144414317Y-100671151D01*
X144473126Y-100916110D01*
X144569533Y-101148859D01*
X144701160Y-101363653D01*
X144701161Y-101363656D01*
X144701164Y-101363659D01*
X144864776Y-101555224D01*
X144988996Y-101661318D01*
X145056343Y-101718838D01*
X145056345Y-101718838D01*
X145069241Y-101726741D01*
X145271140Y-101850466D01*
X145446877Y-101923258D01*
X145503889Y-101946873D01*
X145748852Y-102005683D01*
X146000000Y-102025449D01*
X146251148Y-102005683D01*
X146496111Y-101946873D01*
X146728859Y-101850466D01*
X146943659Y-101718836D01*
X147135224Y-101555224D01*
X147298836Y-101363659D01*
X147430466Y-101148859D01*
X147526873Y-100916111D01*
X147585683Y-100671148D01*
X147605449Y-100420000D01*
X147585683Y-100168852D01*
X147526873Y-99923889D01*
X147495135Y-99847266D01*
X147430466Y-99691140D01*
X147298839Y-99476346D01*
X147298838Y-99476343D01*
X147250676Y-99419953D01*
X147135224Y-99284776D01*
X146959117Y-99134366D01*
X146943656Y-99121161D01*
X146943653Y-99121160D01*
X146728858Y-98989533D01*
X146728859Y-98989533D01*
X146677047Y-98968072D01*
X146622643Y-98924230D01*
X146600579Y-98857936D01*
X146600500Y-98853511D01*
X146600500Y-93724500D01*
X146620185Y-93657461D01*
X146672989Y-93611706D01*
X146724500Y-93600500D01*
X148960639Y-93600500D01*
X150268308Y-93600500D01*
X150335347Y-93620185D01*
X150369880Y-93653374D01*
X150455480Y-93775624D01*
X150499954Y-93839141D01*
X150660858Y-94000045D01*
X150660861Y-94000047D01*
X150847266Y-94130568D01*
X151053504Y-94226739D01*
X151273308Y-94285635D01*
X151435230Y-94299801D01*
X151499998Y-94305468D01*
X151500000Y-94305468D01*
X151500002Y-94305468D01*
X151556807Y-94300498D01*
X151726692Y-94285635D01*
X151946496Y-94226739D01*
X152152734Y-94130568D01*
X152339139Y-94000047D01*
X152500047Y-93839139D01*
X152630568Y-93652734D01*
X152726739Y-93446496D01*
X152785635Y-93226692D01*
X152805468Y-93000002D01*
X155195034Y-93000002D01*
X155214858Y-93226599D01*
X155214860Y-93226610D01*
X155273730Y-93446317D01*
X155273735Y-93446331D01*
X155369863Y-93652478D01*
X155420974Y-93725472D01*
X156102046Y-93044400D01*
X156114835Y-93125148D01*
X156172359Y-93238045D01*
X156261955Y-93327641D01*
X156374852Y-93385165D01*
X156455599Y-93397953D01*
X155774526Y-94079025D01*
X155847513Y-94130132D01*
X155847521Y-94130136D01*
X156053668Y-94226264D01*
X156053682Y-94226269D01*
X156273389Y-94285139D01*
X156273400Y-94285141D01*
X156499998Y-94304966D01*
X156500002Y-94304966D01*
X156726599Y-94285141D01*
X156726610Y-94285139D01*
X156946317Y-94226269D01*
X156946331Y-94226264D01*
X157152478Y-94130136D01*
X157225471Y-94079024D01*
X156544400Y-93397953D01*
X156625148Y-93385165D01*
X156738045Y-93327641D01*
X156827641Y-93238045D01*
X156885165Y-93125148D01*
X156897953Y-93044400D01*
X157579024Y-93725471D01*
X157630136Y-93652478D01*
X157726264Y-93446331D01*
X157726269Y-93446317D01*
X157785139Y-93226610D01*
X157785141Y-93226599D01*
X157804966Y-93000002D01*
X157804966Y-92999997D01*
X157785141Y-92773400D01*
X157785139Y-92773389D01*
X157726269Y-92553682D01*
X157726264Y-92553668D01*
X157630136Y-92347521D01*
X157630132Y-92347513D01*
X157579025Y-92274526D01*
X156897953Y-92955598D01*
X156885165Y-92874852D01*
X156827641Y-92761955D01*
X156738045Y-92672359D01*
X156625148Y-92614835D01*
X156544401Y-92602046D01*
X157225472Y-91920974D01*
X157152478Y-91869863D01*
X156946331Y-91773735D01*
X156946317Y-91773730D01*
X156726610Y-91714860D01*
X156726599Y-91714858D01*
X156500002Y-91695034D01*
X156499998Y-91695034D01*
X156273400Y-91714858D01*
X156273389Y-91714860D01*
X156053682Y-91773730D01*
X156053673Y-91773734D01*
X155847516Y-91869866D01*
X155847512Y-91869868D01*
X155774526Y-91920973D01*
X155774526Y-91920974D01*
X156455599Y-92602046D01*
X156374852Y-92614835D01*
X156261955Y-92672359D01*
X156172359Y-92761955D01*
X156114835Y-92874852D01*
X156102046Y-92955598D01*
X155420974Y-92274526D01*
X155420973Y-92274526D01*
X155369868Y-92347512D01*
X155369866Y-92347516D01*
X155273734Y-92553673D01*
X155273730Y-92553682D01*
X155214860Y-92773389D01*
X155214858Y-92773400D01*
X155195034Y-92999997D01*
X155195034Y-93000002D01*
X152805468Y-93000002D01*
X152805468Y-93000000D01*
X152785635Y-92773308D01*
X152726739Y-92553504D01*
X152630568Y-92347266D01*
X152500047Y-92160861D01*
X152500045Y-92160858D01*
X152339141Y-91999954D01*
X152152734Y-91869432D01*
X152152732Y-91869431D01*
X151946497Y-91773261D01*
X151946488Y-91773258D01*
X151726697Y-91714366D01*
X151726693Y-91714365D01*
X151726692Y-91714365D01*
X151726691Y-91714364D01*
X151726686Y-91714364D01*
X151500002Y-91694532D01*
X151499998Y-91694532D01*
X151273313Y-91714364D01*
X151273302Y-91714366D01*
X151053511Y-91773258D01*
X151053502Y-91773261D01*
X150847267Y-91869431D01*
X150847265Y-91869432D01*
X150660858Y-91999954D01*
X150499954Y-92160858D01*
X150460611Y-92217047D01*
X150369881Y-92346624D01*
X150315307Y-92390248D01*
X150268308Y-92399500D01*
X146714500Y-92399500D01*
X146647461Y-92379815D01*
X146601706Y-92327011D01*
X146590500Y-92275500D01*
X146590500Y-87544499D01*
X146610185Y-87477460D01*
X146662989Y-87431705D01*
X146714500Y-87420499D01*
X147137871Y-87420499D01*
X147137872Y-87420499D01*
X147197483Y-87414091D01*
X147332331Y-87363796D01*
X147447546Y-87277546D01*
X147533796Y-87162331D01*
X147584091Y-87027483D01*
X147590500Y-86967873D01*
X147590499Y-84672128D01*
X147584091Y-84612517D01*
X147533796Y-84477669D01*
X147533795Y-84477668D01*
X147533793Y-84477664D01*
X147447547Y-84362455D01*
X147447544Y-84362452D01*
X147332335Y-84276206D01*
X147332328Y-84276202D01*
X147197482Y-84225908D01*
X147197483Y-84225908D01*
X147137883Y-84219501D01*
X147137881Y-84219500D01*
X147137873Y-84219500D01*
X147137864Y-84219500D01*
X144842129Y-84219500D01*
X144842123Y-84219501D01*
X144782516Y-84225908D01*
X144647671Y-84276202D01*
X144647664Y-84276206D01*
X144532455Y-84362452D01*
X144532452Y-84362455D01*
X144446206Y-84477664D01*
X144446202Y-84477671D01*
X144395908Y-84612517D01*
X144389501Y-84672116D01*
X144389501Y-84672123D01*
X144389500Y-84672135D01*
X144389500Y-86967870D01*
X144389501Y-86967876D01*
X144395908Y-87027483D01*
X144446202Y-87162328D01*
X144446206Y-87162335D01*
X144532452Y-87277544D01*
X144532455Y-87277547D01*
X144647664Y-87363793D01*
X144647671Y-87363797D01*
X144658782Y-87367941D01*
X144782517Y-87414091D01*
X144842127Y-87420500D01*
X145265500Y-87420499D01*
X145332539Y-87440183D01*
X145378294Y-87492987D01*
X145389500Y-87544499D01*
X145389500Y-92275500D01*
X145369815Y-92342539D01*
X145317011Y-92388294D01*
X145265500Y-92399500D01*
X140276580Y-92399500D01*
X140209541Y-92379815D01*
X140175007Y-92346625D01*
X140044935Y-92160861D01*
X140044933Y-92160858D01*
X139884029Y-91999954D01*
X139697622Y-91869432D01*
X139697620Y-91869431D01*
X139491385Y-91773261D01*
X139491376Y-91773258D01*
X139271585Y-91714366D01*
X139271581Y-91714365D01*
X139271580Y-91714365D01*
X139271579Y-91714364D01*
X139271574Y-91714364D01*
X139044890Y-91694532D01*
X139044886Y-91694532D01*
X138818201Y-91714364D01*
X138818190Y-91714366D01*
X138598399Y-91773258D01*
X138598390Y-91773261D01*
X138392155Y-91869431D01*
X138392150Y-91869434D01*
X138379323Y-91878415D01*
X138313115Y-91900738D01*
X138245349Y-91883722D01*
X138208940Y-91851145D01*
X138202434Y-91842454D01*
X138202433Y-91842453D01*
X138202432Y-91842452D01*
X138087223Y-91756206D01*
X138087216Y-91756202D01*
X137952370Y-91705908D01*
X137952371Y-91705908D01*
X137892771Y-91699501D01*
X137892769Y-91699500D01*
X137892761Y-91699500D01*
X137892753Y-91699500D01*
X137430097Y-91699500D01*
X137363058Y-91679815D01*
X137342416Y-91663181D01*
X130271941Y-84592706D01*
X130238456Y-84531383D01*
X130239847Y-84472931D01*
X130265635Y-84376692D01*
X130283244Y-84175415D01*
X130285468Y-84150001D01*
X130285468Y-84149998D01*
X130268072Y-83951166D01*
X130265635Y-83923308D01*
X130206739Y-83703504D01*
X130110568Y-83497266D01*
X129980047Y-83310861D01*
X129980045Y-83310858D01*
X129819141Y-83149954D01*
X129632734Y-83019432D01*
X129632732Y-83019431D01*
X129426497Y-82923261D01*
X129426488Y-82923258D01*
X129206697Y-82864366D01*
X129206693Y-82864365D01*
X129206692Y-82864365D01*
X129206691Y-82864364D01*
X129206686Y-82864364D01*
X128980002Y-82844532D01*
X128979998Y-82844532D01*
X128753313Y-82864364D01*
X128753302Y-82864366D01*
X128533511Y-82923258D01*
X128533502Y-82923261D01*
X128327267Y-83019431D01*
X128327265Y-83019432D01*
X128140858Y-83149954D01*
X127979954Y-83310858D01*
X127849432Y-83497265D01*
X127849431Y-83497267D01*
X127753261Y-83703502D01*
X127753258Y-83703511D01*
X127694366Y-83923302D01*
X127694364Y-83923313D01*
X127674532Y-84149998D01*
X127674532Y-84150001D01*
X127694364Y-84376686D01*
X127694366Y-84376697D01*
X127753258Y-84596488D01*
X127753261Y-84596497D01*
X127849431Y-84802732D01*
X127849432Y-84802734D01*
X127979954Y-84989141D01*
X128140858Y-85150045D01*
X128140861Y-85150047D01*
X128327266Y-85280568D01*
X128327893Y-85280860D01*
X128328122Y-85281062D01*
X128331957Y-85283276D01*
X128331512Y-85284046D01*
X128380337Y-85327027D01*
X128399500Y-85393247D01*
X128399500Y-90693583D01*
X128379815Y-90760622D01*
X128333953Y-90802941D01*
X128202511Y-90873197D01*
X128202504Y-90873203D01*
X128046352Y-91001352D01*
X127918203Y-91157504D01*
X127918198Y-91157511D01*
X127822978Y-91335654D01*
X127764337Y-91528968D01*
X127744538Y-91730000D01*
X127764337Y-91931031D01*
X127822978Y-92124345D01*
X127872529Y-92217047D01*
X127886771Y-92285449D01*
X127861771Y-92350693D01*
X127805466Y-92392064D01*
X127763171Y-92399500D01*
X122684500Y-92399500D01*
X122617461Y-92379815D01*
X122571706Y-92327011D01*
X122560500Y-92275500D01*
X122560500Y-85431692D01*
X122580185Y-85364653D01*
X122613374Y-85330119D01*
X122799139Y-85200047D01*
X122960047Y-85039139D01*
X123090568Y-84852734D01*
X123186739Y-84646496D01*
X123245635Y-84426692D01*
X123265468Y-84200000D01*
X123245635Y-83973308D01*
X123186739Y-83753504D01*
X123090568Y-83547266D01*
X122960047Y-83360861D01*
X122960045Y-83360858D01*
X122799141Y-83199954D01*
X122612734Y-83069432D01*
X122612732Y-83069431D01*
X122406497Y-82973261D01*
X122406488Y-82973258D01*
X122186697Y-82914366D01*
X122186693Y-82914365D01*
X122186692Y-82914365D01*
X122186691Y-82914364D01*
X122186686Y-82914364D01*
X121960002Y-82894532D01*
X121959998Y-82894532D01*
X121733313Y-82914364D01*
X121733302Y-82914366D01*
X121513511Y-82973258D01*
X121513502Y-82973261D01*
X121307267Y-83069431D01*
X121307265Y-83069432D01*
X121120858Y-83199954D01*
X120959954Y-83360858D01*
X120829432Y-83547265D01*
X120829431Y-83547267D01*
X120733261Y-83753502D01*
X120733258Y-83753511D01*
X120674366Y-83973302D01*
X120674364Y-83973313D01*
X120654532Y-84199998D01*
X120654532Y-84200001D01*
X120674364Y-84426686D01*
X120674366Y-84426697D01*
X120733258Y-84646488D01*
X120733261Y-84646497D01*
X120829431Y-84852732D01*
X120829432Y-84852734D01*
X120959954Y-85039141D01*
X121120858Y-85200045D01*
X121120861Y-85200047D01*
X121306624Y-85330118D01*
X121350248Y-85384693D01*
X121359500Y-85431692D01*
X121359500Y-92275500D01*
X121339815Y-92342539D01*
X121287011Y-92388294D01*
X121235500Y-92399500D01*
X118776580Y-92399500D01*
X118709541Y-92379815D01*
X118675007Y-92346625D01*
X118544935Y-92160861D01*
X118544933Y-92160858D01*
X118384029Y-91999954D01*
X118197622Y-91869432D01*
X118197620Y-91869431D01*
X117991385Y-91773261D01*
X117991376Y-91773258D01*
X117771585Y-91714366D01*
X117771581Y-91714365D01*
X117771580Y-91714365D01*
X117771579Y-91714364D01*
X117771574Y-91714364D01*
X117544890Y-91694532D01*
X117544886Y-91694532D01*
X117318201Y-91714364D01*
X117318190Y-91714366D01*
X117098399Y-91773258D01*
X117098390Y-91773261D01*
X116892155Y-91869431D01*
X116892150Y-91869434D01*
X116879323Y-91878415D01*
X116813115Y-91900738D01*
X116745349Y-91883722D01*
X116708940Y-91851145D01*
X116702434Y-91842454D01*
X116702433Y-91842453D01*
X116702432Y-91842452D01*
X116587223Y-91756206D01*
X116587216Y-91756202D01*
X116452370Y-91705908D01*
X116452371Y-91705908D01*
X116392771Y-91699501D01*
X116392769Y-91699500D01*
X116392761Y-91699500D01*
X116392752Y-91699500D01*
X114697017Y-91699500D01*
X114697011Y-91699501D01*
X114637404Y-91705908D01*
X114502559Y-91756202D01*
X114502552Y-91756206D01*
X114387343Y-91842452D01*
X114387340Y-91842455D01*
X114301094Y-91957664D01*
X114301090Y-91957671D01*
X114250796Y-92092517D01*
X114244389Y-92152116D01*
X114244388Y-92152135D01*
X114244388Y-93399902D01*
X114224703Y-93466941D01*
X114208069Y-93487583D01*
X111372472Y-96323181D01*
X111311149Y-96356666D01*
X111284791Y-96359500D01*
X110674499Y-96359500D01*
X110607460Y-96339815D01*
X110561705Y-96287011D01*
X110550499Y-96235500D01*
X110550499Y-95862129D01*
X110550498Y-95862123D01*
X110550497Y-95862116D01*
X110544091Y-95802517D01*
X110493796Y-95667669D01*
X110493795Y-95667668D01*
X110493793Y-95667664D01*
X110407547Y-95552455D01*
X110407544Y-95552452D01*
X110292335Y-95466206D01*
X110292328Y-95466202D01*
X110157482Y-95415908D01*
X110157483Y-95415908D01*
X110097883Y-95409501D01*
X110097881Y-95409500D01*
X110097873Y-95409500D01*
X110097864Y-95409500D01*
X107902129Y-95409500D01*
X107902123Y-95409501D01*
X107842516Y-95415908D01*
X107707671Y-95466202D01*
X107707664Y-95466206D01*
X107592455Y-95552452D01*
X107592452Y-95552455D01*
X107506206Y-95667664D01*
X107506202Y-95667671D01*
X107455908Y-95802517D01*
X107449501Y-95862116D01*
X107449501Y-95862123D01*
X107449500Y-95862135D01*
X107449500Y-98057870D01*
X107449501Y-98057876D01*
X107455908Y-98117483D01*
X107506202Y-98252328D01*
X107506206Y-98252335D01*
X107575358Y-98344709D01*
X107592454Y-98367546D01*
X107696434Y-98445386D01*
X107738305Y-98501319D01*
X107743289Y-98571011D01*
X107727851Y-98609441D01*
X107614667Y-98794140D01*
X107521303Y-99019542D01*
X107464348Y-99256780D01*
X107445207Y-99500000D01*
X107464348Y-99743219D01*
X107521303Y-99980457D01*
X107614668Y-100205861D01*
X107738504Y-100407941D01*
X108474070Y-99672374D01*
X108476884Y-99685915D01*
X108546442Y-99820156D01*
X108649638Y-99930652D01*
X108778819Y-100009209D01*
X108830002Y-100023549D01*
X108092057Y-100761494D01*
X108294138Y-100885331D01*
X108519542Y-100978696D01*
X108756780Y-101035651D01*
X108756779Y-101035651D01*
X109000000Y-101054792D01*
X109243219Y-101035651D01*
X109480457Y-100978696D01*
X109705861Y-100885331D01*
X109907941Y-100761495D01*
X109907941Y-100761494D01*
X109171568Y-100025121D01*
X109288458Y-99974349D01*
X109405739Y-99878934D01*
X109492928Y-99755415D01*
X109523354Y-99669801D01*
X110261494Y-100407941D01*
X110261495Y-100407941D01*
X110385331Y-100205861D01*
X110478696Y-99980457D01*
X110535651Y-99743219D01*
X110554792Y-99500000D01*
X110535651Y-99256780D01*
X110478696Y-99019542D01*
X110385331Y-98794138D01*
X110272149Y-98609442D01*
X110253904Y-98541996D01*
X110275020Y-98475394D01*
X110303560Y-98445389D01*
X110407546Y-98367546D01*
X110493796Y-98252331D01*
X110544091Y-98117483D01*
X110550500Y-98057873D01*
X110550500Y-97684500D01*
X110570185Y-97617461D01*
X110622989Y-97571706D01*
X110674500Y-97560500D01*
X111537401Y-97560500D01*
X111553585Y-97561560D01*
X111584888Y-97565682D01*
X111584889Y-97565682D01*
X111637142Y-97558802D01*
X111741650Y-97545044D01*
X111887729Y-97484536D01*
X112013170Y-97388282D01*
X112032397Y-97363223D01*
X112043078Y-97351043D01*
X115057304Y-94336818D01*
X115118627Y-94303333D01*
X115144985Y-94300499D01*
X116392759Y-94300499D01*
X116392760Y-94300499D01*
X116452371Y-94294091D01*
X116587219Y-94243796D01*
X116702434Y-94157546D01*
X116708939Y-94148856D01*
X116764870Y-94106984D01*
X116834561Y-94101997D01*
X116879330Y-94121589D01*
X116892152Y-94130567D01*
X116892154Y-94130568D01*
X117098392Y-94226739D01*
X117318196Y-94285635D01*
X117480118Y-94299801D01*
X117544886Y-94305468D01*
X117544888Y-94305468D01*
X117544890Y-94305468D01*
X117601695Y-94300498D01*
X117771580Y-94285635D01*
X117991384Y-94226739D01*
X118197622Y-94130568D01*
X118384027Y-94000047D01*
X118544935Y-93839139D01*
X118675006Y-93653375D01*
X118729581Y-93609752D01*
X118776580Y-93600500D01*
X121275500Y-93600500D01*
X121342539Y-93620185D01*
X121388294Y-93672989D01*
X121399500Y-93724500D01*
X121399500Y-99768306D01*
X121379815Y-99835345D01*
X121346623Y-99869881D01*
X121160859Y-99999953D01*
X120999954Y-100160858D01*
X120869432Y-100347265D01*
X120869431Y-100347267D01*
X120773261Y-100553502D01*
X120773258Y-100553511D01*
X120714366Y-100773302D01*
X120714364Y-100773313D01*
X120694532Y-100999998D01*
X120694532Y-101000001D01*
X120714364Y-101226686D01*
X120714366Y-101226697D01*
X120773258Y-101446488D01*
X120773261Y-101446497D01*
X120869431Y-101652732D01*
X120869432Y-101652734D01*
X120999954Y-101839141D01*
X121160858Y-102000045D01*
X121160861Y-102000047D01*
X121347266Y-102130568D01*
X121553504Y-102226739D01*
X121773308Y-102285635D01*
X121935230Y-102299801D01*
X121999998Y-102305468D01*
X122000000Y-102305468D01*
X122000002Y-102305468D01*
X122056673Y-102300509D01*
X122226692Y-102285635D01*
X122446496Y-102226739D01*
X122652734Y-102130568D01*
X122839139Y-102000047D01*
X123000047Y-101839139D01*
X123130568Y-101652734D01*
X123226739Y-101446496D01*
X123285635Y-101226692D01*
X123305468Y-101000000D01*
X123285635Y-100773308D01*
X123238331Y-100596767D01*
X123226741Y-100553511D01*
X123226738Y-100553502D01*
X123201790Y-100500001D01*
X123130568Y-100347266D01*
X123000047Y-100160861D01*
X123000045Y-100160858D01*
X122839140Y-99999953D01*
X122653377Y-99869881D01*
X122609752Y-99815304D01*
X122600500Y-99768306D01*
X122600500Y-93724500D01*
X122620185Y-93657461D01*
X122672989Y-93611706D01*
X122724500Y-93600500D01*
X127625500Y-93600500D01*
X127692539Y-93620185D01*
X127738294Y-93672989D01*
X127749500Y-93724500D01*
X127749500Y-94842870D01*
X127749501Y-94842876D01*
X127755908Y-94902483D01*
X127806202Y-95037328D01*
X127806206Y-95037335D01*
X127892452Y-95152544D01*
X127892455Y-95152547D01*
X128007664Y-95238793D01*
X128007671Y-95238797D01*
X128052618Y-95255561D01*
X128142517Y-95289091D01*
X128202127Y-95295500D01*
X128275500Y-95295499D01*
X128342538Y-95315183D01*
X128388294Y-95367986D01*
X128399500Y-95419499D01*
X128399500Y-99768306D01*
X128379815Y-99835345D01*
X128346623Y-99869881D01*
X128160859Y-99999953D01*
X127999954Y-100160858D01*
X127869432Y-100347265D01*
X127869431Y-100347267D01*
X127773261Y-100553502D01*
X127773258Y-100553511D01*
X127714366Y-100773302D01*
X127714364Y-100773313D01*
X127694532Y-100999998D01*
X127694532Y-101000001D01*
X127714364Y-101226686D01*
X127714366Y-101226697D01*
X127773258Y-101446488D01*
X127773261Y-101446497D01*
X127869431Y-101652732D01*
X127869432Y-101652734D01*
X127999954Y-101839141D01*
X128160858Y-102000045D01*
X128160861Y-102000047D01*
X128347266Y-102130568D01*
X128553504Y-102226739D01*
X128773308Y-102285635D01*
X128935230Y-102299801D01*
X128999998Y-102305468D01*
X129000000Y-102305468D01*
X129000002Y-102305468D01*
X129056673Y-102300509D01*
X129226692Y-102285635D01*
X129446496Y-102226739D01*
X129652734Y-102130568D01*
X129839139Y-102000047D01*
X130000047Y-101839139D01*
X130130118Y-101653375D01*
X130184693Y-101609752D01*
X130231692Y-101600500D01*
X133744791Y-101600500D01*
X133811830Y-101620185D01*
X133832472Y-101636819D01*
X136708069Y-104512416D01*
X136741554Y-104573739D01*
X136744388Y-104600097D01*
X136744388Y-105847870D01*
X136744389Y-105847876D01*
X136750796Y-105907483D01*
X136801090Y-106042328D01*
X136801094Y-106042335D01*
X136887340Y-106157544D01*
X136887343Y-106157547D01*
X137002552Y-106243793D01*
X137002559Y-106243797D01*
X137055815Y-106263660D01*
X137137405Y-106294091D01*
X137137415Y-106294092D01*
X137142801Y-106295365D01*
X137203519Y-106329935D01*
X137235909Y-106391843D01*
X137229687Y-106461435D01*
X137201976Y-106503725D01*
X137044839Y-106660862D01*
X136914320Y-106847265D01*
X136914319Y-106847267D01*
X136818149Y-107053502D01*
X136818146Y-107053511D01*
X136759254Y-107273302D01*
X136759252Y-107273313D01*
X136739420Y-107499998D01*
X136739420Y-107500001D01*
X136759252Y-107726686D01*
X136759254Y-107726697D01*
X136785040Y-107822931D01*
X136783377Y-107892781D01*
X136752946Y-107942705D01*
X134172472Y-110523181D01*
X134111149Y-110556666D01*
X134084791Y-110559500D01*
X130231692Y-110559500D01*
X130164653Y-110539815D01*
X130130119Y-110506625D01*
X130000047Y-110320861D01*
X130000045Y-110320858D01*
X129839141Y-110159954D01*
X129652734Y-110029432D01*
X129652732Y-110029431D01*
X129446497Y-109933261D01*
X129446488Y-109933258D01*
X129226697Y-109874366D01*
X129226693Y-109874365D01*
X129226692Y-109874365D01*
X129226691Y-109874364D01*
X129226686Y-109874364D01*
X129000002Y-109854532D01*
X128999998Y-109854532D01*
X128773313Y-109874364D01*
X128773302Y-109874366D01*
X128553511Y-109933258D01*
X128553502Y-109933261D01*
X128347267Y-110029431D01*
X128347265Y-110029432D01*
X128160858Y-110159954D01*
X127999954Y-110320858D01*
X127923534Y-110430000D01*
X127869881Y-110506624D01*
X127815307Y-110550248D01*
X127768308Y-110559500D01*
X123231692Y-110559500D01*
X123164653Y-110539815D01*
X123130119Y-110506625D01*
X123000047Y-110320861D01*
X123000045Y-110320858D01*
X122839141Y-110159954D01*
X122652734Y-110029432D01*
X122652732Y-110029431D01*
X122446497Y-109933261D01*
X122446488Y-109933258D01*
X122226697Y-109874366D01*
X122226693Y-109874365D01*
X122226692Y-109874365D01*
X122226691Y-109874364D01*
X122226686Y-109874364D01*
X122000002Y-109854532D01*
X121999998Y-109854532D01*
X121773313Y-109874364D01*
X121773302Y-109874366D01*
X121553511Y-109933258D01*
X121553502Y-109933261D01*
X121347267Y-110029431D01*
X121347265Y-110029432D01*
X121160858Y-110159954D01*
X120999954Y-110320858D01*
X120923534Y-110430000D01*
X120869881Y-110506624D01*
X120815307Y-110550248D01*
X120768308Y-110559500D01*
X110308531Y-110559500D01*
X110241492Y-110539815D01*
X110196149Y-110487905D01*
X110170692Y-110433313D01*
X110130568Y-110347266D01*
X110000047Y-110160861D01*
X110000045Y-110160858D01*
X109839141Y-109999954D01*
X109652734Y-109869432D01*
X109652732Y-109869431D01*
X109446497Y-109773261D01*
X109446488Y-109773258D01*
X109226697Y-109714366D01*
X109226693Y-109714365D01*
X109226692Y-109714365D01*
X109226691Y-109714364D01*
X109226686Y-109714364D01*
X109000002Y-109694532D01*
X108999998Y-109694532D01*
X108773313Y-109714364D01*
X108773302Y-109714366D01*
X108677067Y-109740152D01*
X108607217Y-109738489D01*
X108557293Y-109708058D01*
X107136819Y-108287584D01*
X107103334Y-108226261D01*
X107100500Y-108199903D01*
X107100500Y-106000002D01*
X107695034Y-106000002D01*
X107714858Y-106226599D01*
X107714860Y-106226610D01*
X107773730Y-106446317D01*
X107773735Y-106446331D01*
X107869863Y-106652478D01*
X107920974Y-106725472D01*
X108602046Y-106044400D01*
X108614835Y-106125148D01*
X108672359Y-106238045D01*
X108761955Y-106327641D01*
X108874852Y-106385165D01*
X108955599Y-106397953D01*
X108274526Y-107079025D01*
X108347513Y-107130132D01*
X108347521Y-107130136D01*
X108553668Y-107226264D01*
X108553682Y-107226269D01*
X108773389Y-107285139D01*
X108773400Y-107285141D01*
X108999998Y-107304966D01*
X109000002Y-107304966D01*
X109226599Y-107285141D01*
X109226610Y-107285139D01*
X109446317Y-107226269D01*
X109446331Y-107226264D01*
X109652478Y-107130136D01*
X109725471Y-107079024D01*
X109044400Y-106397953D01*
X109125148Y-106385165D01*
X109238045Y-106327641D01*
X109327641Y-106238045D01*
X109385165Y-106125148D01*
X109397953Y-106044400D01*
X110079024Y-106725471D01*
X110130136Y-106652478D01*
X110226264Y-106446331D01*
X110226269Y-106446317D01*
X110285139Y-106226610D01*
X110285141Y-106226599D01*
X110304966Y-106000002D01*
X110304966Y-105999997D01*
X110285141Y-105773400D01*
X110285139Y-105773389D01*
X110226269Y-105553682D01*
X110226264Y-105553668D01*
X110130136Y-105347521D01*
X110130132Y-105347513D01*
X110079025Y-105274526D01*
X109397953Y-105955598D01*
X109385165Y-105874852D01*
X109327641Y-105761955D01*
X109238045Y-105672359D01*
X109125148Y-105614835D01*
X109044401Y-105602046D01*
X109725472Y-104920974D01*
X109652478Y-104869863D01*
X109446331Y-104773735D01*
X109446317Y-104773730D01*
X109226610Y-104714860D01*
X109226599Y-104714858D01*
X109000002Y-104695034D01*
X108999998Y-104695034D01*
X108773400Y-104714858D01*
X108773389Y-104714860D01*
X108553682Y-104773730D01*
X108553673Y-104773734D01*
X108347516Y-104869866D01*
X108347512Y-104869868D01*
X108274526Y-104920973D01*
X108274526Y-104920974D01*
X108955599Y-105602046D01*
X108874852Y-105614835D01*
X108761955Y-105672359D01*
X108672359Y-105761955D01*
X108614835Y-105874852D01*
X108602046Y-105955598D01*
X107920974Y-105274526D01*
X107920973Y-105274526D01*
X107869868Y-105347512D01*
X107869866Y-105347516D01*
X107773734Y-105553673D01*
X107773730Y-105553682D01*
X107714860Y-105773389D01*
X107714858Y-105773400D01*
X107695034Y-105999997D01*
X107695034Y-106000002D01*
X107100500Y-106000002D01*
X107100500Y-91800096D01*
X107120185Y-91733057D01*
X107136814Y-91712420D01*
X108355214Y-90494019D01*
X108416535Y-90460536D01*
X108486227Y-90465520D01*
X108490277Y-90467113D01*
X108519388Y-90479172D01*
X108756698Y-90536146D01*
X109000000Y-90555294D01*
X109243302Y-90536146D01*
X109480612Y-90479172D01*
X109706089Y-90385777D01*
X109914179Y-90258259D01*
X110099759Y-90099759D01*
X110258259Y-89914179D01*
X110385777Y-89706089D01*
X110479172Y-89480612D01*
X110536146Y-89243302D01*
X110555294Y-89000000D01*
X110536146Y-88756698D01*
X110479172Y-88519388D01*
X110462650Y-88479500D01*
X110385777Y-88293910D01*
X110258262Y-88085826D01*
X110258261Y-88085823D01*
X110222453Y-88043897D01*
X110099759Y-87900241D01*
X109956735Y-87778087D01*
X109942073Y-87755627D01*
X109171568Y-86985121D01*
X109288458Y-86934349D01*
X109405739Y-86838934D01*
X109492928Y-86715415D01*
X109523354Y-86629801D01*
X110261494Y-87367941D01*
X110261495Y-87367941D01*
X110385331Y-87165861D01*
X110478696Y-86940457D01*
X110535651Y-86703219D01*
X110554792Y-86460000D01*
X110535651Y-86216780D01*
X110478696Y-85979542D01*
X110385331Y-85754138D01*
X110261494Y-85552057D01*
X109525929Y-86287622D01*
X109523116Y-86274085D01*
X109453558Y-86139844D01*
X109350362Y-86029348D01*
X109221181Y-85950791D01*
X109169996Y-85936449D01*
X109908659Y-85197786D01*
X109908659Y-85182211D01*
X109171569Y-84445121D01*
X109288458Y-84394349D01*
X109405739Y-84298934D01*
X109492928Y-84175415D01*
X109523354Y-84089801D01*
X110261494Y-84827941D01*
X110261495Y-84827941D01*
X110385331Y-84625861D01*
X110478696Y-84400457D01*
X110535651Y-84163219D01*
X110554792Y-83920000D01*
X110535651Y-83676780D01*
X110478696Y-83439542D01*
X110385331Y-83214138D01*
X110272149Y-83029442D01*
X110253904Y-82961996D01*
X110275020Y-82895394D01*
X110303560Y-82865389D01*
X110407546Y-82787546D01*
X110493796Y-82672331D01*
X110544091Y-82537483D01*
X110550500Y-82477873D01*
X110550499Y-80282128D01*
X110544091Y-80222517D01*
X110540146Y-80211941D01*
X110493797Y-80087671D01*
X110493795Y-80087668D01*
X110463047Y-80046594D01*
X110438629Y-79981130D01*
X110453480Y-79912856D01*
X110474629Y-79884604D01*
X111319231Y-79040002D01*
X114165034Y-79040002D01*
X114184858Y-79266599D01*
X114184860Y-79266610D01*
X114243730Y-79486317D01*
X114243735Y-79486331D01*
X114339863Y-79692478D01*
X114390974Y-79765472D01*
X115072046Y-79084400D01*
X115084835Y-79165148D01*
X115142359Y-79278045D01*
X115231955Y-79367641D01*
X115344852Y-79425165D01*
X115425599Y-79437953D01*
X114744526Y-80119025D01*
X114817513Y-80170132D01*
X114817521Y-80170136D01*
X115023668Y-80266264D01*
X115023682Y-80266269D01*
X115243389Y-80325139D01*
X115243400Y-80325141D01*
X115469998Y-80344966D01*
X115470002Y-80344966D01*
X115696599Y-80325141D01*
X115696610Y-80325139D01*
X115916317Y-80266269D01*
X115916331Y-80266264D01*
X116122478Y-80170136D01*
X116195471Y-80119024D01*
X115514400Y-79437953D01*
X115595148Y-79425165D01*
X115708045Y-79367641D01*
X115797641Y-79278045D01*
X115855165Y-79165148D01*
X115867953Y-79084400D01*
X116549024Y-79765471D01*
X116600136Y-79692478D01*
X116696264Y-79486331D01*
X116696269Y-79486317D01*
X116755139Y-79266610D01*
X116755141Y-79266599D01*
X116774966Y-79040002D01*
X116774966Y-79039997D01*
X116755141Y-78813400D01*
X116755139Y-78813389D01*
X116696269Y-78593682D01*
X116696264Y-78593668D01*
X116600136Y-78387521D01*
X116600132Y-78387513D01*
X116549025Y-78314526D01*
X115867953Y-78995598D01*
X115855165Y-78914852D01*
X115797641Y-78801955D01*
X115708045Y-78712359D01*
X115595148Y-78654835D01*
X115514401Y-78642046D01*
X116195472Y-77960974D01*
X116122478Y-77909863D01*
X115916331Y-77813735D01*
X115916317Y-77813730D01*
X115696610Y-77754860D01*
X115696599Y-77754858D01*
X115470002Y-77735034D01*
X115469998Y-77735034D01*
X115243400Y-77754858D01*
X115243389Y-77754860D01*
X115023682Y-77813730D01*
X115023673Y-77813734D01*
X114817516Y-77909866D01*
X114817512Y-77909868D01*
X114744526Y-77960973D01*
X114744526Y-77960974D01*
X115425599Y-78642046D01*
X115344852Y-78654835D01*
X115231955Y-78712359D01*
X115142359Y-78801955D01*
X115084835Y-78914852D01*
X115072046Y-78995598D01*
X114390974Y-78314526D01*
X114390973Y-78314526D01*
X114339868Y-78387512D01*
X114339866Y-78387516D01*
X114243734Y-78593673D01*
X114243730Y-78593682D01*
X114184860Y-78813389D01*
X114184858Y-78813400D01*
X114165034Y-79039997D01*
X114165034Y-79040002D01*
X111319231Y-79040002D01*
X115027294Y-75331939D01*
X115088615Y-75298456D01*
X115147066Y-75299847D01*
X115166604Y-75305082D01*
X115243308Y-75325635D01*
X115405230Y-75339801D01*
X115469998Y-75345468D01*
X115470000Y-75345468D01*
X115470002Y-75345468D01*
X115526673Y-75340509D01*
X115696692Y-75325635D01*
X115916496Y-75266739D01*
X116122734Y-75170568D01*
X116309139Y-75040047D01*
X116470047Y-74879139D01*
X116600118Y-74693375D01*
X116654693Y-74649752D01*
X116701692Y-74640500D01*
X120728308Y-74640500D01*
X120795347Y-74660185D01*
X120829880Y-74693374D01*
X120890039Y-74779290D01*
X120959954Y-74879141D01*
X121120858Y-75040045D01*
X121120861Y-75040047D01*
X121307266Y-75170568D01*
X121513504Y-75266739D01*
X121733308Y-75325635D01*
X121895230Y-75339801D01*
X121959998Y-75345468D01*
X121960000Y-75345468D01*
X121960002Y-75345468D01*
X122016673Y-75340509D01*
X122186692Y-75325635D01*
X122406496Y-75266739D01*
X122612734Y-75170568D01*
X122799139Y-75040047D01*
X122960047Y-74879139D01*
X123090118Y-74693375D01*
X123144693Y-74649752D01*
X123191692Y-74640500D01*
X127783317Y-74640500D01*
X127850356Y-74660185D01*
X127884892Y-74693377D01*
X127979954Y-74829141D01*
X128140858Y-74990045D01*
X128140861Y-74990047D01*
X128327266Y-75120568D01*
X128533504Y-75216739D01*
X128753308Y-75275635D01*
X128915230Y-75289801D01*
X128979998Y-75295468D01*
X128980000Y-75295468D01*
X128980002Y-75295468D01*
X129036673Y-75290509D01*
X129206692Y-75275635D01*
X129426496Y-75216739D01*
X129632734Y-75120568D01*
X129819139Y-74990047D01*
X129980047Y-74829139D01*
X130110118Y-74643375D01*
X130164693Y-74599752D01*
X130211692Y-74590500D01*
X144546861Y-74590500D01*
X144613900Y-74610185D01*
X144659655Y-74662989D01*
X144669599Y-74732147D01*
X144652588Y-74779290D01*
X144559533Y-74931140D01*
X144463126Y-75163889D01*
X144404317Y-75408848D01*
X144384551Y-75660000D01*
X144404317Y-75911151D01*
X144463126Y-76156110D01*
X144559533Y-76388859D01*
X144691160Y-76603653D01*
X144691161Y-76603656D01*
X144746604Y-76668571D01*
X144854776Y-76795224D01*
X145003066Y-76921875D01*
X145046343Y-76958838D01*
X145046345Y-76958838D01*
X145261141Y-77090466D01*
X145312953Y-77111927D01*
X145367355Y-77155765D01*
X145389421Y-77222059D01*
X145389500Y-77226487D01*
X145389500Y-79692512D01*
X145388438Y-79708697D01*
X145384318Y-79740000D01*
X145387671Y-79765472D01*
X145389500Y-79779360D01*
X145389500Y-79779361D01*
X145404955Y-79896760D01*
X145404956Y-79896762D01*
X145465464Y-80042841D01*
X145561718Y-80168282D01*
X145561719Y-80168283D01*
X145586769Y-80187504D01*
X145598964Y-80198199D01*
X151321799Y-85921034D01*
X151332493Y-85933228D01*
X151351718Y-85958282D01*
X151439884Y-86025934D01*
X151477159Y-86054536D01*
X151602481Y-86106446D01*
X151623238Y-86115044D01*
X151779999Y-86135683D01*
X151780000Y-86135683D01*
X151780001Y-86135683D01*
X151811308Y-86131561D01*
X151827494Y-86130500D01*
X158178308Y-86130500D01*
X158245347Y-86150185D01*
X158279880Y-86183374D01*
X158343396Y-86274085D01*
X158409954Y-86369141D01*
X158570858Y-86530045D01*
X158570861Y-86530047D01*
X158757266Y-86660568D01*
X158963504Y-86756739D01*
X159183308Y-86815635D01*
X159345230Y-86829801D01*
X159409998Y-86835468D01*
X159410000Y-86835468D01*
X159410002Y-86835468D01*
X159466673Y-86830509D01*
X159636692Y-86815635D01*
X159856496Y-86756739D01*
X160062734Y-86660568D01*
X160249139Y-86530047D01*
X160410047Y-86369139D01*
X160540568Y-86182734D01*
X160636739Y-85976496D01*
X160695635Y-85756692D01*
X160715468Y-85530000D01*
X160695635Y-85303308D01*
X160669847Y-85207066D01*
X160671510Y-85137217D01*
X160701939Y-85087294D01*
X163152416Y-82636819D01*
X163213739Y-82603334D01*
X163240097Y-82600500D01*
X164985500Y-82600500D01*
X165052539Y-82620185D01*
X165098294Y-82672989D01*
X165109500Y-82724500D01*
X165109500Y-83842870D01*
X165109501Y-83842876D01*
X165115908Y-83902483D01*
X165166202Y-84037328D01*
X165166206Y-84037335D01*
X165252452Y-84152544D01*
X165252455Y-84152547D01*
X165367664Y-84238793D01*
X165367671Y-84238797D01*
X165502517Y-84289091D01*
X165502516Y-84289091D01*
X165509444Y-84289835D01*
X165562127Y-84295500D01*
X167157872Y-84295499D01*
X167217483Y-84289091D01*
X167352331Y-84238796D01*
X167467546Y-84152546D01*
X167553796Y-84037331D01*
X167577675Y-83973308D01*
X167585934Y-83951166D01*
X167627806Y-83895233D01*
X167693270Y-83870816D01*
X167702116Y-83870500D01*
X168102513Y-83870500D01*
X168118697Y-83871560D01*
X168150000Y-83875682D01*
X168150001Y-83875682D01*
X168202254Y-83868802D01*
X168306762Y-83855044D01*
X168452841Y-83794536D01*
X168521675Y-83741718D01*
X168578282Y-83698282D01*
X168597509Y-83673223D01*
X168608190Y-83661043D01*
X172057294Y-80211939D01*
X172118615Y-80178456D01*
X172177066Y-80179847D01*
X172196604Y-80185082D01*
X172273308Y-80205635D01*
X172435230Y-80219801D01*
X172499998Y-80225468D01*
X172500000Y-80225468D01*
X172500002Y-80225468D01*
X172556673Y-80220509D01*
X172726692Y-80205635D01*
X172946496Y-80146739D01*
X173152734Y-80050568D01*
X173339139Y-79920047D01*
X173500047Y-79759139D01*
X173630568Y-79572734D01*
X173726739Y-79366496D01*
X173785635Y-79146692D01*
X173805468Y-78920000D01*
X173785635Y-78693308D01*
X173726739Y-78473504D01*
X173630568Y-78267266D01*
X173500047Y-78080861D01*
X173500045Y-78080858D01*
X173339141Y-77919954D01*
X173152734Y-77789432D01*
X173152732Y-77789431D01*
X172946497Y-77693261D01*
X172946488Y-77693258D01*
X172726697Y-77634366D01*
X172726693Y-77634365D01*
X172726692Y-77634365D01*
X172726691Y-77634364D01*
X172726686Y-77634364D01*
X172500002Y-77614532D01*
X172499998Y-77614532D01*
X172273313Y-77634364D01*
X172273302Y-77634366D01*
X172053511Y-77693258D01*
X172053502Y-77693261D01*
X171847267Y-77789431D01*
X171847265Y-77789432D01*
X171660858Y-77919954D01*
X171499954Y-78080858D01*
X171369432Y-78267265D01*
X171369431Y-78267267D01*
X171273261Y-78473502D01*
X171273258Y-78473511D01*
X171214366Y-78693302D01*
X171214364Y-78693313D01*
X171194532Y-78919998D01*
X171194532Y-78920001D01*
X171214364Y-79146686D01*
X171214366Y-79146697D01*
X171240152Y-79242931D01*
X171238489Y-79312781D01*
X171208058Y-79362705D01*
X167937584Y-82633181D01*
X167876261Y-82666666D01*
X167849903Y-82669500D01*
X167702115Y-82669500D01*
X167635076Y-82649815D01*
X167589321Y-82597011D01*
X167585933Y-82588833D01*
X167553797Y-82502671D01*
X167549546Y-82494886D01*
X167551621Y-82493752D01*
X167531671Y-82440274D01*
X167536694Y-82395423D01*
X167537021Y-82394344D01*
X167537023Y-82394341D01*
X167595662Y-82201033D01*
X167615462Y-82000000D01*
X167595662Y-81798967D01*
X167537023Y-81605659D01*
X167441798Y-81427506D01*
X167441794Y-81427502D01*
X167439631Y-81423454D01*
X167425389Y-81355051D01*
X167439631Y-81306546D01*
X167441794Y-81302498D01*
X167441798Y-81302494D01*
X167537023Y-81124341D01*
X167595662Y-80931033D01*
X167615462Y-80730000D01*
X167595662Y-80528967D01*
X167537023Y-80335659D01*
X167537021Y-80335656D01*
X167537021Y-80335654D01*
X167441801Y-80157511D01*
X167441799Y-80157509D01*
X167441798Y-80157506D01*
X167384486Y-80087671D01*
X167313647Y-80001352D01*
X167157495Y-79873203D01*
X167157488Y-79873197D01*
X167023366Y-79801508D01*
X166973521Y-79752546D01*
X166958880Y-79708335D01*
X166956792Y-79692478D01*
X166945044Y-79603238D01*
X166884536Y-79457159D01*
X166788282Y-79331718D01*
X166788280Y-79331716D01*
X166788279Y-79331715D01*
X166763228Y-79312493D01*
X166751034Y-79301799D01*
X161008199Y-73558964D01*
X160997504Y-73546769D01*
X160978283Y-73521719D01*
X160978282Y-73521718D01*
X160852841Y-73425464D01*
X160839203Y-73419815D01*
X160706762Y-73364956D01*
X160706760Y-73364955D01*
X160589361Y-73349500D01*
X160550000Y-73344318D01*
X160518697Y-73348439D01*
X160502513Y-73349500D01*
X153701692Y-73349500D01*
X153634653Y-73329815D01*
X153600119Y-73296625D01*
X153470047Y-73110861D01*
X153470045Y-73110858D01*
X153309141Y-72949954D01*
X153122734Y-72819432D01*
X153122732Y-72819431D01*
X152916497Y-72723261D01*
X152916488Y-72723258D01*
X152696697Y-72664366D01*
X152696693Y-72664365D01*
X152696692Y-72664365D01*
X152696691Y-72664364D01*
X152696686Y-72664364D01*
X152470002Y-72644532D01*
X152469998Y-72644532D01*
X152243313Y-72664364D01*
X152243302Y-72664366D01*
X152023511Y-72723258D01*
X152023502Y-72723261D01*
X151817267Y-72819431D01*
X151817265Y-72819432D01*
X151630858Y-72949954D01*
X151469954Y-73110858D01*
X151339432Y-73297265D01*
X151339432Y-73297266D01*
X151329807Y-73317905D01*
X151283637Y-73370343D01*
X151217426Y-73389500D01*
X130211692Y-73389500D01*
X130144653Y-73369815D01*
X130110119Y-73336625D01*
X129980047Y-73150861D01*
X129980045Y-73150858D01*
X129819141Y-72989954D01*
X129632734Y-72859432D01*
X129632732Y-72859431D01*
X129426497Y-72763261D01*
X129426488Y-72763258D01*
X129206697Y-72704366D01*
X129206693Y-72704365D01*
X129206692Y-72704365D01*
X129206691Y-72704364D01*
X129206686Y-72704364D01*
X128980002Y-72684532D01*
X128979998Y-72684532D01*
X128753313Y-72704364D01*
X128753302Y-72704366D01*
X128533511Y-72763258D01*
X128533502Y-72763261D01*
X128327267Y-72859431D01*
X128327265Y-72859432D01*
X128140858Y-72989954D01*
X127979954Y-73150858D01*
X127849432Y-73337265D01*
X127844501Y-73347840D01*
X127835144Y-73367906D01*
X127788974Y-73420343D01*
X127722763Y-73439500D01*
X123191692Y-73439500D01*
X123124653Y-73419815D01*
X123090119Y-73386625D01*
X122960047Y-73200861D01*
X122960045Y-73200858D01*
X122799141Y-73039954D01*
X122612734Y-72909432D01*
X122612732Y-72909431D01*
X122406497Y-72813261D01*
X122406488Y-72813258D01*
X122186697Y-72754366D01*
X122186693Y-72754365D01*
X122186692Y-72754365D01*
X122186691Y-72754364D01*
X122186686Y-72754364D01*
X121960002Y-72734532D01*
X121959998Y-72734532D01*
X121733313Y-72754364D01*
X121733302Y-72754366D01*
X121513511Y-72813258D01*
X121513502Y-72813261D01*
X121307267Y-72909431D01*
X121307265Y-72909432D01*
X121120858Y-73039954D01*
X120959954Y-73200858D01*
X120892900Y-73296623D01*
X120829881Y-73386624D01*
X120775307Y-73430248D01*
X120728308Y-73439500D01*
X116701692Y-73439500D01*
X116634653Y-73419815D01*
X116600119Y-73386625D01*
X116470047Y-73200861D01*
X116470045Y-73200858D01*
X116309141Y-73039954D01*
X116122734Y-72909432D01*
X116122732Y-72909431D01*
X115916497Y-72813261D01*
X115916488Y-72813258D01*
X115696697Y-72754366D01*
X115696693Y-72754365D01*
X115696692Y-72754365D01*
X115696691Y-72754364D01*
X115696686Y-72754364D01*
X115470002Y-72734532D01*
X115469998Y-72734532D01*
X115243313Y-72754364D01*
X115243302Y-72754366D01*
X115023511Y-72813258D01*
X115023502Y-72813261D01*
X114817267Y-72909431D01*
X114817265Y-72909432D01*
X114630858Y-73039954D01*
X114469954Y-73200858D01*
X114339432Y-73387265D01*
X114339431Y-73387267D01*
X114243261Y-73593502D01*
X114243258Y-73593511D01*
X114184366Y-73813302D01*
X114184364Y-73813313D01*
X114164532Y-74039998D01*
X114164532Y-74040001D01*
X114184364Y-74266686D01*
X114184366Y-74266697D01*
X114210152Y-74362931D01*
X114208489Y-74432781D01*
X114178058Y-74482705D01*
X108867582Y-79793181D01*
X108806259Y-79826666D01*
X108779901Y-79829500D01*
X107902129Y-79829500D01*
X107902123Y-79829501D01*
X107842516Y-79835908D01*
X107707671Y-79886202D01*
X107707664Y-79886206D01*
X107592455Y-79972452D01*
X107592452Y-79972455D01*
X107506206Y-80087664D01*
X107506202Y-80087671D01*
X107455908Y-80222517D01*
X107451205Y-80266269D01*
X107449501Y-80282123D01*
X107449500Y-80282135D01*
X107449500Y-82477870D01*
X107449501Y-82477876D01*
X107455908Y-82537483D01*
X107506202Y-82672328D01*
X107506206Y-82672335D01*
X107575358Y-82764709D01*
X107592454Y-82787546D01*
X107696434Y-82865386D01*
X107738305Y-82921319D01*
X107743289Y-82991011D01*
X107727851Y-83029441D01*
X107614667Y-83214140D01*
X107521303Y-83439542D01*
X107464348Y-83676780D01*
X107445207Y-83920000D01*
X107464348Y-84163219D01*
X107521303Y-84400457D01*
X107614668Y-84625861D01*
X107738504Y-84827941D01*
X108474070Y-84092374D01*
X108476884Y-84105915D01*
X108546442Y-84240156D01*
X108649638Y-84350652D01*
X108778819Y-84429209D01*
X108830002Y-84443549D01*
X108091339Y-85182212D01*
X108091339Y-85197785D01*
X108828432Y-85934878D01*
X108711542Y-85985651D01*
X108594261Y-86081066D01*
X108507072Y-86204585D01*
X108476645Y-86290198D01*
X107738504Y-85552057D01*
X107614668Y-85754138D01*
X107521303Y-85979542D01*
X107464348Y-86216780D01*
X107445207Y-86460000D01*
X107464348Y-86703219D01*
X107521303Y-86940457D01*
X107614668Y-87165861D01*
X107738504Y-87367941D01*
X108474070Y-86632375D01*
X108476884Y-86645915D01*
X108546442Y-86780156D01*
X108649638Y-86890652D01*
X108778819Y-86969209D01*
X108830002Y-86983550D01*
X108069973Y-87743579D01*
X108043263Y-87778088D01*
X107900241Y-87900241D01*
X107741738Y-88085823D01*
X107741737Y-88085826D01*
X107614222Y-88293910D01*
X107520830Y-88519380D01*
X107463853Y-88756702D01*
X107444706Y-89000000D01*
X107463853Y-89243297D01*
X107463853Y-89243300D01*
X107463854Y-89243302D01*
X107479073Y-89306692D01*
X107520829Y-89480616D01*
X107532857Y-89509653D01*
X107540326Y-89579122D01*
X107509051Y-89641601D01*
X107505977Y-89644786D01*
X106108965Y-91041798D01*
X106096775Y-91052489D01*
X106071720Y-91071715D01*
X106071718Y-91071718D01*
X106030867Y-91124956D01*
X106030866Y-91124956D01*
X105975464Y-91197157D01*
X105914956Y-91343237D01*
X105914955Y-91343239D01*
X105894318Y-91499998D01*
X105894318Y-91499999D01*
X105898439Y-91531301D01*
X105899500Y-91547487D01*
X105899500Y-108452512D01*
X105898439Y-108468697D01*
X105894318Y-108499998D01*
X105894318Y-108500000D01*
X103000500Y-108500000D01*
X103000500Y-72124500D01*
X103020185Y-72057461D01*
X103072989Y-72011706D01*
X103124500Y-72000500D01*
X184375500Y-72000500D01*
X184442539Y-72020185D01*
G37*
%TD.AperFunction*%
%TD*%
M02*
