M48
; DRILL file {KiCad 7.0.11-7.0.11~ubuntu20.04.1} date Thu 02 May 2024 01:22:58 PM EDT
; FORMAT={-:-/ absolute / inch / decimal}
; #@! TF.CreationDate,2024-05-02T13:22:58-04:00
; #@! TF.GenerationSoftware,Kicad,Pcbnew,7.0.11-7.0.11~ubuntu20.04.1
; #@! TF.FileFunction,Plated,1,2,PTH
FMAT,2
INCH
; #@! TA.AperFunction,Plated,PTH,ComponentDrill
T1C0.0295
; #@! TA.AperFunction,Plated,PTH,ComponentDrill
T2C0.0315
; #@! TA.AperFunction,Plated,PTH,ComponentDrill
T3C0.0433
%
G90
G05
T1
X5.0787Y-3.6114
X5.0787Y-3.6614
X5.0787Y-3.7114
X6.5157Y-4.1823
X6.5157Y-4.2323
X6.5157Y-4.2823
X6.5496Y-3.1783
X6.5496Y-3.2283
X6.5496Y-3.2783
T2
X4.2913Y-4.1732
X4.2913Y-4.3701
X4.5461Y-2.915
X4.5461Y-3.1118
X4.549Y-3.6614
X4.6278Y-3.6614
X4.8016Y-2.915
X4.8016Y-3.315
X4.8031Y-3.9764
X4.8031Y-4.3764
X5.078Y-2.913
X5.078Y-3.313
X5.0787Y-3.9764
X5.0787Y-4.3764
X5.3955Y-3.6614
X5.4348Y-4.1339
X5.4348Y-4.2323
X5.4742Y-3.6614
X5.9646Y-3.6614
X6.0028Y-2.9114
X6.0028Y-3.3114
X6.0039Y-3.9535
X6.0039Y-4.3535
X6.1614Y-3.6614
X6.276Y-2.9673
X6.276Y-3.3673
X6.2795Y-3.9567
X6.2795Y-4.3567
X6.7913Y-3.1071
X6.7913Y-3.5071
X6.7917Y-3.661
X6.7917Y-4.061
X7.0472Y-3.5827
X7.0472Y-3.9827
T3
X4.2913Y-3.2039
X4.2913Y-3.3039
X4.2913Y-3.4039
X4.2913Y-3.5039
X4.2913Y-3.8173
X4.2913Y-3.9173
X5.7476Y-2.9787
X5.7476Y-3.3787
X5.748Y-3.9535
X5.748Y-4.3535
X7.0331Y-4.2476
X7.0331Y-4.3476
M30
