%TF.GenerationSoftware,KiCad,Pcbnew,7.0.11-7.0.11~ubuntu20.04.1*%
%TF.CreationDate,2024-05-02T13:22:55-04:00*%
%TF.ProjectId,AudioAmpEELv2,41756469-6f41-46d7-9045-454c76322e6b,rev?*%
%TF.SameCoordinates,Original*%
%TF.FileFunction,Legend,Bot*%
%TF.FilePolarity,Positive*%
%FSLAX46Y46*%
G04 Gerber Fmt 4.6, Leading zero omitted, Abs format (unit mm)*
G04 Created by KiCad (PCBNEW 7.0.11-7.0.11~ubuntu20.04.1) date 2024-05-02 13:22:55*
%MOMM*%
%LPD*%
G01*
G04 APERTURE LIST*
%ADD10C,0.100000*%
G04 APERTURE END LIST*
D10*
X182910401Y-72872419D02*
X182910401Y-73586704D01*
X182910401Y-73586704D02*
X182958020Y-73729561D01*
X182958020Y-73729561D02*
X183053258Y-73824800D01*
X183053258Y-73824800D02*
X183196115Y-73872419D01*
X183196115Y-73872419D02*
X183291353Y-73872419D01*
X182291353Y-73872419D02*
X182386591Y-73824800D01*
X182386591Y-73824800D02*
X182434210Y-73777180D01*
X182434210Y-73777180D02*
X182481829Y-73681942D01*
X182481829Y-73681942D02*
X182481829Y-73396228D01*
X182481829Y-73396228D02*
X182434210Y-73300990D01*
X182434210Y-73300990D02*
X182386591Y-73253371D01*
X182386591Y-73253371D02*
X182291353Y-73205752D01*
X182291353Y-73205752D02*
X182148496Y-73205752D01*
X182148496Y-73205752D02*
X182053258Y-73253371D01*
X182053258Y-73253371D02*
X182005639Y-73300990D01*
X182005639Y-73300990D02*
X181958020Y-73396228D01*
X181958020Y-73396228D02*
X181958020Y-73681942D01*
X181958020Y-73681942D02*
X182005639Y-73777180D01*
X182005639Y-73777180D02*
X182053258Y-73824800D01*
X182053258Y-73824800D02*
X182148496Y-73872419D01*
X182148496Y-73872419D02*
X182291353Y-73872419D01*
X181148496Y-73824800D02*
X181243734Y-73872419D01*
X181243734Y-73872419D02*
X181434210Y-73872419D01*
X181434210Y-73872419D02*
X181529448Y-73824800D01*
X181529448Y-73824800D02*
X181577067Y-73729561D01*
X181577067Y-73729561D02*
X181577067Y-73348609D01*
X181577067Y-73348609D02*
X181529448Y-73253371D01*
X181529448Y-73253371D02*
X181434210Y-73205752D01*
X181434210Y-73205752D02*
X181243734Y-73205752D01*
X181243734Y-73205752D02*
X181148496Y-73253371D01*
X181148496Y-73253371D02*
X181100877Y-73348609D01*
X181100877Y-73348609D02*
X181100877Y-73443847D01*
X181100877Y-73443847D02*
X181577067Y-73539085D01*
X180529448Y-73872419D02*
X180624686Y-73824800D01*
X180624686Y-73824800D02*
X180672305Y-73729561D01*
X180672305Y-73729561D02*
X180672305Y-72872419D01*
X179053257Y-73348609D02*
X178910400Y-73396228D01*
X178910400Y-73396228D02*
X178862781Y-73443847D01*
X178862781Y-73443847D02*
X178815162Y-73539085D01*
X178815162Y-73539085D02*
X178815162Y-73681942D01*
X178815162Y-73681942D02*
X178862781Y-73777180D01*
X178862781Y-73777180D02*
X178910400Y-73824800D01*
X178910400Y-73824800D02*
X179005638Y-73872419D01*
X179005638Y-73872419D02*
X179386590Y-73872419D01*
X179386590Y-73872419D02*
X179386590Y-72872419D01*
X179386590Y-72872419D02*
X179053257Y-72872419D01*
X179053257Y-72872419D02*
X178958019Y-72920038D01*
X178958019Y-72920038D02*
X178910400Y-72967657D01*
X178910400Y-72967657D02*
X178862781Y-73062895D01*
X178862781Y-73062895D02*
X178862781Y-73158133D01*
X178862781Y-73158133D02*
X178910400Y-73253371D01*
X178910400Y-73253371D02*
X178958019Y-73300990D01*
X178958019Y-73300990D02*
X179053257Y-73348609D01*
X179053257Y-73348609D02*
X179386590Y-73348609D01*
X178386590Y-73872419D02*
X178386590Y-73205752D01*
X178386590Y-73396228D02*
X178338971Y-73300990D01*
X178338971Y-73300990D02*
X178291352Y-73253371D01*
X178291352Y-73253371D02*
X178196114Y-73205752D01*
X178196114Y-73205752D02*
X178100876Y-73205752D01*
X177767542Y-73872419D02*
X177767542Y-73205752D01*
X177767542Y-72872419D02*
X177815161Y-72920038D01*
X177815161Y-72920038D02*
X177767542Y-72967657D01*
X177767542Y-72967657D02*
X177719923Y-72920038D01*
X177719923Y-72920038D02*
X177767542Y-72872419D01*
X177767542Y-72872419D02*
X177767542Y-72967657D01*
X176862781Y-73205752D02*
X176862781Y-74015276D01*
X176862781Y-74015276D02*
X176910400Y-74110514D01*
X176910400Y-74110514D02*
X176958019Y-74158133D01*
X176958019Y-74158133D02*
X177053257Y-74205752D01*
X177053257Y-74205752D02*
X177196114Y-74205752D01*
X177196114Y-74205752D02*
X177291352Y-74158133D01*
X176862781Y-73824800D02*
X176958019Y-73872419D01*
X176958019Y-73872419D02*
X177148495Y-73872419D01*
X177148495Y-73872419D02*
X177243733Y-73824800D01*
X177243733Y-73824800D02*
X177291352Y-73777180D01*
X177291352Y-73777180D02*
X177338971Y-73681942D01*
X177338971Y-73681942D02*
X177338971Y-73396228D01*
X177338971Y-73396228D02*
X177291352Y-73300990D01*
X177291352Y-73300990D02*
X177243733Y-73253371D01*
X177243733Y-73253371D02*
X177148495Y-73205752D01*
X177148495Y-73205752D02*
X176958019Y-73205752D01*
X176958019Y-73205752D02*
X176862781Y-73253371D01*
X176386590Y-73872419D02*
X176386590Y-73205752D01*
X176386590Y-72872419D02*
X176434209Y-72920038D01*
X176434209Y-72920038D02*
X176386590Y-72967657D01*
X176386590Y-72967657D02*
X176338971Y-72920038D01*
X176338971Y-72920038D02*
X176386590Y-72872419D01*
X176386590Y-72872419D02*
X176386590Y-72967657D01*
X175481829Y-73872419D02*
X175481829Y-72872419D01*
X175481829Y-73824800D02*
X175577067Y-73872419D01*
X175577067Y-73872419D02*
X175767543Y-73872419D01*
X175767543Y-73872419D02*
X175862781Y-73824800D01*
X175862781Y-73824800D02*
X175910400Y-73777180D01*
X175910400Y-73777180D02*
X175958019Y-73681942D01*
X175958019Y-73681942D02*
X175958019Y-73396228D01*
X175958019Y-73396228D02*
X175910400Y-73300990D01*
X175910400Y-73300990D02*
X175862781Y-73253371D01*
X175862781Y-73253371D02*
X175767543Y-73205752D01*
X175767543Y-73205752D02*
X175577067Y-73205752D01*
X175577067Y-73205752D02*
X175481829Y-73253371D01*
X174577067Y-73872419D02*
X174577067Y-73348609D01*
X174577067Y-73348609D02*
X174624686Y-73253371D01*
X174624686Y-73253371D02*
X174719924Y-73205752D01*
X174719924Y-73205752D02*
X174910400Y-73205752D01*
X174910400Y-73205752D02*
X175005638Y-73253371D01*
X174577067Y-73824800D02*
X174672305Y-73872419D01*
X174672305Y-73872419D02*
X174910400Y-73872419D01*
X174910400Y-73872419D02*
X175005638Y-73824800D01*
X175005638Y-73824800D02*
X175053257Y-73729561D01*
X175053257Y-73729561D02*
X175053257Y-73634323D01*
X175053257Y-73634323D02*
X175005638Y-73539085D01*
X175005638Y-73539085D02*
X174910400Y-73491466D01*
X174910400Y-73491466D02*
X174672305Y-73491466D01*
X174672305Y-73491466D02*
X174577067Y-73443847D01*
X174100876Y-73777180D02*
X174053257Y-73824800D01*
X174053257Y-73824800D02*
X174100876Y-73872419D01*
X174100876Y-73872419D02*
X174148495Y-73824800D01*
X174148495Y-73824800D02*
X174100876Y-73777180D01*
X174100876Y-73777180D02*
X174100876Y-73872419D01*
X174100876Y-73253371D02*
X174053257Y-73300990D01*
X174053257Y-73300990D02*
X174100876Y-73348609D01*
X174100876Y-73348609D02*
X174148495Y-73300990D01*
X174148495Y-73300990D02*
X174100876Y-73253371D01*
X174100876Y-73253371D02*
X174100876Y-73348609D01*
X172862781Y-73348609D02*
X172529448Y-73348609D01*
X172386591Y-73872419D02*
X172862781Y-73872419D01*
X172862781Y-73872419D02*
X172862781Y-72872419D01*
X172862781Y-72872419D02*
X172386591Y-72872419D01*
X171958019Y-73348609D02*
X171624686Y-73348609D01*
X171481829Y-73872419D02*
X171958019Y-73872419D01*
X171958019Y-73872419D02*
X171958019Y-72872419D01*
X171958019Y-72872419D02*
X171481829Y-72872419D01*
X170577067Y-73872419D02*
X171053257Y-73872419D01*
X171053257Y-73872419D02*
X171053257Y-72872419D01*
X170243733Y-73491466D02*
X169481829Y-73491466D01*
X169100876Y-72872419D02*
X168481829Y-72872419D01*
X168481829Y-72872419D02*
X168815162Y-73253371D01*
X168815162Y-73253371D02*
X168672305Y-73253371D01*
X168672305Y-73253371D02*
X168577067Y-73300990D01*
X168577067Y-73300990D02*
X168529448Y-73348609D01*
X168529448Y-73348609D02*
X168481829Y-73443847D01*
X168481829Y-73443847D02*
X168481829Y-73681942D01*
X168481829Y-73681942D02*
X168529448Y-73777180D01*
X168529448Y-73777180D02*
X168577067Y-73824800D01*
X168577067Y-73824800D02*
X168672305Y-73872419D01*
X168672305Y-73872419D02*
X168958019Y-73872419D01*
X168958019Y-73872419D02*
X169053257Y-73824800D01*
X169053257Y-73824800D02*
X169100876Y-73777180D01*
X167529448Y-73872419D02*
X168100876Y-73872419D01*
X167815162Y-73872419D02*
X167815162Y-72872419D01*
X167815162Y-72872419D02*
X167910400Y-73015276D01*
X167910400Y-73015276D02*
X168005638Y-73110514D01*
X168005638Y-73110514D02*
X168100876Y-73158133D01*
X166577067Y-73872419D02*
X167148495Y-73872419D01*
X166862781Y-73872419D02*
X166862781Y-72872419D01*
X166862781Y-72872419D02*
X166958019Y-73015276D01*
X166958019Y-73015276D02*
X167053257Y-73110514D01*
X167053257Y-73110514D02*
X167148495Y-73158133D01*
X166005638Y-73300990D02*
X166100876Y-73253371D01*
X166100876Y-73253371D02*
X166148495Y-73205752D01*
X166148495Y-73205752D02*
X166196114Y-73110514D01*
X166196114Y-73110514D02*
X166196114Y-73062895D01*
X166196114Y-73062895D02*
X166148495Y-72967657D01*
X166148495Y-72967657D02*
X166100876Y-72920038D01*
X166100876Y-72920038D02*
X166005638Y-72872419D01*
X166005638Y-72872419D02*
X165815162Y-72872419D01*
X165815162Y-72872419D02*
X165719924Y-72920038D01*
X165719924Y-72920038D02*
X165672305Y-72967657D01*
X165672305Y-72967657D02*
X165624686Y-73062895D01*
X165624686Y-73062895D02*
X165624686Y-73110514D01*
X165624686Y-73110514D02*
X165672305Y-73205752D01*
X165672305Y-73205752D02*
X165719924Y-73253371D01*
X165719924Y-73253371D02*
X165815162Y-73300990D01*
X165815162Y-73300990D02*
X166005638Y-73300990D01*
X166005638Y-73300990D02*
X166100876Y-73348609D01*
X166100876Y-73348609D02*
X166148495Y-73396228D01*
X166148495Y-73396228D02*
X166196114Y-73491466D01*
X166196114Y-73491466D02*
X166196114Y-73681942D01*
X166196114Y-73681942D02*
X166148495Y-73777180D01*
X166148495Y-73777180D02*
X166100876Y-73824800D01*
X166100876Y-73824800D02*
X166005638Y-73872419D01*
X166005638Y-73872419D02*
X165815162Y-73872419D01*
X165815162Y-73872419D02*
X165719924Y-73824800D01*
X165719924Y-73824800D02*
X165672305Y-73777180D01*
X165672305Y-73777180D02*
X165624686Y-73681942D01*
X165624686Y-73681942D02*
X165624686Y-73491466D01*
X165624686Y-73491466D02*
X165672305Y-73396228D01*
X165672305Y-73396228D02*
X165719924Y-73348609D01*
X165719924Y-73348609D02*
X165815162Y-73300990D01*
X164719924Y-73872419D02*
X165196114Y-73872419D01*
X165196114Y-73872419D02*
X165196114Y-72872419D01*
M02*
