%TF.GenerationSoftware,KiCad,Pcbnew,7.0.11-7.0.11~ubuntu20.04.1*%
%TF.CreationDate,2024-04-30T23:20:12-04:00*%
%TF.ProjectId,AudioAmpEEL,41756469-6f41-46d7-9045-454c2e6b6963,rev?*%
%TF.SameCoordinates,Original*%
%TF.FileFunction,Legend,Top*%
%TF.FilePolarity,Positive*%
%FSLAX46Y46*%
G04 Gerber Fmt 4.6, Leading zero omitted, Abs format (unit mm)*
G04 Created by KiCad (PCBNEW 7.0.11-7.0.11~ubuntu20.04.1) date 2024-04-30 23:20:12*
%MOMM*%
%LPD*%
G01*
G04 APERTURE LIST*
%ADD10C,0.100000*%
%ADD11C,0.150000*%
%ADD12C,0.120000*%
G04 APERTURE END LIST*
D10*
X162303884Y-73762419D02*
X162303884Y-72762419D01*
X162303884Y-72762419D02*
X162541979Y-72762419D01*
X162541979Y-72762419D02*
X162684836Y-72810038D01*
X162684836Y-72810038D02*
X162780074Y-72905276D01*
X162780074Y-72905276D02*
X162827693Y-73000514D01*
X162827693Y-73000514D02*
X162875312Y-73190990D01*
X162875312Y-73190990D02*
X162875312Y-73333847D01*
X162875312Y-73333847D02*
X162827693Y-73524323D01*
X162827693Y-73524323D02*
X162780074Y-73619561D01*
X162780074Y-73619561D02*
X162684836Y-73714800D01*
X162684836Y-73714800D02*
X162541979Y-73762419D01*
X162541979Y-73762419D02*
X162303884Y-73762419D01*
X163732455Y-73095752D02*
X163732455Y-73762419D01*
X163303884Y-73095752D02*
X163303884Y-73619561D01*
X163303884Y-73619561D02*
X163351503Y-73714800D01*
X163351503Y-73714800D02*
X163446741Y-73762419D01*
X163446741Y-73762419D02*
X163589598Y-73762419D01*
X163589598Y-73762419D02*
X163684836Y-73714800D01*
X163684836Y-73714800D02*
X163732455Y-73667180D01*
X164637217Y-73762419D02*
X164637217Y-73238609D01*
X164637217Y-73238609D02*
X164589598Y-73143371D01*
X164589598Y-73143371D02*
X164494360Y-73095752D01*
X164494360Y-73095752D02*
X164303884Y-73095752D01*
X164303884Y-73095752D02*
X164208646Y-73143371D01*
X164637217Y-73714800D02*
X164541979Y-73762419D01*
X164541979Y-73762419D02*
X164303884Y-73762419D01*
X164303884Y-73762419D02*
X164208646Y-73714800D01*
X164208646Y-73714800D02*
X164161027Y-73619561D01*
X164161027Y-73619561D02*
X164161027Y-73524323D01*
X164161027Y-73524323D02*
X164208646Y-73429085D01*
X164208646Y-73429085D02*
X164303884Y-73381466D01*
X164303884Y-73381466D02*
X164541979Y-73381466D01*
X164541979Y-73381466D02*
X164637217Y-73333847D01*
X165256265Y-73762419D02*
X165161027Y-73714800D01*
X165161027Y-73714800D02*
X165113408Y-73619561D01*
X165113408Y-73619561D02*
X165113408Y-72762419D01*
X166351504Y-73714800D02*
X166494361Y-73762419D01*
X166494361Y-73762419D02*
X166732456Y-73762419D01*
X166732456Y-73762419D02*
X166827694Y-73714800D01*
X166827694Y-73714800D02*
X166875313Y-73667180D01*
X166875313Y-73667180D02*
X166922932Y-73571942D01*
X166922932Y-73571942D02*
X166922932Y-73476704D01*
X166922932Y-73476704D02*
X166875313Y-73381466D01*
X166875313Y-73381466D02*
X166827694Y-73333847D01*
X166827694Y-73333847D02*
X166732456Y-73286228D01*
X166732456Y-73286228D02*
X166541980Y-73238609D01*
X166541980Y-73238609D02*
X166446742Y-73190990D01*
X166446742Y-73190990D02*
X166399123Y-73143371D01*
X166399123Y-73143371D02*
X166351504Y-73048133D01*
X166351504Y-73048133D02*
X166351504Y-72952895D01*
X166351504Y-72952895D02*
X166399123Y-72857657D01*
X166399123Y-72857657D02*
X166446742Y-72810038D01*
X166446742Y-72810038D02*
X166541980Y-72762419D01*
X166541980Y-72762419D02*
X166780075Y-72762419D01*
X166780075Y-72762419D02*
X166922932Y-72810038D01*
X167780075Y-73095752D02*
X167780075Y-73762419D01*
X167351504Y-73095752D02*
X167351504Y-73619561D01*
X167351504Y-73619561D02*
X167399123Y-73714800D01*
X167399123Y-73714800D02*
X167494361Y-73762419D01*
X167494361Y-73762419D02*
X167637218Y-73762419D01*
X167637218Y-73762419D02*
X167732456Y-73714800D01*
X167732456Y-73714800D02*
X167780075Y-73667180D01*
X168256266Y-73095752D02*
X168256266Y-74095752D01*
X168256266Y-73143371D02*
X168351504Y-73095752D01*
X168351504Y-73095752D02*
X168541980Y-73095752D01*
X168541980Y-73095752D02*
X168637218Y-73143371D01*
X168637218Y-73143371D02*
X168684837Y-73190990D01*
X168684837Y-73190990D02*
X168732456Y-73286228D01*
X168732456Y-73286228D02*
X168732456Y-73571942D01*
X168732456Y-73571942D02*
X168684837Y-73667180D01*
X168684837Y-73667180D02*
X168637218Y-73714800D01*
X168637218Y-73714800D02*
X168541980Y-73762419D01*
X168541980Y-73762419D02*
X168351504Y-73762419D01*
X168351504Y-73762419D02*
X168256266Y-73714800D01*
X169161028Y-73095752D02*
X169161028Y-74095752D01*
X169161028Y-73143371D02*
X169256266Y-73095752D01*
X169256266Y-73095752D02*
X169446742Y-73095752D01*
X169446742Y-73095752D02*
X169541980Y-73143371D01*
X169541980Y-73143371D02*
X169589599Y-73190990D01*
X169589599Y-73190990D02*
X169637218Y-73286228D01*
X169637218Y-73286228D02*
X169637218Y-73571942D01*
X169637218Y-73571942D02*
X169589599Y-73667180D01*
X169589599Y-73667180D02*
X169541980Y-73714800D01*
X169541980Y-73714800D02*
X169446742Y-73762419D01*
X169446742Y-73762419D02*
X169256266Y-73762419D01*
X169256266Y-73762419D02*
X169161028Y-73714800D01*
X170208647Y-73762419D02*
X170113409Y-73714800D01*
X170113409Y-73714800D02*
X170065790Y-73619561D01*
X170065790Y-73619561D02*
X170065790Y-72762419D01*
X170494362Y-73095752D02*
X170732457Y-73762419D01*
X170970552Y-73095752D02*
X170732457Y-73762419D01*
X170732457Y-73762419D02*
X170637219Y-74000514D01*
X170637219Y-74000514D02*
X170589600Y-74048133D01*
X170589600Y-74048133D02*
X170494362Y-74095752D01*
X172065791Y-73714800D02*
X172208648Y-73762419D01*
X172208648Y-73762419D02*
X172446743Y-73762419D01*
X172446743Y-73762419D02*
X172541981Y-73714800D01*
X172541981Y-73714800D02*
X172589600Y-73667180D01*
X172589600Y-73667180D02*
X172637219Y-73571942D01*
X172637219Y-73571942D02*
X172637219Y-73476704D01*
X172637219Y-73476704D02*
X172589600Y-73381466D01*
X172589600Y-73381466D02*
X172541981Y-73333847D01*
X172541981Y-73333847D02*
X172446743Y-73286228D01*
X172446743Y-73286228D02*
X172256267Y-73238609D01*
X172256267Y-73238609D02*
X172161029Y-73190990D01*
X172161029Y-73190990D02*
X172113410Y-73143371D01*
X172113410Y-73143371D02*
X172065791Y-73048133D01*
X172065791Y-73048133D02*
X172065791Y-72952895D01*
X172065791Y-72952895D02*
X172113410Y-72857657D01*
X172113410Y-72857657D02*
X172161029Y-72810038D01*
X172161029Y-72810038D02*
X172256267Y-72762419D01*
X172256267Y-72762419D02*
X172494362Y-72762419D01*
X172494362Y-72762419D02*
X172637219Y-72810038D01*
X173065791Y-73762419D02*
X173065791Y-73095752D01*
X173065791Y-72762419D02*
X173018172Y-72810038D01*
X173018172Y-72810038D02*
X173065791Y-72857657D01*
X173065791Y-72857657D02*
X173113410Y-72810038D01*
X173113410Y-72810038D02*
X173065791Y-72762419D01*
X173065791Y-72762419D02*
X173065791Y-72857657D01*
X173541981Y-73095752D02*
X173541981Y-73762419D01*
X173541981Y-73190990D02*
X173589600Y-73143371D01*
X173589600Y-73143371D02*
X173684838Y-73095752D01*
X173684838Y-73095752D02*
X173827695Y-73095752D01*
X173827695Y-73095752D02*
X173922933Y-73143371D01*
X173922933Y-73143371D02*
X173970552Y-73238609D01*
X173970552Y-73238609D02*
X173970552Y-73762419D01*
X174875314Y-73095752D02*
X174875314Y-73905276D01*
X174875314Y-73905276D02*
X174827695Y-74000514D01*
X174827695Y-74000514D02*
X174780076Y-74048133D01*
X174780076Y-74048133D02*
X174684838Y-74095752D01*
X174684838Y-74095752D02*
X174541981Y-74095752D01*
X174541981Y-74095752D02*
X174446743Y-74048133D01*
X174875314Y-73714800D02*
X174780076Y-73762419D01*
X174780076Y-73762419D02*
X174589600Y-73762419D01*
X174589600Y-73762419D02*
X174494362Y-73714800D01*
X174494362Y-73714800D02*
X174446743Y-73667180D01*
X174446743Y-73667180D02*
X174399124Y-73571942D01*
X174399124Y-73571942D02*
X174399124Y-73286228D01*
X174399124Y-73286228D02*
X174446743Y-73190990D01*
X174446743Y-73190990D02*
X174494362Y-73143371D01*
X174494362Y-73143371D02*
X174589600Y-73095752D01*
X174589600Y-73095752D02*
X174780076Y-73095752D01*
X174780076Y-73095752D02*
X174875314Y-73143371D01*
X175494362Y-73762419D02*
X175399124Y-73714800D01*
X175399124Y-73714800D02*
X175351505Y-73619561D01*
X175351505Y-73619561D02*
X175351505Y-72762419D01*
X176256267Y-73714800D02*
X176161029Y-73762419D01*
X176161029Y-73762419D02*
X175970553Y-73762419D01*
X175970553Y-73762419D02*
X175875315Y-73714800D01*
X175875315Y-73714800D02*
X175827696Y-73619561D01*
X175827696Y-73619561D02*
X175827696Y-73238609D01*
X175827696Y-73238609D02*
X175875315Y-73143371D01*
X175875315Y-73143371D02*
X175970553Y-73095752D01*
X175970553Y-73095752D02*
X176161029Y-73095752D01*
X176161029Y-73095752D02*
X176256267Y-73143371D01*
X176256267Y-73143371D02*
X176303886Y-73238609D01*
X176303886Y-73238609D02*
X176303886Y-73333847D01*
X176303886Y-73333847D02*
X175827696Y-73429085D01*
X178065791Y-73667180D02*
X178018172Y-73714800D01*
X178018172Y-73714800D02*
X177875315Y-73762419D01*
X177875315Y-73762419D02*
X177780077Y-73762419D01*
X177780077Y-73762419D02*
X177637220Y-73714800D01*
X177637220Y-73714800D02*
X177541982Y-73619561D01*
X177541982Y-73619561D02*
X177494363Y-73524323D01*
X177494363Y-73524323D02*
X177446744Y-73333847D01*
X177446744Y-73333847D02*
X177446744Y-73190990D01*
X177446744Y-73190990D02*
X177494363Y-73000514D01*
X177494363Y-73000514D02*
X177541982Y-72905276D01*
X177541982Y-72905276D02*
X177637220Y-72810038D01*
X177637220Y-72810038D02*
X177780077Y-72762419D01*
X177780077Y-72762419D02*
X177875315Y-72762419D01*
X177875315Y-72762419D02*
X178018172Y-72810038D01*
X178018172Y-72810038D02*
X178065791Y-72857657D01*
X178494363Y-73762419D02*
X178494363Y-72762419D01*
X178922934Y-73762419D02*
X178922934Y-73238609D01*
X178922934Y-73238609D02*
X178875315Y-73143371D01*
X178875315Y-73143371D02*
X178780077Y-73095752D01*
X178780077Y-73095752D02*
X178637220Y-73095752D01*
X178637220Y-73095752D02*
X178541982Y-73143371D01*
X178541982Y-73143371D02*
X178494363Y-73190990D01*
X179827696Y-73762419D02*
X179827696Y-73238609D01*
X179827696Y-73238609D02*
X179780077Y-73143371D01*
X179780077Y-73143371D02*
X179684839Y-73095752D01*
X179684839Y-73095752D02*
X179494363Y-73095752D01*
X179494363Y-73095752D02*
X179399125Y-73143371D01*
X179827696Y-73714800D02*
X179732458Y-73762419D01*
X179732458Y-73762419D02*
X179494363Y-73762419D01*
X179494363Y-73762419D02*
X179399125Y-73714800D01*
X179399125Y-73714800D02*
X179351506Y-73619561D01*
X179351506Y-73619561D02*
X179351506Y-73524323D01*
X179351506Y-73524323D02*
X179399125Y-73429085D01*
X179399125Y-73429085D02*
X179494363Y-73381466D01*
X179494363Y-73381466D02*
X179732458Y-73381466D01*
X179732458Y-73381466D02*
X179827696Y-73333847D01*
X180303887Y-73095752D02*
X180303887Y-73762419D01*
X180303887Y-73190990D02*
X180351506Y-73143371D01*
X180351506Y-73143371D02*
X180446744Y-73095752D01*
X180446744Y-73095752D02*
X180589601Y-73095752D01*
X180589601Y-73095752D02*
X180684839Y-73143371D01*
X180684839Y-73143371D02*
X180732458Y-73238609D01*
X180732458Y-73238609D02*
X180732458Y-73762419D01*
X181208649Y-73095752D02*
X181208649Y-73762419D01*
X181208649Y-73190990D02*
X181256268Y-73143371D01*
X181256268Y-73143371D02*
X181351506Y-73095752D01*
X181351506Y-73095752D02*
X181494363Y-73095752D01*
X181494363Y-73095752D02*
X181589601Y-73143371D01*
X181589601Y-73143371D02*
X181637220Y-73238609D01*
X181637220Y-73238609D02*
X181637220Y-73762419D01*
X182494363Y-73714800D02*
X182399125Y-73762419D01*
X182399125Y-73762419D02*
X182208649Y-73762419D01*
X182208649Y-73762419D02*
X182113411Y-73714800D01*
X182113411Y-73714800D02*
X182065792Y-73619561D01*
X182065792Y-73619561D02*
X182065792Y-73238609D01*
X182065792Y-73238609D02*
X182113411Y-73143371D01*
X182113411Y-73143371D02*
X182208649Y-73095752D01*
X182208649Y-73095752D02*
X182399125Y-73095752D01*
X182399125Y-73095752D02*
X182494363Y-73143371D01*
X182494363Y-73143371D02*
X182541982Y-73238609D01*
X182541982Y-73238609D02*
X182541982Y-73333847D01*
X182541982Y-73333847D02*
X182065792Y-73429085D01*
X183113411Y-73762419D02*
X183018173Y-73714800D01*
X183018173Y-73714800D02*
X182970554Y-73619561D01*
X182970554Y-73619561D02*
X182970554Y-72762419D01*
X162256265Y-75086704D02*
X162732455Y-75086704D01*
X162161027Y-75372419D02*
X162494360Y-74372419D01*
X162494360Y-74372419D02*
X162827693Y-75372419D01*
X163589598Y-74705752D02*
X163589598Y-75372419D01*
X163161027Y-74705752D02*
X163161027Y-75229561D01*
X163161027Y-75229561D02*
X163208646Y-75324800D01*
X163208646Y-75324800D02*
X163303884Y-75372419D01*
X163303884Y-75372419D02*
X163446741Y-75372419D01*
X163446741Y-75372419D02*
X163541979Y-75324800D01*
X163541979Y-75324800D02*
X163589598Y-75277180D01*
X164494360Y-75372419D02*
X164494360Y-74372419D01*
X164494360Y-75324800D02*
X164399122Y-75372419D01*
X164399122Y-75372419D02*
X164208646Y-75372419D01*
X164208646Y-75372419D02*
X164113408Y-75324800D01*
X164113408Y-75324800D02*
X164065789Y-75277180D01*
X164065789Y-75277180D02*
X164018170Y-75181942D01*
X164018170Y-75181942D02*
X164018170Y-74896228D01*
X164018170Y-74896228D02*
X164065789Y-74800990D01*
X164065789Y-74800990D02*
X164113408Y-74753371D01*
X164113408Y-74753371D02*
X164208646Y-74705752D01*
X164208646Y-74705752D02*
X164399122Y-74705752D01*
X164399122Y-74705752D02*
X164494360Y-74753371D01*
X164970551Y-75372419D02*
X164970551Y-74705752D01*
X164970551Y-74372419D02*
X164922932Y-74420038D01*
X164922932Y-74420038D02*
X164970551Y-74467657D01*
X164970551Y-74467657D02*
X165018170Y-74420038D01*
X165018170Y-74420038D02*
X164970551Y-74372419D01*
X164970551Y-74372419D02*
X164970551Y-74467657D01*
X165589598Y-75372419D02*
X165494360Y-75324800D01*
X165494360Y-75324800D02*
X165446741Y-75277180D01*
X165446741Y-75277180D02*
X165399122Y-75181942D01*
X165399122Y-75181942D02*
X165399122Y-74896228D01*
X165399122Y-74896228D02*
X165446741Y-74800990D01*
X165446741Y-74800990D02*
X165494360Y-74753371D01*
X165494360Y-74753371D02*
X165589598Y-74705752D01*
X165589598Y-74705752D02*
X165732455Y-74705752D01*
X165732455Y-74705752D02*
X165827693Y-74753371D01*
X165827693Y-74753371D02*
X165875312Y-74800990D01*
X165875312Y-74800990D02*
X165922931Y-74896228D01*
X165922931Y-74896228D02*
X165922931Y-75181942D01*
X165922931Y-75181942D02*
X165875312Y-75277180D01*
X165875312Y-75277180D02*
X165827693Y-75324800D01*
X165827693Y-75324800D02*
X165732455Y-75372419D01*
X165732455Y-75372419D02*
X165589598Y-75372419D01*
X167065789Y-75086704D02*
X167541979Y-75086704D01*
X166970551Y-75372419D02*
X167303884Y-74372419D01*
X167303884Y-74372419D02*
X167637217Y-75372419D01*
X167970551Y-75372419D02*
X167970551Y-74705752D01*
X167970551Y-74800990D02*
X168018170Y-74753371D01*
X168018170Y-74753371D02*
X168113408Y-74705752D01*
X168113408Y-74705752D02*
X168256265Y-74705752D01*
X168256265Y-74705752D02*
X168351503Y-74753371D01*
X168351503Y-74753371D02*
X168399122Y-74848609D01*
X168399122Y-74848609D02*
X168399122Y-75372419D01*
X168399122Y-74848609D02*
X168446741Y-74753371D01*
X168446741Y-74753371D02*
X168541979Y-74705752D01*
X168541979Y-74705752D02*
X168684836Y-74705752D01*
X168684836Y-74705752D02*
X168780075Y-74753371D01*
X168780075Y-74753371D02*
X168827694Y-74848609D01*
X168827694Y-74848609D02*
X168827694Y-75372419D01*
X169303884Y-74705752D02*
X169303884Y-75705752D01*
X169303884Y-74753371D02*
X169399122Y-74705752D01*
X169399122Y-74705752D02*
X169589598Y-74705752D01*
X169589598Y-74705752D02*
X169684836Y-74753371D01*
X169684836Y-74753371D02*
X169732455Y-74800990D01*
X169732455Y-74800990D02*
X169780074Y-74896228D01*
X169780074Y-74896228D02*
X169780074Y-75181942D01*
X169780074Y-75181942D02*
X169732455Y-75277180D01*
X169732455Y-75277180D02*
X169684836Y-75324800D01*
X169684836Y-75324800D02*
X169589598Y-75372419D01*
X169589598Y-75372419D02*
X169399122Y-75372419D01*
X169399122Y-75372419D02*
X169303884Y-75324800D01*
X170351503Y-75372419D02*
X170256265Y-75324800D01*
X170256265Y-75324800D02*
X170208646Y-75229561D01*
X170208646Y-75229561D02*
X170208646Y-74372419D01*
X170732456Y-75372419D02*
X170732456Y-74705752D01*
X170732456Y-74372419D02*
X170684837Y-74420038D01*
X170684837Y-74420038D02*
X170732456Y-74467657D01*
X170732456Y-74467657D02*
X170780075Y-74420038D01*
X170780075Y-74420038D02*
X170732456Y-74372419D01*
X170732456Y-74372419D02*
X170732456Y-74467657D01*
X171065789Y-74705752D02*
X171446741Y-74705752D01*
X171208646Y-75372419D02*
X171208646Y-74515276D01*
X171208646Y-74515276D02*
X171256265Y-74420038D01*
X171256265Y-74420038D02*
X171351503Y-74372419D01*
X171351503Y-74372419D02*
X171446741Y-74372419D01*
X171780075Y-75372419D02*
X171780075Y-74705752D01*
X171780075Y-74372419D02*
X171732456Y-74420038D01*
X171732456Y-74420038D02*
X171780075Y-74467657D01*
X171780075Y-74467657D02*
X171827694Y-74420038D01*
X171827694Y-74420038D02*
X171780075Y-74372419D01*
X171780075Y-74372419D02*
X171780075Y-74467657D01*
X172637217Y-75324800D02*
X172541979Y-75372419D01*
X172541979Y-75372419D02*
X172351503Y-75372419D01*
X172351503Y-75372419D02*
X172256265Y-75324800D01*
X172256265Y-75324800D02*
X172208646Y-75229561D01*
X172208646Y-75229561D02*
X172208646Y-74848609D01*
X172208646Y-74848609D02*
X172256265Y-74753371D01*
X172256265Y-74753371D02*
X172351503Y-74705752D01*
X172351503Y-74705752D02*
X172541979Y-74705752D01*
X172541979Y-74705752D02*
X172637217Y-74753371D01*
X172637217Y-74753371D02*
X172684836Y-74848609D01*
X172684836Y-74848609D02*
X172684836Y-74943847D01*
X172684836Y-74943847D02*
X172208646Y-75039085D01*
X173113408Y-75372419D02*
X173113408Y-74705752D01*
X173113408Y-74896228D02*
X173161027Y-74800990D01*
X173161027Y-74800990D02*
X173208646Y-74753371D01*
X173208646Y-74753371D02*
X173303884Y-74705752D01*
X173303884Y-74705752D02*
X173399122Y-74705752D01*
X173732456Y-75277180D02*
X173780075Y-75324800D01*
X173780075Y-75324800D02*
X173732456Y-75372419D01*
X173732456Y-75372419D02*
X173684837Y-75324800D01*
X173684837Y-75324800D02*
X173732456Y-75277180D01*
X173732456Y-75277180D02*
X173732456Y-75372419D01*
X173732456Y-74753371D02*
X173780075Y-74800990D01*
X173780075Y-74800990D02*
X173732456Y-74848609D01*
X173732456Y-74848609D02*
X173684837Y-74800990D01*
X173684837Y-74800990D02*
X173732456Y-74753371D01*
X173732456Y-74753371D02*
X173732456Y-74848609D01*
X174827694Y-74705752D02*
X175208646Y-74705752D01*
X174970551Y-75372419D02*
X174970551Y-74515276D01*
X174970551Y-74515276D02*
X175018170Y-74420038D01*
X175018170Y-74420038D02*
X175113408Y-74372419D01*
X175113408Y-74372419D02*
X175208646Y-74372419D01*
X175970551Y-75324800D02*
X175875313Y-75372419D01*
X175875313Y-75372419D02*
X175684837Y-75372419D01*
X175684837Y-75372419D02*
X175589599Y-75324800D01*
X175589599Y-75324800D02*
X175541980Y-75277180D01*
X175541980Y-75277180D02*
X175494361Y-75181942D01*
X175494361Y-75181942D02*
X175494361Y-74896228D01*
X175494361Y-74896228D02*
X175541980Y-74800990D01*
X175541980Y-74800990D02*
X175589599Y-74753371D01*
X175589599Y-74753371D02*
X175684837Y-74705752D01*
X175684837Y-74705752D02*
X175875313Y-74705752D01*
X175875313Y-74705752D02*
X175970551Y-74753371D01*
X177161028Y-74848609D02*
X177922933Y-74848609D01*
X177922933Y-75134323D02*
X177161028Y-75134323D01*
X179684837Y-75372419D02*
X179113409Y-75372419D01*
X179399123Y-75372419D02*
X179399123Y-74372419D01*
X179399123Y-74372419D02*
X179303885Y-74515276D01*
X179303885Y-74515276D02*
X179208647Y-74610514D01*
X179208647Y-74610514D02*
X179113409Y-74658133D01*
X180303885Y-74372419D02*
X180399123Y-74372419D01*
X180399123Y-74372419D02*
X180494361Y-74420038D01*
X180494361Y-74420038D02*
X180541980Y-74467657D01*
X180541980Y-74467657D02*
X180589599Y-74562895D01*
X180589599Y-74562895D02*
X180637218Y-74753371D01*
X180637218Y-74753371D02*
X180637218Y-74991466D01*
X180637218Y-74991466D02*
X180589599Y-75181942D01*
X180589599Y-75181942D02*
X180541980Y-75277180D01*
X180541980Y-75277180D02*
X180494361Y-75324800D01*
X180494361Y-75324800D02*
X180399123Y-75372419D01*
X180399123Y-75372419D02*
X180303885Y-75372419D01*
X180303885Y-75372419D02*
X180208647Y-75324800D01*
X180208647Y-75324800D02*
X180161028Y-75277180D01*
X180161028Y-75277180D02*
X180113409Y-75181942D01*
X180113409Y-75181942D02*
X180065790Y-74991466D01*
X180065790Y-74991466D02*
X180065790Y-74753371D01*
X180065790Y-74753371D02*
X180113409Y-74562895D01*
X180113409Y-74562895D02*
X180161028Y-74467657D01*
X180161028Y-74467657D02*
X180208647Y-74420038D01*
X180208647Y-74420038D02*
X180303885Y-74372419D01*
X181065790Y-75372419D02*
X181065790Y-74372419D01*
X181161028Y-74991466D02*
X181446742Y-75372419D01*
X181446742Y-74705752D02*
X181065790Y-75086704D01*
X181875314Y-75372419D02*
X181875314Y-74372419D01*
X181875314Y-74848609D02*
X182446742Y-74848609D01*
X182446742Y-75372419D02*
X182446742Y-74372419D01*
X182827695Y-74705752D02*
X183351504Y-74705752D01*
X183351504Y-74705752D02*
X182827695Y-75372419D01*
X182827695Y-75372419D02*
X183351504Y-75372419D01*
X108327693Y-101920038D02*
X108232455Y-101872419D01*
X108232455Y-101872419D02*
X108089598Y-101872419D01*
X108089598Y-101872419D02*
X107946741Y-101920038D01*
X107946741Y-101920038D02*
X107851503Y-102015276D01*
X107851503Y-102015276D02*
X107803884Y-102110514D01*
X107803884Y-102110514D02*
X107756265Y-102300990D01*
X107756265Y-102300990D02*
X107756265Y-102443847D01*
X107756265Y-102443847D02*
X107803884Y-102634323D01*
X107803884Y-102634323D02*
X107851503Y-102729561D01*
X107851503Y-102729561D02*
X107946741Y-102824800D01*
X107946741Y-102824800D02*
X108089598Y-102872419D01*
X108089598Y-102872419D02*
X108184836Y-102872419D01*
X108184836Y-102872419D02*
X108327693Y-102824800D01*
X108327693Y-102824800D02*
X108375312Y-102777180D01*
X108375312Y-102777180D02*
X108375312Y-102443847D01*
X108375312Y-102443847D02*
X108184836Y-102443847D01*
X108803884Y-102872419D02*
X108803884Y-101872419D01*
X108803884Y-101872419D02*
X109375312Y-102872419D01*
X109375312Y-102872419D02*
X109375312Y-101872419D01*
X109851503Y-102872419D02*
X109851503Y-101872419D01*
X109851503Y-101872419D02*
X110089598Y-101872419D01*
X110089598Y-101872419D02*
X110232455Y-101920038D01*
X110232455Y-101920038D02*
X110327693Y-102015276D01*
X110327693Y-102015276D02*
X110375312Y-102110514D01*
X110375312Y-102110514D02*
X110422931Y-102300990D01*
X110422931Y-102300990D02*
X110422931Y-102443847D01*
X110422931Y-102443847D02*
X110375312Y-102634323D01*
X110375312Y-102634323D02*
X110327693Y-102729561D01*
X110327693Y-102729561D02*
X110232455Y-102824800D01*
X110232455Y-102824800D02*
X110089598Y-102872419D01*
X110089598Y-102872419D02*
X109851503Y-102872419D01*
X176803884Y-104991466D02*
X177565789Y-104991466D01*
X177184836Y-105372419D02*
X177184836Y-104610514D01*
X178232455Y-104372419D02*
X178422931Y-104372419D01*
X178422931Y-104372419D02*
X178518169Y-104420038D01*
X178518169Y-104420038D02*
X178613407Y-104515276D01*
X178613407Y-104515276D02*
X178661026Y-104705752D01*
X178661026Y-104705752D02*
X178661026Y-105039085D01*
X178661026Y-105039085D02*
X178613407Y-105229561D01*
X178613407Y-105229561D02*
X178518169Y-105324800D01*
X178518169Y-105324800D02*
X178422931Y-105372419D01*
X178422931Y-105372419D02*
X178232455Y-105372419D01*
X178232455Y-105372419D02*
X178137217Y-105324800D01*
X178137217Y-105324800D02*
X178041979Y-105229561D01*
X178041979Y-105229561D02*
X177994360Y-105039085D01*
X177994360Y-105039085D02*
X177994360Y-104705752D01*
X177994360Y-104705752D02*
X178041979Y-104515276D01*
X178041979Y-104515276D02*
X178137217Y-104420038D01*
X178137217Y-104420038D02*
X178232455Y-104372419D01*
X179089598Y-104372419D02*
X179089598Y-105181942D01*
X179089598Y-105181942D02*
X179137217Y-105277180D01*
X179137217Y-105277180D02*
X179184836Y-105324800D01*
X179184836Y-105324800D02*
X179280074Y-105372419D01*
X179280074Y-105372419D02*
X179470550Y-105372419D01*
X179470550Y-105372419D02*
X179565788Y-105324800D01*
X179565788Y-105324800D02*
X179613407Y-105277180D01*
X179613407Y-105277180D02*
X179661026Y-105181942D01*
X179661026Y-105181942D02*
X179661026Y-104372419D01*
X179994360Y-104372419D02*
X180565788Y-104372419D01*
X180280074Y-105372419D02*
X180280074Y-104372419D01*
X176803884Y-113491466D02*
X177565789Y-113491466D01*
X178232455Y-112872419D02*
X178422931Y-112872419D01*
X178422931Y-112872419D02*
X178518169Y-112920038D01*
X178518169Y-112920038D02*
X178613407Y-113015276D01*
X178613407Y-113015276D02*
X178661026Y-113205752D01*
X178661026Y-113205752D02*
X178661026Y-113539085D01*
X178661026Y-113539085D02*
X178613407Y-113729561D01*
X178613407Y-113729561D02*
X178518169Y-113824800D01*
X178518169Y-113824800D02*
X178422931Y-113872419D01*
X178422931Y-113872419D02*
X178232455Y-113872419D01*
X178232455Y-113872419D02*
X178137217Y-113824800D01*
X178137217Y-113824800D02*
X178041979Y-113729561D01*
X178041979Y-113729561D02*
X177994360Y-113539085D01*
X177994360Y-113539085D02*
X177994360Y-113205752D01*
X177994360Y-113205752D02*
X178041979Y-113015276D01*
X178041979Y-113015276D02*
X178137217Y-112920038D01*
X178137217Y-112920038D02*
X178232455Y-112872419D01*
X179089598Y-112872419D02*
X179089598Y-113681942D01*
X179089598Y-113681942D02*
X179137217Y-113777180D01*
X179137217Y-113777180D02*
X179184836Y-113824800D01*
X179184836Y-113824800D02*
X179280074Y-113872419D01*
X179280074Y-113872419D02*
X179470550Y-113872419D01*
X179470550Y-113872419D02*
X179565788Y-113824800D01*
X179565788Y-113824800D02*
X179613407Y-113777180D01*
X179613407Y-113777180D02*
X179661026Y-113681942D01*
X179661026Y-113681942D02*
X179661026Y-112872419D01*
X179994360Y-112872419D02*
X180565788Y-112872419D01*
X180280074Y-113872419D02*
X180280074Y-112872419D01*
X106827693Y-94372419D02*
X106256265Y-94372419D01*
X106541979Y-94372419D02*
X106541979Y-93372419D01*
X106541979Y-93372419D02*
X106446741Y-93515276D01*
X106446741Y-93515276D02*
X106351503Y-93610514D01*
X106351503Y-93610514D02*
X106256265Y-93658133D01*
X107446741Y-93372419D02*
X107541979Y-93372419D01*
X107541979Y-93372419D02*
X107637217Y-93420038D01*
X107637217Y-93420038D02*
X107684836Y-93467657D01*
X107684836Y-93467657D02*
X107732455Y-93562895D01*
X107732455Y-93562895D02*
X107780074Y-93753371D01*
X107780074Y-93753371D02*
X107780074Y-93991466D01*
X107780074Y-93991466D02*
X107732455Y-94181942D01*
X107732455Y-94181942D02*
X107684836Y-94277180D01*
X107684836Y-94277180D02*
X107637217Y-94324800D01*
X107637217Y-94324800D02*
X107541979Y-94372419D01*
X107541979Y-94372419D02*
X107446741Y-94372419D01*
X107446741Y-94372419D02*
X107351503Y-94324800D01*
X107351503Y-94324800D02*
X107303884Y-94277180D01*
X107303884Y-94277180D02*
X107256265Y-94181942D01*
X107256265Y-94181942D02*
X107208646Y-93991466D01*
X107208646Y-93991466D02*
X107208646Y-93753371D01*
X107208646Y-93753371D02*
X107256265Y-93562895D01*
X107256265Y-93562895D02*
X107303884Y-93467657D01*
X107303884Y-93467657D02*
X107351503Y-93420038D01*
X107351503Y-93420038D02*
X107446741Y-93372419D01*
X108208646Y-94372419D02*
X108208646Y-93705752D01*
X108208646Y-93800990D02*
X108256265Y-93753371D01*
X108256265Y-93753371D02*
X108351503Y-93705752D01*
X108351503Y-93705752D02*
X108494360Y-93705752D01*
X108494360Y-93705752D02*
X108589598Y-93753371D01*
X108589598Y-93753371D02*
X108637217Y-93848609D01*
X108637217Y-93848609D02*
X108637217Y-94372419D01*
X108637217Y-93848609D02*
X108684836Y-93753371D01*
X108684836Y-93753371D02*
X108780074Y-93705752D01*
X108780074Y-93705752D02*
X108922931Y-93705752D01*
X108922931Y-93705752D02*
X109018170Y-93753371D01*
X109018170Y-93753371D02*
X109065789Y-93848609D01*
X109065789Y-93848609D02*
X109065789Y-94372419D01*
X109399122Y-93372419D02*
X109732455Y-94372419D01*
X109732455Y-94372419D02*
X110065788Y-93372419D01*
X111161027Y-94372419D02*
X111161027Y-93705752D01*
X111161027Y-93372419D02*
X111113408Y-93420038D01*
X111113408Y-93420038D02*
X111161027Y-93467657D01*
X111161027Y-93467657D02*
X111208646Y-93420038D01*
X111208646Y-93420038D02*
X111161027Y-93372419D01*
X111161027Y-93372419D02*
X111161027Y-93467657D01*
X111637217Y-93705752D02*
X111637217Y-94372419D01*
X111637217Y-93800990D02*
X111684836Y-93753371D01*
X111684836Y-93753371D02*
X111780074Y-93705752D01*
X111780074Y-93705752D02*
X111922931Y-93705752D01*
X111922931Y-93705752D02*
X112018169Y-93753371D01*
X112018169Y-93753371D02*
X112065788Y-93848609D01*
X112065788Y-93848609D02*
X112065788Y-94372419D01*
D11*
X140833333Y-89609580D02*
X140785714Y-89657200D01*
X140785714Y-89657200D02*
X140642857Y-89704819D01*
X140642857Y-89704819D02*
X140547619Y-89704819D01*
X140547619Y-89704819D02*
X140404762Y-89657200D01*
X140404762Y-89657200D02*
X140309524Y-89561961D01*
X140309524Y-89561961D02*
X140261905Y-89466723D01*
X140261905Y-89466723D02*
X140214286Y-89276247D01*
X140214286Y-89276247D02*
X140214286Y-89133390D01*
X140214286Y-89133390D02*
X140261905Y-88942914D01*
X140261905Y-88942914D02*
X140309524Y-88847676D01*
X140309524Y-88847676D02*
X140404762Y-88752438D01*
X140404762Y-88752438D02*
X140547619Y-88704819D01*
X140547619Y-88704819D02*
X140642857Y-88704819D01*
X140642857Y-88704819D02*
X140785714Y-88752438D01*
X140785714Y-88752438D02*
X140833333Y-88800057D01*
X141214286Y-88800057D02*
X141261905Y-88752438D01*
X141261905Y-88752438D02*
X141357143Y-88704819D01*
X141357143Y-88704819D02*
X141595238Y-88704819D01*
X141595238Y-88704819D02*
X141690476Y-88752438D01*
X141690476Y-88752438D02*
X141738095Y-88800057D01*
X141738095Y-88800057D02*
X141785714Y-88895295D01*
X141785714Y-88895295D02*
X141785714Y-88990533D01*
X141785714Y-88990533D02*
X141738095Y-89133390D01*
X141738095Y-89133390D02*
X141166667Y-89704819D01*
X141166667Y-89704819D02*
X141785714Y-89704819D01*
X139928571Y-97204819D02*
X139357143Y-97204819D01*
X139642857Y-97204819D02*
X139642857Y-96204819D01*
X139642857Y-96204819D02*
X139547619Y-96347676D01*
X139547619Y-96347676D02*
X139452381Y-96442914D01*
X139452381Y-96442914D02*
X139357143Y-96490533D01*
X140547619Y-96204819D02*
X140642857Y-96204819D01*
X140642857Y-96204819D02*
X140738095Y-96252438D01*
X140738095Y-96252438D02*
X140785714Y-96300057D01*
X140785714Y-96300057D02*
X140833333Y-96395295D01*
X140833333Y-96395295D02*
X140880952Y-96585771D01*
X140880952Y-96585771D02*
X140880952Y-96823866D01*
X140880952Y-96823866D02*
X140833333Y-97014342D01*
X140833333Y-97014342D02*
X140785714Y-97109580D01*
X140785714Y-97109580D02*
X140738095Y-97157200D01*
X140738095Y-97157200D02*
X140642857Y-97204819D01*
X140642857Y-97204819D02*
X140547619Y-97204819D01*
X140547619Y-97204819D02*
X140452381Y-97157200D01*
X140452381Y-97157200D02*
X140404762Y-97109580D01*
X140404762Y-97109580D02*
X140357143Y-97014342D01*
X140357143Y-97014342D02*
X140309524Y-96823866D01*
X140309524Y-96823866D02*
X140309524Y-96585771D01*
X140309524Y-96585771D02*
X140357143Y-96395295D01*
X140357143Y-96395295D02*
X140404762Y-96300057D01*
X140404762Y-96300057D02*
X140452381Y-96252438D01*
X140452381Y-96252438D02*
X140547619Y-96204819D01*
X141738095Y-96538152D02*
X141738095Y-97204819D01*
X141309524Y-96538152D02*
X141309524Y-97061961D01*
X141309524Y-97061961D02*
X141357143Y-97157200D01*
X141357143Y-97157200D02*
X141452381Y-97204819D01*
X141452381Y-97204819D02*
X141595238Y-97204819D01*
X141595238Y-97204819D02*
X141690476Y-97157200D01*
X141690476Y-97157200D02*
X141738095Y-97109580D01*
X142547619Y-96681009D02*
X142214286Y-96681009D01*
X142214286Y-97204819D02*
X142214286Y-96204819D01*
X142214286Y-96204819D02*
X142690476Y-96204819D01*
X154084819Y-81586666D02*
X153608628Y-81919999D01*
X154084819Y-82158094D02*
X153084819Y-82158094D01*
X153084819Y-82158094D02*
X153084819Y-81777142D01*
X153084819Y-81777142D02*
X153132438Y-81681904D01*
X153132438Y-81681904D02*
X153180057Y-81634285D01*
X153180057Y-81634285D02*
X153275295Y-81586666D01*
X153275295Y-81586666D02*
X153418152Y-81586666D01*
X153418152Y-81586666D02*
X153513390Y-81634285D01*
X153513390Y-81634285D02*
X153561009Y-81681904D01*
X153561009Y-81681904D02*
X153608628Y-81777142D01*
X153608628Y-81777142D02*
X153608628Y-82158094D01*
X153084819Y-81253332D02*
X153084819Y-80634285D01*
X153084819Y-80634285D02*
X153465771Y-80967618D01*
X153465771Y-80967618D02*
X153465771Y-80824761D01*
X153465771Y-80824761D02*
X153513390Y-80729523D01*
X153513390Y-80729523D02*
X153561009Y-80681904D01*
X153561009Y-80681904D02*
X153656247Y-80634285D01*
X153656247Y-80634285D02*
X153894342Y-80634285D01*
X153894342Y-80634285D02*
X153989580Y-80681904D01*
X153989580Y-80681904D02*
X154037200Y-80729523D01*
X154037200Y-80729523D02*
X154084819Y-80824761D01*
X154084819Y-80824761D02*
X154084819Y-81110475D01*
X154084819Y-81110475D02*
X154037200Y-81205713D01*
X154037200Y-81205713D02*
X153989580Y-81253332D01*
X157920057Y-82586666D02*
X157872438Y-82539047D01*
X157872438Y-82539047D02*
X157824819Y-82443809D01*
X157824819Y-82443809D02*
X157824819Y-82205714D01*
X157824819Y-82205714D02*
X157872438Y-82110476D01*
X157872438Y-82110476D02*
X157920057Y-82062857D01*
X157920057Y-82062857D02*
X158015295Y-82015238D01*
X158015295Y-82015238D02*
X158110533Y-82015238D01*
X158110533Y-82015238D02*
X158253390Y-82062857D01*
X158253390Y-82062857D02*
X158824819Y-82634285D01*
X158824819Y-82634285D02*
X158824819Y-82015238D01*
X157824819Y-81396190D02*
X157824819Y-81300952D01*
X157824819Y-81300952D02*
X157872438Y-81205714D01*
X157872438Y-81205714D02*
X157920057Y-81158095D01*
X157920057Y-81158095D02*
X158015295Y-81110476D01*
X158015295Y-81110476D02*
X158205771Y-81062857D01*
X158205771Y-81062857D02*
X158443866Y-81062857D01*
X158443866Y-81062857D02*
X158634342Y-81110476D01*
X158634342Y-81110476D02*
X158729580Y-81158095D01*
X158729580Y-81158095D02*
X158777200Y-81205714D01*
X158777200Y-81205714D02*
X158824819Y-81300952D01*
X158824819Y-81300952D02*
X158824819Y-81396190D01*
X158824819Y-81396190D02*
X158777200Y-81491428D01*
X158777200Y-81491428D02*
X158729580Y-81539047D01*
X158729580Y-81539047D02*
X158634342Y-81586666D01*
X158634342Y-81586666D02*
X158443866Y-81634285D01*
X158443866Y-81634285D02*
X158205771Y-81634285D01*
X158205771Y-81634285D02*
X158015295Y-81586666D01*
X158015295Y-81586666D02*
X157920057Y-81539047D01*
X157920057Y-81539047D02*
X157872438Y-81491428D01*
X157872438Y-81491428D02*
X157824819Y-81396190D01*
X158824819Y-80634285D02*
X157824819Y-80634285D01*
X158443866Y-80539047D02*
X158824819Y-80253333D01*
X158158152Y-80253333D02*
X158539104Y-80634285D01*
X146984819Y-106238094D02*
X145984819Y-106238094D01*
X145984819Y-106238094D02*
X145984819Y-105999999D01*
X145984819Y-105999999D02*
X146032438Y-105857142D01*
X146032438Y-105857142D02*
X146127676Y-105761904D01*
X146127676Y-105761904D02*
X146222914Y-105714285D01*
X146222914Y-105714285D02*
X146413390Y-105666666D01*
X146413390Y-105666666D02*
X146556247Y-105666666D01*
X146556247Y-105666666D02*
X146746723Y-105714285D01*
X146746723Y-105714285D02*
X146841961Y-105761904D01*
X146841961Y-105761904D02*
X146937200Y-105857142D01*
X146937200Y-105857142D02*
X146984819Y-105999999D01*
X146984819Y-105999999D02*
X146984819Y-106238094D01*
X146080057Y-105285713D02*
X146032438Y-105238094D01*
X146032438Y-105238094D02*
X145984819Y-105142856D01*
X145984819Y-105142856D02*
X145984819Y-104904761D01*
X145984819Y-104904761D02*
X146032438Y-104809523D01*
X146032438Y-104809523D02*
X146080057Y-104761904D01*
X146080057Y-104761904D02*
X146175295Y-104714285D01*
X146175295Y-104714285D02*
X146270533Y-104714285D01*
X146270533Y-104714285D02*
X146413390Y-104761904D01*
X146413390Y-104761904D02*
X146984819Y-105333332D01*
X146984819Y-105333332D02*
X146984819Y-104714285D01*
X151924819Y-107642857D02*
X151924819Y-108214285D01*
X151924819Y-107928571D02*
X150924819Y-107928571D01*
X150924819Y-107928571D02*
X151067676Y-108023809D01*
X151067676Y-108023809D02*
X151162914Y-108119047D01*
X151162914Y-108119047D02*
X151210533Y-108214285D01*
X151924819Y-107214285D02*
X150924819Y-107214285D01*
X150924819Y-107214285D02*
X151924819Y-106642857D01*
X151924819Y-106642857D02*
X150924819Y-106642857D01*
X151258152Y-105738095D02*
X151924819Y-105738095D01*
X150877200Y-105976190D02*
X151591485Y-106214285D01*
X151591485Y-106214285D02*
X151591485Y-105595238D01*
X150924819Y-105023809D02*
X150924819Y-104928571D01*
X150924819Y-104928571D02*
X150972438Y-104833333D01*
X150972438Y-104833333D02*
X151020057Y-104785714D01*
X151020057Y-104785714D02*
X151115295Y-104738095D01*
X151115295Y-104738095D02*
X151305771Y-104690476D01*
X151305771Y-104690476D02*
X151543866Y-104690476D01*
X151543866Y-104690476D02*
X151734342Y-104738095D01*
X151734342Y-104738095D02*
X151829580Y-104785714D01*
X151829580Y-104785714D02*
X151877200Y-104833333D01*
X151877200Y-104833333D02*
X151924819Y-104928571D01*
X151924819Y-104928571D02*
X151924819Y-105023809D01*
X151924819Y-105023809D02*
X151877200Y-105119047D01*
X151877200Y-105119047D02*
X151829580Y-105166666D01*
X151829580Y-105166666D02*
X151734342Y-105214285D01*
X151734342Y-105214285D02*
X151543866Y-105261904D01*
X151543866Y-105261904D02*
X151305771Y-105261904D01*
X151305771Y-105261904D02*
X151115295Y-105214285D01*
X151115295Y-105214285D02*
X151020057Y-105166666D01*
X151020057Y-105166666D02*
X150972438Y-105119047D01*
X150972438Y-105119047D02*
X150924819Y-105023809D01*
X150924819Y-104071428D02*
X150924819Y-103976190D01*
X150924819Y-103976190D02*
X150972438Y-103880952D01*
X150972438Y-103880952D02*
X151020057Y-103833333D01*
X151020057Y-103833333D02*
X151115295Y-103785714D01*
X151115295Y-103785714D02*
X151305771Y-103738095D01*
X151305771Y-103738095D02*
X151543866Y-103738095D01*
X151543866Y-103738095D02*
X151734342Y-103785714D01*
X151734342Y-103785714D02*
X151829580Y-103833333D01*
X151829580Y-103833333D02*
X151877200Y-103880952D01*
X151877200Y-103880952D02*
X151924819Y-103976190D01*
X151924819Y-103976190D02*
X151924819Y-104071428D01*
X151924819Y-104071428D02*
X151877200Y-104166666D01*
X151877200Y-104166666D02*
X151829580Y-104214285D01*
X151829580Y-104214285D02*
X151734342Y-104261904D01*
X151734342Y-104261904D02*
X151543866Y-104309523D01*
X151543866Y-104309523D02*
X151305771Y-104309523D01*
X151305771Y-104309523D02*
X151115295Y-104261904D01*
X151115295Y-104261904D02*
X151020057Y-104214285D01*
X151020057Y-104214285D02*
X150972438Y-104166666D01*
X150972438Y-104166666D02*
X150924819Y-104071428D01*
X151020057Y-103357142D02*
X150972438Y-103309523D01*
X150972438Y-103309523D02*
X150924819Y-103214285D01*
X150924819Y-103214285D02*
X150924819Y-102976190D01*
X150924819Y-102976190D02*
X150972438Y-102880952D01*
X150972438Y-102880952D02*
X151020057Y-102833333D01*
X151020057Y-102833333D02*
X151115295Y-102785714D01*
X151115295Y-102785714D02*
X151210533Y-102785714D01*
X151210533Y-102785714D02*
X151353390Y-102833333D01*
X151353390Y-102833333D02*
X151924819Y-103404761D01*
X151924819Y-103404761D02*
X151924819Y-102785714D01*
X147354819Y-110841904D02*
X146354819Y-110841904D01*
X147354819Y-110270476D02*
X146783390Y-110699047D01*
X146354819Y-110270476D02*
X146926247Y-110841904D01*
X112824819Y-85523333D02*
X113539104Y-85523333D01*
X113539104Y-85523333D02*
X113681961Y-85570952D01*
X113681961Y-85570952D02*
X113777200Y-85666190D01*
X113777200Y-85666190D02*
X113824819Y-85809047D01*
X113824819Y-85809047D02*
X113824819Y-85904285D01*
X112824819Y-85142380D02*
X112824819Y-84523333D01*
X112824819Y-84523333D02*
X113205771Y-84856666D01*
X113205771Y-84856666D02*
X113205771Y-84713809D01*
X113205771Y-84713809D02*
X113253390Y-84618571D01*
X113253390Y-84618571D02*
X113301009Y-84570952D01*
X113301009Y-84570952D02*
X113396247Y-84523333D01*
X113396247Y-84523333D02*
X113634342Y-84523333D01*
X113634342Y-84523333D02*
X113729580Y-84570952D01*
X113729580Y-84570952D02*
X113777200Y-84618571D01*
X113777200Y-84618571D02*
X113824819Y-84713809D01*
X113824819Y-84713809D02*
X113824819Y-84999523D01*
X113824819Y-84999523D02*
X113777200Y-85094761D01*
X113777200Y-85094761D02*
X113729580Y-85142380D01*
X104703866Y-90285237D02*
X104703866Y-89523333D01*
X105084819Y-88999523D02*
X105084819Y-88809047D01*
X105084819Y-88809047D02*
X105037200Y-88713809D01*
X105037200Y-88713809D02*
X104989580Y-88666190D01*
X104989580Y-88666190D02*
X104846723Y-88570952D01*
X104846723Y-88570952D02*
X104656247Y-88523333D01*
X104656247Y-88523333D02*
X104275295Y-88523333D01*
X104275295Y-88523333D02*
X104180057Y-88570952D01*
X104180057Y-88570952D02*
X104132438Y-88618571D01*
X104132438Y-88618571D02*
X104084819Y-88713809D01*
X104084819Y-88713809D02*
X104084819Y-88904285D01*
X104084819Y-88904285D02*
X104132438Y-88999523D01*
X104132438Y-88999523D02*
X104180057Y-89047142D01*
X104180057Y-89047142D02*
X104275295Y-89094761D01*
X104275295Y-89094761D02*
X104513390Y-89094761D01*
X104513390Y-89094761D02*
X104608628Y-89047142D01*
X104608628Y-89047142D02*
X104656247Y-88999523D01*
X104656247Y-88999523D02*
X104703866Y-88904285D01*
X104703866Y-88904285D02*
X104703866Y-88713809D01*
X104703866Y-88713809D02*
X104656247Y-88618571D01*
X104656247Y-88618571D02*
X104608628Y-88570952D01*
X104608628Y-88570952D02*
X104513390Y-88523333D01*
X104084819Y-88237618D02*
X105084819Y-87904285D01*
X105084819Y-87904285D02*
X104084819Y-87570952D01*
X104132438Y-85951904D02*
X104084819Y-86047142D01*
X104084819Y-86047142D02*
X104084819Y-86189999D01*
X104084819Y-86189999D02*
X104132438Y-86332856D01*
X104132438Y-86332856D02*
X104227676Y-86428094D01*
X104227676Y-86428094D02*
X104322914Y-86475713D01*
X104322914Y-86475713D02*
X104513390Y-86523332D01*
X104513390Y-86523332D02*
X104656247Y-86523332D01*
X104656247Y-86523332D02*
X104846723Y-86475713D01*
X104846723Y-86475713D02*
X104941961Y-86428094D01*
X104941961Y-86428094D02*
X105037200Y-86332856D01*
X105037200Y-86332856D02*
X105084819Y-86189999D01*
X105084819Y-86189999D02*
X105084819Y-86094761D01*
X105084819Y-86094761D02*
X105037200Y-85951904D01*
X105037200Y-85951904D02*
X104989580Y-85904285D01*
X104989580Y-85904285D02*
X104656247Y-85904285D01*
X104656247Y-85904285D02*
X104656247Y-86094761D01*
X105084819Y-85475713D02*
X104084819Y-85475713D01*
X104084819Y-85475713D02*
X105084819Y-84904285D01*
X105084819Y-84904285D02*
X104084819Y-84904285D01*
X105084819Y-84428094D02*
X104084819Y-84428094D01*
X104084819Y-84428094D02*
X104084819Y-84189999D01*
X104084819Y-84189999D02*
X104132438Y-84047142D01*
X104132438Y-84047142D02*
X104227676Y-83951904D01*
X104227676Y-83951904D02*
X104322914Y-83904285D01*
X104322914Y-83904285D02*
X104513390Y-83856666D01*
X104513390Y-83856666D02*
X104656247Y-83856666D01*
X104656247Y-83856666D02*
X104846723Y-83904285D01*
X104846723Y-83904285D02*
X104941961Y-83951904D01*
X104941961Y-83951904D02*
X105037200Y-84047142D01*
X105037200Y-84047142D02*
X105084819Y-84189999D01*
X105084819Y-84189999D02*
X105084819Y-84428094D01*
X104703866Y-82666189D02*
X104703866Y-81904285D01*
X105084819Y-82285237D02*
X104322914Y-82285237D01*
X105084819Y-81380475D02*
X105084819Y-81189999D01*
X105084819Y-81189999D02*
X105037200Y-81094761D01*
X105037200Y-81094761D02*
X104989580Y-81047142D01*
X104989580Y-81047142D02*
X104846723Y-80951904D01*
X104846723Y-80951904D02*
X104656247Y-80904285D01*
X104656247Y-80904285D02*
X104275295Y-80904285D01*
X104275295Y-80904285D02*
X104180057Y-80951904D01*
X104180057Y-80951904D02*
X104132438Y-80999523D01*
X104132438Y-80999523D02*
X104084819Y-81094761D01*
X104084819Y-81094761D02*
X104084819Y-81285237D01*
X104084819Y-81285237D02*
X104132438Y-81380475D01*
X104132438Y-81380475D02*
X104180057Y-81428094D01*
X104180057Y-81428094D02*
X104275295Y-81475713D01*
X104275295Y-81475713D02*
X104513390Y-81475713D01*
X104513390Y-81475713D02*
X104608628Y-81428094D01*
X104608628Y-81428094D02*
X104656247Y-81380475D01*
X104656247Y-81380475D02*
X104703866Y-81285237D01*
X104703866Y-81285237D02*
X104703866Y-81094761D01*
X104703866Y-81094761D02*
X104656247Y-80999523D01*
X104656247Y-80999523D02*
X104608628Y-80951904D01*
X104608628Y-80951904D02*
X104513390Y-80904285D01*
X104084819Y-80618570D02*
X105084819Y-80285237D01*
X105084819Y-80285237D02*
X104084819Y-79951904D01*
X176584819Y-97928571D02*
X176108628Y-98261904D01*
X176584819Y-98499999D02*
X175584819Y-98499999D01*
X175584819Y-98499999D02*
X175584819Y-98119047D01*
X175584819Y-98119047D02*
X175632438Y-98023809D01*
X175632438Y-98023809D02*
X175680057Y-97976190D01*
X175680057Y-97976190D02*
X175775295Y-97928571D01*
X175775295Y-97928571D02*
X175918152Y-97928571D01*
X175918152Y-97928571D02*
X176013390Y-97976190D01*
X176013390Y-97976190D02*
X176061009Y-98023809D01*
X176061009Y-98023809D02*
X176108628Y-98119047D01*
X176108628Y-98119047D02*
X176108628Y-98499999D01*
X176584819Y-97023809D02*
X176584819Y-97499999D01*
X176584819Y-97499999D02*
X175584819Y-97499999D01*
X176584819Y-96547618D02*
X176537200Y-96642856D01*
X176537200Y-96642856D02*
X176489580Y-96690475D01*
X176489580Y-96690475D02*
X176394342Y-96738094D01*
X176394342Y-96738094D02*
X176108628Y-96738094D01*
X176108628Y-96738094D02*
X176013390Y-96690475D01*
X176013390Y-96690475D02*
X175965771Y-96642856D01*
X175965771Y-96642856D02*
X175918152Y-96547618D01*
X175918152Y-96547618D02*
X175918152Y-96404761D01*
X175918152Y-96404761D02*
X175965771Y-96309523D01*
X175965771Y-96309523D02*
X176013390Y-96261904D01*
X176013390Y-96261904D02*
X176108628Y-96214285D01*
X176108628Y-96214285D02*
X176394342Y-96214285D01*
X176394342Y-96214285D02*
X176489580Y-96261904D01*
X176489580Y-96261904D02*
X176537200Y-96309523D01*
X176537200Y-96309523D02*
X176584819Y-96404761D01*
X176584819Y-96404761D02*
X176584819Y-96547618D01*
X176584819Y-95357142D02*
X176061009Y-95357142D01*
X176061009Y-95357142D02*
X175965771Y-95404761D01*
X175965771Y-95404761D02*
X175918152Y-95499999D01*
X175918152Y-95499999D02*
X175918152Y-95690475D01*
X175918152Y-95690475D02*
X175965771Y-95785713D01*
X176537200Y-95357142D02*
X176584819Y-95452380D01*
X176584819Y-95452380D02*
X176584819Y-95690475D01*
X176584819Y-95690475D02*
X176537200Y-95785713D01*
X176537200Y-95785713D02*
X176441961Y-95833332D01*
X176441961Y-95833332D02*
X176346723Y-95833332D01*
X176346723Y-95833332D02*
X176251485Y-95785713D01*
X176251485Y-95785713D02*
X176203866Y-95690475D01*
X176203866Y-95690475D02*
X176203866Y-95452380D01*
X176203866Y-95452380D02*
X176156247Y-95357142D01*
X176584819Y-94452380D02*
X175584819Y-94452380D01*
X176537200Y-94452380D02*
X176584819Y-94547618D01*
X176584819Y-94547618D02*
X176584819Y-94738094D01*
X176584819Y-94738094D02*
X176537200Y-94833332D01*
X176537200Y-94833332D02*
X176489580Y-94880951D01*
X176489580Y-94880951D02*
X176394342Y-94928570D01*
X176394342Y-94928570D02*
X176108628Y-94928570D01*
X176108628Y-94928570D02*
X176013390Y-94880951D01*
X176013390Y-94880951D02*
X175965771Y-94833332D01*
X175965771Y-94833332D02*
X175918152Y-94738094D01*
X175918152Y-94738094D02*
X175918152Y-94547618D01*
X175918152Y-94547618D02*
X175965771Y-94452380D01*
X176584819Y-93452380D02*
X176584819Y-94023808D01*
X176584819Y-93738094D02*
X175584819Y-93738094D01*
X175584819Y-93738094D02*
X175727676Y-93833332D01*
X175727676Y-93833332D02*
X175822914Y-93928570D01*
X175822914Y-93928570D02*
X175870533Y-94023808D01*
X181324819Y-97071428D02*
X181324819Y-97642856D01*
X181324819Y-97357142D02*
X180324819Y-97357142D01*
X180324819Y-97357142D02*
X180467676Y-97452380D01*
X180467676Y-97452380D02*
X180562914Y-97547618D01*
X180562914Y-97547618D02*
X180610533Y-97642856D01*
X180324819Y-96452380D02*
X180324819Y-96357142D01*
X180324819Y-96357142D02*
X180372438Y-96261904D01*
X180372438Y-96261904D02*
X180420057Y-96214285D01*
X180420057Y-96214285D02*
X180515295Y-96166666D01*
X180515295Y-96166666D02*
X180705771Y-96119047D01*
X180705771Y-96119047D02*
X180943866Y-96119047D01*
X180943866Y-96119047D02*
X181134342Y-96166666D01*
X181134342Y-96166666D02*
X181229580Y-96214285D01*
X181229580Y-96214285D02*
X181277200Y-96261904D01*
X181277200Y-96261904D02*
X181324819Y-96357142D01*
X181324819Y-96357142D02*
X181324819Y-96452380D01*
X181324819Y-96452380D02*
X181277200Y-96547618D01*
X181277200Y-96547618D02*
X181229580Y-96595237D01*
X181229580Y-96595237D02*
X181134342Y-96642856D01*
X181134342Y-96642856D02*
X180943866Y-96690475D01*
X180943866Y-96690475D02*
X180705771Y-96690475D01*
X180705771Y-96690475D02*
X180515295Y-96642856D01*
X180515295Y-96642856D02*
X180420057Y-96595237D01*
X180420057Y-96595237D02*
X180372438Y-96547618D01*
X180372438Y-96547618D02*
X180324819Y-96452380D01*
X180324819Y-95499999D02*
X180324819Y-95404761D01*
X180324819Y-95404761D02*
X180372438Y-95309523D01*
X180372438Y-95309523D02*
X180420057Y-95261904D01*
X180420057Y-95261904D02*
X180515295Y-95214285D01*
X180515295Y-95214285D02*
X180705771Y-95166666D01*
X180705771Y-95166666D02*
X180943866Y-95166666D01*
X180943866Y-95166666D02*
X181134342Y-95214285D01*
X181134342Y-95214285D02*
X181229580Y-95261904D01*
X181229580Y-95261904D02*
X181277200Y-95309523D01*
X181277200Y-95309523D02*
X181324819Y-95404761D01*
X181324819Y-95404761D02*
X181324819Y-95499999D01*
X181324819Y-95499999D02*
X181277200Y-95595237D01*
X181277200Y-95595237D02*
X181229580Y-95642856D01*
X181229580Y-95642856D02*
X181134342Y-95690475D01*
X181134342Y-95690475D02*
X180943866Y-95738094D01*
X180943866Y-95738094D02*
X180705771Y-95738094D01*
X180705771Y-95738094D02*
X180515295Y-95690475D01*
X180515295Y-95690475D02*
X180420057Y-95642856D01*
X180420057Y-95642856D02*
X180372438Y-95595237D01*
X180372438Y-95595237D02*
X180324819Y-95499999D01*
X181324819Y-94738094D02*
X180324819Y-94738094D01*
X180943866Y-94642856D02*
X181324819Y-94357142D01*
X180658152Y-94357142D02*
X181039104Y-94738094D01*
X153954819Y-105666666D02*
X153478628Y-105999999D01*
X153954819Y-106238094D02*
X152954819Y-106238094D01*
X152954819Y-106238094D02*
X152954819Y-105857142D01*
X152954819Y-105857142D02*
X153002438Y-105761904D01*
X153002438Y-105761904D02*
X153050057Y-105714285D01*
X153050057Y-105714285D02*
X153145295Y-105666666D01*
X153145295Y-105666666D02*
X153288152Y-105666666D01*
X153288152Y-105666666D02*
X153383390Y-105714285D01*
X153383390Y-105714285D02*
X153431009Y-105761904D01*
X153431009Y-105761904D02*
X153478628Y-105857142D01*
X153478628Y-105857142D02*
X153478628Y-106238094D01*
X153288152Y-104809523D02*
X153954819Y-104809523D01*
X152907200Y-105047618D02*
X153621485Y-105285713D01*
X153621485Y-105285713D02*
X153621485Y-104666666D01*
X158050057Y-106166666D02*
X158002438Y-106119047D01*
X158002438Y-106119047D02*
X157954819Y-106023809D01*
X157954819Y-106023809D02*
X157954819Y-105785714D01*
X157954819Y-105785714D02*
X158002438Y-105690476D01*
X158002438Y-105690476D02*
X158050057Y-105642857D01*
X158050057Y-105642857D02*
X158145295Y-105595238D01*
X158145295Y-105595238D02*
X158240533Y-105595238D01*
X158240533Y-105595238D02*
X158383390Y-105642857D01*
X158383390Y-105642857D02*
X158954819Y-106214285D01*
X158954819Y-106214285D02*
X158954819Y-105595238D01*
X157954819Y-104976190D02*
X157954819Y-104880952D01*
X157954819Y-104880952D02*
X158002438Y-104785714D01*
X158002438Y-104785714D02*
X158050057Y-104738095D01*
X158050057Y-104738095D02*
X158145295Y-104690476D01*
X158145295Y-104690476D02*
X158335771Y-104642857D01*
X158335771Y-104642857D02*
X158573866Y-104642857D01*
X158573866Y-104642857D02*
X158764342Y-104690476D01*
X158764342Y-104690476D02*
X158859580Y-104738095D01*
X158859580Y-104738095D02*
X158907200Y-104785714D01*
X158907200Y-104785714D02*
X158954819Y-104880952D01*
X158954819Y-104880952D02*
X158954819Y-104976190D01*
X158954819Y-104976190D02*
X158907200Y-105071428D01*
X158907200Y-105071428D02*
X158859580Y-105119047D01*
X158859580Y-105119047D02*
X158764342Y-105166666D01*
X158764342Y-105166666D02*
X158573866Y-105214285D01*
X158573866Y-105214285D02*
X158335771Y-105214285D01*
X158335771Y-105214285D02*
X158145295Y-105166666D01*
X158145295Y-105166666D02*
X158050057Y-105119047D01*
X158050057Y-105119047D02*
X158002438Y-105071428D01*
X158002438Y-105071428D02*
X157954819Y-104976190D01*
X158954819Y-104214285D02*
X157954819Y-104214285D01*
X158573866Y-104119047D02*
X158954819Y-103833333D01*
X158288152Y-103833333D02*
X158669104Y-104214285D01*
X106859580Y-108666666D02*
X106907200Y-108714285D01*
X106907200Y-108714285D02*
X106954819Y-108857142D01*
X106954819Y-108857142D02*
X106954819Y-108952380D01*
X106954819Y-108952380D02*
X106907200Y-109095237D01*
X106907200Y-109095237D02*
X106811961Y-109190475D01*
X106811961Y-109190475D02*
X106716723Y-109238094D01*
X106716723Y-109238094D02*
X106526247Y-109285713D01*
X106526247Y-109285713D02*
X106383390Y-109285713D01*
X106383390Y-109285713D02*
X106192914Y-109238094D01*
X106192914Y-109238094D02*
X106097676Y-109190475D01*
X106097676Y-109190475D02*
X106002438Y-109095237D01*
X106002438Y-109095237D02*
X105954819Y-108952380D01*
X105954819Y-108952380D02*
X105954819Y-108857142D01*
X105954819Y-108857142D02*
X106002438Y-108714285D01*
X106002438Y-108714285D02*
X106050057Y-108666666D01*
X105954819Y-107809523D02*
X105954819Y-107999999D01*
X105954819Y-107999999D02*
X106002438Y-108095237D01*
X106002438Y-108095237D02*
X106050057Y-108142856D01*
X106050057Y-108142856D02*
X106192914Y-108238094D01*
X106192914Y-108238094D02*
X106383390Y-108285713D01*
X106383390Y-108285713D02*
X106764342Y-108285713D01*
X106764342Y-108285713D02*
X106859580Y-108238094D01*
X106859580Y-108238094D02*
X106907200Y-108190475D01*
X106907200Y-108190475D02*
X106954819Y-108095237D01*
X106954819Y-108095237D02*
X106954819Y-107904761D01*
X106954819Y-107904761D02*
X106907200Y-107809523D01*
X106907200Y-107809523D02*
X106859580Y-107761904D01*
X106859580Y-107761904D02*
X106764342Y-107714285D01*
X106764342Y-107714285D02*
X106526247Y-107714285D01*
X106526247Y-107714285D02*
X106431009Y-107761904D01*
X106431009Y-107761904D02*
X106383390Y-107809523D01*
X106383390Y-107809523D02*
X106335771Y-107904761D01*
X106335771Y-107904761D02*
X106335771Y-108095237D01*
X106335771Y-108095237D02*
X106383390Y-108190475D01*
X106383390Y-108190475D02*
X106431009Y-108238094D01*
X106431009Y-108238094D02*
X106526247Y-108285713D01*
X110954819Y-110142856D02*
X110954819Y-110047618D01*
X110954819Y-110047618D02*
X111002438Y-109952380D01*
X111002438Y-109952380D02*
X111050057Y-109904761D01*
X111050057Y-109904761D02*
X111145295Y-109857142D01*
X111145295Y-109857142D02*
X111335771Y-109809523D01*
X111335771Y-109809523D02*
X111573866Y-109809523D01*
X111573866Y-109809523D02*
X111764342Y-109857142D01*
X111764342Y-109857142D02*
X111859580Y-109904761D01*
X111859580Y-109904761D02*
X111907200Y-109952380D01*
X111907200Y-109952380D02*
X111954819Y-110047618D01*
X111954819Y-110047618D02*
X111954819Y-110142856D01*
X111954819Y-110142856D02*
X111907200Y-110238094D01*
X111907200Y-110238094D02*
X111859580Y-110285713D01*
X111859580Y-110285713D02*
X111764342Y-110333332D01*
X111764342Y-110333332D02*
X111573866Y-110380951D01*
X111573866Y-110380951D02*
X111335771Y-110380951D01*
X111335771Y-110380951D02*
X111145295Y-110333332D01*
X111145295Y-110333332D02*
X111050057Y-110285713D01*
X111050057Y-110285713D02*
X111002438Y-110238094D01*
X111002438Y-110238094D02*
X110954819Y-110142856D01*
X111859580Y-109380951D02*
X111907200Y-109333332D01*
X111907200Y-109333332D02*
X111954819Y-109380951D01*
X111954819Y-109380951D02*
X111907200Y-109428570D01*
X111907200Y-109428570D02*
X111859580Y-109380951D01*
X111859580Y-109380951D02*
X111954819Y-109380951D01*
X111954819Y-108380952D02*
X111954819Y-108952380D01*
X111954819Y-108666666D02*
X110954819Y-108666666D01*
X110954819Y-108666666D02*
X111097676Y-108761904D01*
X111097676Y-108761904D02*
X111192914Y-108857142D01*
X111192914Y-108857142D02*
X111240533Y-108952380D01*
X111288152Y-107523809D02*
X111954819Y-107523809D01*
X111288152Y-107952380D02*
X111811961Y-107952380D01*
X111811961Y-107952380D02*
X111907200Y-107904761D01*
X111907200Y-107904761D02*
X111954819Y-107809523D01*
X111954819Y-107809523D02*
X111954819Y-107666666D01*
X111954819Y-107666666D02*
X111907200Y-107571428D01*
X111907200Y-107571428D02*
X111859580Y-107523809D01*
X111431009Y-106714285D02*
X111431009Y-107047618D01*
X111954819Y-107047618D02*
X110954819Y-107047618D01*
X110954819Y-107047618D02*
X110954819Y-106571428D01*
X112824819Y-98563333D02*
X113539104Y-98563333D01*
X113539104Y-98563333D02*
X113681961Y-98610952D01*
X113681961Y-98610952D02*
X113777200Y-98706190D01*
X113777200Y-98706190D02*
X113824819Y-98849047D01*
X113824819Y-98849047D02*
X113824819Y-98944285D01*
X113824819Y-97563333D02*
X113824819Y-98134761D01*
X113824819Y-97849047D02*
X112824819Y-97849047D01*
X112824819Y-97849047D02*
X112967676Y-97944285D01*
X112967676Y-97944285D02*
X113062914Y-98039523D01*
X113062914Y-98039523D02*
X113110533Y-98134761D01*
X104954819Y-98523809D02*
X104954819Y-99095237D01*
X104954819Y-98809523D02*
X103954819Y-98809523D01*
X103954819Y-98809523D02*
X104097676Y-98904761D01*
X104097676Y-98904761D02*
X104192914Y-98999999D01*
X104192914Y-98999999D02*
X104240533Y-99095237D01*
X103954819Y-97904761D02*
X103954819Y-97809523D01*
X103954819Y-97809523D02*
X104002438Y-97714285D01*
X104002438Y-97714285D02*
X104050057Y-97666666D01*
X104050057Y-97666666D02*
X104145295Y-97619047D01*
X104145295Y-97619047D02*
X104335771Y-97571428D01*
X104335771Y-97571428D02*
X104573866Y-97571428D01*
X104573866Y-97571428D02*
X104764342Y-97619047D01*
X104764342Y-97619047D02*
X104859580Y-97666666D01*
X104859580Y-97666666D02*
X104907200Y-97714285D01*
X104907200Y-97714285D02*
X104954819Y-97809523D01*
X104954819Y-97809523D02*
X104954819Y-97904761D01*
X104954819Y-97904761D02*
X104907200Y-97999999D01*
X104907200Y-97999999D02*
X104859580Y-98047618D01*
X104859580Y-98047618D02*
X104764342Y-98095237D01*
X104764342Y-98095237D02*
X104573866Y-98142856D01*
X104573866Y-98142856D02*
X104335771Y-98142856D01*
X104335771Y-98142856D02*
X104145295Y-98095237D01*
X104145295Y-98095237D02*
X104050057Y-98047618D01*
X104050057Y-98047618D02*
X104002438Y-97999999D01*
X104002438Y-97999999D02*
X103954819Y-97904761D01*
X104954819Y-97142856D02*
X103954819Y-97142856D01*
X104573866Y-97047618D02*
X104954819Y-96761904D01*
X104288152Y-96761904D02*
X104669104Y-97142856D01*
X104954819Y-96333332D02*
X103954819Y-96333332D01*
X104431009Y-96333332D02*
X104431009Y-95761904D01*
X104954819Y-95761904D02*
X103954819Y-95761904D01*
X104288152Y-95380951D02*
X104288152Y-94857142D01*
X104288152Y-94857142D02*
X104954819Y-95380951D01*
X104954819Y-95380951D02*
X104954819Y-94857142D01*
X163404761Y-100550057D02*
X163309523Y-100502438D01*
X163309523Y-100502438D02*
X163214285Y-100407200D01*
X163214285Y-100407200D02*
X163071428Y-100264342D01*
X163071428Y-100264342D02*
X162976190Y-100216723D01*
X162976190Y-100216723D02*
X162880952Y-100216723D01*
X162928571Y-100454819D02*
X162833333Y-100407200D01*
X162833333Y-100407200D02*
X162738095Y-100311961D01*
X162738095Y-100311961D02*
X162690476Y-100121485D01*
X162690476Y-100121485D02*
X162690476Y-99788152D01*
X162690476Y-99788152D02*
X162738095Y-99597676D01*
X162738095Y-99597676D02*
X162833333Y-99502438D01*
X162833333Y-99502438D02*
X162928571Y-99454819D01*
X162928571Y-99454819D02*
X163119047Y-99454819D01*
X163119047Y-99454819D02*
X163214285Y-99502438D01*
X163214285Y-99502438D02*
X163309523Y-99597676D01*
X163309523Y-99597676D02*
X163357142Y-99788152D01*
X163357142Y-99788152D02*
X163357142Y-100121485D01*
X163357142Y-100121485D02*
X163309523Y-100311961D01*
X163309523Y-100311961D02*
X163214285Y-100407200D01*
X163214285Y-100407200D02*
X163119047Y-100454819D01*
X163119047Y-100454819D02*
X162928571Y-100454819D01*
X163690476Y-99454819D02*
X164309523Y-99454819D01*
X164309523Y-99454819D02*
X163976190Y-99835771D01*
X163976190Y-99835771D02*
X164119047Y-99835771D01*
X164119047Y-99835771D02*
X164214285Y-99883390D01*
X164214285Y-99883390D02*
X164261904Y-99931009D01*
X164261904Y-99931009D02*
X164309523Y-100026247D01*
X164309523Y-100026247D02*
X164309523Y-100264342D01*
X164309523Y-100264342D02*
X164261904Y-100359580D01*
X164261904Y-100359580D02*
X164214285Y-100407200D01*
X164214285Y-100407200D02*
X164119047Y-100454819D01*
X164119047Y-100454819D02*
X163833333Y-100454819D01*
X163833333Y-100454819D02*
X163738095Y-100407200D01*
X163738095Y-100407200D02*
X163690476Y-100359580D01*
X160785714Y-107050057D02*
X160833333Y-107002438D01*
X160833333Y-107002438D02*
X160928571Y-106954819D01*
X160928571Y-106954819D02*
X161166666Y-106954819D01*
X161166666Y-106954819D02*
X161261904Y-107002438D01*
X161261904Y-107002438D02*
X161309523Y-107050057D01*
X161309523Y-107050057D02*
X161357142Y-107145295D01*
X161357142Y-107145295D02*
X161357142Y-107240533D01*
X161357142Y-107240533D02*
X161309523Y-107383390D01*
X161309523Y-107383390D02*
X160738095Y-107954819D01*
X160738095Y-107954819D02*
X161357142Y-107954819D01*
X161785714Y-107954819D02*
X161785714Y-106954819D01*
X161785714Y-106954819D02*
X162357142Y-107954819D01*
X162357142Y-107954819D02*
X162357142Y-106954819D01*
X162738095Y-106954819D02*
X163357142Y-106954819D01*
X163357142Y-106954819D02*
X163023809Y-107335771D01*
X163023809Y-107335771D02*
X163166666Y-107335771D01*
X163166666Y-107335771D02*
X163261904Y-107383390D01*
X163261904Y-107383390D02*
X163309523Y-107431009D01*
X163309523Y-107431009D02*
X163357142Y-107526247D01*
X163357142Y-107526247D02*
X163357142Y-107764342D01*
X163357142Y-107764342D02*
X163309523Y-107859580D01*
X163309523Y-107859580D02*
X163261904Y-107907200D01*
X163261904Y-107907200D02*
X163166666Y-107954819D01*
X163166666Y-107954819D02*
X162880952Y-107954819D01*
X162880952Y-107954819D02*
X162785714Y-107907200D01*
X162785714Y-107907200D02*
X162738095Y-107859580D01*
X163833333Y-107954819D02*
X164023809Y-107954819D01*
X164023809Y-107954819D02*
X164119047Y-107907200D01*
X164119047Y-107907200D02*
X164166666Y-107859580D01*
X164166666Y-107859580D02*
X164261904Y-107716723D01*
X164261904Y-107716723D02*
X164309523Y-107526247D01*
X164309523Y-107526247D02*
X164309523Y-107145295D01*
X164309523Y-107145295D02*
X164261904Y-107050057D01*
X164261904Y-107050057D02*
X164214285Y-107002438D01*
X164214285Y-107002438D02*
X164119047Y-106954819D01*
X164119047Y-106954819D02*
X163928571Y-106954819D01*
X163928571Y-106954819D02*
X163833333Y-107002438D01*
X163833333Y-107002438D02*
X163785714Y-107050057D01*
X163785714Y-107050057D02*
X163738095Y-107145295D01*
X163738095Y-107145295D02*
X163738095Y-107383390D01*
X163738095Y-107383390D02*
X163785714Y-107478628D01*
X163785714Y-107478628D02*
X163833333Y-107526247D01*
X163833333Y-107526247D02*
X163928571Y-107573866D01*
X163928571Y-107573866D02*
X164119047Y-107573866D01*
X164119047Y-107573866D02*
X164214285Y-107526247D01*
X164214285Y-107526247D02*
X164261904Y-107478628D01*
X164261904Y-107478628D02*
X164309523Y-107383390D01*
X164928571Y-106954819D02*
X165023809Y-106954819D01*
X165023809Y-106954819D02*
X165119047Y-107002438D01*
X165119047Y-107002438D02*
X165166666Y-107050057D01*
X165166666Y-107050057D02*
X165214285Y-107145295D01*
X165214285Y-107145295D02*
X165261904Y-107335771D01*
X165261904Y-107335771D02*
X165261904Y-107573866D01*
X165261904Y-107573866D02*
X165214285Y-107764342D01*
X165214285Y-107764342D02*
X165166666Y-107859580D01*
X165166666Y-107859580D02*
X165119047Y-107907200D01*
X165119047Y-107907200D02*
X165023809Y-107954819D01*
X165023809Y-107954819D02*
X164928571Y-107954819D01*
X164928571Y-107954819D02*
X164833333Y-107907200D01*
X164833333Y-107907200D02*
X164785714Y-107859580D01*
X164785714Y-107859580D02*
X164738095Y-107764342D01*
X164738095Y-107764342D02*
X164690476Y-107573866D01*
X164690476Y-107573866D02*
X164690476Y-107335771D01*
X164690476Y-107335771D02*
X164738095Y-107145295D01*
X164738095Y-107145295D02*
X164785714Y-107050057D01*
X164785714Y-107050057D02*
X164833333Y-107002438D01*
X164833333Y-107002438D02*
X164928571Y-106954819D01*
X166119047Y-106954819D02*
X165928571Y-106954819D01*
X165928571Y-106954819D02*
X165833333Y-107002438D01*
X165833333Y-107002438D02*
X165785714Y-107050057D01*
X165785714Y-107050057D02*
X165690476Y-107192914D01*
X165690476Y-107192914D02*
X165642857Y-107383390D01*
X165642857Y-107383390D02*
X165642857Y-107764342D01*
X165642857Y-107764342D02*
X165690476Y-107859580D01*
X165690476Y-107859580D02*
X165738095Y-107907200D01*
X165738095Y-107907200D02*
X165833333Y-107954819D01*
X165833333Y-107954819D02*
X166023809Y-107954819D01*
X166023809Y-107954819D02*
X166119047Y-107907200D01*
X166119047Y-107907200D02*
X166166666Y-107859580D01*
X166166666Y-107859580D02*
X166214285Y-107764342D01*
X166214285Y-107764342D02*
X166214285Y-107526247D01*
X166214285Y-107526247D02*
X166166666Y-107431009D01*
X166166666Y-107431009D02*
X166119047Y-107383390D01*
X166119047Y-107383390D02*
X166023809Y-107335771D01*
X166023809Y-107335771D02*
X165833333Y-107335771D01*
X165833333Y-107335771D02*
X165738095Y-107383390D01*
X165738095Y-107383390D02*
X165690476Y-107431009D01*
X165690476Y-107431009D02*
X165642857Y-107526247D01*
X163904761Y-78050057D02*
X163809523Y-78002438D01*
X163809523Y-78002438D02*
X163714285Y-77907200D01*
X163714285Y-77907200D02*
X163571428Y-77764342D01*
X163571428Y-77764342D02*
X163476190Y-77716723D01*
X163476190Y-77716723D02*
X163380952Y-77716723D01*
X163428571Y-77954819D02*
X163333333Y-77907200D01*
X163333333Y-77907200D02*
X163238095Y-77811961D01*
X163238095Y-77811961D02*
X163190476Y-77621485D01*
X163190476Y-77621485D02*
X163190476Y-77288152D01*
X163190476Y-77288152D02*
X163238095Y-77097676D01*
X163238095Y-77097676D02*
X163333333Y-77002438D01*
X163333333Y-77002438D02*
X163428571Y-76954819D01*
X163428571Y-76954819D02*
X163619047Y-76954819D01*
X163619047Y-76954819D02*
X163714285Y-77002438D01*
X163714285Y-77002438D02*
X163809523Y-77097676D01*
X163809523Y-77097676D02*
X163857142Y-77288152D01*
X163857142Y-77288152D02*
X163857142Y-77621485D01*
X163857142Y-77621485D02*
X163809523Y-77811961D01*
X163809523Y-77811961D02*
X163714285Y-77907200D01*
X163714285Y-77907200D02*
X163619047Y-77954819D01*
X163619047Y-77954819D02*
X163428571Y-77954819D01*
X164238095Y-77050057D02*
X164285714Y-77002438D01*
X164285714Y-77002438D02*
X164380952Y-76954819D01*
X164380952Y-76954819D02*
X164619047Y-76954819D01*
X164619047Y-76954819D02*
X164714285Y-77002438D01*
X164714285Y-77002438D02*
X164761904Y-77050057D01*
X164761904Y-77050057D02*
X164809523Y-77145295D01*
X164809523Y-77145295D02*
X164809523Y-77240533D01*
X164809523Y-77240533D02*
X164761904Y-77383390D01*
X164761904Y-77383390D02*
X164190476Y-77954819D01*
X164190476Y-77954819D02*
X164809523Y-77954819D01*
X128990057Y-93095238D02*
X128942438Y-93190476D01*
X128942438Y-93190476D02*
X128847200Y-93285714D01*
X128847200Y-93285714D02*
X128704342Y-93428571D01*
X128704342Y-93428571D02*
X128656723Y-93523809D01*
X128656723Y-93523809D02*
X128656723Y-93619047D01*
X128894819Y-93571428D02*
X128847200Y-93666666D01*
X128847200Y-93666666D02*
X128751961Y-93761904D01*
X128751961Y-93761904D02*
X128561485Y-93809523D01*
X128561485Y-93809523D02*
X128228152Y-93809523D01*
X128228152Y-93809523D02*
X128037676Y-93761904D01*
X128037676Y-93761904D02*
X127942438Y-93666666D01*
X127942438Y-93666666D02*
X127894819Y-93571428D01*
X127894819Y-93571428D02*
X127894819Y-93380952D01*
X127894819Y-93380952D02*
X127942438Y-93285714D01*
X127942438Y-93285714D02*
X128037676Y-93190476D01*
X128037676Y-93190476D02*
X128228152Y-93142857D01*
X128228152Y-93142857D02*
X128561485Y-93142857D01*
X128561485Y-93142857D02*
X128751961Y-93190476D01*
X128751961Y-93190476D02*
X128847200Y-93285714D01*
X128847200Y-93285714D02*
X128894819Y-93380952D01*
X128894819Y-93380952D02*
X128894819Y-93571428D01*
X128894819Y-92190476D02*
X128894819Y-92761904D01*
X128894819Y-92476190D02*
X127894819Y-92476190D01*
X127894819Y-92476190D02*
X128037676Y-92571428D01*
X128037676Y-92571428D02*
X128132914Y-92666666D01*
X128132914Y-92666666D02*
X128180533Y-92761904D01*
X134340057Y-95714285D02*
X134292438Y-95666666D01*
X134292438Y-95666666D02*
X134244819Y-95571428D01*
X134244819Y-95571428D02*
X134244819Y-95333333D01*
X134244819Y-95333333D02*
X134292438Y-95238095D01*
X134292438Y-95238095D02*
X134340057Y-95190476D01*
X134340057Y-95190476D02*
X134435295Y-95142857D01*
X134435295Y-95142857D02*
X134530533Y-95142857D01*
X134530533Y-95142857D02*
X134673390Y-95190476D01*
X134673390Y-95190476D02*
X135244819Y-95761904D01*
X135244819Y-95761904D02*
X135244819Y-95142857D01*
X135244819Y-94714285D02*
X134244819Y-94714285D01*
X134244819Y-94714285D02*
X135244819Y-94142857D01*
X135244819Y-94142857D02*
X134244819Y-94142857D01*
X134244819Y-93761904D02*
X134244819Y-93142857D01*
X134244819Y-93142857D02*
X134625771Y-93476190D01*
X134625771Y-93476190D02*
X134625771Y-93333333D01*
X134625771Y-93333333D02*
X134673390Y-93238095D01*
X134673390Y-93238095D02*
X134721009Y-93190476D01*
X134721009Y-93190476D02*
X134816247Y-93142857D01*
X134816247Y-93142857D02*
X135054342Y-93142857D01*
X135054342Y-93142857D02*
X135149580Y-93190476D01*
X135149580Y-93190476D02*
X135197200Y-93238095D01*
X135197200Y-93238095D02*
X135244819Y-93333333D01*
X135244819Y-93333333D02*
X135244819Y-93619047D01*
X135244819Y-93619047D02*
X135197200Y-93714285D01*
X135197200Y-93714285D02*
X135149580Y-93761904D01*
X135244819Y-92666666D02*
X135244819Y-92476190D01*
X135244819Y-92476190D02*
X135197200Y-92380952D01*
X135197200Y-92380952D02*
X135149580Y-92333333D01*
X135149580Y-92333333D02*
X135006723Y-92238095D01*
X135006723Y-92238095D02*
X134816247Y-92190476D01*
X134816247Y-92190476D02*
X134435295Y-92190476D01*
X134435295Y-92190476D02*
X134340057Y-92238095D01*
X134340057Y-92238095D02*
X134292438Y-92285714D01*
X134292438Y-92285714D02*
X134244819Y-92380952D01*
X134244819Y-92380952D02*
X134244819Y-92571428D01*
X134244819Y-92571428D02*
X134292438Y-92666666D01*
X134292438Y-92666666D02*
X134340057Y-92714285D01*
X134340057Y-92714285D02*
X134435295Y-92761904D01*
X134435295Y-92761904D02*
X134673390Y-92761904D01*
X134673390Y-92761904D02*
X134768628Y-92714285D01*
X134768628Y-92714285D02*
X134816247Y-92666666D01*
X134816247Y-92666666D02*
X134863866Y-92571428D01*
X134863866Y-92571428D02*
X134863866Y-92380952D01*
X134863866Y-92380952D02*
X134816247Y-92285714D01*
X134816247Y-92285714D02*
X134768628Y-92238095D01*
X134768628Y-92238095D02*
X134673390Y-92190476D01*
X134244819Y-91571428D02*
X134244819Y-91476190D01*
X134244819Y-91476190D02*
X134292438Y-91380952D01*
X134292438Y-91380952D02*
X134340057Y-91333333D01*
X134340057Y-91333333D02*
X134435295Y-91285714D01*
X134435295Y-91285714D02*
X134625771Y-91238095D01*
X134625771Y-91238095D02*
X134863866Y-91238095D01*
X134863866Y-91238095D02*
X135054342Y-91285714D01*
X135054342Y-91285714D02*
X135149580Y-91333333D01*
X135149580Y-91333333D02*
X135197200Y-91380952D01*
X135197200Y-91380952D02*
X135244819Y-91476190D01*
X135244819Y-91476190D02*
X135244819Y-91571428D01*
X135244819Y-91571428D02*
X135197200Y-91666666D01*
X135197200Y-91666666D02*
X135149580Y-91714285D01*
X135149580Y-91714285D02*
X135054342Y-91761904D01*
X135054342Y-91761904D02*
X134863866Y-91809523D01*
X134863866Y-91809523D02*
X134625771Y-91809523D01*
X134625771Y-91809523D02*
X134435295Y-91761904D01*
X134435295Y-91761904D02*
X134340057Y-91714285D01*
X134340057Y-91714285D02*
X134292438Y-91666666D01*
X134292438Y-91666666D02*
X134244819Y-91571428D01*
X134578152Y-90380952D02*
X135244819Y-90380952D01*
X134197200Y-90619047D02*
X134911485Y-90857142D01*
X134911485Y-90857142D02*
X134911485Y-90238095D01*
X118833333Y-89609580D02*
X118785714Y-89657200D01*
X118785714Y-89657200D02*
X118642857Y-89704819D01*
X118642857Y-89704819D02*
X118547619Y-89704819D01*
X118547619Y-89704819D02*
X118404762Y-89657200D01*
X118404762Y-89657200D02*
X118309524Y-89561961D01*
X118309524Y-89561961D02*
X118261905Y-89466723D01*
X118261905Y-89466723D02*
X118214286Y-89276247D01*
X118214286Y-89276247D02*
X118214286Y-89133390D01*
X118214286Y-89133390D02*
X118261905Y-88942914D01*
X118261905Y-88942914D02*
X118309524Y-88847676D01*
X118309524Y-88847676D02*
X118404762Y-88752438D01*
X118404762Y-88752438D02*
X118547619Y-88704819D01*
X118547619Y-88704819D02*
X118642857Y-88704819D01*
X118642857Y-88704819D02*
X118785714Y-88752438D01*
X118785714Y-88752438D02*
X118833333Y-88800057D01*
X119785714Y-89704819D02*
X119214286Y-89704819D01*
X119500000Y-89704819D02*
X119500000Y-88704819D01*
X119500000Y-88704819D02*
X119404762Y-88847676D01*
X119404762Y-88847676D02*
X119309524Y-88942914D01*
X119309524Y-88942914D02*
X119214286Y-88990533D01*
X117928571Y-97204819D02*
X117357143Y-97204819D01*
X117642857Y-97204819D02*
X117642857Y-96204819D01*
X117642857Y-96204819D02*
X117547619Y-96347676D01*
X117547619Y-96347676D02*
X117452381Y-96442914D01*
X117452381Y-96442914D02*
X117357143Y-96490533D01*
X118547619Y-96204819D02*
X118642857Y-96204819D01*
X118642857Y-96204819D02*
X118738095Y-96252438D01*
X118738095Y-96252438D02*
X118785714Y-96300057D01*
X118785714Y-96300057D02*
X118833333Y-96395295D01*
X118833333Y-96395295D02*
X118880952Y-96585771D01*
X118880952Y-96585771D02*
X118880952Y-96823866D01*
X118880952Y-96823866D02*
X118833333Y-97014342D01*
X118833333Y-97014342D02*
X118785714Y-97109580D01*
X118785714Y-97109580D02*
X118738095Y-97157200D01*
X118738095Y-97157200D02*
X118642857Y-97204819D01*
X118642857Y-97204819D02*
X118547619Y-97204819D01*
X118547619Y-97204819D02*
X118452381Y-97157200D01*
X118452381Y-97157200D02*
X118404762Y-97109580D01*
X118404762Y-97109580D02*
X118357143Y-97014342D01*
X118357143Y-97014342D02*
X118309524Y-96823866D01*
X118309524Y-96823866D02*
X118309524Y-96585771D01*
X118309524Y-96585771D02*
X118357143Y-96395295D01*
X118357143Y-96395295D02*
X118404762Y-96300057D01*
X118404762Y-96300057D02*
X118452381Y-96252438D01*
X118452381Y-96252438D02*
X118547619Y-96204819D01*
X119738095Y-96538152D02*
X119738095Y-97204819D01*
X119309524Y-96538152D02*
X119309524Y-97061961D01*
X119309524Y-97061961D02*
X119357143Y-97157200D01*
X119357143Y-97157200D02*
X119452381Y-97204819D01*
X119452381Y-97204819D02*
X119595238Y-97204819D01*
X119595238Y-97204819D02*
X119690476Y-97157200D01*
X119690476Y-97157200D02*
X119738095Y-97109580D01*
X120547619Y-96681009D02*
X120214286Y-96681009D01*
X120214286Y-97204819D02*
X120214286Y-96204819D01*
X120214286Y-96204819D02*
X120690476Y-96204819D01*
X168084819Y-97666666D02*
X167608628Y-97999999D01*
X168084819Y-98238094D02*
X167084819Y-98238094D01*
X167084819Y-98238094D02*
X167084819Y-97857142D01*
X167084819Y-97857142D02*
X167132438Y-97761904D01*
X167132438Y-97761904D02*
X167180057Y-97714285D01*
X167180057Y-97714285D02*
X167275295Y-97666666D01*
X167275295Y-97666666D02*
X167418152Y-97666666D01*
X167418152Y-97666666D02*
X167513390Y-97714285D01*
X167513390Y-97714285D02*
X167561009Y-97761904D01*
X167561009Y-97761904D02*
X167608628Y-97857142D01*
X167608628Y-97857142D02*
X167608628Y-98238094D01*
X167084819Y-96761904D02*
X167084819Y-97238094D01*
X167084819Y-97238094D02*
X167561009Y-97285713D01*
X167561009Y-97285713D02*
X167513390Y-97238094D01*
X167513390Y-97238094D02*
X167465771Y-97142856D01*
X167465771Y-97142856D02*
X167465771Y-96904761D01*
X167465771Y-96904761D02*
X167513390Y-96809523D01*
X167513390Y-96809523D02*
X167561009Y-96761904D01*
X167561009Y-96761904D02*
X167656247Y-96714285D01*
X167656247Y-96714285D02*
X167894342Y-96714285D01*
X167894342Y-96714285D02*
X167989580Y-96761904D01*
X167989580Y-96761904D02*
X168037200Y-96809523D01*
X168037200Y-96809523D02*
X168084819Y-96904761D01*
X168084819Y-96904761D02*
X168084819Y-97142856D01*
X168084819Y-97142856D02*
X168037200Y-97238094D01*
X168037200Y-97238094D02*
X167989580Y-97285713D01*
X172824819Y-97690476D02*
X172824819Y-98261904D01*
X172824819Y-97976190D02*
X171824819Y-97976190D01*
X171824819Y-97976190D02*
X171967676Y-98071428D01*
X171967676Y-98071428D02*
X172062914Y-98166666D01*
X172062914Y-98166666D02*
X172110533Y-98261904D01*
X171824819Y-97071428D02*
X171824819Y-96976190D01*
X171824819Y-96976190D02*
X171872438Y-96880952D01*
X171872438Y-96880952D02*
X171920057Y-96833333D01*
X171920057Y-96833333D02*
X172015295Y-96785714D01*
X172015295Y-96785714D02*
X172205771Y-96738095D01*
X172205771Y-96738095D02*
X172443866Y-96738095D01*
X172443866Y-96738095D02*
X172634342Y-96785714D01*
X172634342Y-96785714D02*
X172729580Y-96833333D01*
X172729580Y-96833333D02*
X172777200Y-96880952D01*
X172777200Y-96880952D02*
X172824819Y-96976190D01*
X172824819Y-96976190D02*
X172824819Y-97071428D01*
X172824819Y-97071428D02*
X172777200Y-97166666D01*
X172777200Y-97166666D02*
X172729580Y-97214285D01*
X172729580Y-97214285D02*
X172634342Y-97261904D01*
X172634342Y-97261904D02*
X172443866Y-97309523D01*
X172443866Y-97309523D02*
X172205771Y-97309523D01*
X172205771Y-97309523D02*
X172015295Y-97261904D01*
X172015295Y-97261904D02*
X171920057Y-97214285D01*
X171920057Y-97214285D02*
X171872438Y-97166666D01*
X171872438Y-97166666D02*
X171824819Y-97071428D01*
X130084819Y-81595238D02*
X129608628Y-81928571D01*
X130084819Y-82166666D02*
X129084819Y-82166666D01*
X129084819Y-82166666D02*
X129084819Y-81785714D01*
X129084819Y-81785714D02*
X129132438Y-81690476D01*
X129132438Y-81690476D02*
X129180057Y-81642857D01*
X129180057Y-81642857D02*
X129275295Y-81595238D01*
X129275295Y-81595238D02*
X129418152Y-81595238D01*
X129418152Y-81595238D02*
X129513390Y-81642857D01*
X129513390Y-81642857D02*
X129561009Y-81690476D01*
X129561009Y-81690476D02*
X129608628Y-81785714D01*
X129608628Y-81785714D02*
X129608628Y-82166666D01*
X130037200Y-80738095D02*
X130084819Y-80833333D01*
X130084819Y-80833333D02*
X130084819Y-81023809D01*
X130084819Y-81023809D02*
X130037200Y-81119047D01*
X130037200Y-81119047D02*
X129989580Y-81166666D01*
X129989580Y-81166666D02*
X129894342Y-81214285D01*
X129894342Y-81214285D02*
X129608628Y-81214285D01*
X129608628Y-81214285D02*
X129513390Y-81166666D01*
X129513390Y-81166666D02*
X129465771Y-81119047D01*
X129465771Y-81119047D02*
X129418152Y-81023809D01*
X129418152Y-81023809D02*
X129418152Y-80833333D01*
X129418152Y-80833333D02*
X129465771Y-80738095D01*
X130084819Y-79785714D02*
X130084819Y-80357142D01*
X130084819Y-80071428D02*
X129084819Y-80071428D01*
X129084819Y-80071428D02*
X129227676Y-80166666D01*
X129227676Y-80166666D02*
X129322914Y-80261904D01*
X129322914Y-80261904D02*
X129370533Y-80357142D01*
X134824819Y-81833333D02*
X134824819Y-82404761D01*
X134824819Y-82119047D02*
X133824819Y-82119047D01*
X133824819Y-82119047D02*
X133967676Y-82214285D01*
X133967676Y-82214285D02*
X134062914Y-82309523D01*
X134062914Y-82309523D02*
X134110533Y-82404761D01*
X134729580Y-81404761D02*
X134777200Y-81357142D01*
X134777200Y-81357142D02*
X134824819Y-81404761D01*
X134824819Y-81404761D02*
X134777200Y-81452380D01*
X134777200Y-81452380D02*
X134729580Y-81404761D01*
X134729580Y-81404761D02*
X134824819Y-81404761D01*
X133920057Y-80976190D02*
X133872438Y-80928571D01*
X133872438Y-80928571D02*
X133824819Y-80833333D01*
X133824819Y-80833333D02*
X133824819Y-80595238D01*
X133824819Y-80595238D02*
X133872438Y-80500000D01*
X133872438Y-80500000D02*
X133920057Y-80452381D01*
X133920057Y-80452381D02*
X134015295Y-80404762D01*
X134015295Y-80404762D02*
X134110533Y-80404762D01*
X134110533Y-80404762D02*
X134253390Y-80452381D01*
X134253390Y-80452381D02*
X134824819Y-81023809D01*
X134824819Y-81023809D02*
X134824819Y-80404762D01*
X134824819Y-79976190D02*
X133824819Y-79976190D01*
X134443866Y-79880952D02*
X134824819Y-79595238D01*
X134158152Y-79595238D02*
X134539104Y-79976190D01*
X153833333Y-90859580D02*
X153785714Y-90907200D01*
X153785714Y-90907200D02*
X153642857Y-90954819D01*
X153642857Y-90954819D02*
X153547619Y-90954819D01*
X153547619Y-90954819D02*
X153404762Y-90907200D01*
X153404762Y-90907200D02*
X153309524Y-90811961D01*
X153309524Y-90811961D02*
X153261905Y-90716723D01*
X153261905Y-90716723D02*
X153214286Y-90526247D01*
X153214286Y-90526247D02*
X153214286Y-90383390D01*
X153214286Y-90383390D02*
X153261905Y-90192914D01*
X153261905Y-90192914D02*
X153309524Y-90097676D01*
X153309524Y-90097676D02*
X153404762Y-90002438D01*
X153404762Y-90002438D02*
X153547619Y-89954819D01*
X153547619Y-89954819D02*
X153642857Y-89954819D01*
X153642857Y-89954819D02*
X153785714Y-90002438D01*
X153785714Y-90002438D02*
X153833333Y-90050057D01*
X154738095Y-89954819D02*
X154261905Y-89954819D01*
X154261905Y-89954819D02*
X154214286Y-90431009D01*
X154214286Y-90431009D02*
X154261905Y-90383390D01*
X154261905Y-90383390D02*
X154357143Y-90335771D01*
X154357143Y-90335771D02*
X154595238Y-90335771D01*
X154595238Y-90335771D02*
X154690476Y-90383390D01*
X154690476Y-90383390D02*
X154738095Y-90431009D01*
X154738095Y-90431009D02*
X154785714Y-90526247D01*
X154785714Y-90526247D02*
X154785714Y-90764342D01*
X154785714Y-90764342D02*
X154738095Y-90859580D01*
X154738095Y-90859580D02*
X154690476Y-90907200D01*
X154690476Y-90907200D02*
X154595238Y-90954819D01*
X154595238Y-90954819D02*
X154357143Y-90954819D01*
X154357143Y-90954819D02*
X154261905Y-90907200D01*
X154261905Y-90907200D02*
X154214286Y-90859580D01*
X151690476Y-95859580D02*
X151738095Y-95907200D01*
X151738095Y-95907200D02*
X151690476Y-95954819D01*
X151690476Y-95954819D02*
X151642857Y-95907200D01*
X151642857Y-95907200D02*
X151690476Y-95859580D01*
X151690476Y-95859580D02*
X151690476Y-95954819D01*
X152357142Y-94954819D02*
X152452380Y-94954819D01*
X152452380Y-94954819D02*
X152547618Y-95002438D01*
X152547618Y-95002438D02*
X152595237Y-95050057D01*
X152595237Y-95050057D02*
X152642856Y-95145295D01*
X152642856Y-95145295D02*
X152690475Y-95335771D01*
X152690475Y-95335771D02*
X152690475Y-95573866D01*
X152690475Y-95573866D02*
X152642856Y-95764342D01*
X152642856Y-95764342D02*
X152595237Y-95859580D01*
X152595237Y-95859580D02*
X152547618Y-95907200D01*
X152547618Y-95907200D02*
X152452380Y-95954819D01*
X152452380Y-95954819D02*
X152357142Y-95954819D01*
X152357142Y-95954819D02*
X152261904Y-95907200D01*
X152261904Y-95907200D02*
X152214285Y-95859580D01*
X152214285Y-95859580D02*
X152166666Y-95764342D01*
X152166666Y-95764342D02*
X152119047Y-95573866D01*
X152119047Y-95573866D02*
X152119047Y-95335771D01*
X152119047Y-95335771D02*
X152166666Y-95145295D01*
X152166666Y-95145295D02*
X152214285Y-95050057D01*
X152214285Y-95050057D02*
X152261904Y-95002438D01*
X152261904Y-95002438D02*
X152357142Y-94954819D01*
X153309523Y-94954819D02*
X153404761Y-94954819D01*
X153404761Y-94954819D02*
X153499999Y-95002438D01*
X153499999Y-95002438D02*
X153547618Y-95050057D01*
X153547618Y-95050057D02*
X153595237Y-95145295D01*
X153595237Y-95145295D02*
X153642856Y-95335771D01*
X153642856Y-95335771D02*
X153642856Y-95573866D01*
X153642856Y-95573866D02*
X153595237Y-95764342D01*
X153595237Y-95764342D02*
X153547618Y-95859580D01*
X153547618Y-95859580D02*
X153499999Y-95907200D01*
X153499999Y-95907200D02*
X153404761Y-95954819D01*
X153404761Y-95954819D02*
X153309523Y-95954819D01*
X153309523Y-95954819D02*
X153214285Y-95907200D01*
X153214285Y-95907200D02*
X153166666Y-95859580D01*
X153166666Y-95859580D02*
X153119047Y-95764342D01*
X153119047Y-95764342D02*
X153071428Y-95573866D01*
X153071428Y-95573866D02*
X153071428Y-95335771D01*
X153071428Y-95335771D02*
X153119047Y-95145295D01*
X153119047Y-95145295D02*
X153166666Y-95050057D01*
X153166666Y-95050057D02*
X153214285Y-95002438D01*
X153214285Y-95002438D02*
X153309523Y-94954819D01*
X154595237Y-95954819D02*
X154023809Y-95954819D01*
X154309523Y-95954819D02*
X154309523Y-94954819D01*
X154309523Y-94954819D02*
X154214285Y-95097676D01*
X154214285Y-95097676D02*
X154119047Y-95192914D01*
X154119047Y-95192914D02*
X154023809Y-95240533D01*
X155452380Y-95288152D02*
X155452380Y-95954819D01*
X155023809Y-95288152D02*
X155023809Y-95811961D01*
X155023809Y-95811961D02*
X155071428Y-95907200D01*
X155071428Y-95907200D02*
X155166666Y-95954819D01*
X155166666Y-95954819D02*
X155309523Y-95954819D01*
X155309523Y-95954819D02*
X155404761Y-95907200D01*
X155404761Y-95907200D02*
X155452380Y-95859580D01*
X156261904Y-95431009D02*
X155928571Y-95431009D01*
X155928571Y-95954819D02*
X155928571Y-94954819D01*
X155928571Y-94954819D02*
X156404761Y-94954819D01*
X114859580Y-78666666D02*
X114907200Y-78714285D01*
X114907200Y-78714285D02*
X114954819Y-78857142D01*
X114954819Y-78857142D02*
X114954819Y-78952380D01*
X114954819Y-78952380D02*
X114907200Y-79095237D01*
X114907200Y-79095237D02*
X114811961Y-79190475D01*
X114811961Y-79190475D02*
X114716723Y-79238094D01*
X114716723Y-79238094D02*
X114526247Y-79285713D01*
X114526247Y-79285713D02*
X114383390Y-79285713D01*
X114383390Y-79285713D02*
X114192914Y-79238094D01*
X114192914Y-79238094D02*
X114097676Y-79190475D01*
X114097676Y-79190475D02*
X114002438Y-79095237D01*
X114002438Y-79095237D02*
X113954819Y-78952380D01*
X113954819Y-78952380D02*
X113954819Y-78857142D01*
X113954819Y-78857142D02*
X114002438Y-78714285D01*
X114002438Y-78714285D02*
X114050057Y-78666666D01*
X114288152Y-77809523D02*
X114954819Y-77809523D01*
X113907200Y-78047618D02*
X114621485Y-78285713D01*
X114621485Y-78285713D02*
X114621485Y-77666666D01*
X118954819Y-80142856D02*
X118954819Y-80047618D01*
X118954819Y-80047618D02*
X119002438Y-79952380D01*
X119002438Y-79952380D02*
X119050057Y-79904761D01*
X119050057Y-79904761D02*
X119145295Y-79857142D01*
X119145295Y-79857142D02*
X119335771Y-79809523D01*
X119335771Y-79809523D02*
X119573866Y-79809523D01*
X119573866Y-79809523D02*
X119764342Y-79857142D01*
X119764342Y-79857142D02*
X119859580Y-79904761D01*
X119859580Y-79904761D02*
X119907200Y-79952380D01*
X119907200Y-79952380D02*
X119954819Y-80047618D01*
X119954819Y-80047618D02*
X119954819Y-80142856D01*
X119954819Y-80142856D02*
X119907200Y-80238094D01*
X119907200Y-80238094D02*
X119859580Y-80285713D01*
X119859580Y-80285713D02*
X119764342Y-80333332D01*
X119764342Y-80333332D02*
X119573866Y-80380951D01*
X119573866Y-80380951D02*
X119335771Y-80380951D01*
X119335771Y-80380951D02*
X119145295Y-80333332D01*
X119145295Y-80333332D02*
X119050057Y-80285713D01*
X119050057Y-80285713D02*
X119002438Y-80238094D01*
X119002438Y-80238094D02*
X118954819Y-80142856D01*
X119859580Y-79380951D02*
X119907200Y-79333332D01*
X119907200Y-79333332D02*
X119954819Y-79380951D01*
X119954819Y-79380951D02*
X119907200Y-79428570D01*
X119907200Y-79428570D02*
X119859580Y-79380951D01*
X119859580Y-79380951D02*
X119954819Y-79380951D01*
X119954819Y-78380952D02*
X119954819Y-78952380D01*
X119954819Y-78666666D02*
X118954819Y-78666666D01*
X118954819Y-78666666D02*
X119097676Y-78761904D01*
X119097676Y-78761904D02*
X119192914Y-78857142D01*
X119192914Y-78857142D02*
X119240533Y-78952380D01*
X119288152Y-77523809D02*
X119954819Y-77523809D01*
X119288152Y-77952380D02*
X119811961Y-77952380D01*
X119811961Y-77952380D02*
X119907200Y-77904761D01*
X119907200Y-77904761D02*
X119954819Y-77809523D01*
X119954819Y-77809523D02*
X119954819Y-77666666D01*
X119954819Y-77666666D02*
X119907200Y-77571428D01*
X119907200Y-77571428D02*
X119859580Y-77523809D01*
X119431009Y-76714285D02*
X119431009Y-77047618D01*
X119954819Y-77047618D02*
X118954819Y-77047618D01*
X118954819Y-77047618D02*
X118954819Y-76571428D01*
X173334819Y-109463333D02*
X174049104Y-109463333D01*
X174049104Y-109463333D02*
X174191961Y-109510952D01*
X174191961Y-109510952D02*
X174287200Y-109606190D01*
X174287200Y-109606190D02*
X174334819Y-109749047D01*
X174334819Y-109749047D02*
X174334819Y-109844285D01*
X173430057Y-109034761D02*
X173382438Y-108987142D01*
X173382438Y-108987142D02*
X173334819Y-108891904D01*
X173334819Y-108891904D02*
X173334819Y-108653809D01*
X173334819Y-108653809D02*
X173382438Y-108558571D01*
X173382438Y-108558571D02*
X173430057Y-108510952D01*
X173430057Y-108510952D02*
X173525295Y-108463333D01*
X173525295Y-108463333D02*
X173620533Y-108463333D01*
X173620533Y-108463333D02*
X173763390Y-108510952D01*
X173763390Y-108510952D02*
X174334819Y-109082380D01*
X174334819Y-109082380D02*
X174334819Y-108463333D01*
X183349104Y-115345238D02*
X183349104Y-114869048D01*
X183634819Y-115440476D02*
X182634819Y-115107143D01*
X182634819Y-115107143D02*
X183634819Y-114773810D01*
X183634819Y-114440476D02*
X182968152Y-114440476D01*
X183063390Y-114440476D02*
X183015771Y-114392857D01*
X183015771Y-114392857D02*
X182968152Y-114297619D01*
X182968152Y-114297619D02*
X182968152Y-114154762D01*
X182968152Y-114154762D02*
X183015771Y-114059524D01*
X183015771Y-114059524D02*
X183111009Y-114011905D01*
X183111009Y-114011905D02*
X183634819Y-114011905D01*
X183111009Y-114011905D02*
X183015771Y-113964286D01*
X183015771Y-113964286D02*
X182968152Y-113869048D01*
X182968152Y-113869048D02*
X182968152Y-113726191D01*
X182968152Y-113726191D02*
X183015771Y-113630952D01*
X183015771Y-113630952D02*
X183111009Y-113583333D01*
X183111009Y-113583333D02*
X183634819Y-113583333D01*
X182968152Y-113107143D02*
X183968152Y-113107143D01*
X183015771Y-113107143D02*
X182968152Y-113011905D01*
X182968152Y-113011905D02*
X182968152Y-112821429D01*
X182968152Y-112821429D02*
X183015771Y-112726191D01*
X183015771Y-112726191D02*
X183063390Y-112678572D01*
X183063390Y-112678572D02*
X183158628Y-112630953D01*
X183158628Y-112630953D02*
X183444342Y-112630953D01*
X183444342Y-112630953D02*
X183539580Y-112678572D01*
X183539580Y-112678572D02*
X183587200Y-112726191D01*
X183587200Y-112726191D02*
X183634819Y-112821429D01*
X183634819Y-112821429D02*
X183634819Y-113011905D01*
X183634819Y-113011905D02*
X183587200Y-113107143D01*
X183634819Y-112059524D02*
X183587200Y-112154762D01*
X183587200Y-112154762D02*
X183491961Y-112202381D01*
X183491961Y-112202381D02*
X182634819Y-112202381D01*
X183634819Y-111678571D02*
X182968152Y-111678571D01*
X182634819Y-111678571D02*
X182682438Y-111726190D01*
X182682438Y-111726190D02*
X182730057Y-111678571D01*
X182730057Y-111678571D02*
X182682438Y-111630952D01*
X182682438Y-111630952D02*
X182634819Y-111678571D01*
X182634819Y-111678571D02*
X182730057Y-111678571D01*
X182968152Y-111345238D02*
X182968152Y-110964286D01*
X183634819Y-111202381D02*
X182777676Y-111202381D01*
X182777676Y-111202381D02*
X182682438Y-111154762D01*
X182682438Y-111154762D02*
X182634819Y-111059524D01*
X182634819Y-111059524D02*
X182634819Y-110964286D01*
X183634819Y-110630952D02*
X182968152Y-110630952D01*
X182634819Y-110630952D02*
X182682438Y-110678571D01*
X182682438Y-110678571D02*
X182730057Y-110630952D01*
X182730057Y-110630952D02*
X182682438Y-110583333D01*
X182682438Y-110583333D02*
X182634819Y-110630952D01*
X182634819Y-110630952D02*
X182730057Y-110630952D01*
X183587200Y-109773810D02*
X183634819Y-109869048D01*
X183634819Y-109869048D02*
X183634819Y-110059524D01*
X183634819Y-110059524D02*
X183587200Y-110154762D01*
X183587200Y-110154762D02*
X183491961Y-110202381D01*
X183491961Y-110202381D02*
X183111009Y-110202381D01*
X183111009Y-110202381D02*
X183015771Y-110154762D01*
X183015771Y-110154762D02*
X182968152Y-110059524D01*
X182968152Y-110059524D02*
X182968152Y-109869048D01*
X182968152Y-109869048D02*
X183015771Y-109773810D01*
X183015771Y-109773810D02*
X183111009Y-109726191D01*
X183111009Y-109726191D02*
X183206247Y-109726191D01*
X183206247Y-109726191D02*
X183301485Y-110202381D01*
X183634819Y-108869048D02*
X182634819Y-108869048D01*
X183587200Y-108869048D02*
X183634819Y-108964286D01*
X183634819Y-108964286D02*
X183634819Y-109154762D01*
X183634819Y-109154762D02*
X183587200Y-109250000D01*
X183587200Y-109250000D02*
X183539580Y-109297619D01*
X183539580Y-109297619D02*
X183444342Y-109345238D01*
X183444342Y-109345238D02*
X183158628Y-109345238D01*
X183158628Y-109345238D02*
X183063390Y-109297619D01*
X183063390Y-109297619D02*
X183015771Y-109250000D01*
X183015771Y-109250000D02*
X182968152Y-109154762D01*
X182968152Y-109154762D02*
X182968152Y-108964286D01*
X182968152Y-108964286D02*
X183015771Y-108869048D01*
X182634819Y-107440476D02*
X182634819Y-107250000D01*
X182634819Y-107250000D02*
X182682438Y-107154762D01*
X182682438Y-107154762D02*
X182777676Y-107059524D01*
X182777676Y-107059524D02*
X182968152Y-107011905D01*
X182968152Y-107011905D02*
X183301485Y-107011905D01*
X183301485Y-107011905D02*
X183491961Y-107059524D01*
X183491961Y-107059524D02*
X183587200Y-107154762D01*
X183587200Y-107154762D02*
X183634819Y-107250000D01*
X183634819Y-107250000D02*
X183634819Y-107440476D01*
X183634819Y-107440476D02*
X183587200Y-107535714D01*
X183587200Y-107535714D02*
X183491961Y-107630952D01*
X183491961Y-107630952D02*
X183301485Y-107678571D01*
X183301485Y-107678571D02*
X182968152Y-107678571D01*
X182968152Y-107678571D02*
X182777676Y-107630952D01*
X182777676Y-107630952D02*
X182682438Y-107535714D01*
X182682438Y-107535714D02*
X182634819Y-107440476D01*
X182968152Y-106154762D02*
X183634819Y-106154762D01*
X182968152Y-106583333D02*
X183491961Y-106583333D01*
X183491961Y-106583333D02*
X183587200Y-106535714D01*
X183587200Y-106535714D02*
X183634819Y-106440476D01*
X183634819Y-106440476D02*
X183634819Y-106297619D01*
X183634819Y-106297619D02*
X183587200Y-106202381D01*
X183587200Y-106202381D02*
X183539580Y-106154762D01*
X182968152Y-105821428D02*
X182968152Y-105440476D01*
X182634819Y-105678571D02*
X183491961Y-105678571D01*
X183491961Y-105678571D02*
X183587200Y-105630952D01*
X183587200Y-105630952D02*
X183634819Y-105535714D01*
X183634819Y-105535714D02*
X183634819Y-105440476D01*
X182968152Y-105107142D02*
X183968152Y-105107142D01*
X183015771Y-105107142D02*
X182968152Y-105011904D01*
X182968152Y-105011904D02*
X182968152Y-104821428D01*
X182968152Y-104821428D02*
X183015771Y-104726190D01*
X183015771Y-104726190D02*
X183063390Y-104678571D01*
X183063390Y-104678571D02*
X183158628Y-104630952D01*
X183158628Y-104630952D02*
X183444342Y-104630952D01*
X183444342Y-104630952D02*
X183539580Y-104678571D01*
X183539580Y-104678571D02*
X183587200Y-104726190D01*
X183587200Y-104726190D02*
X183634819Y-104821428D01*
X183634819Y-104821428D02*
X183634819Y-105011904D01*
X183634819Y-105011904D02*
X183587200Y-105107142D01*
X182968152Y-103773809D02*
X183634819Y-103773809D01*
X182968152Y-104202380D02*
X183491961Y-104202380D01*
X183491961Y-104202380D02*
X183587200Y-104154761D01*
X183587200Y-104154761D02*
X183634819Y-104059523D01*
X183634819Y-104059523D02*
X183634819Y-103916666D01*
X183634819Y-103916666D02*
X183587200Y-103821428D01*
X183587200Y-103821428D02*
X183539580Y-103773809D01*
X182968152Y-103440475D02*
X182968152Y-103059523D01*
X182634819Y-103297618D02*
X183491961Y-103297618D01*
X183491961Y-103297618D02*
X183587200Y-103249999D01*
X183587200Y-103249999D02*
X183634819Y-103154761D01*
X183634819Y-103154761D02*
X183634819Y-103059523D01*
X168084819Y-84166666D02*
X167608628Y-84499999D01*
X168084819Y-84738094D02*
X167084819Y-84738094D01*
X167084819Y-84738094D02*
X167084819Y-84357142D01*
X167084819Y-84357142D02*
X167132438Y-84261904D01*
X167132438Y-84261904D02*
X167180057Y-84214285D01*
X167180057Y-84214285D02*
X167275295Y-84166666D01*
X167275295Y-84166666D02*
X167418152Y-84166666D01*
X167418152Y-84166666D02*
X167513390Y-84214285D01*
X167513390Y-84214285D02*
X167561009Y-84261904D01*
X167561009Y-84261904D02*
X167608628Y-84357142D01*
X167608628Y-84357142D02*
X167608628Y-84738094D01*
X167084819Y-83309523D02*
X167084819Y-83499999D01*
X167084819Y-83499999D02*
X167132438Y-83595237D01*
X167132438Y-83595237D02*
X167180057Y-83642856D01*
X167180057Y-83642856D02*
X167322914Y-83738094D01*
X167322914Y-83738094D02*
X167513390Y-83785713D01*
X167513390Y-83785713D02*
X167894342Y-83785713D01*
X167894342Y-83785713D02*
X167989580Y-83738094D01*
X167989580Y-83738094D02*
X168037200Y-83690475D01*
X168037200Y-83690475D02*
X168084819Y-83595237D01*
X168084819Y-83595237D02*
X168084819Y-83404761D01*
X168084819Y-83404761D02*
X168037200Y-83309523D01*
X168037200Y-83309523D02*
X167989580Y-83261904D01*
X167989580Y-83261904D02*
X167894342Y-83214285D01*
X167894342Y-83214285D02*
X167656247Y-83214285D01*
X167656247Y-83214285D02*
X167561009Y-83261904D01*
X167561009Y-83261904D02*
X167513390Y-83309523D01*
X167513390Y-83309523D02*
X167465771Y-83404761D01*
X167465771Y-83404761D02*
X167465771Y-83595237D01*
X167465771Y-83595237D02*
X167513390Y-83690475D01*
X167513390Y-83690475D02*
X167561009Y-83738094D01*
X167561009Y-83738094D02*
X167656247Y-83785713D01*
X172824819Y-84190476D02*
X172824819Y-84761904D01*
X172824819Y-84476190D02*
X171824819Y-84476190D01*
X171824819Y-84476190D02*
X171967676Y-84571428D01*
X171967676Y-84571428D02*
X172062914Y-84666666D01*
X172062914Y-84666666D02*
X172110533Y-84761904D01*
X171824819Y-83571428D02*
X171824819Y-83476190D01*
X171824819Y-83476190D02*
X171872438Y-83380952D01*
X171872438Y-83380952D02*
X171920057Y-83333333D01*
X171920057Y-83333333D02*
X172015295Y-83285714D01*
X172015295Y-83285714D02*
X172205771Y-83238095D01*
X172205771Y-83238095D02*
X172443866Y-83238095D01*
X172443866Y-83238095D02*
X172634342Y-83285714D01*
X172634342Y-83285714D02*
X172729580Y-83333333D01*
X172729580Y-83333333D02*
X172777200Y-83380952D01*
X172777200Y-83380952D02*
X172824819Y-83476190D01*
X172824819Y-83476190D02*
X172824819Y-83571428D01*
X172824819Y-83571428D02*
X172777200Y-83666666D01*
X172777200Y-83666666D02*
X172729580Y-83714285D01*
X172729580Y-83714285D02*
X172634342Y-83761904D01*
X172634342Y-83761904D02*
X172443866Y-83809523D01*
X172443866Y-83809523D02*
X172205771Y-83809523D01*
X172205771Y-83809523D02*
X172015295Y-83761904D01*
X172015295Y-83761904D02*
X171920057Y-83714285D01*
X171920057Y-83714285D02*
X171872438Y-83666666D01*
X171872438Y-83666666D02*
X171824819Y-83571428D01*
X146984819Y-82238094D02*
X145984819Y-82238094D01*
X145984819Y-82238094D02*
X145984819Y-81999999D01*
X145984819Y-81999999D02*
X146032438Y-81857142D01*
X146032438Y-81857142D02*
X146127676Y-81761904D01*
X146127676Y-81761904D02*
X146222914Y-81714285D01*
X146222914Y-81714285D02*
X146413390Y-81666666D01*
X146413390Y-81666666D02*
X146556247Y-81666666D01*
X146556247Y-81666666D02*
X146746723Y-81714285D01*
X146746723Y-81714285D02*
X146841961Y-81761904D01*
X146841961Y-81761904D02*
X146937200Y-81857142D01*
X146937200Y-81857142D02*
X146984819Y-81999999D01*
X146984819Y-81999999D02*
X146984819Y-82238094D01*
X146984819Y-80714285D02*
X146984819Y-81285713D01*
X146984819Y-80999999D02*
X145984819Y-80999999D01*
X145984819Y-80999999D02*
X146127676Y-81095237D01*
X146127676Y-81095237D02*
X146222914Y-81190475D01*
X146222914Y-81190475D02*
X146270533Y-81285713D01*
X151924819Y-83642857D02*
X151924819Y-84214285D01*
X151924819Y-83928571D02*
X150924819Y-83928571D01*
X150924819Y-83928571D02*
X151067676Y-84023809D01*
X151067676Y-84023809D02*
X151162914Y-84119047D01*
X151162914Y-84119047D02*
X151210533Y-84214285D01*
X151924819Y-83214285D02*
X150924819Y-83214285D01*
X150924819Y-83214285D02*
X151924819Y-82642857D01*
X151924819Y-82642857D02*
X150924819Y-82642857D01*
X151258152Y-81738095D02*
X151924819Y-81738095D01*
X150877200Y-81976190D02*
X151591485Y-82214285D01*
X151591485Y-82214285D02*
X151591485Y-81595238D01*
X150924819Y-81023809D02*
X150924819Y-80928571D01*
X150924819Y-80928571D02*
X150972438Y-80833333D01*
X150972438Y-80833333D02*
X151020057Y-80785714D01*
X151020057Y-80785714D02*
X151115295Y-80738095D01*
X151115295Y-80738095D02*
X151305771Y-80690476D01*
X151305771Y-80690476D02*
X151543866Y-80690476D01*
X151543866Y-80690476D02*
X151734342Y-80738095D01*
X151734342Y-80738095D02*
X151829580Y-80785714D01*
X151829580Y-80785714D02*
X151877200Y-80833333D01*
X151877200Y-80833333D02*
X151924819Y-80928571D01*
X151924819Y-80928571D02*
X151924819Y-81023809D01*
X151924819Y-81023809D02*
X151877200Y-81119047D01*
X151877200Y-81119047D02*
X151829580Y-81166666D01*
X151829580Y-81166666D02*
X151734342Y-81214285D01*
X151734342Y-81214285D02*
X151543866Y-81261904D01*
X151543866Y-81261904D02*
X151305771Y-81261904D01*
X151305771Y-81261904D02*
X151115295Y-81214285D01*
X151115295Y-81214285D02*
X151020057Y-81166666D01*
X151020057Y-81166666D02*
X150972438Y-81119047D01*
X150972438Y-81119047D02*
X150924819Y-81023809D01*
X150924819Y-80071428D02*
X150924819Y-79976190D01*
X150924819Y-79976190D02*
X150972438Y-79880952D01*
X150972438Y-79880952D02*
X151020057Y-79833333D01*
X151020057Y-79833333D02*
X151115295Y-79785714D01*
X151115295Y-79785714D02*
X151305771Y-79738095D01*
X151305771Y-79738095D02*
X151543866Y-79738095D01*
X151543866Y-79738095D02*
X151734342Y-79785714D01*
X151734342Y-79785714D02*
X151829580Y-79833333D01*
X151829580Y-79833333D02*
X151877200Y-79880952D01*
X151877200Y-79880952D02*
X151924819Y-79976190D01*
X151924819Y-79976190D02*
X151924819Y-80071428D01*
X151924819Y-80071428D02*
X151877200Y-80166666D01*
X151877200Y-80166666D02*
X151829580Y-80214285D01*
X151829580Y-80214285D02*
X151734342Y-80261904D01*
X151734342Y-80261904D02*
X151543866Y-80309523D01*
X151543866Y-80309523D02*
X151305771Y-80309523D01*
X151305771Y-80309523D02*
X151115295Y-80261904D01*
X151115295Y-80261904D02*
X151020057Y-80214285D01*
X151020057Y-80214285D02*
X150972438Y-80166666D01*
X150972438Y-80166666D02*
X150924819Y-80071428D01*
X151020057Y-79357142D02*
X150972438Y-79309523D01*
X150972438Y-79309523D02*
X150924819Y-79214285D01*
X150924819Y-79214285D02*
X150924819Y-78976190D01*
X150924819Y-78976190D02*
X150972438Y-78880952D01*
X150972438Y-78880952D02*
X151020057Y-78833333D01*
X151020057Y-78833333D02*
X151115295Y-78785714D01*
X151115295Y-78785714D02*
X151210533Y-78785714D01*
X151210533Y-78785714D02*
X151353390Y-78833333D01*
X151353390Y-78833333D02*
X151924819Y-79404761D01*
X151924819Y-79404761D02*
X151924819Y-78785714D01*
X147354819Y-86841904D02*
X146354819Y-86841904D01*
X147354819Y-86270476D02*
X146783390Y-86699047D01*
X146354819Y-86270476D02*
X146926247Y-86841904D01*
X122084819Y-81166666D02*
X121608628Y-81499999D01*
X122084819Y-81738094D02*
X121084819Y-81738094D01*
X121084819Y-81738094D02*
X121084819Y-81357142D01*
X121084819Y-81357142D02*
X121132438Y-81261904D01*
X121132438Y-81261904D02*
X121180057Y-81214285D01*
X121180057Y-81214285D02*
X121275295Y-81166666D01*
X121275295Y-81166666D02*
X121418152Y-81166666D01*
X121418152Y-81166666D02*
X121513390Y-81214285D01*
X121513390Y-81214285D02*
X121561009Y-81261904D01*
X121561009Y-81261904D02*
X121608628Y-81357142D01*
X121608628Y-81357142D02*
X121608628Y-81738094D01*
X122084819Y-80214285D02*
X122084819Y-80785713D01*
X122084819Y-80499999D02*
X121084819Y-80499999D01*
X121084819Y-80499999D02*
X121227676Y-80595237D01*
X121227676Y-80595237D02*
X121322914Y-80690475D01*
X121322914Y-80690475D02*
X121370533Y-80785713D01*
X125920057Y-82166666D02*
X125872438Y-82119047D01*
X125872438Y-82119047D02*
X125824819Y-82023809D01*
X125824819Y-82023809D02*
X125824819Y-81785714D01*
X125824819Y-81785714D02*
X125872438Y-81690476D01*
X125872438Y-81690476D02*
X125920057Y-81642857D01*
X125920057Y-81642857D02*
X126015295Y-81595238D01*
X126015295Y-81595238D02*
X126110533Y-81595238D01*
X126110533Y-81595238D02*
X126253390Y-81642857D01*
X126253390Y-81642857D02*
X126824819Y-82214285D01*
X126824819Y-82214285D02*
X126824819Y-81595238D01*
X125824819Y-81261904D02*
X125824819Y-80595238D01*
X125824819Y-80595238D02*
X126824819Y-81023809D01*
X126824819Y-80214285D02*
X125824819Y-80214285D01*
X126443866Y-80119047D02*
X126824819Y-79833333D01*
X126158152Y-79833333D02*
X126539104Y-80214285D01*
X130084819Y-106675238D02*
X129608628Y-107008571D01*
X130084819Y-107246666D02*
X129084819Y-107246666D01*
X129084819Y-107246666D02*
X129084819Y-106865714D01*
X129084819Y-106865714D02*
X129132438Y-106770476D01*
X129132438Y-106770476D02*
X129180057Y-106722857D01*
X129180057Y-106722857D02*
X129275295Y-106675238D01*
X129275295Y-106675238D02*
X129418152Y-106675238D01*
X129418152Y-106675238D02*
X129513390Y-106722857D01*
X129513390Y-106722857D02*
X129561009Y-106770476D01*
X129561009Y-106770476D02*
X129608628Y-106865714D01*
X129608628Y-106865714D02*
X129608628Y-107246666D01*
X130037200Y-105865714D02*
X130084819Y-105960952D01*
X130084819Y-105960952D02*
X130084819Y-106151428D01*
X130084819Y-106151428D02*
X130037200Y-106246666D01*
X130037200Y-106246666D02*
X129941961Y-106294285D01*
X129941961Y-106294285D02*
X129561009Y-106294285D01*
X129561009Y-106294285D02*
X129465771Y-106246666D01*
X129465771Y-106246666D02*
X129418152Y-106151428D01*
X129418152Y-106151428D02*
X129418152Y-105960952D01*
X129418152Y-105960952D02*
X129465771Y-105865714D01*
X129465771Y-105865714D02*
X129561009Y-105818095D01*
X129561009Y-105818095D02*
X129656247Y-105818095D01*
X129656247Y-105818095D02*
X129751485Y-106294285D01*
X130084819Y-104865714D02*
X130084819Y-105437142D01*
X130084819Y-105151428D02*
X129084819Y-105151428D01*
X129084819Y-105151428D02*
X129227676Y-105246666D01*
X129227676Y-105246666D02*
X129322914Y-105341904D01*
X129322914Y-105341904D02*
X129370533Y-105437142D01*
X133824819Y-106318095D02*
X133824819Y-106794285D01*
X133824819Y-106794285D02*
X134301009Y-106841904D01*
X134301009Y-106841904D02*
X134253390Y-106794285D01*
X134253390Y-106794285D02*
X134205771Y-106699047D01*
X134205771Y-106699047D02*
X134205771Y-106460952D01*
X134205771Y-106460952D02*
X134253390Y-106365714D01*
X134253390Y-106365714D02*
X134301009Y-106318095D01*
X134301009Y-106318095D02*
X134396247Y-106270476D01*
X134396247Y-106270476D02*
X134634342Y-106270476D01*
X134634342Y-106270476D02*
X134729580Y-106318095D01*
X134729580Y-106318095D02*
X134777200Y-106365714D01*
X134777200Y-106365714D02*
X134824819Y-106460952D01*
X134824819Y-106460952D02*
X134824819Y-106699047D01*
X134824819Y-106699047D02*
X134777200Y-106794285D01*
X134777200Y-106794285D02*
X134729580Y-106841904D01*
X133824819Y-105365714D02*
X133824819Y-105841904D01*
X133824819Y-105841904D02*
X134301009Y-105889523D01*
X134301009Y-105889523D02*
X134253390Y-105841904D01*
X134253390Y-105841904D02*
X134205771Y-105746666D01*
X134205771Y-105746666D02*
X134205771Y-105508571D01*
X134205771Y-105508571D02*
X134253390Y-105413333D01*
X134253390Y-105413333D02*
X134301009Y-105365714D01*
X134301009Y-105365714D02*
X134396247Y-105318095D01*
X134396247Y-105318095D02*
X134634342Y-105318095D01*
X134634342Y-105318095D02*
X134729580Y-105365714D01*
X134729580Y-105365714D02*
X134777200Y-105413333D01*
X134777200Y-105413333D02*
X134824819Y-105508571D01*
X134824819Y-105508571D02*
X134824819Y-105746666D01*
X134824819Y-105746666D02*
X134777200Y-105841904D01*
X134777200Y-105841904D02*
X134729580Y-105889523D01*
X140833333Y-111859580D02*
X140785714Y-111907200D01*
X140785714Y-111907200D02*
X140642857Y-111954819D01*
X140642857Y-111954819D02*
X140547619Y-111954819D01*
X140547619Y-111954819D02*
X140404762Y-111907200D01*
X140404762Y-111907200D02*
X140309524Y-111811961D01*
X140309524Y-111811961D02*
X140261905Y-111716723D01*
X140261905Y-111716723D02*
X140214286Y-111526247D01*
X140214286Y-111526247D02*
X140214286Y-111383390D01*
X140214286Y-111383390D02*
X140261905Y-111192914D01*
X140261905Y-111192914D02*
X140309524Y-111097676D01*
X140309524Y-111097676D02*
X140404762Y-111002438D01*
X140404762Y-111002438D02*
X140547619Y-110954819D01*
X140547619Y-110954819D02*
X140642857Y-110954819D01*
X140642857Y-110954819D02*
X140785714Y-111002438D01*
X140785714Y-111002438D02*
X140833333Y-111050057D01*
X141166667Y-110954819D02*
X141785714Y-110954819D01*
X141785714Y-110954819D02*
X141452381Y-111335771D01*
X141452381Y-111335771D02*
X141595238Y-111335771D01*
X141595238Y-111335771D02*
X141690476Y-111383390D01*
X141690476Y-111383390D02*
X141738095Y-111431009D01*
X141738095Y-111431009D02*
X141785714Y-111526247D01*
X141785714Y-111526247D02*
X141785714Y-111764342D01*
X141785714Y-111764342D02*
X141738095Y-111859580D01*
X141738095Y-111859580D02*
X141690476Y-111907200D01*
X141690476Y-111907200D02*
X141595238Y-111954819D01*
X141595238Y-111954819D02*
X141309524Y-111954819D01*
X141309524Y-111954819D02*
X141214286Y-111907200D01*
X141214286Y-111907200D02*
X141166667Y-111859580D01*
X136454819Y-107797619D02*
X136454819Y-108369047D01*
X136454819Y-108083333D02*
X135454819Y-108083333D01*
X135454819Y-108083333D02*
X135597676Y-108178571D01*
X135597676Y-108178571D02*
X135692914Y-108273809D01*
X135692914Y-108273809D02*
X135740533Y-108369047D01*
X135454819Y-107178571D02*
X135454819Y-107083333D01*
X135454819Y-107083333D02*
X135502438Y-106988095D01*
X135502438Y-106988095D02*
X135550057Y-106940476D01*
X135550057Y-106940476D02*
X135645295Y-106892857D01*
X135645295Y-106892857D02*
X135835771Y-106845238D01*
X135835771Y-106845238D02*
X136073866Y-106845238D01*
X136073866Y-106845238D02*
X136264342Y-106892857D01*
X136264342Y-106892857D02*
X136359580Y-106940476D01*
X136359580Y-106940476D02*
X136407200Y-106988095D01*
X136407200Y-106988095D02*
X136454819Y-107083333D01*
X136454819Y-107083333D02*
X136454819Y-107178571D01*
X136454819Y-107178571D02*
X136407200Y-107273809D01*
X136407200Y-107273809D02*
X136359580Y-107321428D01*
X136359580Y-107321428D02*
X136264342Y-107369047D01*
X136264342Y-107369047D02*
X136073866Y-107416666D01*
X136073866Y-107416666D02*
X135835771Y-107416666D01*
X135835771Y-107416666D02*
X135645295Y-107369047D01*
X135645295Y-107369047D02*
X135550057Y-107321428D01*
X135550057Y-107321428D02*
X135502438Y-107273809D01*
X135502438Y-107273809D02*
X135454819Y-107178571D01*
X135454819Y-106226190D02*
X135454819Y-106130952D01*
X135454819Y-106130952D02*
X135502438Y-106035714D01*
X135502438Y-106035714D02*
X135550057Y-105988095D01*
X135550057Y-105988095D02*
X135645295Y-105940476D01*
X135645295Y-105940476D02*
X135835771Y-105892857D01*
X135835771Y-105892857D02*
X136073866Y-105892857D01*
X136073866Y-105892857D02*
X136264342Y-105940476D01*
X136264342Y-105940476D02*
X136359580Y-105988095D01*
X136359580Y-105988095D02*
X136407200Y-106035714D01*
X136407200Y-106035714D02*
X136454819Y-106130952D01*
X136454819Y-106130952D02*
X136454819Y-106226190D01*
X136454819Y-106226190D02*
X136407200Y-106321428D01*
X136407200Y-106321428D02*
X136359580Y-106369047D01*
X136359580Y-106369047D02*
X136264342Y-106416666D01*
X136264342Y-106416666D02*
X136073866Y-106464285D01*
X136073866Y-106464285D02*
X135835771Y-106464285D01*
X135835771Y-106464285D02*
X135645295Y-106416666D01*
X135645295Y-106416666D02*
X135550057Y-106369047D01*
X135550057Y-106369047D02*
X135502438Y-106321428D01*
X135502438Y-106321428D02*
X135454819Y-106226190D01*
X135788152Y-105035714D02*
X136454819Y-105035714D01*
X135788152Y-105464285D02*
X136311961Y-105464285D01*
X136311961Y-105464285D02*
X136407200Y-105416666D01*
X136407200Y-105416666D02*
X136454819Y-105321428D01*
X136454819Y-105321428D02*
X136454819Y-105178571D01*
X136454819Y-105178571D02*
X136407200Y-105083333D01*
X136407200Y-105083333D02*
X136359580Y-105035714D01*
X135931009Y-104226190D02*
X135931009Y-104559523D01*
X136454819Y-104559523D02*
X135454819Y-104559523D01*
X135454819Y-104559523D02*
X135454819Y-104083333D01*
X122084819Y-106246666D02*
X121608628Y-106579999D01*
X122084819Y-106818094D02*
X121084819Y-106818094D01*
X121084819Y-106818094D02*
X121084819Y-106437142D01*
X121084819Y-106437142D02*
X121132438Y-106341904D01*
X121132438Y-106341904D02*
X121180057Y-106294285D01*
X121180057Y-106294285D02*
X121275295Y-106246666D01*
X121275295Y-106246666D02*
X121418152Y-106246666D01*
X121418152Y-106246666D02*
X121513390Y-106294285D01*
X121513390Y-106294285D02*
X121561009Y-106341904D01*
X121561009Y-106341904D02*
X121608628Y-106437142D01*
X121608628Y-106437142D02*
X121608628Y-106818094D01*
X121180057Y-105865713D02*
X121132438Y-105818094D01*
X121132438Y-105818094D02*
X121084819Y-105722856D01*
X121084819Y-105722856D02*
X121084819Y-105484761D01*
X121084819Y-105484761D02*
X121132438Y-105389523D01*
X121132438Y-105389523D02*
X121180057Y-105341904D01*
X121180057Y-105341904D02*
X121275295Y-105294285D01*
X121275295Y-105294285D02*
X121370533Y-105294285D01*
X121370533Y-105294285D02*
X121513390Y-105341904D01*
X121513390Y-105341904D02*
X122084819Y-105913332D01*
X122084819Y-105913332D02*
X122084819Y-105294285D01*
X125920057Y-107484761D02*
X125872438Y-107437142D01*
X125872438Y-107437142D02*
X125824819Y-107341904D01*
X125824819Y-107341904D02*
X125824819Y-107103809D01*
X125824819Y-107103809D02*
X125872438Y-107008571D01*
X125872438Y-107008571D02*
X125920057Y-106960952D01*
X125920057Y-106960952D02*
X126015295Y-106913333D01*
X126015295Y-106913333D02*
X126110533Y-106913333D01*
X126110533Y-106913333D02*
X126253390Y-106960952D01*
X126253390Y-106960952D02*
X126824819Y-107532380D01*
X126824819Y-107532380D02*
X126824819Y-106913333D01*
X126729580Y-106484761D02*
X126777200Y-106437142D01*
X126777200Y-106437142D02*
X126824819Y-106484761D01*
X126824819Y-106484761D02*
X126777200Y-106532380D01*
X126777200Y-106532380D02*
X126729580Y-106484761D01*
X126729580Y-106484761D02*
X126824819Y-106484761D01*
X125920057Y-106056190D02*
X125872438Y-106008571D01*
X125872438Y-106008571D02*
X125824819Y-105913333D01*
X125824819Y-105913333D02*
X125824819Y-105675238D01*
X125824819Y-105675238D02*
X125872438Y-105580000D01*
X125872438Y-105580000D02*
X125920057Y-105532381D01*
X125920057Y-105532381D02*
X126015295Y-105484762D01*
X126015295Y-105484762D02*
X126110533Y-105484762D01*
X126110533Y-105484762D02*
X126253390Y-105532381D01*
X126253390Y-105532381D02*
X126824819Y-106103809D01*
X126824819Y-106103809D02*
X126824819Y-105484762D01*
X126824819Y-105056190D02*
X125824819Y-105056190D01*
X126443866Y-104960952D02*
X126824819Y-104675238D01*
X126158152Y-104675238D02*
X126539104Y-105056190D01*
D12*
%TO.C,C2*%
X138195225Y-91525000D02*
X138695225Y-91525000D01*
X138445225Y-91275000D02*
X138445225Y-91775000D01*
X141000000Y-90420000D02*
X141000000Y-91960000D01*
X141000000Y-94040000D02*
X141000000Y-95580000D01*
X141040000Y-90420000D02*
X141040000Y-91960000D01*
X141040000Y-94040000D02*
X141040000Y-95580000D01*
X141080000Y-90421000D02*
X141080000Y-91960000D01*
X141080000Y-94040000D02*
X141080000Y-95579000D01*
X141120000Y-90422000D02*
X141120000Y-91960000D01*
X141120000Y-94040000D02*
X141120000Y-95578000D01*
X141160000Y-90424000D02*
X141160000Y-91960000D01*
X141160000Y-94040000D02*
X141160000Y-95576000D01*
X141200000Y-90427000D02*
X141200000Y-91960000D01*
X141200000Y-94040000D02*
X141200000Y-95573000D01*
X141240000Y-90431000D02*
X141240000Y-91960000D01*
X141240000Y-94040000D02*
X141240000Y-95569000D01*
X141280000Y-90435000D02*
X141280000Y-91960000D01*
X141280000Y-94040000D02*
X141280000Y-95565000D01*
X141320000Y-90439000D02*
X141320000Y-91960000D01*
X141320000Y-94040000D02*
X141320000Y-95561000D01*
X141360000Y-90444000D02*
X141360000Y-91960000D01*
X141360000Y-94040000D02*
X141360000Y-95556000D01*
X141400000Y-90450000D02*
X141400000Y-91960000D01*
X141400000Y-94040000D02*
X141400000Y-95550000D01*
X141440000Y-90457000D02*
X141440000Y-91960000D01*
X141440000Y-94040000D02*
X141440000Y-95543000D01*
X141480000Y-90464000D02*
X141480000Y-91960000D01*
X141480000Y-94040000D02*
X141480000Y-95536000D01*
X141520000Y-90472000D02*
X141520000Y-91960000D01*
X141520000Y-94040000D02*
X141520000Y-95528000D01*
X141560000Y-90480000D02*
X141560000Y-91960000D01*
X141560000Y-94040000D02*
X141560000Y-95520000D01*
X141600000Y-90489000D02*
X141600000Y-91960000D01*
X141600000Y-94040000D02*
X141600000Y-95511000D01*
X141640000Y-90499000D02*
X141640000Y-91960000D01*
X141640000Y-94040000D02*
X141640000Y-95501000D01*
X141680000Y-90509000D02*
X141680000Y-91960000D01*
X141680000Y-94040000D02*
X141680000Y-95491000D01*
X141721000Y-90520000D02*
X141721000Y-91960000D01*
X141721000Y-94040000D02*
X141721000Y-95480000D01*
X141761000Y-90532000D02*
X141761000Y-91960000D01*
X141761000Y-94040000D02*
X141761000Y-95468000D01*
X141801000Y-90545000D02*
X141801000Y-91960000D01*
X141801000Y-94040000D02*
X141801000Y-95455000D01*
X141841000Y-90558000D02*
X141841000Y-91960000D01*
X141841000Y-94040000D02*
X141841000Y-95442000D01*
X141881000Y-90572000D02*
X141881000Y-91960000D01*
X141881000Y-94040000D02*
X141881000Y-95428000D01*
X141921000Y-90586000D02*
X141921000Y-91960000D01*
X141921000Y-94040000D02*
X141921000Y-95414000D01*
X141961000Y-90602000D02*
X141961000Y-91960000D01*
X141961000Y-94040000D02*
X141961000Y-95398000D01*
X142001000Y-90618000D02*
X142001000Y-91960000D01*
X142001000Y-94040000D02*
X142001000Y-95382000D01*
X142041000Y-90635000D02*
X142041000Y-91960000D01*
X142041000Y-94040000D02*
X142041000Y-95365000D01*
X142081000Y-90652000D02*
X142081000Y-91960000D01*
X142081000Y-94040000D02*
X142081000Y-95348000D01*
X142121000Y-90671000D02*
X142121000Y-91960000D01*
X142121000Y-94040000D02*
X142121000Y-95329000D01*
X142161000Y-90690000D02*
X142161000Y-91960000D01*
X142161000Y-94040000D02*
X142161000Y-95310000D01*
X142201000Y-90710000D02*
X142201000Y-91960000D01*
X142201000Y-94040000D02*
X142201000Y-95290000D01*
X142241000Y-90732000D02*
X142241000Y-91960000D01*
X142241000Y-94040000D02*
X142241000Y-95268000D01*
X142281000Y-90753000D02*
X142281000Y-91960000D01*
X142281000Y-94040000D02*
X142281000Y-95247000D01*
X142321000Y-90776000D02*
X142321000Y-91960000D01*
X142321000Y-94040000D02*
X142321000Y-95224000D01*
X142361000Y-90800000D02*
X142361000Y-91960000D01*
X142361000Y-94040000D02*
X142361000Y-95200000D01*
X142401000Y-90825000D02*
X142401000Y-91960000D01*
X142401000Y-94040000D02*
X142401000Y-95175000D01*
X142441000Y-90851000D02*
X142441000Y-91960000D01*
X142441000Y-94040000D02*
X142441000Y-95149000D01*
X142481000Y-90878000D02*
X142481000Y-91960000D01*
X142481000Y-94040000D02*
X142481000Y-95122000D01*
X142521000Y-90905000D02*
X142521000Y-91960000D01*
X142521000Y-94040000D02*
X142521000Y-95095000D01*
X142561000Y-90935000D02*
X142561000Y-91960000D01*
X142561000Y-94040000D02*
X142561000Y-95065000D01*
X142601000Y-90965000D02*
X142601000Y-91960000D01*
X142601000Y-94040000D02*
X142601000Y-95035000D01*
X142641000Y-90996000D02*
X142641000Y-91960000D01*
X142641000Y-94040000D02*
X142641000Y-95004000D01*
X142681000Y-91029000D02*
X142681000Y-91960000D01*
X142681000Y-94040000D02*
X142681000Y-94971000D01*
X142721000Y-91063000D02*
X142721000Y-91960000D01*
X142721000Y-94040000D02*
X142721000Y-94937000D01*
X142761000Y-91099000D02*
X142761000Y-91960000D01*
X142761000Y-94040000D02*
X142761000Y-94901000D01*
X142801000Y-91136000D02*
X142801000Y-91960000D01*
X142801000Y-94040000D02*
X142801000Y-94864000D01*
X142841000Y-91174000D02*
X142841000Y-91960000D01*
X142841000Y-94040000D02*
X142841000Y-94826000D01*
X142881000Y-91215000D02*
X142881000Y-91960000D01*
X142881000Y-94040000D02*
X142881000Y-94785000D01*
X142921000Y-91257000D02*
X142921000Y-91960000D01*
X142921000Y-94040000D02*
X142921000Y-94743000D01*
X142961000Y-91301000D02*
X142961000Y-91960000D01*
X142961000Y-94040000D02*
X142961000Y-94699000D01*
X143001000Y-91347000D02*
X143001000Y-91960000D01*
X143001000Y-94040000D02*
X143001000Y-94653000D01*
X143041000Y-91395000D02*
X143041000Y-94605000D01*
X143081000Y-91446000D02*
X143081000Y-94554000D01*
X143121000Y-91500000D02*
X143121000Y-94500000D01*
X143161000Y-91557000D02*
X143161000Y-94443000D01*
X143201000Y-91617000D02*
X143201000Y-94383000D01*
X143241000Y-91681000D02*
X143241000Y-94319000D01*
X143281000Y-91749000D02*
X143281000Y-94251000D01*
X143321000Y-91822000D02*
X143321000Y-94178000D01*
X143361000Y-91902000D02*
X143361000Y-94098000D01*
X143401000Y-91989000D02*
X143401000Y-94011000D01*
X143441000Y-92085000D02*
X143441000Y-93915000D01*
X143481000Y-92195000D02*
X143481000Y-93805000D01*
X143521000Y-92323000D02*
X143521000Y-93677000D01*
X143561000Y-92482000D02*
X143561000Y-93518000D01*
X143601000Y-92716000D02*
X143601000Y-93284000D01*
X143620000Y-93000000D02*
G75*
G03*
X138380000Y-93000000I-2620000J0D01*
G01*
X138380000Y-93000000D02*
G75*
G03*
X143620000Y-93000000I2620000J0D01*
G01*
%TO.C,R3*%
X156000000Y-85460000D02*
X156000000Y-84690000D01*
X154630000Y-84690000D02*
X157370000Y-84690000D01*
X157370000Y-84690000D02*
X157370000Y-78150000D01*
X154630000Y-78150000D02*
X154630000Y-84690000D01*
X157370000Y-78150000D02*
X154630000Y-78150000D01*
X156000000Y-77380000D02*
X156000000Y-78150000D01*
%TO.C,D2*%
X149000000Y-109240000D02*
X149000000Y-108220000D01*
X147530000Y-108220000D02*
X150470000Y-108220000D01*
X150470000Y-108220000D02*
X150470000Y-102780000D01*
X147530000Y-107440000D02*
X150470000Y-107440000D01*
X147530000Y-107320000D02*
X150470000Y-107320000D01*
X147530000Y-107200000D02*
X150470000Y-107200000D01*
X147530000Y-102780000D02*
X147530000Y-108220000D01*
X150470000Y-102780000D02*
X147530000Y-102780000D01*
X149000000Y-101760000D02*
X149000000Y-102780000D01*
%TO.C,J3*%
X106030000Y-79520000D02*
X105390000Y-79520000D01*
X105390000Y-79520000D02*
X105390000Y-79920000D01*
X112370000Y-79760000D02*
X105630000Y-79760000D01*
X112370000Y-79760000D02*
X112370000Y-90621000D01*
X111250000Y-79760000D02*
X111250000Y-90621000D01*
X106150000Y-79760000D02*
X106150000Y-90621000D01*
X105630000Y-79760000D02*
X105630000Y-90621000D01*
X112370000Y-90621000D02*
X105630000Y-90621000D01*
%TO.C,RLoad1*%
X178500000Y-100040000D02*
X178500000Y-99270000D01*
X177130000Y-99270000D02*
X179870000Y-99270000D01*
X179870000Y-99270000D02*
X179870000Y-92730000D01*
X177130000Y-92730000D02*
X177130000Y-99270000D01*
X179870000Y-92730000D02*
X177130000Y-92730000D01*
X178500000Y-91960000D02*
X178500000Y-92730000D01*
%TO.C,R4*%
X156000000Y-109460000D02*
X156000000Y-108690000D01*
X154630000Y-108690000D02*
X157370000Y-108690000D01*
X157370000Y-108690000D02*
X157370000Y-102150000D01*
X154630000Y-102150000D02*
X154630000Y-108690000D01*
X157370000Y-102150000D02*
X154630000Y-102150000D01*
X156000000Y-101380000D02*
X156000000Y-102150000D01*
%TO.C,C6*%
X107630000Y-111620000D02*
X108075000Y-111620000D01*
X107630000Y-111620000D02*
X107630000Y-105380000D01*
X109925000Y-111620000D02*
X110370000Y-111620000D01*
X110370000Y-111620000D02*
X110370000Y-105380000D01*
X107630000Y-105380000D02*
X108075000Y-105380000D01*
X109925000Y-105380000D02*
X110370000Y-105380000D01*
%TO.C,J1*%
X106030000Y-95100000D02*
X105390000Y-95100000D01*
X105390000Y-95100000D02*
X105390000Y-95500000D01*
X112370000Y-95340000D02*
X105630000Y-95340000D01*
X112370000Y-95340000D02*
X112370000Y-101120000D01*
X111250000Y-95340000D02*
X111250000Y-101120000D01*
X106150000Y-95340000D02*
X106150000Y-101120000D01*
X105630000Y-95340000D02*
X105630000Y-101120000D01*
X112370000Y-101120000D02*
X105630000Y-101120000D01*
%TO.C,Q3*%
X161650000Y-101930000D02*
X161650000Y-105530000D01*
X166100000Y-103730000D02*
G75*
G03*
X161661522Y-101891522I-2600000J0D01*
G01*
X161661522Y-105568478D02*
G75*
G03*
X166100000Y-103730000I1838478J1838478D01*
G01*
%TO.C,Q2*%
X165850000Y-83030000D02*
X165850000Y-79430000D01*
X161400000Y-81230000D02*
G75*
G03*
X165838478Y-83068478I2600000J0D01*
G01*
X165838478Y-79391522D02*
G75*
G03*
X161400000Y-81230000I-1838478J-1838478D01*
G01*
%TO.C,Q1*%
X133850000Y-94800000D02*
X133850000Y-91200000D01*
X129400000Y-93000000D02*
G75*
G03*
X133838478Y-94838478I2600000J0D01*
G01*
X133838478Y-91161522D02*
G75*
G03*
X129400000Y-93000000I-1838478J-1838478D01*
G01*
%TO.C,C1*%
X116195225Y-91525000D02*
X116695225Y-91525000D01*
X116445225Y-91275000D02*
X116445225Y-91775000D01*
X119000000Y-90420000D02*
X119000000Y-91960000D01*
X119000000Y-94040000D02*
X119000000Y-95580000D01*
X119040000Y-90420000D02*
X119040000Y-91960000D01*
X119040000Y-94040000D02*
X119040000Y-95580000D01*
X119080000Y-90421000D02*
X119080000Y-91960000D01*
X119080000Y-94040000D02*
X119080000Y-95579000D01*
X119120000Y-90422000D02*
X119120000Y-91960000D01*
X119120000Y-94040000D02*
X119120000Y-95578000D01*
X119160000Y-90424000D02*
X119160000Y-91960000D01*
X119160000Y-94040000D02*
X119160000Y-95576000D01*
X119200000Y-90427000D02*
X119200000Y-91960000D01*
X119200000Y-94040000D02*
X119200000Y-95573000D01*
X119240000Y-90431000D02*
X119240000Y-91960000D01*
X119240000Y-94040000D02*
X119240000Y-95569000D01*
X119280000Y-90435000D02*
X119280000Y-91960000D01*
X119280000Y-94040000D02*
X119280000Y-95565000D01*
X119320000Y-90439000D02*
X119320000Y-91960000D01*
X119320000Y-94040000D02*
X119320000Y-95561000D01*
X119360000Y-90444000D02*
X119360000Y-91960000D01*
X119360000Y-94040000D02*
X119360000Y-95556000D01*
X119400000Y-90450000D02*
X119400000Y-91960000D01*
X119400000Y-94040000D02*
X119400000Y-95550000D01*
X119440000Y-90457000D02*
X119440000Y-91960000D01*
X119440000Y-94040000D02*
X119440000Y-95543000D01*
X119480000Y-90464000D02*
X119480000Y-91960000D01*
X119480000Y-94040000D02*
X119480000Y-95536000D01*
X119520000Y-90472000D02*
X119520000Y-91960000D01*
X119520000Y-94040000D02*
X119520000Y-95528000D01*
X119560000Y-90480000D02*
X119560000Y-91960000D01*
X119560000Y-94040000D02*
X119560000Y-95520000D01*
X119600000Y-90489000D02*
X119600000Y-91960000D01*
X119600000Y-94040000D02*
X119600000Y-95511000D01*
X119640000Y-90499000D02*
X119640000Y-91960000D01*
X119640000Y-94040000D02*
X119640000Y-95501000D01*
X119680000Y-90509000D02*
X119680000Y-91960000D01*
X119680000Y-94040000D02*
X119680000Y-95491000D01*
X119721000Y-90520000D02*
X119721000Y-91960000D01*
X119721000Y-94040000D02*
X119721000Y-95480000D01*
X119761000Y-90532000D02*
X119761000Y-91960000D01*
X119761000Y-94040000D02*
X119761000Y-95468000D01*
X119801000Y-90545000D02*
X119801000Y-91960000D01*
X119801000Y-94040000D02*
X119801000Y-95455000D01*
X119841000Y-90558000D02*
X119841000Y-91960000D01*
X119841000Y-94040000D02*
X119841000Y-95442000D01*
X119881000Y-90572000D02*
X119881000Y-91960000D01*
X119881000Y-94040000D02*
X119881000Y-95428000D01*
X119921000Y-90586000D02*
X119921000Y-91960000D01*
X119921000Y-94040000D02*
X119921000Y-95414000D01*
X119961000Y-90602000D02*
X119961000Y-91960000D01*
X119961000Y-94040000D02*
X119961000Y-95398000D01*
X120001000Y-90618000D02*
X120001000Y-91960000D01*
X120001000Y-94040000D02*
X120001000Y-95382000D01*
X120041000Y-90635000D02*
X120041000Y-91960000D01*
X120041000Y-94040000D02*
X120041000Y-95365000D01*
X120081000Y-90652000D02*
X120081000Y-91960000D01*
X120081000Y-94040000D02*
X120081000Y-95348000D01*
X120121000Y-90671000D02*
X120121000Y-91960000D01*
X120121000Y-94040000D02*
X120121000Y-95329000D01*
X120161000Y-90690000D02*
X120161000Y-91960000D01*
X120161000Y-94040000D02*
X120161000Y-95310000D01*
X120201000Y-90710000D02*
X120201000Y-91960000D01*
X120201000Y-94040000D02*
X120201000Y-95290000D01*
X120241000Y-90732000D02*
X120241000Y-91960000D01*
X120241000Y-94040000D02*
X120241000Y-95268000D01*
X120281000Y-90753000D02*
X120281000Y-91960000D01*
X120281000Y-94040000D02*
X120281000Y-95247000D01*
X120321000Y-90776000D02*
X120321000Y-91960000D01*
X120321000Y-94040000D02*
X120321000Y-95224000D01*
X120361000Y-90800000D02*
X120361000Y-91960000D01*
X120361000Y-94040000D02*
X120361000Y-95200000D01*
X120401000Y-90825000D02*
X120401000Y-91960000D01*
X120401000Y-94040000D02*
X120401000Y-95175000D01*
X120441000Y-90851000D02*
X120441000Y-91960000D01*
X120441000Y-94040000D02*
X120441000Y-95149000D01*
X120481000Y-90878000D02*
X120481000Y-91960000D01*
X120481000Y-94040000D02*
X120481000Y-95122000D01*
X120521000Y-90905000D02*
X120521000Y-91960000D01*
X120521000Y-94040000D02*
X120521000Y-95095000D01*
X120561000Y-90935000D02*
X120561000Y-91960000D01*
X120561000Y-94040000D02*
X120561000Y-95065000D01*
X120601000Y-90965000D02*
X120601000Y-91960000D01*
X120601000Y-94040000D02*
X120601000Y-95035000D01*
X120641000Y-90996000D02*
X120641000Y-91960000D01*
X120641000Y-94040000D02*
X120641000Y-95004000D01*
X120681000Y-91029000D02*
X120681000Y-91960000D01*
X120681000Y-94040000D02*
X120681000Y-94971000D01*
X120721000Y-91063000D02*
X120721000Y-91960000D01*
X120721000Y-94040000D02*
X120721000Y-94937000D01*
X120761000Y-91099000D02*
X120761000Y-91960000D01*
X120761000Y-94040000D02*
X120761000Y-94901000D01*
X120801000Y-91136000D02*
X120801000Y-91960000D01*
X120801000Y-94040000D02*
X120801000Y-94864000D01*
X120841000Y-91174000D02*
X120841000Y-91960000D01*
X120841000Y-94040000D02*
X120841000Y-94826000D01*
X120881000Y-91215000D02*
X120881000Y-91960000D01*
X120881000Y-94040000D02*
X120881000Y-94785000D01*
X120921000Y-91257000D02*
X120921000Y-91960000D01*
X120921000Y-94040000D02*
X120921000Y-94743000D01*
X120961000Y-91301000D02*
X120961000Y-91960000D01*
X120961000Y-94040000D02*
X120961000Y-94699000D01*
X121001000Y-91347000D02*
X121001000Y-91960000D01*
X121001000Y-94040000D02*
X121001000Y-94653000D01*
X121041000Y-91395000D02*
X121041000Y-94605000D01*
X121081000Y-91446000D02*
X121081000Y-94554000D01*
X121121000Y-91500000D02*
X121121000Y-94500000D01*
X121161000Y-91557000D02*
X121161000Y-94443000D01*
X121201000Y-91617000D02*
X121201000Y-94383000D01*
X121241000Y-91681000D02*
X121241000Y-94319000D01*
X121281000Y-91749000D02*
X121281000Y-94251000D01*
X121321000Y-91822000D02*
X121321000Y-94178000D01*
X121361000Y-91902000D02*
X121361000Y-94098000D01*
X121401000Y-91989000D02*
X121401000Y-94011000D01*
X121441000Y-92085000D02*
X121441000Y-93915000D01*
X121481000Y-92195000D02*
X121481000Y-93805000D01*
X121521000Y-92323000D02*
X121521000Y-93677000D01*
X121561000Y-92482000D02*
X121561000Y-93518000D01*
X121601000Y-92716000D02*
X121601000Y-93284000D01*
X121620000Y-93000000D02*
G75*
G03*
X116380000Y-93000000I-2620000J0D01*
G01*
X116380000Y-93000000D02*
G75*
G03*
X121620000Y-93000000I2620000J0D01*
G01*
%TO.C,R5*%
X170000000Y-101540000D02*
X170000000Y-100770000D01*
X168630000Y-100770000D02*
X171370000Y-100770000D01*
X171370000Y-100770000D02*
X171370000Y-94230000D01*
X168630000Y-94230000D02*
X168630000Y-100770000D01*
X171370000Y-94230000D02*
X168630000Y-94230000D01*
X170000000Y-93460000D02*
X170000000Y-94230000D01*
%TO.C,Rc1*%
X132000000Y-85040000D02*
X132000000Y-84270000D01*
X130630000Y-84270000D02*
X133370000Y-84270000D01*
X133370000Y-84270000D02*
X133370000Y-77730000D01*
X130630000Y-77730000D02*
X130630000Y-84270000D01*
X133370000Y-77730000D02*
X130630000Y-77730000D01*
X132000000Y-76960000D02*
X132000000Y-77730000D01*
%TO.C,C5*%
X150880000Y-91630000D02*
X150880000Y-92075000D01*
X150880000Y-91630000D02*
X157120000Y-91630000D01*
X150880000Y-93925000D02*
X150880000Y-94370000D01*
X150880000Y-94370000D02*
X157120000Y-94370000D01*
X157120000Y-91630000D02*
X157120000Y-92075000D01*
X157120000Y-93925000D02*
X157120000Y-94370000D01*
%TO.C,C4*%
X115630000Y-81620000D02*
X116075000Y-81620000D01*
X115630000Y-81620000D02*
X115630000Y-75380000D01*
X117925000Y-81620000D02*
X118370000Y-81620000D01*
X118370000Y-81620000D02*
X118370000Y-75380000D01*
X115630000Y-75380000D02*
X116075000Y-75380000D01*
X117925000Y-75380000D02*
X118370000Y-75380000D01*
%TO.C,J2*%
X175670000Y-106030000D02*
X175030000Y-106030000D01*
X175030000Y-106030000D02*
X175030000Y-106430000D01*
X182010000Y-106270000D02*
X175270000Y-106270000D01*
X182010000Y-106270000D02*
X182010000Y-112050000D01*
X180890000Y-106270000D02*
X180890000Y-112050000D01*
X175790000Y-106270000D02*
X175790000Y-112050000D01*
X175270000Y-106270000D02*
X175270000Y-112050000D01*
X182010000Y-112050000D02*
X175270000Y-112050000D01*
%TO.C,R6*%
X170000000Y-88040000D02*
X170000000Y-87270000D01*
X168630000Y-87270000D02*
X171370000Y-87270000D01*
X171370000Y-87270000D02*
X171370000Y-80730000D01*
X168630000Y-80730000D02*
X168630000Y-87270000D01*
X171370000Y-80730000D02*
X168630000Y-80730000D01*
X170000000Y-79960000D02*
X170000000Y-80730000D01*
%TO.C,D1*%
X149000000Y-85240000D02*
X149000000Y-84220000D01*
X147530000Y-84220000D02*
X150470000Y-84220000D01*
X150470000Y-84220000D02*
X150470000Y-78780000D01*
X147530000Y-83440000D02*
X150470000Y-83440000D01*
X147530000Y-83320000D02*
X150470000Y-83320000D01*
X147530000Y-83200000D02*
X150470000Y-83200000D01*
X147530000Y-78780000D02*
X147530000Y-84220000D01*
X150470000Y-78780000D02*
X147530000Y-78780000D01*
X149000000Y-77760000D02*
X149000000Y-78780000D01*
%TO.C,R1*%
X124000000Y-85040000D02*
X124000000Y-84270000D01*
X122630000Y-84270000D02*
X125370000Y-84270000D01*
X125370000Y-84270000D02*
X125370000Y-77730000D01*
X122630000Y-77730000D02*
X122630000Y-84270000D01*
X125370000Y-77730000D02*
X122630000Y-77730000D01*
X124000000Y-76960000D02*
X124000000Y-77730000D01*
%TO.C,Re1*%
X132000000Y-110120000D02*
X132000000Y-109350000D01*
X130630000Y-109350000D02*
X133370000Y-109350000D01*
X133370000Y-109350000D02*
X133370000Y-102810000D01*
X130630000Y-102810000D02*
X130630000Y-109350000D01*
X133370000Y-102810000D02*
X130630000Y-102810000D01*
X132000000Y-102040000D02*
X132000000Y-102810000D01*
%TO.C,C3*%
X143175000Y-102107789D02*
X143175000Y-102857789D01*
X143550000Y-102482789D02*
X142800000Y-102482789D01*
X144830000Y-106250000D02*
X137170000Y-106250000D01*
X144830000Y-106290000D02*
X137170000Y-106290000D01*
X144830000Y-106330000D02*
X137170000Y-106330000D01*
X144829000Y-106370000D02*
X137171000Y-106370000D01*
X144827000Y-106410000D02*
X137173000Y-106410000D01*
X144825000Y-106450000D02*
X137175000Y-106450000D01*
X144823000Y-106490000D02*
X142040000Y-106490000D01*
X139960000Y-106490000D02*
X137177000Y-106490000D01*
X144820000Y-106530000D02*
X142040000Y-106530000D01*
X139960000Y-106530000D02*
X137180000Y-106530000D01*
X144817000Y-106570000D02*
X142040000Y-106570000D01*
X139960000Y-106570000D02*
X137183000Y-106570000D01*
X144814000Y-106610000D02*
X142040000Y-106610000D01*
X139960000Y-106610000D02*
X137186000Y-106610000D01*
X144810000Y-106650000D02*
X142040000Y-106650000D01*
X139960000Y-106650000D02*
X137190000Y-106650000D01*
X144805000Y-106690000D02*
X142040000Y-106690000D01*
X139960000Y-106690000D02*
X137195000Y-106690000D01*
X144801000Y-106730000D02*
X142040000Y-106730000D01*
X139960000Y-106730000D02*
X137199000Y-106730000D01*
X144795000Y-106770000D02*
X142040000Y-106770000D01*
X139960000Y-106770000D02*
X137205000Y-106770000D01*
X144790000Y-106810000D02*
X142040000Y-106810000D01*
X139960000Y-106810000D02*
X137210000Y-106810000D01*
X144784000Y-106850000D02*
X142040000Y-106850000D01*
X139960000Y-106850000D02*
X137216000Y-106850000D01*
X144777000Y-106890000D02*
X142040000Y-106890000D01*
X139960000Y-106890000D02*
X137223000Y-106890000D01*
X144770000Y-106930000D02*
X142040000Y-106930000D01*
X139960000Y-106930000D02*
X137230000Y-106930000D01*
X144763000Y-106971000D02*
X142040000Y-106971000D01*
X139960000Y-106971000D02*
X137237000Y-106971000D01*
X144755000Y-107011000D02*
X142040000Y-107011000D01*
X139960000Y-107011000D02*
X137245000Y-107011000D01*
X144747000Y-107051000D02*
X142040000Y-107051000D01*
X139960000Y-107051000D02*
X137253000Y-107051000D01*
X144738000Y-107091000D02*
X142040000Y-107091000D01*
X139960000Y-107091000D02*
X137262000Y-107091000D01*
X144729000Y-107131000D02*
X142040000Y-107131000D01*
X139960000Y-107131000D02*
X137271000Y-107131000D01*
X144720000Y-107171000D02*
X142040000Y-107171000D01*
X139960000Y-107171000D02*
X137280000Y-107171000D01*
X144710000Y-107211000D02*
X142040000Y-107211000D01*
X139960000Y-107211000D02*
X137290000Y-107211000D01*
X144699000Y-107251000D02*
X142040000Y-107251000D01*
X139960000Y-107251000D02*
X137301000Y-107251000D01*
X144688000Y-107291000D02*
X142040000Y-107291000D01*
X139960000Y-107291000D02*
X137312000Y-107291000D01*
X144677000Y-107331000D02*
X142040000Y-107331000D01*
X139960000Y-107331000D02*
X137323000Y-107331000D01*
X144665000Y-107371000D02*
X142040000Y-107371000D01*
X139960000Y-107371000D02*
X137335000Y-107371000D01*
X144653000Y-107411000D02*
X142040000Y-107411000D01*
X139960000Y-107411000D02*
X137347000Y-107411000D01*
X144640000Y-107451000D02*
X142040000Y-107451000D01*
X139960000Y-107451000D02*
X137360000Y-107451000D01*
X144626000Y-107491000D02*
X142040000Y-107491000D01*
X139960000Y-107491000D02*
X137374000Y-107491000D01*
X144613000Y-107531000D02*
X142040000Y-107531000D01*
X139960000Y-107531000D02*
X137387000Y-107531000D01*
X144598000Y-107571000D02*
X142040000Y-107571000D01*
X139960000Y-107571000D02*
X137402000Y-107571000D01*
X144584000Y-107611000D02*
X142040000Y-107611000D01*
X139960000Y-107611000D02*
X137416000Y-107611000D01*
X144568000Y-107651000D02*
X142040000Y-107651000D01*
X139960000Y-107651000D02*
X137432000Y-107651000D01*
X144553000Y-107691000D02*
X142040000Y-107691000D01*
X139960000Y-107691000D02*
X137447000Y-107691000D01*
X144536000Y-107731000D02*
X142040000Y-107731000D01*
X139960000Y-107731000D02*
X137464000Y-107731000D01*
X144520000Y-107771000D02*
X142040000Y-107771000D01*
X139960000Y-107771000D02*
X137480000Y-107771000D01*
X144502000Y-107811000D02*
X142040000Y-107811000D01*
X139960000Y-107811000D02*
X137498000Y-107811000D01*
X144484000Y-107851000D02*
X142040000Y-107851000D01*
X139960000Y-107851000D02*
X137516000Y-107851000D01*
X144466000Y-107891000D02*
X142040000Y-107891000D01*
X139960000Y-107891000D02*
X137534000Y-107891000D01*
X144447000Y-107931000D02*
X142040000Y-107931000D01*
X139960000Y-107931000D02*
X137553000Y-107931000D01*
X144427000Y-107971000D02*
X142040000Y-107971000D01*
X139960000Y-107971000D02*
X137573000Y-107971000D01*
X144407000Y-108011000D02*
X142040000Y-108011000D01*
X139960000Y-108011000D02*
X137593000Y-108011000D01*
X144386000Y-108051000D02*
X142040000Y-108051000D01*
X139960000Y-108051000D02*
X137614000Y-108051000D01*
X144365000Y-108091000D02*
X142040000Y-108091000D01*
X139960000Y-108091000D02*
X137635000Y-108091000D01*
X144343000Y-108131000D02*
X142040000Y-108131000D01*
X139960000Y-108131000D02*
X137657000Y-108131000D01*
X144321000Y-108171000D02*
X142040000Y-108171000D01*
X139960000Y-108171000D02*
X137679000Y-108171000D01*
X144297000Y-108211000D02*
X142040000Y-108211000D01*
X139960000Y-108211000D02*
X137703000Y-108211000D01*
X144274000Y-108251000D02*
X142040000Y-108251000D01*
X139960000Y-108251000D02*
X137726000Y-108251000D01*
X144249000Y-108291000D02*
X142040000Y-108291000D01*
X139960000Y-108291000D02*
X137751000Y-108291000D01*
X144224000Y-108331000D02*
X142040000Y-108331000D01*
X139960000Y-108331000D02*
X137776000Y-108331000D01*
X144198000Y-108371000D02*
X142040000Y-108371000D01*
X139960000Y-108371000D02*
X137802000Y-108371000D01*
X144172000Y-108411000D02*
X142040000Y-108411000D01*
X139960000Y-108411000D02*
X137828000Y-108411000D01*
X144144000Y-108451000D02*
X142040000Y-108451000D01*
X139960000Y-108451000D02*
X137856000Y-108451000D01*
X144116000Y-108491000D02*
X142040000Y-108491000D01*
X139960000Y-108491000D02*
X137884000Y-108491000D01*
X144088000Y-108531000D02*
X142040000Y-108531000D01*
X139960000Y-108531000D02*
X137912000Y-108531000D01*
X144058000Y-108571000D02*
X137942000Y-108571000D01*
X144028000Y-108611000D02*
X137972000Y-108611000D01*
X143996000Y-108651000D02*
X138004000Y-108651000D01*
X143964000Y-108691000D02*
X138036000Y-108691000D01*
X143931000Y-108731000D02*
X138069000Y-108731000D01*
X143898000Y-108771000D02*
X138102000Y-108771000D01*
X143863000Y-108811000D02*
X138137000Y-108811000D01*
X143827000Y-108851000D02*
X138173000Y-108851000D01*
X143790000Y-108891000D02*
X138210000Y-108891000D01*
X143752000Y-108931000D02*
X138248000Y-108931000D01*
X143713000Y-108971000D02*
X138287000Y-108971000D01*
X143673000Y-109011000D02*
X138327000Y-109011000D01*
X143632000Y-109051000D02*
X138368000Y-109051000D01*
X143589000Y-109091000D02*
X138411000Y-109091000D01*
X143546000Y-109131000D02*
X138454000Y-109131000D01*
X143500000Y-109171000D02*
X138500000Y-109171000D01*
X143454000Y-109211000D02*
X138546000Y-109211000D01*
X143405000Y-109251000D02*
X138595000Y-109251000D01*
X143355000Y-109291000D02*
X138645000Y-109291000D01*
X143304000Y-109331000D02*
X138696000Y-109331000D01*
X143250000Y-109371000D02*
X138750000Y-109371000D01*
X143195000Y-109411000D02*
X138805000Y-109411000D01*
X143137000Y-109451000D02*
X138863000Y-109451000D01*
X143077000Y-109491000D02*
X138923000Y-109491000D01*
X143014000Y-109531000D02*
X138986000Y-109531000D01*
X142949000Y-109571000D02*
X139051000Y-109571000D01*
X142881000Y-109611000D02*
X139119000Y-109611000D01*
X142809000Y-109651000D02*
X139191000Y-109651000D01*
X142733000Y-109691000D02*
X139267000Y-109691000D01*
X142654000Y-109731000D02*
X139346000Y-109731000D01*
X142569000Y-109771000D02*
X139431000Y-109771000D01*
X142478000Y-109811000D02*
X139522000Y-109811000D01*
X142381000Y-109851000D02*
X139619000Y-109851000D01*
X142275000Y-109891000D02*
X139725000Y-109891000D01*
X142158000Y-109931000D02*
X139842000Y-109931000D01*
X142028000Y-109971000D02*
X139972000Y-109971000D01*
X141877000Y-110011000D02*
X140123000Y-110011000D01*
X141693000Y-110051000D02*
X140307000Y-110051000D01*
X141441000Y-110091000D02*
X140559000Y-110091000D01*
X144870000Y-106250000D02*
G75*
G03*
X137130000Y-106250000I-3870000J0D01*
G01*
X137130000Y-106250000D02*
G75*
G03*
X144870000Y-106250000I3870000J0D01*
G01*
%TO.C,R2*%
X124000000Y-110120000D02*
X124000000Y-109350000D01*
X122630000Y-109350000D02*
X125370000Y-109350000D01*
X125370000Y-109350000D02*
X125370000Y-102810000D01*
X122630000Y-102810000D02*
X122630000Y-109350000D01*
X125370000Y-102810000D02*
X122630000Y-102810000D01*
X124000000Y-102040000D02*
X124000000Y-102810000D01*
%TD*%
M02*
