%TF.GenerationSoftware,KiCad,Pcbnew,7.0.11-7.0.11~ubuntu20.04.1*%
%TF.CreationDate,2024-04-30T23:20:12-04:00*%
%TF.ProjectId,AudioAmpEEL,41756469-6f41-46d7-9045-454c2e6b6963,rev?*%
%TF.SameCoordinates,Original*%
%TF.FileFunction,Soldermask,Bot*%
%TF.FilePolarity,Negative*%
%FSLAX46Y46*%
G04 Gerber Fmt 4.6, Leading zero omitted, Abs format (unit mm)*
G04 Created by KiCad (PCBNEW 7.0.11-7.0.11~ubuntu20.04.1) date 2024-04-30 23:20:12*
%MOMM*%
%LPD*%
G01*
G04 APERTURE LIST*
%ADD10R,1.600000X1.600000*%
%ADD11C,1.600000*%
%ADD12O,1.600000X1.600000*%
%ADD13R,2.200000X2.200000*%
%ADD14O,2.200000X2.200000*%
%ADD15R,2.100000X2.100000*%
%ADD16C,2.100000*%
%ADD17R,1.500000X1.050000*%
%ADD18O,1.500000X1.050000*%
G04 APERTURE END LIST*
D10*
%TO.C,C2*%
X140000000Y-93000000D03*
D11*
X142000000Y-93000000D03*
%TD*%
%TO.C,R3*%
X156000000Y-86500000D03*
D12*
X156000000Y-76340000D03*
%TD*%
D13*
%TO.C,D2*%
X149000000Y-110580000D03*
D14*
X149000000Y-100420000D03*
%TD*%
D15*
%TO.C,J3*%
X109000000Y-81380000D03*
D16*
X109000000Y-83920000D03*
X109000000Y-86460000D03*
X109000000Y-89000000D03*
%TD*%
D11*
%TO.C,RLoad1*%
X178500000Y-101080000D03*
D12*
X178500000Y-90920000D03*
%TD*%
D11*
%TO.C,R4*%
X156000000Y-110500000D03*
D12*
X156000000Y-100340000D03*
%TD*%
D11*
%TO.C,C6*%
X109000000Y-111000000D03*
X109000000Y-106000000D03*
%TD*%
D15*
%TO.C,J1*%
X109000000Y-96960000D03*
D16*
X109000000Y-99500000D03*
%TD*%
D17*
%TO.C,Q3*%
X163500000Y-102460000D03*
D18*
X163500000Y-103730000D03*
X163500000Y-105000000D03*
%TD*%
D17*
%TO.C,Q2*%
X164000000Y-82500000D03*
D18*
X164000000Y-81230000D03*
X164000000Y-79960000D03*
%TD*%
D17*
%TO.C,Q1*%
X132000000Y-94270000D03*
D18*
X132000000Y-93000000D03*
X132000000Y-91730000D03*
%TD*%
D10*
%TO.C,C1*%
X118000000Y-93000000D03*
D11*
X120000000Y-93000000D03*
%TD*%
%TO.C,R5*%
X170000000Y-102580000D03*
D12*
X170000000Y-92420000D03*
%TD*%
D11*
%TO.C,Rc1*%
X132000000Y-86080000D03*
D12*
X132000000Y-75920000D03*
%TD*%
D11*
%TO.C,C5*%
X151500000Y-93000000D03*
X156500000Y-93000000D03*
%TD*%
%TO.C,C4*%
X117000000Y-81000000D03*
X117000000Y-76000000D03*
%TD*%
D15*
%TO.C,J2*%
X178640000Y-107890000D03*
D16*
X178640000Y-110430000D03*
%TD*%
D11*
%TO.C,R6*%
X170000000Y-89080000D03*
D12*
X170000000Y-78920000D03*
%TD*%
D13*
%TO.C,D1*%
X149000000Y-86580000D03*
D14*
X149000000Y-76420000D03*
%TD*%
D11*
%TO.C,R1*%
X124000000Y-86080000D03*
D12*
X124000000Y-75920000D03*
%TD*%
D11*
%TO.C,Re1*%
X132000000Y-111160000D03*
D12*
X132000000Y-101000000D03*
%TD*%
D10*
%TO.C,C3*%
X141000000Y-105000000D03*
D11*
X141000000Y-107500000D03*
%TD*%
%TO.C,R2*%
X124000000Y-111160000D03*
D12*
X124000000Y-101000000D03*
%TD*%
M02*
