M48
; DRILL file {KiCad 7.0.11-7.0.11~ubuntu20.04.1} date Thu 02 May 2024 12:54:17 PM EDT
; FORMAT={-:-/ absolute / inch / decimal}
; #@! TF.CreationDate,2024-05-02T12:54:17-04:00
; #@! TF.GenerationSoftware,Kicad,Pcbnew,7.0.11-7.0.11~ubuntu20.04.1
; #@! TF.FileFunction,Plated,1,2,PTH
FMAT,2
INCH
; #@! TA.AperFunction,Plated,PTH,ComponentDrill
T1C0.0295
; #@! TA.AperFunction,Plated,PTH,ComponentDrill
T2C0.0315
; #@! TA.AperFunction,Plated,PTH,ComponentDrill
T3C0.0433
%
G90
G05
T1
X5.1969Y-3.6114
X5.1969Y-3.6614
X5.1969Y-3.7114
X6.5496Y-3.1783
X6.5496Y-3.2283
X6.5496Y-3.2783
X6.6197Y-4.1823
X6.6197Y-4.2323
X6.6197Y-4.2823
T2
X4.2913Y-4.1732
X4.2913Y-4.3701
X4.6063Y-2.9921
X4.6063Y-3.189
X4.6457Y-3.6614
X4.7244Y-3.6614
X4.8819Y-2.989
X4.8819Y-3.389
X4.8819Y-3.9764
X4.8819Y-4.3764
X5.1969Y-2.989
X5.1969Y-3.389
X5.1969Y-3.9764
X5.1969Y-4.3764
X5.5118Y-3.6614
X5.5512Y-4.1339
X5.5512Y-4.2323
X5.5906Y-3.6614
X5.9646Y-3.6614
X6.0039Y-3.0055
X6.0039Y-3.4055
X6.1417Y-3.9535
X6.1417Y-4.3535
X6.1614Y-3.6614
X6.2795Y-3.0087
X6.2795Y-3.4087
X6.3976Y-3.9567
X6.3976Y-4.3567
X6.7913Y-3.1071
X6.7913Y-3.5071
X6.7913Y-3.6583
X6.7913Y-4.0583
X7.0472Y-3.5827
X7.0472Y-3.9827
T3
X4.2913Y-3.2039
X4.2913Y-3.3039
X4.2913Y-3.4039
X4.2913Y-3.5039
X4.2913Y-3.8173
X4.2913Y-3.9173
X5.748Y-3.0087
X5.748Y-3.4087
X5.8661Y-3.9535
X5.8661Y-4.3535
X7.0331Y-4.2476
X7.0331Y-4.3476
M30
