%TF.GenerationSoftware,KiCad,Pcbnew,7.0.11-7.0.11~ubuntu20.04.1*%
%TF.CreationDate,2024-05-02T13:22:55-04:00*%
%TF.ProjectId,AudioAmpEELv2,41756469-6f41-46d7-9045-454c76322e6b,rev?*%
%TF.SameCoordinates,Original*%
%TF.FileFunction,Legend,Top*%
%TF.FilePolarity,Positive*%
%FSLAX46Y46*%
G04 Gerber Fmt 4.6, Leading zero omitted, Abs format (unit mm)*
G04 Created by KiCad (PCBNEW 7.0.11-7.0.11~ubuntu20.04.1) date 2024-05-02 13:22:55*
%MOMM*%
%LPD*%
G01*
G04 APERTURE LIST*
%ADD10C,0.150000*%
%ADD11C,0.100000*%
%ADD12C,0.120000*%
G04 APERTURE END LIST*
D10*
X144274819Y-86081904D02*
X143274819Y-86081904D01*
X144274819Y-85510476D02*
X143703390Y-85939047D01*
X143274819Y-85510476D02*
X143846247Y-86081904D01*
D11*
X108327693Y-101920038D02*
X108232455Y-101872419D01*
X108232455Y-101872419D02*
X108089598Y-101872419D01*
X108089598Y-101872419D02*
X107946741Y-101920038D01*
X107946741Y-101920038D02*
X107851503Y-102015276D01*
X107851503Y-102015276D02*
X107803884Y-102110514D01*
X107803884Y-102110514D02*
X107756265Y-102300990D01*
X107756265Y-102300990D02*
X107756265Y-102443847D01*
X107756265Y-102443847D02*
X107803884Y-102634323D01*
X107803884Y-102634323D02*
X107851503Y-102729561D01*
X107851503Y-102729561D02*
X107946741Y-102824800D01*
X107946741Y-102824800D02*
X108089598Y-102872419D01*
X108089598Y-102872419D02*
X108184836Y-102872419D01*
X108184836Y-102872419D02*
X108327693Y-102824800D01*
X108327693Y-102824800D02*
X108375312Y-102777180D01*
X108375312Y-102777180D02*
X108375312Y-102443847D01*
X108375312Y-102443847D02*
X108184836Y-102443847D01*
X108803884Y-102872419D02*
X108803884Y-101872419D01*
X108803884Y-101872419D02*
X109375312Y-102872419D01*
X109375312Y-102872419D02*
X109375312Y-101872419D01*
X109851503Y-102872419D02*
X109851503Y-101872419D01*
X109851503Y-101872419D02*
X110089598Y-101872419D01*
X110089598Y-101872419D02*
X110232455Y-101920038D01*
X110232455Y-101920038D02*
X110327693Y-102015276D01*
X110327693Y-102015276D02*
X110375312Y-102110514D01*
X110375312Y-102110514D02*
X110422931Y-102300990D01*
X110422931Y-102300990D02*
X110422931Y-102443847D01*
X110422931Y-102443847D02*
X110375312Y-102634323D01*
X110375312Y-102634323D02*
X110327693Y-102729561D01*
X110327693Y-102729561D02*
X110232455Y-102824800D01*
X110232455Y-102824800D02*
X110089598Y-102872419D01*
X110089598Y-102872419D02*
X109851503Y-102872419D01*
X176803884Y-104991466D02*
X177565789Y-104991466D01*
X177184836Y-105372419D02*
X177184836Y-104610514D01*
X178232455Y-104372419D02*
X178422931Y-104372419D01*
X178422931Y-104372419D02*
X178518169Y-104420038D01*
X178518169Y-104420038D02*
X178613407Y-104515276D01*
X178613407Y-104515276D02*
X178661026Y-104705752D01*
X178661026Y-104705752D02*
X178661026Y-105039085D01*
X178661026Y-105039085D02*
X178613407Y-105229561D01*
X178613407Y-105229561D02*
X178518169Y-105324800D01*
X178518169Y-105324800D02*
X178422931Y-105372419D01*
X178422931Y-105372419D02*
X178232455Y-105372419D01*
X178232455Y-105372419D02*
X178137217Y-105324800D01*
X178137217Y-105324800D02*
X178041979Y-105229561D01*
X178041979Y-105229561D02*
X177994360Y-105039085D01*
X177994360Y-105039085D02*
X177994360Y-104705752D01*
X177994360Y-104705752D02*
X178041979Y-104515276D01*
X178041979Y-104515276D02*
X178137217Y-104420038D01*
X178137217Y-104420038D02*
X178232455Y-104372419D01*
X179089598Y-104372419D02*
X179089598Y-105181942D01*
X179089598Y-105181942D02*
X179137217Y-105277180D01*
X179137217Y-105277180D02*
X179184836Y-105324800D01*
X179184836Y-105324800D02*
X179280074Y-105372419D01*
X179280074Y-105372419D02*
X179470550Y-105372419D01*
X179470550Y-105372419D02*
X179565788Y-105324800D01*
X179565788Y-105324800D02*
X179613407Y-105277180D01*
X179613407Y-105277180D02*
X179661026Y-105181942D01*
X179661026Y-105181942D02*
X179661026Y-104372419D01*
X179994360Y-104372419D02*
X180565788Y-104372419D01*
X180280074Y-105372419D02*
X180280074Y-104372419D01*
X176803884Y-113491466D02*
X177565789Y-113491466D01*
X178232455Y-112872419D02*
X178422931Y-112872419D01*
X178422931Y-112872419D02*
X178518169Y-112920038D01*
X178518169Y-112920038D02*
X178613407Y-113015276D01*
X178613407Y-113015276D02*
X178661026Y-113205752D01*
X178661026Y-113205752D02*
X178661026Y-113539085D01*
X178661026Y-113539085D02*
X178613407Y-113729561D01*
X178613407Y-113729561D02*
X178518169Y-113824800D01*
X178518169Y-113824800D02*
X178422931Y-113872419D01*
X178422931Y-113872419D02*
X178232455Y-113872419D01*
X178232455Y-113872419D02*
X178137217Y-113824800D01*
X178137217Y-113824800D02*
X178041979Y-113729561D01*
X178041979Y-113729561D02*
X177994360Y-113539085D01*
X177994360Y-113539085D02*
X177994360Y-113205752D01*
X177994360Y-113205752D02*
X178041979Y-113015276D01*
X178041979Y-113015276D02*
X178137217Y-112920038D01*
X178137217Y-112920038D02*
X178232455Y-112872419D01*
X179089598Y-112872419D02*
X179089598Y-113681942D01*
X179089598Y-113681942D02*
X179137217Y-113777180D01*
X179137217Y-113777180D02*
X179184836Y-113824800D01*
X179184836Y-113824800D02*
X179280074Y-113872419D01*
X179280074Y-113872419D02*
X179470550Y-113872419D01*
X179470550Y-113872419D02*
X179565788Y-113824800D01*
X179565788Y-113824800D02*
X179613407Y-113777180D01*
X179613407Y-113777180D02*
X179661026Y-113681942D01*
X179661026Y-113681942D02*
X179661026Y-112872419D01*
X179994360Y-112872419D02*
X180565788Y-112872419D01*
X180280074Y-113872419D02*
X180280074Y-112872419D01*
X106827693Y-94372419D02*
X106256265Y-94372419D01*
X106541979Y-94372419D02*
X106541979Y-93372419D01*
X106541979Y-93372419D02*
X106446741Y-93515276D01*
X106446741Y-93515276D02*
X106351503Y-93610514D01*
X106351503Y-93610514D02*
X106256265Y-93658133D01*
X107446741Y-93372419D02*
X107541979Y-93372419D01*
X107541979Y-93372419D02*
X107637217Y-93420038D01*
X107637217Y-93420038D02*
X107684836Y-93467657D01*
X107684836Y-93467657D02*
X107732455Y-93562895D01*
X107732455Y-93562895D02*
X107780074Y-93753371D01*
X107780074Y-93753371D02*
X107780074Y-93991466D01*
X107780074Y-93991466D02*
X107732455Y-94181942D01*
X107732455Y-94181942D02*
X107684836Y-94277180D01*
X107684836Y-94277180D02*
X107637217Y-94324800D01*
X107637217Y-94324800D02*
X107541979Y-94372419D01*
X107541979Y-94372419D02*
X107446741Y-94372419D01*
X107446741Y-94372419D02*
X107351503Y-94324800D01*
X107351503Y-94324800D02*
X107303884Y-94277180D01*
X107303884Y-94277180D02*
X107256265Y-94181942D01*
X107256265Y-94181942D02*
X107208646Y-93991466D01*
X107208646Y-93991466D02*
X107208646Y-93753371D01*
X107208646Y-93753371D02*
X107256265Y-93562895D01*
X107256265Y-93562895D02*
X107303884Y-93467657D01*
X107303884Y-93467657D02*
X107351503Y-93420038D01*
X107351503Y-93420038D02*
X107446741Y-93372419D01*
X108208646Y-94372419D02*
X108208646Y-93705752D01*
X108208646Y-93800990D02*
X108256265Y-93753371D01*
X108256265Y-93753371D02*
X108351503Y-93705752D01*
X108351503Y-93705752D02*
X108494360Y-93705752D01*
X108494360Y-93705752D02*
X108589598Y-93753371D01*
X108589598Y-93753371D02*
X108637217Y-93848609D01*
X108637217Y-93848609D02*
X108637217Y-94372419D01*
X108637217Y-93848609D02*
X108684836Y-93753371D01*
X108684836Y-93753371D02*
X108780074Y-93705752D01*
X108780074Y-93705752D02*
X108922931Y-93705752D01*
X108922931Y-93705752D02*
X109018170Y-93753371D01*
X109018170Y-93753371D02*
X109065789Y-93848609D01*
X109065789Y-93848609D02*
X109065789Y-94372419D01*
X109399122Y-93372419D02*
X109732455Y-94372419D01*
X109732455Y-94372419D02*
X110065788Y-93372419D01*
X111161027Y-94372419D02*
X111161027Y-93705752D01*
X111161027Y-93372419D02*
X111113408Y-93420038D01*
X111113408Y-93420038D02*
X111161027Y-93467657D01*
X111161027Y-93467657D02*
X111208646Y-93420038D01*
X111208646Y-93420038D02*
X111161027Y-93372419D01*
X111161027Y-93372419D02*
X111161027Y-93467657D01*
X111637217Y-93705752D02*
X111637217Y-94372419D01*
X111637217Y-93800990D02*
X111684836Y-93753371D01*
X111684836Y-93753371D02*
X111780074Y-93705752D01*
X111780074Y-93705752D02*
X111922931Y-93705752D01*
X111922931Y-93705752D02*
X112018169Y-93753371D01*
X112018169Y-93753371D02*
X112065788Y-93848609D01*
X112065788Y-93848609D02*
X112065788Y-94372419D01*
X162481826Y-73652419D02*
X162481826Y-72652419D01*
X162481826Y-72652419D02*
X162719921Y-72652419D01*
X162719921Y-72652419D02*
X162862778Y-72700038D01*
X162862778Y-72700038D02*
X162958016Y-72795276D01*
X162958016Y-72795276D02*
X163005635Y-72890514D01*
X163005635Y-72890514D02*
X163053254Y-73080990D01*
X163053254Y-73080990D02*
X163053254Y-73223847D01*
X163053254Y-73223847D02*
X163005635Y-73414323D01*
X163005635Y-73414323D02*
X162958016Y-73509561D01*
X162958016Y-73509561D02*
X162862778Y-73604800D01*
X162862778Y-73604800D02*
X162719921Y-73652419D01*
X162719921Y-73652419D02*
X162481826Y-73652419D01*
X163910397Y-72985752D02*
X163910397Y-73652419D01*
X163481826Y-72985752D02*
X163481826Y-73509561D01*
X163481826Y-73509561D02*
X163529445Y-73604800D01*
X163529445Y-73604800D02*
X163624683Y-73652419D01*
X163624683Y-73652419D02*
X163767540Y-73652419D01*
X163767540Y-73652419D02*
X163862778Y-73604800D01*
X163862778Y-73604800D02*
X163910397Y-73557180D01*
X164815159Y-73652419D02*
X164815159Y-73128609D01*
X164815159Y-73128609D02*
X164767540Y-73033371D01*
X164767540Y-73033371D02*
X164672302Y-72985752D01*
X164672302Y-72985752D02*
X164481826Y-72985752D01*
X164481826Y-72985752D02*
X164386588Y-73033371D01*
X164815159Y-73604800D02*
X164719921Y-73652419D01*
X164719921Y-73652419D02*
X164481826Y-73652419D01*
X164481826Y-73652419D02*
X164386588Y-73604800D01*
X164386588Y-73604800D02*
X164338969Y-73509561D01*
X164338969Y-73509561D02*
X164338969Y-73414323D01*
X164338969Y-73414323D02*
X164386588Y-73319085D01*
X164386588Y-73319085D02*
X164481826Y-73271466D01*
X164481826Y-73271466D02*
X164719921Y-73271466D01*
X164719921Y-73271466D02*
X164815159Y-73223847D01*
X165434207Y-73652419D02*
X165338969Y-73604800D01*
X165338969Y-73604800D02*
X165291350Y-73509561D01*
X165291350Y-73509561D02*
X165291350Y-72652419D01*
X166529446Y-73604800D02*
X166672303Y-73652419D01*
X166672303Y-73652419D02*
X166910398Y-73652419D01*
X166910398Y-73652419D02*
X167005636Y-73604800D01*
X167005636Y-73604800D02*
X167053255Y-73557180D01*
X167053255Y-73557180D02*
X167100874Y-73461942D01*
X167100874Y-73461942D02*
X167100874Y-73366704D01*
X167100874Y-73366704D02*
X167053255Y-73271466D01*
X167053255Y-73271466D02*
X167005636Y-73223847D01*
X167005636Y-73223847D02*
X166910398Y-73176228D01*
X166910398Y-73176228D02*
X166719922Y-73128609D01*
X166719922Y-73128609D02*
X166624684Y-73080990D01*
X166624684Y-73080990D02*
X166577065Y-73033371D01*
X166577065Y-73033371D02*
X166529446Y-72938133D01*
X166529446Y-72938133D02*
X166529446Y-72842895D01*
X166529446Y-72842895D02*
X166577065Y-72747657D01*
X166577065Y-72747657D02*
X166624684Y-72700038D01*
X166624684Y-72700038D02*
X166719922Y-72652419D01*
X166719922Y-72652419D02*
X166958017Y-72652419D01*
X166958017Y-72652419D02*
X167100874Y-72700038D01*
X167958017Y-72985752D02*
X167958017Y-73652419D01*
X167529446Y-72985752D02*
X167529446Y-73509561D01*
X167529446Y-73509561D02*
X167577065Y-73604800D01*
X167577065Y-73604800D02*
X167672303Y-73652419D01*
X167672303Y-73652419D02*
X167815160Y-73652419D01*
X167815160Y-73652419D02*
X167910398Y-73604800D01*
X167910398Y-73604800D02*
X167958017Y-73557180D01*
X168434208Y-72985752D02*
X168434208Y-73985752D01*
X168434208Y-73033371D02*
X168529446Y-72985752D01*
X168529446Y-72985752D02*
X168719922Y-72985752D01*
X168719922Y-72985752D02*
X168815160Y-73033371D01*
X168815160Y-73033371D02*
X168862779Y-73080990D01*
X168862779Y-73080990D02*
X168910398Y-73176228D01*
X168910398Y-73176228D02*
X168910398Y-73461942D01*
X168910398Y-73461942D02*
X168862779Y-73557180D01*
X168862779Y-73557180D02*
X168815160Y-73604800D01*
X168815160Y-73604800D02*
X168719922Y-73652419D01*
X168719922Y-73652419D02*
X168529446Y-73652419D01*
X168529446Y-73652419D02*
X168434208Y-73604800D01*
X169338970Y-72985752D02*
X169338970Y-73985752D01*
X169338970Y-73033371D02*
X169434208Y-72985752D01*
X169434208Y-72985752D02*
X169624684Y-72985752D01*
X169624684Y-72985752D02*
X169719922Y-73033371D01*
X169719922Y-73033371D02*
X169767541Y-73080990D01*
X169767541Y-73080990D02*
X169815160Y-73176228D01*
X169815160Y-73176228D02*
X169815160Y-73461942D01*
X169815160Y-73461942D02*
X169767541Y-73557180D01*
X169767541Y-73557180D02*
X169719922Y-73604800D01*
X169719922Y-73604800D02*
X169624684Y-73652419D01*
X169624684Y-73652419D02*
X169434208Y-73652419D01*
X169434208Y-73652419D02*
X169338970Y-73604800D01*
X170386589Y-73652419D02*
X170291351Y-73604800D01*
X170291351Y-73604800D02*
X170243732Y-73509561D01*
X170243732Y-73509561D02*
X170243732Y-72652419D01*
X170672304Y-72985752D02*
X170910399Y-73652419D01*
X171148494Y-72985752D02*
X170910399Y-73652419D01*
X170910399Y-73652419D02*
X170815161Y-73890514D01*
X170815161Y-73890514D02*
X170767542Y-73938133D01*
X170767542Y-73938133D02*
X170672304Y-73985752D01*
X172243733Y-73604800D02*
X172386590Y-73652419D01*
X172386590Y-73652419D02*
X172624685Y-73652419D01*
X172624685Y-73652419D02*
X172719923Y-73604800D01*
X172719923Y-73604800D02*
X172767542Y-73557180D01*
X172767542Y-73557180D02*
X172815161Y-73461942D01*
X172815161Y-73461942D02*
X172815161Y-73366704D01*
X172815161Y-73366704D02*
X172767542Y-73271466D01*
X172767542Y-73271466D02*
X172719923Y-73223847D01*
X172719923Y-73223847D02*
X172624685Y-73176228D01*
X172624685Y-73176228D02*
X172434209Y-73128609D01*
X172434209Y-73128609D02*
X172338971Y-73080990D01*
X172338971Y-73080990D02*
X172291352Y-73033371D01*
X172291352Y-73033371D02*
X172243733Y-72938133D01*
X172243733Y-72938133D02*
X172243733Y-72842895D01*
X172243733Y-72842895D02*
X172291352Y-72747657D01*
X172291352Y-72747657D02*
X172338971Y-72700038D01*
X172338971Y-72700038D02*
X172434209Y-72652419D01*
X172434209Y-72652419D02*
X172672304Y-72652419D01*
X172672304Y-72652419D02*
X172815161Y-72700038D01*
X173243733Y-73652419D02*
X173243733Y-72985752D01*
X173243733Y-72652419D02*
X173196114Y-72700038D01*
X173196114Y-72700038D02*
X173243733Y-72747657D01*
X173243733Y-72747657D02*
X173291352Y-72700038D01*
X173291352Y-72700038D02*
X173243733Y-72652419D01*
X173243733Y-72652419D02*
X173243733Y-72747657D01*
X173719923Y-72985752D02*
X173719923Y-73652419D01*
X173719923Y-73080990D02*
X173767542Y-73033371D01*
X173767542Y-73033371D02*
X173862780Y-72985752D01*
X173862780Y-72985752D02*
X174005637Y-72985752D01*
X174005637Y-72985752D02*
X174100875Y-73033371D01*
X174100875Y-73033371D02*
X174148494Y-73128609D01*
X174148494Y-73128609D02*
X174148494Y-73652419D01*
X175053256Y-72985752D02*
X175053256Y-73795276D01*
X175053256Y-73795276D02*
X175005637Y-73890514D01*
X175005637Y-73890514D02*
X174958018Y-73938133D01*
X174958018Y-73938133D02*
X174862780Y-73985752D01*
X174862780Y-73985752D02*
X174719923Y-73985752D01*
X174719923Y-73985752D02*
X174624685Y-73938133D01*
X175053256Y-73604800D02*
X174958018Y-73652419D01*
X174958018Y-73652419D02*
X174767542Y-73652419D01*
X174767542Y-73652419D02*
X174672304Y-73604800D01*
X174672304Y-73604800D02*
X174624685Y-73557180D01*
X174624685Y-73557180D02*
X174577066Y-73461942D01*
X174577066Y-73461942D02*
X174577066Y-73176228D01*
X174577066Y-73176228D02*
X174624685Y-73080990D01*
X174624685Y-73080990D02*
X174672304Y-73033371D01*
X174672304Y-73033371D02*
X174767542Y-72985752D01*
X174767542Y-72985752D02*
X174958018Y-72985752D01*
X174958018Y-72985752D02*
X175053256Y-73033371D01*
X175672304Y-73652419D02*
X175577066Y-73604800D01*
X175577066Y-73604800D02*
X175529447Y-73509561D01*
X175529447Y-73509561D02*
X175529447Y-72652419D01*
X176434209Y-73604800D02*
X176338971Y-73652419D01*
X176338971Y-73652419D02*
X176148495Y-73652419D01*
X176148495Y-73652419D02*
X176053257Y-73604800D01*
X176053257Y-73604800D02*
X176005638Y-73509561D01*
X176005638Y-73509561D02*
X176005638Y-73128609D01*
X176005638Y-73128609D02*
X176053257Y-73033371D01*
X176053257Y-73033371D02*
X176148495Y-72985752D01*
X176148495Y-72985752D02*
X176338971Y-72985752D01*
X176338971Y-72985752D02*
X176434209Y-73033371D01*
X176434209Y-73033371D02*
X176481828Y-73128609D01*
X176481828Y-73128609D02*
X176481828Y-73223847D01*
X176481828Y-73223847D02*
X176005638Y-73319085D01*
X178243733Y-73557180D02*
X178196114Y-73604800D01*
X178196114Y-73604800D02*
X178053257Y-73652419D01*
X178053257Y-73652419D02*
X177958019Y-73652419D01*
X177958019Y-73652419D02*
X177815162Y-73604800D01*
X177815162Y-73604800D02*
X177719924Y-73509561D01*
X177719924Y-73509561D02*
X177672305Y-73414323D01*
X177672305Y-73414323D02*
X177624686Y-73223847D01*
X177624686Y-73223847D02*
X177624686Y-73080990D01*
X177624686Y-73080990D02*
X177672305Y-72890514D01*
X177672305Y-72890514D02*
X177719924Y-72795276D01*
X177719924Y-72795276D02*
X177815162Y-72700038D01*
X177815162Y-72700038D02*
X177958019Y-72652419D01*
X177958019Y-72652419D02*
X178053257Y-72652419D01*
X178053257Y-72652419D02*
X178196114Y-72700038D01*
X178196114Y-72700038D02*
X178243733Y-72747657D01*
X178672305Y-73652419D02*
X178672305Y-72652419D01*
X179100876Y-73652419D02*
X179100876Y-73128609D01*
X179100876Y-73128609D02*
X179053257Y-73033371D01*
X179053257Y-73033371D02*
X178958019Y-72985752D01*
X178958019Y-72985752D02*
X178815162Y-72985752D01*
X178815162Y-72985752D02*
X178719924Y-73033371D01*
X178719924Y-73033371D02*
X178672305Y-73080990D01*
X180005638Y-73652419D02*
X180005638Y-73128609D01*
X180005638Y-73128609D02*
X179958019Y-73033371D01*
X179958019Y-73033371D02*
X179862781Y-72985752D01*
X179862781Y-72985752D02*
X179672305Y-72985752D01*
X179672305Y-72985752D02*
X179577067Y-73033371D01*
X180005638Y-73604800D02*
X179910400Y-73652419D01*
X179910400Y-73652419D02*
X179672305Y-73652419D01*
X179672305Y-73652419D02*
X179577067Y-73604800D01*
X179577067Y-73604800D02*
X179529448Y-73509561D01*
X179529448Y-73509561D02*
X179529448Y-73414323D01*
X179529448Y-73414323D02*
X179577067Y-73319085D01*
X179577067Y-73319085D02*
X179672305Y-73271466D01*
X179672305Y-73271466D02*
X179910400Y-73271466D01*
X179910400Y-73271466D02*
X180005638Y-73223847D01*
X180481829Y-72985752D02*
X180481829Y-73652419D01*
X180481829Y-73080990D02*
X180529448Y-73033371D01*
X180529448Y-73033371D02*
X180624686Y-72985752D01*
X180624686Y-72985752D02*
X180767543Y-72985752D01*
X180767543Y-72985752D02*
X180862781Y-73033371D01*
X180862781Y-73033371D02*
X180910400Y-73128609D01*
X180910400Y-73128609D02*
X180910400Y-73652419D01*
X181386591Y-72985752D02*
X181386591Y-73652419D01*
X181386591Y-73080990D02*
X181434210Y-73033371D01*
X181434210Y-73033371D02*
X181529448Y-72985752D01*
X181529448Y-72985752D02*
X181672305Y-72985752D01*
X181672305Y-72985752D02*
X181767543Y-73033371D01*
X181767543Y-73033371D02*
X181815162Y-73128609D01*
X181815162Y-73128609D02*
X181815162Y-73652419D01*
X182672305Y-73604800D02*
X182577067Y-73652419D01*
X182577067Y-73652419D02*
X182386591Y-73652419D01*
X182386591Y-73652419D02*
X182291353Y-73604800D01*
X182291353Y-73604800D02*
X182243734Y-73509561D01*
X182243734Y-73509561D02*
X182243734Y-73128609D01*
X182243734Y-73128609D02*
X182291353Y-73033371D01*
X182291353Y-73033371D02*
X182386591Y-72985752D01*
X182386591Y-72985752D02*
X182577067Y-72985752D01*
X182577067Y-72985752D02*
X182672305Y-73033371D01*
X182672305Y-73033371D02*
X182719924Y-73128609D01*
X182719924Y-73128609D02*
X182719924Y-73223847D01*
X182719924Y-73223847D02*
X182243734Y-73319085D01*
X183291353Y-73652419D02*
X183196115Y-73604800D01*
X183196115Y-73604800D02*
X183148496Y-73509561D01*
X183148496Y-73509561D02*
X183148496Y-72652419D01*
X168291353Y-74976704D02*
X168767543Y-74976704D01*
X168196115Y-75262419D02*
X168529448Y-74262419D01*
X168529448Y-74262419D02*
X168862781Y-75262419D01*
X169624686Y-74595752D02*
X169624686Y-75262419D01*
X169196115Y-74595752D02*
X169196115Y-75119561D01*
X169196115Y-75119561D02*
X169243734Y-75214800D01*
X169243734Y-75214800D02*
X169338972Y-75262419D01*
X169338972Y-75262419D02*
X169481829Y-75262419D01*
X169481829Y-75262419D02*
X169577067Y-75214800D01*
X169577067Y-75214800D02*
X169624686Y-75167180D01*
X170529448Y-75262419D02*
X170529448Y-74262419D01*
X170529448Y-75214800D02*
X170434210Y-75262419D01*
X170434210Y-75262419D02*
X170243734Y-75262419D01*
X170243734Y-75262419D02*
X170148496Y-75214800D01*
X170148496Y-75214800D02*
X170100877Y-75167180D01*
X170100877Y-75167180D02*
X170053258Y-75071942D01*
X170053258Y-75071942D02*
X170053258Y-74786228D01*
X170053258Y-74786228D02*
X170100877Y-74690990D01*
X170100877Y-74690990D02*
X170148496Y-74643371D01*
X170148496Y-74643371D02*
X170243734Y-74595752D01*
X170243734Y-74595752D02*
X170434210Y-74595752D01*
X170434210Y-74595752D02*
X170529448Y-74643371D01*
X171005639Y-75262419D02*
X171005639Y-74595752D01*
X171005639Y-74262419D02*
X170958020Y-74310038D01*
X170958020Y-74310038D02*
X171005639Y-74357657D01*
X171005639Y-74357657D02*
X171053258Y-74310038D01*
X171053258Y-74310038D02*
X171005639Y-74262419D01*
X171005639Y-74262419D02*
X171005639Y-74357657D01*
X171624686Y-75262419D02*
X171529448Y-75214800D01*
X171529448Y-75214800D02*
X171481829Y-75167180D01*
X171481829Y-75167180D02*
X171434210Y-75071942D01*
X171434210Y-75071942D02*
X171434210Y-74786228D01*
X171434210Y-74786228D02*
X171481829Y-74690990D01*
X171481829Y-74690990D02*
X171529448Y-74643371D01*
X171529448Y-74643371D02*
X171624686Y-74595752D01*
X171624686Y-74595752D02*
X171767543Y-74595752D01*
X171767543Y-74595752D02*
X171862781Y-74643371D01*
X171862781Y-74643371D02*
X171910400Y-74690990D01*
X171910400Y-74690990D02*
X171958019Y-74786228D01*
X171958019Y-74786228D02*
X171958019Y-75071942D01*
X171958019Y-75071942D02*
X171910400Y-75167180D01*
X171910400Y-75167180D02*
X171862781Y-75214800D01*
X171862781Y-75214800D02*
X171767543Y-75262419D01*
X171767543Y-75262419D02*
X171624686Y-75262419D01*
X173100877Y-74976704D02*
X173577067Y-74976704D01*
X173005639Y-75262419D02*
X173338972Y-74262419D01*
X173338972Y-74262419D02*
X173672305Y-75262419D01*
X174005639Y-75262419D02*
X174005639Y-74595752D01*
X174005639Y-74690990D02*
X174053258Y-74643371D01*
X174053258Y-74643371D02*
X174148496Y-74595752D01*
X174148496Y-74595752D02*
X174291353Y-74595752D01*
X174291353Y-74595752D02*
X174386591Y-74643371D01*
X174386591Y-74643371D02*
X174434210Y-74738609D01*
X174434210Y-74738609D02*
X174434210Y-75262419D01*
X174434210Y-74738609D02*
X174481829Y-74643371D01*
X174481829Y-74643371D02*
X174577067Y-74595752D01*
X174577067Y-74595752D02*
X174719924Y-74595752D01*
X174719924Y-74595752D02*
X174815163Y-74643371D01*
X174815163Y-74643371D02*
X174862782Y-74738609D01*
X174862782Y-74738609D02*
X174862782Y-75262419D01*
X175338972Y-74595752D02*
X175338972Y-75595752D01*
X175338972Y-74643371D02*
X175434210Y-74595752D01*
X175434210Y-74595752D02*
X175624686Y-74595752D01*
X175624686Y-74595752D02*
X175719924Y-74643371D01*
X175719924Y-74643371D02*
X175767543Y-74690990D01*
X175767543Y-74690990D02*
X175815162Y-74786228D01*
X175815162Y-74786228D02*
X175815162Y-75071942D01*
X175815162Y-75071942D02*
X175767543Y-75167180D01*
X175767543Y-75167180D02*
X175719924Y-75214800D01*
X175719924Y-75214800D02*
X175624686Y-75262419D01*
X175624686Y-75262419D02*
X175434210Y-75262419D01*
X175434210Y-75262419D02*
X175338972Y-75214800D01*
X176386591Y-75262419D02*
X176291353Y-75214800D01*
X176291353Y-75214800D02*
X176243734Y-75119561D01*
X176243734Y-75119561D02*
X176243734Y-74262419D01*
X176767544Y-75262419D02*
X176767544Y-74595752D01*
X176767544Y-74262419D02*
X176719925Y-74310038D01*
X176719925Y-74310038D02*
X176767544Y-74357657D01*
X176767544Y-74357657D02*
X176815163Y-74310038D01*
X176815163Y-74310038D02*
X176767544Y-74262419D01*
X176767544Y-74262419D02*
X176767544Y-74357657D01*
X177100877Y-74595752D02*
X177481829Y-74595752D01*
X177243734Y-75262419D02*
X177243734Y-74405276D01*
X177243734Y-74405276D02*
X177291353Y-74310038D01*
X177291353Y-74310038D02*
X177386591Y-74262419D01*
X177386591Y-74262419D02*
X177481829Y-74262419D01*
X177815163Y-75262419D02*
X177815163Y-74595752D01*
X177815163Y-74262419D02*
X177767544Y-74310038D01*
X177767544Y-74310038D02*
X177815163Y-74357657D01*
X177815163Y-74357657D02*
X177862782Y-74310038D01*
X177862782Y-74310038D02*
X177815163Y-74262419D01*
X177815163Y-74262419D02*
X177815163Y-74357657D01*
X178672305Y-75214800D02*
X178577067Y-75262419D01*
X178577067Y-75262419D02*
X178386591Y-75262419D01*
X178386591Y-75262419D02*
X178291353Y-75214800D01*
X178291353Y-75214800D02*
X178243734Y-75119561D01*
X178243734Y-75119561D02*
X178243734Y-74738609D01*
X178243734Y-74738609D02*
X178291353Y-74643371D01*
X178291353Y-74643371D02*
X178386591Y-74595752D01*
X178386591Y-74595752D02*
X178577067Y-74595752D01*
X178577067Y-74595752D02*
X178672305Y-74643371D01*
X178672305Y-74643371D02*
X178719924Y-74738609D01*
X178719924Y-74738609D02*
X178719924Y-74833847D01*
X178719924Y-74833847D02*
X178243734Y-74929085D01*
X179148496Y-75262419D02*
X179148496Y-74595752D01*
X179148496Y-74786228D02*
X179196115Y-74690990D01*
X179196115Y-74690990D02*
X179243734Y-74643371D01*
X179243734Y-74643371D02*
X179338972Y-74595752D01*
X179338972Y-74595752D02*
X179434210Y-74595752D01*
X180434211Y-74595752D02*
X180672306Y-75262419D01*
X180672306Y-75262419D02*
X180910401Y-74595752D01*
X181243735Y-74357657D02*
X181291354Y-74310038D01*
X181291354Y-74310038D02*
X181386592Y-74262419D01*
X181386592Y-74262419D02*
X181624687Y-74262419D01*
X181624687Y-74262419D02*
X181719925Y-74310038D01*
X181719925Y-74310038D02*
X181767544Y-74357657D01*
X181767544Y-74357657D02*
X181815163Y-74452895D01*
X181815163Y-74452895D02*
X181815163Y-74548133D01*
X181815163Y-74548133D02*
X181767544Y-74690990D01*
X181767544Y-74690990D02*
X181196116Y-75262419D01*
X181196116Y-75262419D02*
X181815163Y-75262419D01*
X182243735Y-75167180D02*
X182291354Y-75214800D01*
X182291354Y-75214800D02*
X182243735Y-75262419D01*
X182243735Y-75262419D02*
X182196116Y-75214800D01*
X182196116Y-75214800D02*
X182243735Y-75167180D01*
X182243735Y-75167180D02*
X182243735Y-75262419D01*
X182910401Y-74262419D02*
X183005639Y-74262419D01*
X183005639Y-74262419D02*
X183100877Y-74310038D01*
X183100877Y-74310038D02*
X183148496Y-74357657D01*
X183148496Y-74357657D02*
X183196115Y-74452895D01*
X183196115Y-74452895D02*
X183243734Y-74643371D01*
X183243734Y-74643371D02*
X183243734Y-74881466D01*
X183243734Y-74881466D02*
X183196115Y-75071942D01*
X183196115Y-75071942D02*
X183148496Y-75167180D01*
X183148496Y-75167180D02*
X183100877Y-75214800D01*
X183100877Y-75214800D02*
X183005639Y-75262419D01*
X183005639Y-75262419D02*
X182910401Y-75262419D01*
X182910401Y-75262419D02*
X182815163Y-75214800D01*
X182815163Y-75214800D02*
X182767544Y-75167180D01*
X182767544Y-75167180D02*
X182719925Y-75071942D01*
X182719925Y-75071942D02*
X182672306Y-74881466D01*
X182672306Y-74881466D02*
X182672306Y-74643371D01*
X182672306Y-74643371D02*
X182719925Y-74452895D01*
X182719925Y-74452895D02*
X182767544Y-74357657D01*
X182767544Y-74357657D02*
X182815163Y-74310038D01*
X182815163Y-74310038D02*
X182910401Y-74262419D01*
X174767543Y-76205752D02*
X175148495Y-76205752D01*
X174910400Y-76872419D02*
X174910400Y-76015276D01*
X174910400Y-76015276D02*
X174958019Y-75920038D01*
X174958019Y-75920038D02*
X175053257Y-75872419D01*
X175053257Y-75872419D02*
X175148495Y-75872419D01*
X175910400Y-76824800D02*
X175815162Y-76872419D01*
X175815162Y-76872419D02*
X175624686Y-76872419D01*
X175624686Y-76872419D02*
X175529448Y-76824800D01*
X175529448Y-76824800D02*
X175481829Y-76777180D01*
X175481829Y-76777180D02*
X175434210Y-76681942D01*
X175434210Y-76681942D02*
X175434210Y-76396228D01*
X175434210Y-76396228D02*
X175481829Y-76300990D01*
X175481829Y-76300990D02*
X175529448Y-76253371D01*
X175529448Y-76253371D02*
X175624686Y-76205752D01*
X175624686Y-76205752D02*
X175815162Y-76205752D01*
X175815162Y-76205752D02*
X175910400Y-76253371D01*
X177100877Y-76348609D02*
X177862782Y-76348609D01*
X177862782Y-76634323D02*
X177100877Y-76634323D01*
X179624686Y-76872419D02*
X179053258Y-76872419D01*
X179338972Y-76872419D02*
X179338972Y-75872419D01*
X179338972Y-75872419D02*
X179243734Y-76015276D01*
X179243734Y-76015276D02*
X179148496Y-76110514D01*
X179148496Y-76110514D02*
X179053258Y-76158133D01*
X180243734Y-75872419D02*
X180338972Y-75872419D01*
X180338972Y-75872419D02*
X180434210Y-75920038D01*
X180434210Y-75920038D02*
X180481829Y-75967657D01*
X180481829Y-75967657D02*
X180529448Y-76062895D01*
X180529448Y-76062895D02*
X180577067Y-76253371D01*
X180577067Y-76253371D02*
X180577067Y-76491466D01*
X180577067Y-76491466D02*
X180529448Y-76681942D01*
X180529448Y-76681942D02*
X180481829Y-76777180D01*
X180481829Y-76777180D02*
X180434210Y-76824800D01*
X180434210Y-76824800D02*
X180338972Y-76872419D01*
X180338972Y-76872419D02*
X180243734Y-76872419D01*
X180243734Y-76872419D02*
X180148496Y-76824800D01*
X180148496Y-76824800D02*
X180100877Y-76777180D01*
X180100877Y-76777180D02*
X180053258Y-76681942D01*
X180053258Y-76681942D02*
X180005639Y-76491466D01*
X180005639Y-76491466D02*
X180005639Y-76253371D01*
X180005639Y-76253371D02*
X180053258Y-76062895D01*
X180053258Y-76062895D02*
X180100877Y-75967657D01*
X180100877Y-75967657D02*
X180148496Y-75920038D01*
X180148496Y-75920038D02*
X180243734Y-75872419D01*
X181005639Y-76872419D02*
X181005639Y-75872419D01*
X181100877Y-76491466D02*
X181386591Y-76872419D01*
X181386591Y-76205752D02*
X181005639Y-76586704D01*
X181815163Y-76872419D02*
X181815163Y-75872419D01*
X181815163Y-76348609D02*
X182386591Y-76348609D01*
X182386591Y-76872419D02*
X182386591Y-75872419D01*
X182767544Y-76205752D02*
X183291353Y-76205752D01*
X183291353Y-76205752D02*
X182767544Y-76872419D01*
X182767544Y-76872419D02*
X183291353Y-76872419D01*
D10*
X137878221Y-89609580D02*
X137830602Y-89657200D01*
X137830602Y-89657200D02*
X137687745Y-89704819D01*
X137687745Y-89704819D02*
X137592507Y-89704819D01*
X137592507Y-89704819D02*
X137449650Y-89657200D01*
X137449650Y-89657200D02*
X137354412Y-89561961D01*
X137354412Y-89561961D02*
X137306793Y-89466723D01*
X137306793Y-89466723D02*
X137259174Y-89276247D01*
X137259174Y-89276247D02*
X137259174Y-89133390D01*
X137259174Y-89133390D02*
X137306793Y-88942914D01*
X137306793Y-88942914D02*
X137354412Y-88847676D01*
X137354412Y-88847676D02*
X137449650Y-88752438D01*
X137449650Y-88752438D02*
X137592507Y-88704819D01*
X137592507Y-88704819D02*
X137687745Y-88704819D01*
X137687745Y-88704819D02*
X137830602Y-88752438D01*
X137830602Y-88752438D02*
X137878221Y-88800057D01*
X138259174Y-88800057D02*
X138306793Y-88752438D01*
X138306793Y-88752438D02*
X138402031Y-88704819D01*
X138402031Y-88704819D02*
X138640126Y-88704819D01*
X138640126Y-88704819D02*
X138735364Y-88752438D01*
X138735364Y-88752438D02*
X138782983Y-88800057D01*
X138782983Y-88800057D02*
X138830602Y-88895295D01*
X138830602Y-88895295D02*
X138830602Y-88990533D01*
X138830602Y-88990533D02*
X138782983Y-89133390D01*
X138782983Y-89133390D02*
X138211555Y-89704819D01*
X138211555Y-89704819D02*
X138830602Y-89704819D01*
X136973459Y-97204819D02*
X136402031Y-97204819D01*
X136687745Y-97204819D02*
X136687745Y-96204819D01*
X136687745Y-96204819D02*
X136592507Y-96347676D01*
X136592507Y-96347676D02*
X136497269Y-96442914D01*
X136497269Y-96442914D02*
X136402031Y-96490533D01*
X137592507Y-96204819D02*
X137687745Y-96204819D01*
X137687745Y-96204819D02*
X137782983Y-96252438D01*
X137782983Y-96252438D02*
X137830602Y-96300057D01*
X137830602Y-96300057D02*
X137878221Y-96395295D01*
X137878221Y-96395295D02*
X137925840Y-96585771D01*
X137925840Y-96585771D02*
X137925840Y-96823866D01*
X137925840Y-96823866D02*
X137878221Y-97014342D01*
X137878221Y-97014342D02*
X137830602Y-97109580D01*
X137830602Y-97109580D02*
X137782983Y-97157200D01*
X137782983Y-97157200D02*
X137687745Y-97204819D01*
X137687745Y-97204819D02*
X137592507Y-97204819D01*
X137592507Y-97204819D02*
X137497269Y-97157200D01*
X137497269Y-97157200D02*
X137449650Y-97109580D01*
X137449650Y-97109580D02*
X137402031Y-97014342D01*
X137402031Y-97014342D02*
X137354412Y-96823866D01*
X137354412Y-96823866D02*
X137354412Y-96585771D01*
X137354412Y-96585771D02*
X137402031Y-96395295D01*
X137402031Y-96395295D02*
X137449650Y-96300057D01*
X137449650Y-96300057D02*
X137497269Y-96252438D01*
X137497269Y-96252438D02*
X137592507Y-96204819D01*
X138782983Y-96538152D02*
X138782983Y-97204819D01*
X138354412Y-96538152D02*
X138354412Y-97061961D01*
X138354412Y-97061961D02*
X138402031Y-97157200D01*
X138402031Y-97157200D02*
X138497269Y-97204819D01*
X138497269Y-97204819D02*
X138640126Y-97204819D01*
X138640126Y-97204819D02*
X138735364Y-97157200D01*
X138735364Y-97157200D02*
X138782983Y-97109580D01*
X139592507Y-96681009D02*
X139259174Y-96681009D01*
X139259174Y-97204819D02*
X139259174Y-96204819D01*
X139259174Y-96204819D02*
X139735364Y-96204819D01*
X150554819Y-80125238D02*
X150078628Y-80458571D01*
X150554819Y-80696666D02*
X149554819Y-80696666D01*
X149554819Y-80696666D02*
X149554819Y-80315714D01*
X149554819Y-80315714D02*
X149602438Y-80220476D01*
X149602438Y-80220476D02*
X149650057Y-80172857D01*
X149650057Y-80172857D02*
X149745295Y-80125238D01*
X149745295Y-80125238D02*
X149888152Y-80125238D01*
X149888152Y-80125238D02*
X149983390Y-80172857D01*
X149983390Y-80172857D02*
X150031009Y-80220476D01*
X150031009Y-80220476D02*
X150078628Y-80315714D01*
X150078628Y-80315714D02*
X150078628Y-80696666D01*
X149554819Y-79791904D02*
X149554819Y-79172857D01*
X149554819Y-79172857D02*
X149935771Y-79506190D01*
X149935771Y-79506190D02*
X149935771Y-79363333D01*
X149935771Y-79363333D02*
X149983390Y-79268095D01*
X149983390Y-79268095D02*
X150031009Y-79220476D01*
X150031009Y-79220476D02*
X150126247Y-79172857D01*
X150126247Y-79172857D02*
X150364342Y-79172857D01*
X150364342Y-79172857D02*
X150459580Y-79220476D01*
X150459580Y-79220476D02*
X150507200Y-79268095D01*
X150507200Y-79268095D02*
X150554819Y-79363333D01*
X150554819Y-79363333D02*
X150554819Y-79649047D01*
X150554819Y-79649047D02*
X150507200Y-79744285D01*
X150507200Y-79744285D02*
X150459580Y-79791904D01*
X150554819Y-78315714D02*
X150031009Y-78315714D01*
X150031009Y-78315714D02*
X149935771Y-78363333D01*
X149935771Y-78363333D02*
X149888152Y-78458571D01*
X149888152Y-78458571D02*
X149888152Y-78649047D01*
X149888152Y-78649047D02*
X149935771Y-78744285D01*
X150507200Y-78315714D02*
X150554819Y-78410952D01*
X150554819Y-78410952D02*
X150554819Y-78649047D01*
X150554819Y-78649047D02*
X150507200Y-78744285D01*
X150507200Y-78744285D02*
X150411961Y-78791904D01*
X150411961Y-78791904D02*
X150316723Y-78791904D01*
X150316723Y-78791904D02*
X150221485Y-78744285D01*
X150221485Y-78744285D02*
X150173866Y-78649047D01*
X150173866Y-78649047D02*
X150173866Y-78410952D01*
X150173866Y-78410952D02*
X150126247Y-78315714D01*
X150554819Y-77315714D02*
X150554819Y-77887142D01*
X150554819Y-77601428D02*
X149554819Y-77601428D01*
X149554819Y-77601428D02*
X149697676Y-77696666D01*
X149697676Y-77696666D02*
X149792914Y-77791904D01*
X149792914Y-77791904D02*
X149840533Y-77887142D01*
X155294819Y-79625238D02*
X155294819Y-80196666D01*
X155294819Y-79910952D02*
X154294819Y-79910952D01*
X154294819Y-79910952D02*
X154437676Y-80006190D01*
X154437676Y-80006190D02*
X154532914Y-80101428D01*
X154532914Y-80101428D02*
X154580533Y-80196666D01*
X154294819Y-79006190D02*
X154294819Y-78910952D01*
X154294819Y-78910952D02*
X154342438Y-78815714D01*
X154342438Y-78815714D02*
X154390057Y-78768095D01*
X154390057Y-78768095D02*
X154485295Y-78720476D01*
X154485295Y-78720476D02*
X154675771Y-78672857D01*
X154675771Y-78672857D02*
X154913866Y-78672857D01*
X154913866Y-78672857D02*
X155104342Y-78720476D01*
X155104342Y-78720476D02*
X155199580Y-78768095D01*
X155199580Y-78768095D02*
X155247200Y-78815714D01*
X155247200Y-78815714D02*
X155294819Y-78910952D01*
X155294819Y-78910952D02*
X155294819Y-79006190D01*
X155294819Y-79006190D02*
X155247200Y-79101428D01*
X155247200Y-79101428D02*
X155199580Y-79149047D01*
X155199580Y-79149047D02*
X155104342Y-79196666D01*
X155104342Y-79196666D02*
X154913866Y-79244285D01*
X154913866Y-79244285D02*
X154675771Y-79244285D01*
X154675771Y-79244285D02*
X154485295Y-79196666D01*
X154485295Y-79196666D02*
X154390057Y-79149047D01*
X154390057Y-79149047D02*
X154342438Y-79101428D01*
X154342438Y-79101428D02*
X154294819Y-79006190D01*
X155294819Y-78244285D02*
X154294819Y-78244285D01*
X154913866Y-78149047D02*
X155294819Y-77863333D01*
X154628152Y-77863333D02*
X155009104Y-78244285D01*
X143984819Y-106238094D02*
X142984819Y-106238094D01*
X142984819Y-106238094D02*
X142984819Y-105999999D01*
X142984819Y-105999999D02*
X143032438Y-105857142D01*
X143032438Y-105857142D02*
X143127676Y-105761904D01*
X143127676Y-105761904D02*
X143222914Y-105714285D01*
X143222914Y-105714285D02*
X143413390Y-105666666D01*
X143413390Y-105666666D02*
X143556247Y-105666666D01*
X143556247Y-105666666D02*
X143746723Y-105714285D01*
X143746723Y-105714285D02*
X143841961Y-105761904D01*
X143841961Y-105761904D02*
X143937200Y-105857142D01*
X143937200Y-105857142D02*
X143984819Y-105999999D01*
X143984819Y-105999999D02*
X143984819Y-106238094D01*
X143080057Y-105285713D02*
X143032438Y-105238094D01*
X143032438Y-105238094D02*
X142984819Y-105142856D01*
X142984819Y-105142856D02*
X142984819Y-104904761D01*
X142984819Y-104904761D02*
X143032438Y-104809523D01*
X143032438Y-104809523D02*
X143080057Y-104761904D01*
X143080057Y-104761904D02*
X143175295Y-104714285D01*
X143175295Y-104714285D02*
X143270533Y-104714285D01*
X143270533Y-104714285D02*
X143413390Y-104761904D01*
X143413390Y-104761904D02*
X143984819Y-105333332D01*
X143984819Y-105333332D02*
X143984819Y-104714285D01*
X148924819Y-107642857D02*
X148924819Y-108214285D01*
X148924819Y-107928571D02*
X147924819Y-107928571D01*
X147924819Y-107928571D02*
X148067676Y-108023809D01*
X148067676Y-108023809D02*
X148162914Y-108119047D01*
X148162914Y-108119047D02*
X148210533Y-108214285D01*
X148924819Y-107214285D02*
X147924819Y-107214285D01*
X147924819Y-107214285D02*
X148924819Y-106642857D01*
X148924819Y-106642857D02*
X147924819Y-106642857D01*
X148258152Y-105738095D02*
X148924819Y-105738095D01*
X147877200Y-105976190D02*
X148591485Y-106214285D01*
X148591485Y-106214285D02*
X148591485Y-105595238D01*
X147924819Y-105023809D02*
X147924819Y-104928571D01*
X147924819Y-104928571D02*
X147972438Y-104833333D01*
X147972438Y-104833333D02*
X148020057Y-104785714D01*
X148020057Y-104785714D02*
X148115295Y-104738095D01*
X148115295Y-104738095D02*
X148305771Y-104690476D01*
X148305771Y-104690476D02*
X148543866Y-104690476D01*
X148543866Y-104690476D02*
X148734342Y-104738095D01*
X148734342Y-104738095D02*
X148829580Y-104785714D01*
X148829580Y-104785714D02*
X148877200Y-104833333D01*
X148877200Y-104833333D02*
X148924819Y-104928571D01*
X148924819Y-104928571D02*
X148924819Y-105023809D01*
X148924819Y-105023809D02*
X148877200Y-105119047D01*
X148877200Y-105119047D02*
X148829580Y-105166666D01*
X148829580Y-105166666D02*
X148734342Y-105214285D01*
X148734342Y-105214285D02*
X148543866Y-105261904D01*
X148543866Y-105261904D02*
X148305771Y-105261904D01*
X148305771Y-105261904D02*
X148115295Y-105214285D01*
X148115295Y-105214285D02*
X148020057Y-105166666D01*
X148020057Y-105166666D02*
X147972438Y-105119047D01*
X147972438Y-105119047D02*
X147924819Y-105023809D01*
X147924819Y-104071428D02*
X147924819Y-103976190D01*
X147924819Y-103976190D02*
X147972438Y-103880952D01*
X147972438Y-103880952D02*
X148020057Y-103833333D01*
X148020057Y-103833333D02*
X148115295Y-103785714D01*
X148115295Y-103785714D02*
X148305771Y-103738095D01*
X148305771Y-103738095D02*
X148543866Y-103738095D01*
X148543866Y-103738095D02*
X148734342Y-103785714D01*
X148734342Y-103785714D02*
X148829580Y-103833333D01*
X148829580Y-103833333D02*
X148877200Y-103880952D01*
X148877200Y-103880952D02*
X148924819Y-103976190D01*
X148924819Y-103976190D02*
X148924819Y-104071428D01*
X148924819Y-104071428D02*
X148877200Y-104166666D01*
X148877200Y-104166666D02*
X148829580Y-104214285D01*
X148829580Y-104214285D02*
X148734342Y-104261904D01*
X148734342Y-104261904D02*
X148543866Y-104309523D01*
X148543866Y-104309523D02*
X148305771Y-104309523D01*
X148305771Y-104309523D02*
X148115295Y-104261904D01*
X148115295Y-104261904D02*
X148020057Y-104214285D01*
X148020057Y-104214285D02*
X147972438Y-104166666D01*
X147972438Y-104166666D02*
X147924819Y-104071428D01*
X148020057Y-103357142D02*
X147972438Y-103309523D01*
X147972438Y-103309523D02*
X147924819Y-103214285D01*
X147924819Y-103214285D02*
X147924819Y-102976190D01*
X147924819Y-102976190D02*
X147972438Y-102880952D01*
X147972438Y-102880952D02*
X148020057Y-102833333D01*
X148020057Y-102833333D02*
X148115295Y-102785714D01*
X148115295Y-102785714D02*
X148210533Y-102785714D01*
X148210533Y-102785714D02*
X148353390Y-102833333D01*
X148353390Y-102833333D02*
X148924819Y-103404761D01*
X148924819Y-103404761D02*
X148924819Y-102785714D01*
X144354819Y-110841904D02*
X143354819Y-110841904D01*
X144354819Y-110270476D02*
X143783390Y-110699047D01*
X143354819Y-110270476D02*
X143926247Y-110841904D01*
X112824819Y-85523333D02*
X113539104Y-85523333D01*
X113539104Y-85523333D02*
X113681961Y-85570952D01*
X113681961Y-85570952D02*
X113777200Y-85666190D01*
X113777200Y-85666190D02*
X113824819Y-85809047D01*
X113824819Y-85809047D02*
X113824819Y-85904285D01*
X112824819Y-85142380D02*
X112824819Y-84523333D01*
X112824819Y-84523333D02*
X113205771Y-84856666D01*
X113205771Y-84856666D02*
X113205771Y-84713809D01*
X113205771Y-84713809D02*
X113253390Y-84618571D01*
X113253390Y-84618571D02*
X113301009Y-84570952D01*
X113301009Y-84570952D02*
X113396247Y-84523333D01*
X113396247Y-84523333D02*
X113634342Y-84523333D01*
X113634342Y-84523333D02*
X113729580Y-84570952D01*
X113729580Y-84570952D02*
X113777200Y-84618571D01*
X113777200Y-84618571D02*
X113824819Y-84713809D01*
X113824819Y-84713809D02*
X113824819Y-84999523D01*
X113824819Y-84999523D02*
X113777200Y-85094761D01*
X113777200Y-85094761D02*
X113729580Y-85142380D01*
X104703866Y-90285237D02*
X104703866Y-89523333D01*
X105084819Y-88999523D02*
X105084819Y-88809047D01*
X105084819Y-88809047D02*
X105037200Y-88713809D01*
X105037200Y-88713809D02*
X104989580Y-88666190D01*
X104989580Y-88666190D02*
X104846723Y-88570952D01*
X104846723Y-88570952D02*
X104656247Y-88523333D01*
X104656247Y-88523333D02*
X104275295Y-88523333D01*
X104275295Y-88523333D02*
X104180057Y-88570952D01*
X104180057Y-88570952D02*
X104132438Y-88618571D01*
X104132438Y-88618571D02*
X104084819Y-88713809D01*
X104084819Y-88713809D02*
X104084819Y-88904285D01*
X104084819Y-88904285D02*
X104132438Y-88999523D01*
X104132438Y-88999523D02*
X104180057Y-89047142D01*
X104180057Y-89047142D02*
X104275295Y-89094761D01*
X104275295Y-89094761D02*
X104513390Y-89094761D01*
X104513390Y-89094761D02*
X104608628Y-89047142D01*
X104608628Y-89047142D02*
X104656247Y-88999523D01*
X104656247Y-88999523D02*
X104703866Y-88904285D01*
X104703866Y-88904285D02*
X104703866Y-88713809D01*
X104703866Y-88713809D02*
X104656247Y-88618571D01*
X104656247Y-88618571D02*
X104608628Y-88570952D01*
X104608628Y-88570952D02*
X104513390Y-88523333D01*
X104084819Y-88237618D02*
X105084819Y-87904285D01*
X105084819Y-87904285D02*
X104084819Y-87570952D01*
X104132438Y-85951904D02*
X104084819Y-86047142D01*
X104084819Y-86047142D02*
X104084819Y-86189999D01*
X104084819Y-86189999D02*
X104132438Y-86332856D01*
X104132438Y-86332856D02*
X104227676Y-86428094D01*
X104227676Y-86428094D02*
X104322914Y-86475713D01*
X104322914Y-86475713D02*
X104513390Y-86523332D01*
X104513390Y-86523332D02*
X104656247Y-86523332D01*
X104656247Y-86523332D02*
X104846723Y-86475713D01*
X104846723Y-86475713D02*
X104941961Y-86428094D01*
X104941961Y-86428094D02*
X105037200Y-86332856D01*
X105037200Y-86332856D02*
X105084819Y-86189999D01*
X105084819Y-86189999D02*
X105084819Y-86094761D01*
X105084819Y-86094761D02*
X105037200Y-85951904D01*
X105037200Y-85951904D02*
X104989580Y-85904285D01*
X104989580Y-85904285D02*
X104656247Y-85904285D01*
X104656247Y-85904285D02*
X104656247Y-86094761D01*
X105084819Y-85475713D02*
X104084819Y-85475713D01*
X104084819Y-85475713D02*
X105084819Y-84904285D01*
X105084819Y-84904285D02*
X104084819Y-84904285D01*
X105084819Y-84428094D02*
X104084819Y-84428094D01*
X104084819Y-84428094D02*
X104084819Y-84189999D01*
X104084819Y-84189999D02*
X104132438Y-84047142D01*
X104132438Y-84047142D02*
X104227676Y-83951904D01*
X104227676Y-83951904D02*
X104322914Y-83904285D01*
X104322914Y-83904285D02*
X104513390Y-83856666D01*
X104513390Y-83856666D02*
X104656247Y-83856666D01*
X104656247Y-83856666D02*
X104846723Y-83904285D01*
X104846723Y-83904285D02*
X104941961Y-83951904D01*
X104941961Y-83951904D02*
X105037200Y-84047142D01*
X105037200Y-84047142D02*
X105084819Y-84189999D01*
X105084819Y-84189999D02*
X105084819Y-84428094D01*
X104703866Y-82666189D02*
X104703866Y-81904285D01*
X105084819Y-82285237D02*
X104322914Y-82285237D01*
X105084819Y-81380475D02*
X105084819Y-81189999D01*
X105084819Y-81189999D02*
X105037200Y-81094761D01*
X105037200Y-81094761D02*
X104989580Y-81047142D01*
X104989580Y-81047142D02*
X104846723Y-80951904D01*
X104846723Y-80951904D02*
X104656247Y-80904285D01*
X104656247Y-80904285D02*
X104275295Y-80904285D01*
X104275295Y-80904285D02*
X104180057Y-80951904D01*
X104180057Y-80951904D02*
X104132438Y-80999523D01*
X104132438Y-80999523D02*
X104084819Y-81094761D01*
X104084819Y-81094761D02*
X104084819Y-81285237D01*
X104084819Y-81285237D02*
X104132438Y-81380475D01*
X104132438Y-81380475D02*
X104180057Y-81428094D01*
X104180057Y-81428094D02*
X104275295Y-81475713D01*
X104275295Y-81475713D02*
X104513390Y-81475713D01*
X104513390Y-81475713D02*
X104608628Y-81428094D01*
X104608628Y-81428094D02*
X104656247Y-81380475D01*
X104656247Y-81380475D02*
X104703866Y-81285237D01*
X104703866Y-81285237D02*
X104703866Y-81094761D01*
X104703866Y-81094761D02*
X104656247Y-80999523D01*
X104656247Y-80999523D02*
X104608628Y-80951904D01*
X104608628Y-80951904D02*
X104513390Y-80904285D01*
X104084819Y-80618570D02*
X105084819Y-80285237D01*
X105084819Y-80285237D02*
X104084819Y-79951904D01*
X177084819Y-98008571D02*
X176608628Y-98341904D01*
X177084819Y-98579999D02*
X176084819Y-98579999D01*
X176084819Y-98579999D02*
X176084819Y-98199047D01*
X176084819Y-98199047D02*
X176132438Y-98103809D01*
X176132438Y-98103809D02*
X176180057Y-98056190D01*
X176180057Y-98056190D02*
X176275295Y-98008571D01*
X176275295Y-98008571D02*
X176418152Y-98008571D01*
X176418152Y-98008571D02*
X176513390Y-98056190D01*
X176513390Y-98056190D02*
X176561009Y-98103809D01*
X176561009Y-98103809D02*
X176608628Y-98199047D01*
X176608628Y-98199047D02*
X176608628Y-98579999D01*
X177084819Y-97103809D02*
X177084819Y-97579999D01*
X177084819Y-97579999D02*
X176084819Y-97579999D01*
X177084819Y-96627618D02*
X177037200Y-96722856D01*
X177037200Y-96722856D02*
X176989580Y-96770475D01*
X176989580Y-96770475D02*
X176894342Y-96818094D01*
X176894342Y-96818094D02*
X176608628Y-96818094D01*
X176608628Y-96818094D02*
X176513390Y-96770475D01*
X176513390Y-96770475D02*
X176465771Y-96722856D01*
X176465771Y-96722856D02*
X176418152Y-96627618D01*
X176418152Y-96627618D02*
X176418152Y-96484761D01*
X176418152Y-96484761D02*
X176465771Y-96389523D01*
X176465771Y-96389523D02*
X176513390Y-96341904D01*
X176513390Y-96341904D02*
X176608628Y-96294285D01*
X176608628Y-96294285D02*
X176894342Y-96294285D01*
X176894342Y-96294285D02*
X176989580Y-96341904D01*
X176989580Y-96341904D02*
X177037200Y-96389523D01*
X177037200Y-96389523D02*
X177084819Y-96484761D01*
X177084819Y-96484761D02*
X177084819Y-96627618D01*
X177084819Y-95437142D02*
X176561009Y-95437142D01*
X176561009Y-95437142D02*
X176465771Y-95484761D01*
X176465771Y-95484761D02*
X176418152Y-95579999D01*
X176418152Y-95579999D02*
X176418152Y-95770475D01*
X176418152Y-95770475D02*
X176465771Y-95865713D01*
X177037200Y-95437142D02*
X177084819Y-95532380D01*
X177084819Y-95532380D02*
X177084819Y-95770475D01*
X177084819Y-95770475D02*
X177037200Y-95865713D01*
X177037200Y-95865713D02*
X176941961Y-95913332D01*
X176941961Y-95913332D02*
X176846723Y-95913332D01*
X176846723Y-95913332D02*
X176751485Y-95865713D01*
X176751485Y-95865713D02*
X176703866Y-95770475D01*
X176703866Y-95770475D02*
X176703866Y-95532380D01*
X176703866Y-95532380D02*
X176656247Y-95437142D01*
X177084819Y-94532380D02*
X176084819Y-94532380D01*
X177037200Y-94532380D02*
X177084819Y-94627618D01*
X177084819Y-94627618D02*
X177084819Y-94818094D01*
X177084819Y-94818094D02*
X177037200Y-94913332D01*
X177037200Y-94913332D02*
X176989580Y-94960951D01*
X176989580Y-94960951D02*
X176894342Y-95008570D01*
X176894342Y-95008570D02*
X176608628Y-95008570D01*
X176608628Y-95008570D02*
X176513390Y-94960951D01*
X176513390Y-94960951D02*
X176465771Y-94913332D01*
X176465771Y-94913332D02*
X176418152Y-94818094D01*
X176418152Y-94818094D02*
X176418152Y-94627618D01*
X176418152Y-94627618D02*
X176465771Y-94532380D01*
X177084819Y-93532380D02*
X177084819Y-94103808D01*
X177084819Y-93818094D02*
X176084819Y-93818094D01*
X176084819Y-93818094D02*
X176227676Y-93913332D01*
X176227676Y-93913332D02*
X176322914Y-94008570D01*
X176322914Y-94008570D02*
X176370533Y-94103808D01*
X181824819Y-97151428D02*
X181824819Y-97722856D01*
X181824819Y-97437142D02*
X180824819Y-97437142D01*
X180824819Y-97437142D02*
X180967676Y-97532380D01*
X180967676Y-97532380D02*
X181062914Y-97627618D01*
X181062914Y-97627618D02*
X181110533Y-97722856D01*
X180824819Y-96532380D02*
X180824819Y-96437142D01*
X180824819Y-96437142D02*
X180872438Y-96341904D01*
X180872438Y-96341904D02*
X180920057Y-96294285D01*
X180920057Y-96294285D02*
X181015295Y-96246666D01*
X181015295Y-96246666D02*
X181205771Y-96199047D01*
X181205771Y-96199047D02*
X181443866Y-96199047D01*
X181443866Y-96199047D02*
X181634342Y-96246666D01*
X181634342Y-96246666D02*
X181729580Y-96294285D01*
X181729580Y-96294285D02*
X181777200Y-96341904D01*
X181777200Y-96341904D02*
X181824819Y-96437142D01*
X181824819Y-96437142D02*
X181824819Y-96532380D01*
X181824819Y-96532380D02*
X181777200Y-96627618D01*
X181777200Y-96627618D02*
X181729580Y-96675237D01*
X181729580Y-96675237D02*
X181634342Y-96722856D01*
X181634342Y-96722856D02*
X181443866Y-96770475D01*
X181443866Y-96770475D02*
X181205771Y-96770475D01*
X181205771Y-96770475D02*
X181015295Y-96722856D01*
X181015295Y-96722856D02*
X180920057Y-96675237D01*
X180920057Y-96675237D02*
X180872438Y-96627618D01*
X180872438Y-96627618D02*
X180824819Y-96532380D01*
X180824819Y-95579999D02*
X180824819Y-95484761D01*
X180824819Y-95484761D02*
X180872438Y-95389523D01*
X180872438Y-95389523D02*
X180920057Y-95341904D01*
X180920057Y-95341904D02*
X181015295Y-95294285D01*
X181015295Y-95294285D02*
X181205771Y-95246666D01*
X181205771Y-95246666D02*
X181443866Y-95246666D01*
X181443866Y-95246666D02*
X181634342Y-95294285D01*
X181634342Y-95294285D02*
X181729580Y-95341904D01*
X181729580Y-95341904D02*
X181777200Y-95389523D01*
X181777200Y-95389523D02*
X181824819Y-95484761D01*
X181824819Y-95484761D02*
X181824819Y-95579999D01*
X181824819Y-95579999D02*
X181777200Y-95675237D01*
X181777200Y-95675237D02*
X181729580Y-95722856D01*
X181729580Y-95722856D02*
X181634342Y-95770475D01*
X181634342Y-95770475D02*
X181443866Y-95818094D01*
X181443866Y-95818094D02*
X181205771Y-95818094D01*
X181205771Y-95818094D02*
X181015295Y-95770475D01*
X181015295Y-95770475D02*
X180920057Y-95722856D01*
X180920057Y-95722856D02*
X180872438Y-95675237D01*
X180872438Y-95675237D02*
X180824819Y-95579999D01*
X181824819Y-94818094D02*
X180824819Y-94818094D01*
X181443866Y-94722856D02*
X181824819Y-94437142D01*
X181158152Y-94437142D02*
X181539104Y-94818094D01*
X150454819Y-106675238D02*
X149978628Y-107008571D01*
X150454819Y-107246666D02*
X149454819Y-107246666D01*
X149454819Y-107246666D02*
X149454819Y-106865714D01*
X149454819Y-106865714D02*
X149502438Y-106770476D01*
X149502438Y-106770476D02*
X149550057Y-106722857D01*
X149550057Y-106722857D02*
X149645295Y-106675238D01*
X149645295Y-106675238D02*
X149788152Y-106675238D01*
X149788152Y-106675238D02*
X149883390Y-106722857D01*
X149883390Y-106722857D02*
X149931009Y-106770476D01*
X149931009Y-106770476D02*
X149978628Y-106865714D01*
X149978628Y-106865714D02*
X149978628Y-107246666D01*
X149788152Y-105818095D02*
X150454819Y-105818095D01*
X149407200Y-106056190D02*
X150121485Y-106294285D01*
X150121485Y-106294285D02*
X150121485Y-105675238D01*
X150454819Y-104865714D02*
X149931009Y-104865714D01*
X149931009Y-104865714D02*
X149835771Y-104913333D01*
X149835771Y-104913333D02*
X149788152Y-105008571D01*
X149788152Y-105008571D02*
X149788152Y-105199047D01*
X149788152Y-105199047D02*
X149835771Y-105294285D01*
X150407200Y-104865714D02*
X150454819Y-104960952D01*
X150454819Y-104960952D02*
X150454819Y-105199047D01*
X150454819Y-105199047D02*
X150407200Y-105294285D01*
X150407200Y-105294285D02*
X150311961Y-105341904D01*
X150311961Y-105341904D02*
X150216723Y-105341904D01*
X150216723Y-105341904D02*
X150121485Y-105294285D01*
X150121485Y-105294285D02*
X150073866Y-105199047D01*
X150073866Y-105199047D02*
X150073866Y-104960952D01*
X150073866Y-104960952D02*
X150026247Y-104865714D01*
X150454819Y-103865714D02*
X150454819Y-104437142D01*
X150454819Y-104151428D02*
X149454819Y-104151428D01*
X149454819Y-104151428D02*
X149597676Y-104246666D01*
X149597676Y-104246666D02*
X149692914Y-104341904D01*
X149692914Y-104341904D02*
X149740533Y-104437142D01*
X155454819Y-105675238D02*
X155454819Y-106246666D01*
X155454819Y-105960952D02*
X154454819Y-105960952D01*
X154454819Y-105960952D02*
X154597676Y-106056190D01*
X154597676Y-106056190D02*
X154692914Y-106151428D01*
X154692914Y-106151428D02*
X154740533Y-106246666D01*
X154454819Y-105056190D02*
X154454819Y-104960952D01*
X154454819Y-104960952D02*
X154502438Y-104865714D01*
X154502438Y-104865714D02*
X154550057Y-104818095D01*
X154550057Y-104818095D02*
X154645295Y-104770476D01*
X154645295Y-104770476D02*
X154835771Y-104722857D01*
X154835771Y-104722857D02*
X155073866Y-104722857D01*
X155073866Y-104722857D02*
X155264342Y-104770476D01*
X155264342Y-104770476D02*
X155359580Y-104818095D01*
X155359580Y-104818095D02*
X155407200Y-104865714D01*
X155407200Y-104865714D02*
X155454819Y-104960952D01*
X155454819Y-104960952D02*
X155454819Y-105056190D01*
X155454819Y-105056190D02*
X155407200Y-105151428D01*
X155407200Y-105151428D02*
X155359580Y-105199047D01*
X155359580Y-105199047D02*
X155264342Y-105246666D01*
X155264342Y-105246666D02*
X155073866Y-105294285D01*
X155073866Y-105294285D02*
X154835771Y-105294285D01*
X154835771Y-105294285D02*
X154645295Y-105246666D01*
X154645295Y-105246666D02*
X154550057Y-105199047D01*
X154550057Y-105199047D02*
X154502438Y-105151428D01*
X154502438Y-105151428D02*
X154454819Y-105056190D01*
X155454819Y-104294285D02*
X154454819Y-104294285D01*
X155073866Y-104199047D02*
X155454819Y-103913333D01*
X154788152Y-103913333D02*
X155169104Y-104294285D01*
X106859580Y-108666666D02*
X106907200Y-108714285D01*
X106907200Y-108714285D02*
X106954819Y-108857142D01*
X106954819Y-108857142D02*
X106954819Y-108952380D01*
X106954819Y-108952380D02*
X106907200Y-109095237D01*
X106907200Y-109095237D02*
X106811961Y-109190475D01*
X106811961Y-109190475D02*
X106716723Y-109238094D01*
X106716723Y-109238094D02*
X106526247Y-109285713D01*
X106526247Y-109285713D02*
X106383390Y-109285713D01*
X106383390Y-109285713D02*
X106192914Y-109238094D01*
X106192914Y-109238094D02*
X106097676Y-109190475D01*
X106097676Y-109190475D02*
X106002438Y-109095237D01*
X106002438Y-109095237D02*
X105954819Y-108952380D01*
X105954819Y-108952380D02*
X105954819Y-108857142D01*
X105954819Y-108857142D02*
X106002438Y-108714285D01*
X106002438Y-108714285D02*
X106050057Y-108666666D01*
X105954819Y-107809523D02*
X105954819Y-107999999D01*
X105954819Y-107999999D02*
X106002438Y-108095237D01*
X106002438Y-108095237D02*
X106050057Y-108142856D01*
X106050057Y-108142856D02*
X106192914Y-108238094D01*
X106192914Y-108238094D02*
X106383390Y-108285713D01*
X106383390Y-108285713D02*
X106764342Y-108285713D01*
X106764342Y-108285713D02*
X106859580Y-108238094D01*
X106859580Y-108238094D02*
X106907200Y-108190475D01*
X106907200Y-108190475D02*
X106954819Y-108095237D01*
X106954819Y-108095237D02*
X106954819Y-107904761D01*
X106954819Y-107904761D02*
X106907200Y-107809523D01*
X106907200Y-107809523D02*
X106859580Y-107761904D01*
X106859580Y-107761904D02*
X106764342Y-107714285D01*
X106764342Y-107714285D02*
X106526247Y-107714285D01*
X106526247Y-107714285D02*
X106431009Y-107761904D01*
X106431009Y-107761904D02*
X106383390Y-107809523D01*
X106383390Y-107809523D02*
X106335771Y-107904761D01*
X106335771Y-107904761D02*
X106335771Y-108095237D01*
X106335771Y-108095237D02*
X106383390Y-108190475D01*
X106383390Y-108190475D02*
X106431009Y-108238094D01*
X106431009Y-108238094D02*
X106526247Y-108285713D01*
X110954819Y-110142856D02*
X110954819Y-110047618D01*
X110954819Y-110047618D02*
X111002438Y-109952380D01*
X111002438Y-109952380D02*
X111050057Y-109904761D01*
X111050057Y-109904761D02*
X111145295Y-109857142D01*
X111145295Y-109857142D02*
X111335771Y-109809523D01*
X111335771Y-109809523D02*
X111573866Y-109809523D01*
X111573866Y-109809523D02*
X111764342Y-109857142D01*
X111764342Y-109857142D02*
X111859580Y-109904761D01*
X111859580Y-109904761D02*
X111907200Y-109952380D01*
X111907200Y-109952380D02*
X111954819Y-110047618D01*
X111954819Y-110047618D02*
X111954819Y-110142856D01*
X111954819Y-110142856D02*
X111907200Y-110238094D01*
X111907200Y-110238094D02*
X111859580Y-110285713D01*
X111859580Y-110285713D02*
X111764342Y-110333332D01*
X111764342Y-110333332D02*
X111573866Y-110380951D01*
X111573866Y-110380951D02*
X111335771Y-110380951D01*
X111335771Y-110380951D02*
X111145295Y-110333332D01*
X111145295Y-110333332D02*
X111050057Y-110285713D01*
X111050057Y-110285713D02*
X111002438Y-110238094D01*
X111002438Y-110238094D02*
X110954819Y-110142856D01*
X111859580Y-109380951D02*
X111907200Y-109333332D01*
X111907200Y-109333332D02*
X111954819Y-109380951D01*
X111954819Y-109380951D02*
X111907200Y-109428570D01*
X111907200Y-109428570D02*
X111859580Y-109380951D01*
X111859580Y-109380951D02*
X111954819Y-109380951D01*
X111954819Y-108380952D02*
X111954819Y-108952380D01*
X111954819Y-108666666D02*
X110954819Y-108666666D01*
X110954819Y-108666666D02*
X111097676Y-108761904D01*
X111097676Y-108761904D02*
X111192914Y-108857142D01*
X111192914Y-108857142D02*
X111240533Y-108952380D01*
X111288152Y-107523809D02*
X111954819Y-107523809D01*
X111288152Y-107952380D02*
X111811961Y-107952380D01*
X111811961Y-107952380D02*
X111907200Y-107904761D01*
X111907200Y-107904761D02*
X111954819Y-107809523D01*
X111954819Y-107809523D02*
X111954819Y-107666666D01*
X111954819Y-107666666D02*
X111907200Y-107571428D01*
X111907200Y-107571428D02*
X111859580Y-107523809D01*
X111431009Y-106714285D02*
X111431009Y-107047618D01*
X111954819Y-107047618D02*
X110954819Y-107047618D01*
X110954819Y-107047618D02*
X110954819Y-106571428D01*
X112824819Y-98563333D02*
X113539104Y-98563333D01*
X113539104Y-98563333D02*
X113681961Y-98610952D01*
X113681961Y-98610952D02*
X113777200Y-98706190D01*
X113777200Y-98706190D02*
X113824819Y-98849047D01*
X113824819Y-98849047D02*
X113824819Y-98944285D01*
X113824819Y-97563333D02*
X113824819Y-98134761D01*
X113824819Y-97849047D02*
X112824819Y-97849047D01*
X112824819Y-97849047D02*
X112967676Y-97944285D01*
X112967676Y-97944285D02*
X113062914Y-98039523D01*
X113062914Y-98039523D02*
X113110533Y-98134761D01*
X104907200Y-104309523D02*
X104954819Y-104166666D01*
X104954819Y-104166666D02*
X104954819Y-103928571D01*
X104954819Y-103928571D02*
X104907200Y-103833333D01*
X104907200Y-103833333D02*
X104859580Y-103785714D01*
X104859580Y-103785714D02*
X104764342Y-103738095D01*
X104764342Y-103738095D02*
X104669104Y-103738095D01*
X104669104Y-103738095D02*
X104573866Y-103785714D01*
X104573866Y-103785714D02*
X104526247Y-103833333D01*
X104526247Y-103833333D02*
X104478628Y-103928571D01*
X104478628Y-103928571D02*
X104431009Y-104119047D01*
X104431009Y-104119047D02*
X104383390Y-104214285D01*
X104383390Y-104214285D02*
X104335771Y-104261904D01*
X104335771Y-104261904D02*
X104240533Y-104309523D01*
X104240533Y-104309523D02*
X104145295Y-104309523D01*
X104145295Y-104309523D02*
X104050057Y-104261904D01*
X104050057Y-104261904D02*
X104002438Y-104214285D01*
X104002438Y-104214285D02*
X103954819Y-104119047D01*
X103954819Y-104119047D02*
X103954819Y-103880952D01*
X103954819Y-103880952D02*
X104002438Y-103738095D01*
X104954819Y-103309523D02*
X104288152Y-103309523D01*
X103954819Y-103309523D02*
X104002438Y-103357142D01*
X104002438Y-103357142D02*
X104050057Y-103309523D01*
X104050057Y-103309523D02*
X104002438Y-103261904D01*
X104002438Y-103261904D02*
X103954819Y-103309523D01*
X103954819Y-103309523D02*
X104050057Y-103309523D01*
X104288152Y-102404762D02*
X105097676Y-102404762D01*
X105097676Y-102404762D02*
X105192914Y-102452381D01*
X105192914Y-102452381D02*
X105240533Y-102500000D01*
X105240533Y-102500000D02*
X105288152Y-102595238D01*
X105288152Y-102595238D02*
X105288152Y-102738095D01*
X105288152Y-102738095D02*
X105240533Y-102833333D01*
X104907200Y-102404762D02*
X104954819Y-102500000D01*
X104954819Y-102500000D02*
X104954819Y-102690476D01*
X104954819Y-102690476D02*
X104907200Y-102785714D01*
X104907200Y-102785714D02*
X104859580Y-102833333D01*
X104859580Y-102833333D02*
X104764342Y-102880952D01*
X104764342Y-102880952D02*
X104478628Y-102880952D01*
X104478628Y-102880952D02*
X104383390Y-102833333D01*
X104383390Y-102833333D02*
X104335771Y-102785714D01*
X104335771Y-102785714D02*
X104288152Y-102690476D01*
X104288152Y-102690476D02*
X104288152Y-102500000D01*
X104288152Y-102500000D02*
X104335771Y-102404762D01*
X104288152Y-101928571D02*
X104954819Y-101928571D01*
X104383390Y-101928571D02*
X104335771Y-101880952D01*
X104335771Y-101880952D02*
X104288152Y-101785714D01*
X104288152Y-101785714D02*
X104288152Y-101642857D01*
X104288152Y-101642857D02*
X104335771Y-101547619D01*
X104335771Y-101547619D02*
X104431009Y-101500000D01*
X104431009Y-101500000D02*
X104954819Y-101500000D01*
X104954819Y-100595238D02*
X104431009Y-100595238D01*
X104431009Y-100595238D02*
X104335771Y-100642857D01*
X104335771Y-100642857D02*
X104288152Y-100738095D01*
X104288152Y-100738095D02*
X104288152Y-100928571D01*
X104288152Y-100928571D02*
X104335771Y-101023809D01*
X104907200Y-100595238D02*
X104954819Y-100690476D01*
X104954819Y-100690476D02*
X104954819Y-100928571D01*
X104954819Y-100928571D02*
X104907200Y-101023809D01*
X104907200Y-101023809D02*
X104811961Y-101071428D01*
X104811961Y-101071428D02*
X104716723Y-101071428D01*
X104716723Y-101071428D02*
X104621485Y-101023809D01*
X104621485Y-101023809D02*
X104573866Y-100928571D01*
X104573866Y-100928571D02*
X104573866Y-100690476D01*
X104573866Y-100690476D02*
X104526247Y-100595238D01*
X104954819Y-99976190D02*
X104907200Y-100071428D01*
X104907200Y-100071428D02*
X104811961Y-100119047D01*
X104811961Y-100119047D02*
X103954819Y-100119047D01*
X104954819Y-98833332D02*
X103954819Y-98833332D01*
X104288152Y-98357142D02*
X104954819Y-98357142D01*
X104383390Y-98357142D02*
X104335771Y-98309523D01*
X104335771Y-98309523D02*
X104288152Y-98214285D01*
X104288152Y-98214285D02*
X104288152Y-98071428D01*
X104288152Y-98071428D02*
X104335771Y-97976190D01*
X104335771Y-97976190D02*
X104431009Y-97928571D01*
X104431009Y-97928571D02*
X104954819Y-97928571D01*
X105335771Y-96404761D02*
X105288152Y-96452380D01*
X105288152Y-96452380D02*
X105145295Y-96547618D01*
X105145295Y-96547618D02*
X105050057Y-96595237D01*
X105050057Y-96595237D02*
X104907200Y-96642856D01*
X104907200Y-96642856D02*
X104669104Y-96690475D01*
X104669104Y-96690475D02*
X104478628Y-96690475D01*
X104478628Y-96690475D02*
X104240533Y-96642856D01*
X104240533Y-96642856D02*
X104097676Y-96595237D01*
X104097676Y-96595237D02*
X104002438Y-96547618D01*
X104002438Y-96547618D02*
X103859580Y-96452380D01*
X103859580Y-96452380D02*
X103811961Y-96404761D01*
X104954819Y-95499999D02*
X104954819Y-96071427D01*
X104954819Y-95785713D02*
X103954819Y-95785713D01*
X103954819Y-95785713D02*
X104097676Y-95880951D01*
X104097676Y-95880951D02*
X104192914Y-95976189D01*
X104192914Y-95976189D02*
X104240533Y-96071427D01*
X103954819Y-94880951D02*
X103954819Y-94785713D01*
X103954819Y-94785713D02*
X104002438Y-94690475D01*
X104002438Y-94690475D02*
X104050057Y-94642856D01*
X104050057Y-94642856D02*
X104145295Y-94595237D01*
X104145295Y-94595237D02*
X104335771Y-94547618D01*
X104335771Y-94547618D02*
X104573866Y-94547618D01*
X104573866Y-94547618D02*
X104764342Y-94595237D01*
X104764342Y-94595237D02*
X104859580Y-94642856D01*
X104859580Y-94642856D02*
X104907200Y-94690475D01*
X104907200Y-94690475D02*
X104954819Y-94785713D01*
X104954819Y-94785713D02*
X104954819Y-94880951D01*
X104954819Y-94880951D02*
X104907200Y-94976189D01*
X104907200Y-94976189D02*
X104859580Y-95023808D01*
X104859580Y-95023808D02*
X104764342Y-95071427D01*
X104764342Y-95071427D02*
X104573866Y-95119046D01*
X104573866Y-95119046D02*
X104335771Y-95119046D01*
X104335771Y-95119046D02*
X104145295Y-95071427D01*
X104145295Y-95071427D02*
X104050057Y-95023808D01*
X104050057Y-95023808D02*
X104002438Y-94976189D01*
X104002438Y-94976189D02*
X103954819Y-94880951D01*
X104954819Y-94119046D02*
X104288152Y-94119046D01*
X104383390Y-94119046D02*
X104335771Y-94071427D01*
X104335771Y-94071427D02*
X104288152Y-93976189D01*
X104288152Y-93976189D02*
X104288152Y-93833332D01*
X104288152Y-93833332D02*
X104335771Y-93738094D01*
X104335771Y-93738094D02*
X104431009Y-93690475D01*
X104431009Y-93690475D02*
X104954819Y-93690475D01*
X104431009Y-93690475D02*
X104335771Y-93642856D01*
X104335771Y-93642856D02*
X104288152Y-93547618D01*
X104288152Y-93547618D02*
X104288152Y-93404761D01*
X104288152Y-93404761D02*
X104335771Y-93309522D01*
X104335771Y-93309522D02*
X104431009Y-93261903D01*
X104431009Y-93261903D02*
X104954819Y-93261903D01*
X103954819Y-92928570D02*
X104954819Y-92595237D01*
X104954819Y-92595237D02*
X103954819Y-92261904D01*
X105335771Y-92023808D02*
X105288152Y-91976189D01*
X105288152Y-91976189D02*
X105145295Y-91880951D01*
X105145295Y-91880951D02*
X105050057Y-91833332D01*
X105050057Y-91833332D02*
X104907200Y-91785713D01*
X104907200Y-91785713D02*
X104669104Y-91738094D01*
X104669104Y-91738094D02*
X104478628Y-91738094D01*
X104478628Y-91738094D02*
X104240533Y-91785713D01*
X104240533Y-91785713D02*
X104097676Y-91833332D01*
X104097676Y-91833332D02*
X104002438Y-91880951D01*
X104002438Y-91880951D02*
X103859580Y-91976189D01*
X103859580Y-91976189D02*
X103811961Y-92023808D01*
X157584819Y-106675238D02*
X157108628Y-107008571D01*
X157584819Y-107246666D02*
X156584819Y-107246666D01*
X156584819Y-107246666D02*
X156584819Y-106865714D01*
X156584819Y-106865714D02*
X156632438Y-106770476D01*
X156632438Y-106770476D02*
X156680057Y-106722857D01*
X156680057Y-106722857D02*
X156775295Y-106675238D01*
X156775295Y-106675238D02*
X156918152Y-106675238D01*
X156918152Y-106675238D02*
X157013390Y-106722857D01*
X157013390Y-106722857D02*
X157061009Y-106770476D01*
X157061009Y-106770476D02*
X157108628Y-106865714D01*
X157108628Y-106865714D02*
X157108628Y-107246666D01*
X156918152Y-105818095D02*
X157584819Y-105818095D01*
X156537200Y-106056190D02*
X157251485Y-106294285D01*
X157251485Y-106294285D02*
X157251485Y-105675238D01*
X157584819Y-105294285D02*
X156584819Y-105294285D01*
X156965771Y-105294285D02*
X156918152Y-105199047D01*
X156918152Y-105199047D02*
X156918152Y-105008571D01*
X156918152Y-105008571D02*
X156965771Y-104913333D01*
X156965771Y-104913333D02*
X157013390Y-104865714D01*
X157013390Y-104865714D02*
X157108628Y-104818095D01*
X157108628Y-104818095D02*
X157394342Y-104818095D01*
X157394342Y-104818095D02*
X157489580Y-104865714D01*
X157489580Y-104865714D02*
X157537200Y-104913333D01*
X157537200Y-104913333D02*
X157584819Y-105008571D01*
X157584819Y-105008571D02*
X157584819Y-105199047D01*
X157584819Y-105199047D02*
X157537200Y-105294285D01*
X157584819Y-103865714D02*
X157584819Y-104437142D01*
X157584819Y-104151428D02*
X156584819Y-104151428D01*
X156584819Y-104151428D02*
X156727676Y-104246666D01*
X156727676Y-104246666D02*
X156822914Y-104341904D01*
X156822914Y-104341904D02*
X156870533Y-104437142D01*
X162324819Y-106175238D02*
X162324819Y-106746666D01*
X162324819Y-106460952D02*
X161324819Y-106460952D01*
X161324819Y-106460952D02*
X161467676Y-106556190D01*
X161467676Y-106556190D02*
X161562914Y-106651428D01*
X161562914Y-106651428D02*
X161610533Y-106746666D01*
X161324819Y-105556190D02*
X161324819Y-105460952D01*
X161324819Y-105460952D02*
X161372438Y-105365714D01*
X161372438Y-105365714D02*
X161420057Y-105318095D01*
X161420057Y-105318095D02*
X161515295Y-105270476D01*
X161515295Y-105270476D02*
X161705771Y-105222857D01*
X161705771Y-105222857D02*
X161943866Y-105222857D01*
X161943866Y-105222857D02*
X162134342Y-105270476D01*
X162134342Y-105270476D02*
X162229580Y-105318095D01*
X162229580Y-105318095D02*
X162277200Y-105365714D01*
X162277200Y-105365714D02*
X162324819Y-105460952D01*
X162324819Y-105460952D02*
X162324819Y-105556190D01*
X162324819Y-105556190D02*
X162277200Y-105651428D01*
X162277200Y-105651428D02*
X162229580Y-105699047D01*
X162229580Y-105699047D02*
X162134342Y-105746666D01*
X162134342Y-105746666D02*
X161943866Y-105794285D01*
X161943866Y-105794285D02*
X161705771Y-105794285D01*
X161705771Y-105794285D02*
X161515295Y-105746666D01*
X161515295Y-105746666D02*
X161420057Y-105699047D01*
X161420057Y-105699047D02*
X161372438Y-105651428D01*
X161372438Y-105651428D02*
X161324819Y-105556190D01*
X162324819Y-104794285D02*
X161324819Y-104794285D01*
X161943866Y-104699047D02*
X162324819Y-104413333D01*
X161658152Y-104413333D02*
X162039104Y-104794285D01*
X165404761Y-104320057D02*
X165309523Y-104272438D01*
X165309523Y-104272438D02*
X165214285Y-104177200D01*
X165214285Y-104177200D02*
X165071428Y-104034342D01*
X165071428Y-104034342D02*
X164976190Y-103986723D01*
X164976190Y-103986723D02*
X164880952Y-103986723D01*
X164928571Y-104224819D02*
X164833333Y-104177200D01*
X164833333Y-104177200D02*
X164738095Y-104081961D01*
X164738095Y-104081961D02*
X164690476Y-103891485D01*
X164690476Y-103891485D02*
X164690476Y-103558152D01*
X164690476Y-103558152D02*
X164738095Y-103367676D01*
X164738095Y-103367676D02*
X164833333Y-103272438D01*
X164833333Y-103272438D02*
X164928571Y-103224819D01*
X164928571Y-103224819D02*
X165119047Y-103224819D01*
X165119047Y-103224819D02*
X165214285Y-103272438D01*
X165214285Y-103272438D02*
X165309523Y-103367676D01*
X165309523Y-103367676D02*
X165357142Y-103558152D01*
X165357142Y-103558152D02*
X165357142Y-103891485D01*
X165357142Y-103891485D02*
X165309523Y-104081961D01*
X165309523Y-104081961D02*
X165214285Y-104177200D01*
X165214285Y-104177200D02*
X165119047Y-104224819D01*
X165119047Y-104224819D02*
X164928571Y-104224819D01*
X165690476Y-103224819D02*
X166309523Y-103224819D01*
X166309523Y-103224819D02*
X165976190Y-103605771D01*
X165976190Y-103605771D02*
X166119047Y-103605771D01*
X166119047Y-103605771D02*
X166214285Y-103653390D01*
X166214285Y-103653390D02*
X166261904Y-103701009D01*
X166261904Y-103701009D02*
X166309523Y-103796247D01*
X166309523Y-103796247D02*
X166309523Y-104034342D01*
X166309523Y-104034342D02*
X166261904Y-104129580D01*
X166261904Y-104129580D02*
X166214285Y-104177200D01*
X166214285Y-104177200D02*
X166119047Y-104224819D01*
X166119047Y-104224819D02*
X165833333Y-104224819D01*
X165833333Y-104224819D02*
X165738095Y-104177200D01*
X165738095Y-104177200D02*
X165690476Y-104129580D01*
X162785714Y-110820057D02*
X162833333Y-110772438D01*
X162833333Y-110772438D02*
X162928571Y-110724819D01*
X162928571Y-110724819D02*
X163166666Y-110724819D01*
X163166666Y-110724819D02*
X163261904Y-110772438D01*
X163261904Y-110772438D02*
X163309523Y-110820057D01*
X163309523Y-110820057D02*
X163357142Y-110915295D01*
X163357142Y-110915295D02*
X163357142Y-111010533D01*
X163357142Y-111010533D02*
X163309523Y-111153390D01*
X163309523Y-111153390D02*
X162738095Y-111724819D01*
X162738095Y-111724819D02*
X163357142Y-111724819D01*
X163785714Y-111724819D02*
X163785714Y-110724819D01*
X163785714Y-110724819D02*
X164357142Y-111724819D01*
X164357142Y-111724819D02*
X164357142Y-110724819D01*
X164738095Y-110724819D02*
X165357142Y-110724819D01*
X165357142Y-110724819D02*
X165023809Y-111105771D01*
X165023809Y-111105771D02*
X165166666Y-111105771D01*
X165166666Y-111105771D02*
X165261904Y-111153390D01*
X165261904Y-111153390D02*
X165309523Y-111201009D01*
X165309523Y-111201009D02*
X165357142Y-111296247D01*
X165357142Y-111296247D02*
X165357142Y-111534342D01*
X165357142Y-111534342D02*
X165309523Y-111629580D01*
X165309523Y-111629580D02*
X165261904Y-111677200D01*
X165261904Y-111677200D02*
X165166666Y-111724819D01*
X165166666Y-111724819D02*
X164880952Y-111724819D01*
X164880952Y-111724819D02*
X164785714Y-111677200D01*
X164785714Y-111677200D02*
X164738095Y-111629580D01*
X165833333Y-111724819D02*
X166023809Y-111724819D01*
X166023809Y-111724819D02*
X166119047Y-111677200D01*
X166119047Y-111677200D02*
X166166666Y-111629580D01*
X166166666Y-111629580D02*
X166261904Y-111486723D01*
X166261904Y-111486723D02*
X166309523Y-111296247D01*
X166309523Y-111296247D02*
X166309523Y-110915295D01*
X166309523Y-110915295D02*
X166261904Y-110820057D01*
X166261904Y-110820057D02*
X166214285Y-110772438D01*
X166214285Y-110772438D02*
X166119047Y-110724819D01*
X166119047Y-110724819D02*
X165928571Y-110724819D01*
X165928571Y-110724819D02*
X165833333Y-110772438D01*
X165833333Y-110772438D02*
X165785714Y-110820057D01*
X165785714Y-110820057D02*
X165738095Y-110915295D01*
X165738095Y-110915295D02*
X165738095Y-111153390D01*
X165738095Y-111153390D02*
X165785714Y-111248628D01*
X165785714Y-111248628D02*
X165833333Y-111296247D01*
X165833333Y-111296247D02*
X165928571Y-111343866D01*
X165928571Y-111343866D02*
X166119047Y-111343866D01*
X166119047Y-111343866D02*
X166214285Y-111296247D01*
X166214285Y-111296247D02*
X166261904Y-111248628D01*
X166261904Y-111248628D02*
X166309523Y-111153390D01*
X166928571Y-110724819D02*
X167023809Y-110724819D01*
X167023809Y-110724819D02*
X167119047Y-110772438D01*
X167119047Y-110772438D02*
X167166666Y-110820057D01*
X167166666Y-110820057D02*
X167214285Y-110915295D01*
X167214285Y-110915295D02*
X167261904Y-111105771D01*
X167261904Y-111105771D02*
X167261904Y-111343866D01*
X167261904Y-111343866D02*
X167214285Y-111534342D01*
X167214285Y-111534342D02*
X167166666Y-111629580D01*
X167166666Y-111629580D02*
X167119047Y-111677200D01*
X167119047Y-111677200D02*
X167023809Y-111724819D01*
X167023809Y-111724819D02*
X166928571Y-111724819D01*
X166928571Y-111724819D02*
X166833333Y-111677200D01*
X166833333Y-111677200D02*
X166785714Y-111629580D01*
X166785714Y-111629580D02*
X166738095Y-111534342D01*
X166738095Y-111534342D02*
X166690476Y-111343866D01*
X166690476Y-111343866D02*
X166690476Y-111105771D01*
X166690476Y-111105771D02*
X166738095Y-110915295D01*
X166738095Y-110915295D02*
X166785714Y-110820057D01*
X166785714Y-110820057D02*
X166833333Y-110772438D01*
X166833333Y-110772438D02*
X166928571Y-110724819D01*
X168119047Y-110724819D02*
X167928571Y-110724819D01*
X167928571Y-110724819D02*
X167833333Y-110772438D01*
X167833333Y-110772438D02*
X167785714Y-110820057D01*
X167785714Y-110820057D02*
X167690476Y-110962914D01*
X167690476Y-110962914D02*
X167642857Y-111153390D01*
X167642857Y-111153390D02*
X167642857Y-111534342D01*
X167642857Y-111534342D02*
X167690476Y-111629580D01*
X167690476Y-111629580D02*
X167738095Y-111677200D01*
X167738095Y-111677200D02*
X167833333Y-111724819D01*
X167833333Y-111724819D02*
X168023809Y-111724819D01*
X168023809Y-111724819D02*
X168119047Y-111677200D01*
X168119047Y-111677200D02*
X168166666Y-111629580D01*
X168166666Y-111629580D02*
X168214285Y-111534342D01*
X168214285Y-111534342D02*
X168214285Y-111296247D01*
X168214285Y-111296247D02*
X168166666Y-111201009D01*
X168166666Y-111201009D02*
X168119047Y-111153390D01*
X168119047Y-111153390D02*
X168023809Y-111105771D01*
X168023809Y-111105771D02*
X167833333Y-111105771D01*
X167833333Y-111105771D02*
X167738095Y-111153390D01*
X167738095Y-111153390D02*
X167690476Y-111201009D01*
X167690476Y-111201009D02*
X167642857Y-111296247D01*
X166264761Y-78820057D02*
X166169523Y-78772438D01*
X166169523Y-78772438D02*
X166074285Y-78677200D01*
X166074285Y-78677200D02*
X165931428Y-78534342D01*
X165931428Y-78534342D02*
X165836190Y-78486723D01*
X165836190Y-78486723D02*
X165740952Y-78486723D01*
X165788571Y-78724819D02*
X165693333Y-78677200D01*
X165693333Y-78677200D02*
X165598095Y-78581961D01*
X165598095Y-78581961D02*
X165550476Y-78391485D01*
X165550476Y-78391485D02*
X165550476Y-78058152D01*
X165550476Y-78058152D02*
X165598095Y-77867676D01*
X165598095Y-77867676D02*
X165693333Y-77772438D01*
X165693333Y-77772438D02*
X165788571Y-77724819D01*
X165788571Y-77724819D02*
X165979047Y-77724819D01*
X165979047Y-77724819D02*
X166074285Y-77772438D01*
X166074285Y-77772438D02*
X166169523Y-77867676D01*
X166169523Y-77867676D02*
X166217142Y-78058152D01*
X166217142Y-78058152D02*
X166217142Y-78391485D01*
X166217142Y-78391485D02*
X166169523Y-78581961D01*
X166169523Y-78581961D02*
X166074285Y-78677200D01*
X166074285Y-78677200D02*
X165979047Y-78724819D01*
X165979047Y-78724819D02*
X165788571Y-78724819D01*
X166598095Y-77820057D02*
X166645714Y-77772438D01*
X166645714Y-77772438D02*
X166740952Y-77724819D01*
X166740952Y-77724819D02*
X166979047Y-77724819D01*
X166979047Y-77724819D02*
X167074285Y-77772438D01*
X167074285Y-77772438D02*
X167121904Y-77820057D01*
X167121904Y-77820057D02*
X167169523Y-77915295D01*
X167169523Y-77915295D02*
X167169523Y-78010533D01*
X167169523Y-78010533D02*
X167121904Y-78153390D01*
X167121904Y-78153390D02*
X166550476Y-78724819D01*
X166550476Y-78724819D02*
X167169523Y-78724819D01*
X125990057Y-93095238D02*
X125942438Y-93190476D01*
X125942438Y-93190476D02*
X125847200Y-93285714D01*
X125847200Y-93285714D02*
X125704342Y-93428571D01*
X125704342Y-93428571D02*
X125656723Y-93523809D01*
X125656723Y-93523809D02*
X125656723Y-93619047D01*
X125894819Y-93571428D02*
X125847200Y-93666666D01*
X125847200Y-93666666D02*
X125751961Y-93761904D01*
X125751961Y-93761904D02*
X125561485Y-93809523D01*
X125561485Y-93809523D02*
X125228152Y-93809523D01*
X125228152Y-93809523D02*
X125037676Y-93761904D01*
X125037676Y-93761904D02*
X124942438Y-93666666D01*
X124942438Y-93666666D02*
X124894819Y-93571428D01*
X124894819Y-93571428D02*
X124894819Y-93380952D01*
X124894819Y-93380952D02*
X124942438Y-93285714D01*
X124942438Y-93285714D02*
X125037676Y-93190476D01*
X125037676Y-93190476D02*
X125228152Y-93142857D01*
X125228152Y-93142857D02*
X125561485Y-93142857D01*
X125561485Y-93142857D02*
X125751961Y-93190476D01*
X125751961Y-93190476D02*
X125847200Y-93285714D01*
X125847200Y-93285714D02*
X125894819Y-93380952D01*
X125894819Y-93380952D02*
X125894819Y-93571428D01*
X125894819Y-92190476D02*
X125894819Y-92761904D01*
X125894819Y-92476190D02*
X124894819Y-92476190D01*
X124894819Y-92476190D02*
X125037676Y-92571428D01*
X125037676Y-92571428D02*
X125132914Y-92666666D01*
X125132914Y-92666666D02*
X125180533Y-92761904D01*
X131340057Y-95714285D02*
X131292438Y-95666666D01*
X131292438Y-95666666D02*
X131244819Y-95571428D01*
X131244819Y-95571428D02*
X131244819Y-95333333D01*
X131244819Y-95333333D02*
X131292438Y-95238095D01*
X131292438Y-95238095D02*
X131340057Y-95190476D01*
X131340057Y-95190476D02*
X131435295Y-95142857D01*
X131435295Y-95142857D02*
X131530533Y-95142857D01*
X131530533Y-95142857D02*
X131673390Y-95190476D01*
X131673390Y-95190476D02*
X132244819Y-95761904D01*
X132244819Y-95761904D02*
X132244819Y-95142857D01*
X132244819Y-94714285D02*
X131244819Y-94714285D01*
X131244819Y-94714285D02*
X132244819Y-94142857D01*
X132244819Y-94142857D02*
X131244819Y-94142857D01*
X131244819Y-93761904D02*
X131244819Y-93142857D01*
X131244819Y-93142857D02*
X131625771Y-93476190D01*
X131625771Y-93476190D02*
X131625771Y-93333333D01*
X131625771Y-93333333D02*
X131673390Y-93238095D01*
X131673390Y-93238095D02*
X131721009Y-93190476D01*
X131721009Y-93190476D02*
X131816247Y-93142857D01*
X131816247Y-93142857D02*
X132054342Y-93142857D01*
X132054342Y-93142857D02*
X132149580Y-93190476D01*
X132149580Y-93190476D02*
X132197200Y-93238095D01*
X132197200Y-93238095D02*
X132244819Y-93333333D01*
X132244819Y-93333333D02*
X132244819Y-93619047D01*
X132244819Y-93619047D02*
X132197200Y-93714285D01*
X132197200Y-93714285D02*
X132149580Y-93761904D01*
X132244819Y-92666666D02*
X132244819Y-92476190D01*
X132244819Y-92476190D02*
X132197200Y-92380952D01*
X132197200Y-92380952D02*
X132149580Y-92333333D01*
X132149580Y-92333333D02*
X132006723Y-92238095D01*
X132006723Y-92238095D02*
X131816247Y-92190476D01*
X131816247Y-92190476D02*
X131435295Y-92190476D01*
X131435295Y-92190476D02*
X131340057Y-92238095D01*
X131340057Y-92238095D02*
X131292438Y-92285714D01*
X131292438Y-92285714D02*
X131244819Y-92380952D01*
X131244819Y-92380952D02*
X131244819Y-92571428D01*
X131244819Y-92571428D02*
X131292438Y-92666666D01*
X131292438Y-92666666D02*
X131340057Y-92714285D01*
X131340057Y-92714285D02*
X131435295Y-92761904D01*
X131435295Y-92761904D02*
X131673390Y-92761904D01*
X131673390Y-92761904D02*
X131768628Y-92714285D01*
X131768628Y-92714285D02*
X131816247Y-92666666D01*
X131816247Y-92666666D02*
X131863866Y-92571428D01*
X131863866Y-92571428D02*
X131863866Y-92380952D01*
X131863866Y-92380952D02*
X131816247Y-92285714D01*
X131816247Y-92285714D02*
X131768628Y-92238095D01*
X131768628Y-92238095D02*
X131673390Y-92190476D01*
X131244819Y-91571428D02*
X131244819Y-91476190D01*
X131244819Y-91476190D02*
X131292438Y-91380952D01*
X131292438Y-91380952D02*
X131340057Y-91333333D01*
X131340057Y-91333333D02*
X131435295Y-91285714D01*
X131435295Y-91285714D02*
X131625771Y-91238095D01*
X131625771Y-91238095D02*
X131863866Y-91238095D01*
X131863866Y-91238095D02*
X132054342Y-91285714D01*
X132054342Y-91285714D02*
X132149580Y-91333333D01*
X132149580Y-91333333D02*
X132197200Y-91380952D01*
X132197200Y-91380952D02*
X132244819Y-91476190D01*
X132244819Y-91476190D02*
X132244819Y-91571428D01*
X132244819Y-91571428D02*
X132197200Y-91666666D01*
X132197200Y-91666666D02*
X132149580Y-91714285D01*
X132149580Y-91714285D02*
X132054342Y-91761904D01*
X132054342Y-91761904D02*
X131863866Y-91809523D01*
X131863866Y-91809523D02*
X131625771Y-91809523D01*
X131625771Y-91809523D02*
X131435295Y-91761904D01*
X131435295Y-91761904D02*
X131340057Y-91714285D01*
X131340057Y-91714285D02*
X131292438Y-91666666D01*
X131292438Y-91666666D02*
X131244819Y-91571428D01*
X131578152Y-90380952D02*
X132244819Y-90380952D01*
X131197200Y-90619047D02*
X131911485Y-90857142D01*
X131911485Y-90857142D02*
X131911485Y-90238095D01*
X157494819Y-81545238D02*
X157018628Y-81878571D01*
X157494819Y-82116666D02*
X156494819Y-82116666D01*
X156494819Y-82116666D02*
X156494819Y-81735714D01*
X156494819Y-81735714D02*
X156542438Y-81640476D01*
X156542438Y-81640476D02*
X156590057Y-81592857D01*
X156590057Y-81592857D02*
X156685295Y-81545238D01*
X156685295Y-81545238D02*
X156828152Y-81545238D01*
X156828152Y-81545238D02*
X156923390Y-81592857D01*
X156923390Y-81592857D02*
X156971009Y-81640476D01*
X156971009Y-81640476D02*
X157018628Y-81735714D01*
X157018628Y-81735714D02*
X157018628Y-82116666D01*
X156494819Y-81211904D02*
X156494819Y-80592857D01*
X156494819Y-80592857D02*
X156875771Y-80926190D01*
X156875771Y-80926190D02*
X156875771Y-80783333D01*
X156875771Y-80783333D02*
X156923390Y-80688095D01*
X156923390Y-80688095D02*
X156971009Y-80640476D01*
X156971009Y-80640476D02*
X157066247Y-80592857D01*
X157066247Y-80592857D02*
X157304342Y-80592857D01*
X157304342Y-80592857D02*
X157399580Y-80640476D01*
X157399580Y-80640476D02*
X157447200Y-80688095D01*
X157447200Y-80688095D02*
X157494819Y-80783333D01*
X157494819Y-80783333D02*
X157494819Y-81069047D01*
X157494819Y-81069047D02*
X157447200Y-81164285D01*
X157447200Y-81164285D02*
X157399580Y-81211904D01*
X157494819Y-80164285D02*
X156494819Y-80164285D01*
X156875771Y-80164285D02*
X156828152Y-80069047D01*
X156828152Y-80069047D02*
X156828152Y-79878571D01*
X156828152Y-79878571D02*
X156875771Y-79783333D01*
X156875771Y-79783333D02*
X156923390Y-79735714D01*
X156923390Y-79735714D02*
X157018628Y-79688095D01*
X157018628Y-79688095D02*
X157304342Y-79688095D01*
X157304342Y-79688095D02*
X157399580Y-79735714D01*
X157399580Y-79735714D02*
X157447200Y-79783333D01*
X157447200Y-79783333D02*
X157494819Y-79878571D01*
X157494819Y-79878571D02*
X157494819Y-80069047D01*
X157494819Y-80069047D02*
X157447200Y-80164285D01*
X157494819Y-78735714D02*
X157494819Y-79307142D01*
X157494819Y-79021428D02*
X156494819Y-79021428D01*
X156494819Y-79021428D02*
X156637676Y-79116666D01*
X156637676Y-79116666D02*
X156732914Y-79211904D01*
X156732914Y-79211904D02*
X156780533Y-79307142D01*
X162234819Y-81045238D02*
X162234819Y-81616666D01*
X162234819Y-81330952D02*
X161234819Y-81330952D01*
X161234819Y-81330952D02*
X161377676Y-81426190D01*
X161377676Y-81426190D02*
X161472914Y-81521428D01*
X161472914Y-81521428D02*
X161520533Y-81616666D01*
X161234819Y-80426190D02*
X161234819Y-80330952D01*
X161234819Y-80330952D02*
X161282438Y-80235714D01*
X161282438Y-80235714D02*
X161330057Y-80188095D01*
X161330057Y-80188095D02*
X161425295Y-80140476D01*
X161425295Y-80140476D02*
X161615771Y-80092857D01*
X161615771Y-80092857D02*
X161853866Y-80092857D01*
X161853866Y-80092857D02*
X162044342Y-80140476D01*
X162044342Y-80140476D02*
X162139580Y-80188095D01*
X162139580Y-80188095D02*
X162187200Y-80235714D01*
X162187200Y-80235714D02*
X162234819Y-80330952D01*
X162234819Y-80330952D02*
X162234819Y-80426190D01*
X162234819Y-80426190D02*
X162187200Y-80521428D01*
X162187200Y-80521428D02*
X162139580Y-80569047D01*
X162139580Y-80569047D02*
X162044342Y-80616666D01*
X162044342Y-80616666D02*
X161853866Y-80664285D01*
X161853866Y-80664285D02*
X161615771Y-80664285D01*
X161615771Y-80664285D02*
X161425295Y-80616666D01*
X161425295Y-80616666D02*
X161330057Y-80569047D01*
X161330057Y-80569047D02*
X161282438Y-80521428D01*
X161282438Y-80521428D02*
X161234819Y-80426190D01*
X162234819Y-79664285D02*
X161234819Y-79664285D01*
X161853866Y-79569047D02*
X162234819Y-79283333D01*
X161568152Y-79283333D02*
X161949104Y-79664285D01*
X116378221Y-89609580D02*
X116330602Y-89657200D01*
X116330602Y-89657200D02*
X116187745Y-89704819D01*
X116187745Y-89704819D02*
X116092507Y-89704819D01*
X116092507Y-89704819D02*
X115949650Y-89657200D01*
X115949650Y-89657200D02*
X115854412Y-89561961D01*
X115854412Y-89561961D02*
X115806793Y-89466723D01*
X115806793Y-89466723D02*
X115759174Y-89276247D01*
X115759174Y-89276247D02*
X115759174Y-89133390D01*
X115759174Y-89133390D02*
X115806793Y-88942914D01*
X115806793Y-88942914D02*
X115854412Y-88847676D01*
X115854412Y-88847676D02*
X115949650Y-88752438D01*
X115949650Y-88752438D02*
X116092507Y-88704819D01*
X116092507Y-88704819D02*
X116187745Y-88704819D01*
X116187745Y-88704819D02*
X116330602Y-88752438D01*
X116330602Y-88752438D02*
X116378221Y-88800057D01*
X117330602Y-89704819D02*
X116759174Y-89704819D01*
X117044888Y-89704819D02*
X117044888Y-88704819D01*
X117044888Y-88704819D02*
X116949650Y-88847676D01*
X116949650Y-88847676D02*
X116854412Y-88942914D01*
X116854412Y-88942914D02*
X116759174Y-88990533D01*
X115473459Y-97204819D02*
X114902031Y-97204819D01*
X115187745Y-97204819D02*
X115187745Y-96204819D01*
X115187745Y-96204819D02*
X115092507Y-96347676D01*
X115092507Y-96347676D02*
X114997269Y-96442914D01*
X114997269Y-96442914D02*
X114902031Y-96490533D01*
X116092507Y-96204819D02*
X116187745Y-96204819D01*
X116187745Y-96204819D02*
X116282983Y-96252438D01*
X116282983Y-96252438D02*
X116330602Y-96300057D01*
X116330602Y-96300057D02*
X116378221Y-96395295D01*
X116378221Y-96395295D02*
X116425840Y-96585771D01*
X116425840Y-96585771D02*
X116425840Y-96823866D01*
X116425840Y-96823866D02*
X116378221Y-97014342D01*
X116378221Y-97014342D02*
X116330602Y-97109580D01*
X116330602Y-97109580D02*
X116282983Y-97157200D01*
X116282983Y-97157200D02*
X116187745Y-97204819D01*
X116187745Y-97204819D02*
X116092507Y-97204819D01*
X116092507Y-97204819D02*
X115997269Y-97157200D01*
X115997269Y-97157200D02*
X115949650Y-97109580D01*
X115949650Y-97109580D02*
X115902031Y-97014342D01*
X115902031Y-97014342D02*
X115854412Y-96823866D01*
X115854412Y-96823866D02*
X115854412Y-96585771D01*
X115854412Y-96585771D02*
X115902031Y-96395295D01*
X115902031Y-96395295D02*
X115949650Y-96300057D01*
X115949650Y-96300057D02*
X115997269Y-96252438D01*
X115997269Y-96252438D02*
X116092507Y-96204819D01*
X117282983Y-96538152D02*
X117282983Y-97204819D01*
X116854412Y-96538152D02*
X116854412Y-97061961D01*
X116854412Y-97061961D02*
X116902031Y-97157200D01*
X116902031Y-97157200D02*
X116997269Y-97204819D01*
X116997269Y-97204819D02*
X117140126Y-97204819D01*
X117140126Y-97204819D02*
X117235364Y-97157200D01*
X117235364Y-97157200D02*
X117282983Y-97109580D01*
X118092507Y-96681009D02*
X117759174Y-96681009D01*
X117759174Y-97204819D02*
X117759174Y-96204819D01*
X117759174Y-96204819D02*
X118235364Y-96204819D01*
X170594819Y-98236666D02*
X170118628Y-98569999D01*
X170594819Y-98808094D02*
X169594819Y-98808094D01*
X169594819Y-98808094D02*
X169594819Y-98427142D01*
X169594819Y-98427142D02*
X169642438Y-98331904D01*
X169642438Y-98331904D02*
X169690057Y-98284285D01*
X169690057Y-98284285D02*
X169785295Y-98236666D01*
X169785295Y-98236666D02*
X169928152Y-98236666D01*
X169928152Y-98236666D02*
X170023390Y-98284285D01*
X170023390Y-98284285D02*
X170071009Y-98331904D01*
X170071009Y-98331904D02*
X170118628Y-98427142D01*
X170118628Y-98427142D02*
X170118628Y-98808094D01*
X169594819Y-97331904D02*
X169594819Y-97808094D01*
X169594819Y-97808094D02*
X170071009Y-97855713D01*
X170071009Y-97855713D02*
X170023390Y-97808094D01*
X170023390Y-97808094D02*
X169975771Y-97712856D01*
X169975771Y-97712856D02*
X169975771Y-97474761D01*
X169975771Y-97474761D02*
X170023390Y-97379523D01*
X170023390Y-97379523D02*
X170071009Y-97331904D01*
X170071009Y-97331904D02*
X170166247Y-97284285D01*
X170166247Y-97284285D02*
X170404342Y-97284285D01*
X170404342Y-97284285D02*
X170499580Y-97331904D01*
X170499580Y-97331904D02*
X170547200Y-97379523D01*
X170547200Y-97379523D02*
X170594819Y-97474761D01*
X170594819Y-97474761D02*
X170594819Y-97712856D01*
X170594819Y-97712856D02*
X170547200Y-97808094D01*
X170547200Y-97808094D02*
X170499580Y-97855713D01*
X175334819Y-98260476D02*
X175334819Y-98831904D01*
X175334819Y-98546190D02*
X174334819Y-98546190D01*
X174334819Y-98546190D02*
X174477676Y-98641428D01*
X174477676Y-98641428D02*
X174572914Y-98736666D01*
X174572914Y-98736666D02*
X174620533Y-98831904D01*
X174334819Y-97641428D02*
X174334819Y-97546190D01*
X174334819Y-97546190D02*
X174382438Y-97450952D01*
X174382438Y-97450952D02*
X174430057Y-97403333D01*
X174430057Y-97403333D02*
X174525295Y-97355714D01*
X174525295Y-97355714D02*
X174715771Y-97308095D01*
X174715771Y-97308095D02*
X174953866Y-97308095D01*
X174953866Y-97308095D02*
X175144342Y-97355714D01*
X175144342Y-97355714D02*
X175239580Y-97403333D01*
X175239580Y-97403333D02*
X175287200Y-97450952D01*
X175287200Y-97450952D02*
X175334819Y-97546190D01*
X175334819Y-97546190D02*
X175334819Y-97641428D01*
X175334819Y-97641428D02*
X175287200Y-97736666D01*
X175287200Y-97736666D02*
X175239580Y-97784285D01*
X175239580Y-97784285D02*
X175144342Y-97831904D01*
X175144342Y-97831904D02*
X174953866Y-97879523D01*
X174953866Y-97879523D02*
X174715771Y-97879523D01*
X174715771Y-97879523D02*
X174525295Y-97831904D01*
X174525295Y-97831904D02*
X174430057Y-97784285D01*
X174430057Y-97784285D02*
X174382438Y-97736666D01*
X174382438Y-97736666D02*
X174334819Y-97641428D01*
X127064819Y-79665238D02*
X126588628Y-79998571D01*
X127064819Y-80236666D02*
X126064819Y-80236666D01*
X126064819Y-80236666D02*
X126064819Y-79855714D01*
X126064819Y-79855714D02*
X126112438Y-79760476D01*
X126112438Y-79760476D02*
X126160057Y-79712857D01*
X126160057Y-79712857D02*
X126255295Y-79665238D01*
X126255295Y-79665238D02*
X126398152Y-79665238D01*
X126398152Y-79665238D02*
X126493390Y-79712857D01*
X126493390Y-79712857D02*
X126541009Y-79760476D01*
X126541009Y-79760476D02*
X126588628Y-79855714D01*
X126588628Y-79855714D02*
X126588628Y-80236666D01*
X127017200Y-78808095D02*
X127064819Y-78903333D01*
X127064819Y-78903333D02*
X127064819Y-79093809D01*
X127064819Y-79093809D02*
X127017200Y-79189047D01*
X127017200Y-79189047D02*
X126969580Y-79236666D01*
X126969580Y-79236666D02*
X126874342Y-79284285D01*
X126874342Y-79284285D02*
X126588628Y-79284285D01*
X126588628Y-79284285D02*
X126493390Y-79236666D01*
X126493390Y-79236666D02*
X126445771Y-79189047D01*
X126445771Y-79189047D02*
X126398152Y-79093809D01*
X126398152Y-79093809D02*
X126398152Y-78903333D01*
X126398152Y-78903333D02*
X126445771Y-78808095D01*
X127064819Y-77855714D02*
X127064819Y-78427142D01*
X127064819Y-78141428D02*
X126064819Y-78141428D01*
X126064819Y-78141428D02*
X126207676Y-78236666D01*
X126207676Y-78236666D02*
X126302914Y-78331904D01*
X126302914Y-78331904D02*
X126350533Y-78427142D01*
X131804819Y-79903333D02*
X131804819Y-80474761D01*
X131804819Y-80189047D02*
X130804819Y-80189047D01*
X130804819Y-80189047D02*
X130947676Y-80284285D01*
X130947676Y-80284285D02*
X131042914Y-80379523D01*
X131042914Y-80379523D02*
X131090533Y-80474761D01*
X131709580Y-79474761D02*
X131757200Y-79427142D01*
X131757200Y-79427142D02*
X131804819Y-79474761D01*
X131804819Y-79474761D02*
X131757200Y-79522380D01*
X131757200Y-79522380D02*
X131709580Y-79474761D01*
X131709580Y-79474761D02*
X131804819Y-79474761D01*
X130900057Y-79046190D02*
X130852438Y-78998571D01*
X130852438Y-78998571D02*
X130804819Y-78903333D01*
X130804819Y-78903333D02*
X130804819Y-78665238D01*
X130804819Y-78665238D02*
X130852438Y-78570000D01*
X130852438Y-78570000D02*
X130900057Y-78522381D01*
X130900057Y-78522381D02*
X130995295Y-78474762D01*
X130995295Y-78474762D02*
X131090533Y-78474762D01*
X131090533Y-78474762D02*
X131233390Y-78522381D01*
X131233390Y-78522381D02*
X131804819Y-79093809D01*
X131804819Y-79093809D02*
X131804819Y-78474762D01*
X131804819Y-78046190D02*
X130804819Y-78046190D01*
X131423866Y-77950952D02*
X131804819Y-77665238D01*
X131138152Y-77665238D02*
X131519104Y-78046190D01*
X153833333Y-90859580D02*
X153785714Y-90907200D01*
X153785714Y-90907200D02*
X153642857Y-90954819D01*
X153642857Y-90954819D02*
X153547619Y-90954819D01*
X153547619Y-90954819D02*
X153404762Y-90907200D01*
X153404762Y-90907200D02*
X153309524Y-90811961D01*
X153309524Y-90811961D02*
X153261905Y-90716723D01*
X153261905Y-90716723D02*
X153214286Y-90526247D01*
X153214286Y-90526247D02*
X153214286Y-90383390D01*
X153214286Y-90383390D02*
X153261905Y-90192914D01*
X153261905Y-90192914D02*
X153309524Y-90097676D01*
X153309524Y-90097676D02*
X153404762Y-90002438D01*
X153404762Y-90002438D02*
X153547619Y-89954819D01*
X153547619Y-89954819D02*
X153642857Y-89954819D01*
X153642857Y-89954819D02*
X153785714Y-90002438D01*
X153785714Y-90002438D02*
X153833333Y-90050057D01*
X154738095Y-89954819D02*
X154261905Y-89954819D01*
X154261905Y-89954819D02*
X154214286Y-90431009D01*
X154214286Y-90431009D02*
X154261905Y-90383390D01*
X154261905Y-90383390D02*
X154357143Y-90335771D01*
X154357143Y-90335771D02*
X154595238Y-90335771D01*
X154595238Y-90335771D02*
X154690476Y-90383390D01*
X154690476Y-90383390D02*
X154738095Y-90431009D01*
X154738095Y-90431009D02*
X154785714Y-90526247D01*
X154785714Y-90526247D02*
X154785714Y-90764342D01*
X154785714Y-90764342D02*
X154738095Y-90859580D01*
X154738095Y-90859580D02*
X154690476Y-90907200D01*
X154690476Y-90907200D02*
X154595238Y-90954819D01*
X154595238Y-90954819D02*
X154357143Y-90954819D01*
X154357143Y-90954819D02*
X154261905Y-90907200D01*
X154261905Y-90907200D02*
X154214286Y-90859580D01*
X151690476Y-95859580D02*
X151738095Y-95907200D01*
X151738095Y-95907200D02*
X151690476Y-95954819D01*
X151690476Y-95954819D02*
X151642857Y-95907200D01*
X151642857Y-95907200D02*
X151690476Y-95859580D01*
X151690476Y-95859580D02*
X151690476Y-95954819D01*
X152357142Y-94954819D02*
X152452380Y-94954819D01*
X152452380Y-94954819D02*
X152547618Y-95002438D01*
X152547618Y-95002438D02*
X152595237Y-95050057D01*
X152595237Y-95050057D02*
X152642856Y-95145295D01*
X152642856Y-95145295D02*
X152690475Y-95335771D01*
X152690475Y-95335771D02*
X152690475Y-95573866D01*
X152690475Y-95573866D02*
X152642856Y-95764342D01*
X152642856Y-95764342D02*
X152595237Y-95859580D01*
X152595237Y-95859580D02*
X152547618Y-95907200D01*
X152547618Y-95907200D02*
X152452380Y-95954819D01*
X152452380Y-95954819D02*
X152357142Y-95954819D01*
X152357142Y-95954819D02*
X152261904Y-95907200D01*
X152261904Y-95907200D02*
X152214285Y-95859580D01*
X152214285Y-95859580D02*
X152166666Y-95764342D01*
X152166666Y-95764342D02*
X152119047Y-95573866D01*
X152119047Y-95573866D02*
X152119047Y-95335771D01*
X152119047Y-95335771D02*
X152166666Y-95145295D01*
X152166666Y-95145295D02*
X152214285Y-95050057D01*
X152214285Y-95050057D02*
X152261904Y-95002438D01*
X152261904Y-95002438D02*
X152357142Y-94954819D01*
X153309523Y-94954819D02*
X153404761Y-94954819D01*
X153404761Y-94954819D02*
X153499999Y-95002438D01*
X153499999Y-95002438D02*
X153547618Y-95050057D01*
X153547618Y-95050057D02*
X153595237Y-95145295D01*
X153595237Y-95145295D02*
X153642856Y-95335771D01*
X153642856Y-95335771D02*
X153642856Y-95573866D01*
X153642856Y-95573866D02*
X153595237Y-95764342D01*
X153595237Y-95764342D02*
X153547618Y-95859580D01*
X153547618Y-95859580D02*
X153499999Y-95907200D01*
X153499999Y-95907200D02*
X153404761Y-95954819D01*
X153404761Y-95954819D02*
X153309523Y-95954819D01*
X153309523Y-95954819D02*
X153214285Y-95907200D01*
X153214285Y-95907200D02*
X153166666Y-95859580D01*
X153166666Y-95859580D02*
X153119047Y-95764342D01*
X153119047Y-95764342D02*
X153071428Y-95573866D01*
X153071428Y-95573866D02*
X153071428Y-95335771D01*
X153071428Y-95335771D02*
X153119047Y-95145295D01*
X153119047Y-95145295D02*
X153166666Y-95050057D01*
X153166666Y-95050057D02*
X153214285Y-95002438D01*
X153214285Y-95002438D02*
X153309523Y-94954819D01*
X154595237Y-95954819D02*
X154023809Y-95954819D01*
X154309523Y-95954819D02*
X154309523Y-94954819D01*
X154309523Y-94954819D02*
X154214285Y-95097676D01*
X154214285Y-95097676D02*
X154119047Y-95192914D01*
X154119047Y-95192914D02*
X154023809Y-95240533D01*
X155452380Y-95288152D02*
X155452380Y-95954819D01*
X155023809Y-95288152D02*
X155023809Y-95811961D01*
X155023809Y-95811961D02*
X155071428Y-95907200D01*
X155071428Y-95907200D02*
X155166666Y-95954819D01*
X155166666Y-95954819D02*
X155309523Y-95954819D01*
X155309523Y-95954819D02*
X155404761Y-95907200D01*
X155404761Y-95907200D02*
X155452380Y-95859580D01*
X156261904Y-95431009D02*
X155928571Y-95431009D01*
X155928571Y-95954819D02*
X155928571Y-94954819D01*
X155928571Y-94954819D02*
X156404761Y-94954819D01*
X113329580Y-76706666D02*
X113377200Y-76754285D01*
X113377200Y-76754285D02*
X113424819Y-76897142D01*
X113424819Y-76897142D02*
X113424819Y-76992380D01*
X113424819Y-76992380D02*
X113377200Y-77135237D01*
X113377200Y-77135237D02*
X113281961Y-77230475D01*
X113281961Y-77230475D02*
X113186723Y-77278094D01*
X113186723Y-77278094D02*
X112996247Y-77325713D01*
X112996247Y-77325713D02*
X112853390Y-77325713D01*
X112853390Y-77325713D02*
X112662914Y-77278094D01*
X112662914Y-77278094D02*
X112567676Y-77230475D01*
X112567676Y-77230475D02*
X112472438Y-77135237D01*
X112472438Y-77135237D02*
X112424819Y-76992380D01*
X112424819Y-76992380D02*
X112424819Y-76897142D01*
X112424819Y-76897142D02*
X112472438Y-76754285D01*
X112472438Y-76754285D02*
X112520057Y-76706666D01*
X112758152Y-75849523D02*
X113424819Y-75849523D01*
X112377200Y-76087618D02*
X113091485Y-76325713D01*
X113091485Y-76325713D02*
X113091485Y-75706666D01*
X117424819Y-78182856D02*
X117424819Y-78087618D01*
X117424819Y-78087618D02*
X117472438Y-77992380D01*
X117472438Y-77992380D02*
X117520057Y-77944761D01*
X117520057Y-77944761D02*
X117615295Y-77897142D01*
X117615295Y-77897142D02*
X117805771Y-77849523D01*
X117805771Y-77849523D02*
X118043866Y-77849523D01*
X118043866Y-77849523D02*
X118234342Y-77897142D01*
X118234342Y-77897142D02*
X118329580Y-77944761D01*
X118329580Y-77944761D02*
X118377200Y-77992380D01*
X118377200Y-77992380D02*
X118424819Y-78087618D01*
X118424819Y-78087618D02*
X118424819Y-78182856D01*
X118424819Y-78182856D02*
X118377200Y-78278094D01*
X118377200Y-78278094D02*
X118329580Y-78325713D01*
X118329580Y-78325713D02*
X118234342Y-78373332D01*
X118234342Y-78373332D02*
X118043866Y-78420951D01*
X118043866Y-78420951D02*
X117805771Y-78420951D01*
X117805771Y-78420951D02*
X117615295Y-78373332D01*
X117615295Y-78373332D02*
X117520057Y-78325713D01*
X117520057Y-78325713D02*
X117472438Y-78278094D01*
X117472438Y-78278094D02*
X117424819Y-78182856D01*
X118329580Y-77420951D02*
X118377200Y-77373332D01*
X118377200Y-77373332D02*
X118424819Y-77420951D01*
X118424819Y-77420951D02*
X118377200Y-77468570D01*
X118377200Y-77468570D02*
X118329580Y-77420951D01*
X118329580Y-77420951D02*
X118424819Y-77420951D01*
X118424819Y-76420952D02*
X118424819Y-76992380D01*
X118424819Y-76706666D02*
X117424819Y-76706666D01*
X117424819Y-76706666D02*
X117567676Y-76801904D01*
X117567676Y-76801904D02*
X117662914Y-76897142D01*
X117662914Y-76897142D02*
X117710533Y-76992380D01*
X117758152Y-75563809D02*
X118424819Y-75563809D01*
X117758152Y-75992380D02*
X118281961Y-75992380D01*
X118281961Y-75992380D02*
X118377200Y-75944761D01*
X118377200Y-75944761D02*
X118424819Y-75849523D01*
X118424819Y-75849523D02*
X118424819Y-75706666D01*
X118424819Y-75706666D02*
X118377200Y-75611428D01*
X118377200Y-75611428D02*
X118329580Y-75563809D01*
X117901009Y-74754285D02*
X117901009Y-75087618D01*
X118424819Y-75087618D02*
X117424819Y-75087618D01*
X117424819Y-75087618D02*
X117424819Y-74611428D01*
X173334819Y-109463333D02*
X174049104Y-109463333D01*
X174049104Y-109463333D02*
X174191961Y-109510952D01*
X174191961Y-109510952D02*
X174287200Y-109606190D01*
X174287200Y-109606190D02*
X174334819Y-109749047D01*
X174334819Y-109749047D02*
X174334819Y-109844285D01*
X173430057Y-109034761D02*
X173382438Y-108987142D01*
X173382438Y-108987142D02*
X173334819Y-108891904D01*
X173334819Y-108891904D02*
X173334819Y-108653809D01*
X173334819Y-108653809D02*
X173382438Y-108558571D01*
X173382438Y-108558571D02*
X173430057Y-108510952D01*
X173430057Y-108510952D02*
X173525295Y-108463333D01*
X173525295Y-108463333D02*
X173620533Y-108463333D01*
X173620533Y-108463333D02*
X173763390Y-108510952D01*
X173763390Y-108510952D02*
X174334819Y-109082380D01*
X174334819Y-109082380D02*
X174334819Y-108463333D01*
X183349104Y-115345238D02*
X183349104Y-114869048D01*
X183634819Y-115440476D02*
X182634819Y-115107143D01*
X182634819Y-115107143D02*
X183634819Y-114773810D01*
X183634819Y-114440476D02*
X182968152Y-114440476D01*
X183063390Y-114440476D02*
X183015771Y-114392857D01*
X183015771Y-114392857D02*
X182968152Y-114297619D01*
X182968152Y-114297619D02*
X182968152Y-114154762D01*
X182968152Y-114154762D02*
X183015771Y-114059524D01*
X183015771Y-114059524D02*
X183111009Y-114011905D01*
X183111009Y-114011905D02*
X183634819Y-114011905D01*
X183111009Y-114011905D02*
X183015771Y-113964286D01*
X183015771Y-113964286D02*
X182968152Y-113869048D01*
X182968152Y-113869048D02*
X182968152Y-113726191D01*
X182968152Y-113726191D02*
X183015771Y-113630952D01*
X183015771Y-113630952D02*
X183111009Y-113583333D01*
X183111009Y-113583333D02*
X183634819Y-113583333D01*
X182968152Y-113107143D02*
X183968152Y-113107143D01*
X183015771Y-113107143D02*
X182968152Y-113011905D01*
X182968152Y-113011905D02*
X182968152Y-112821429D01*
X182968152Y-112821429D02*
X183015771Y-112726191D01*
X183015771Y-112726191D02*
X183063390Y-112678572D01*
X183063390Y-112678572D02*
X183158628Y-112630953D01*
X183158628Y-112630953D02*
X183444342Y-112630953D01*
X183444342Y-112630953D02*
X183539580Y-112678572D01*
X183539580Y-112678572D02*
X183587200Y-112726191D01*
X183587200Y-112726191D02*
X183634819Y-112821429D01*
X183634819Y-112821429D02*
X183634819Y-113011905D01*
X183634819Y-113011905D02*
X183587200Y-113107143D01*
X183634819Y-112059524D02*
X183587200Y-112154762D01*
X183587200Y-112154762D02*
X183491961Y-112202381D01*
X183491961Y-112202381D02*
X182634819Y-112202381D01*
X183634819Y-111678571D02*
X182968152Y-111678571D01*
X182634819Y-111678571D02*
X182682438Y-111726190D01*
X182682438Y-111726190D02*
X182730057Y-111678571D01*
X182730057Y-111678571D02*
X182682438Y-111630952D01*
X182682438Y-111630952D02*
X182634819Y-111678571D01*
X182634819Y-111678571D02*
X182730057Y-111678571D01*
X182968152Y-111345238D02*
X182968152Y-110964286D01*
X183634819Y-111202381D02*
X182777676Y-111202381D01*
X182777676Y-111202381D02*
X182682438Y-111154762D01*
X182682438Y-111154762D02*
X182634819Y-111059524D01*
X182634819Y-111059524D02*
X182634819Y-110964286D01*
X183634819Y-110630952D02*
X182968152Y-110630952D01*
X182634819Y-110630952D02*
X182682438Y-110678571D01*
X182682438Y-110678571D02*
X182730057Y-110630952D01*
X182730057Y-110630952D02*
X182682438Y-110583333D01*
X182682438Y-110583333D02*
X182634819Y-110630952D01*
X182634819Y-110630952D02*
X182730057Y-110630952D01*
X183587200Y-109773810D02*
X183634819Y-109869048D01*
X183634819Y-109869048D02*
X183634819Y-110059524D01*
X183634819Y-110059524D02*
X183587200Y-110154762D01*
X183587200Y-110154762D02*
X183491961Y-110202381D01*
X183491961Y-110202381D02*
X183111009Y-110202381D01*
X183111009Y-110202381D02*
X183015771Y-110154762D01*
X183015771Y-110154762D02*
X182968152Y-110059524D01*
X182968152Y-110059524D02*
X182968152Y-109869048D01*
X182968152Y-109869048D02*
X183015771Y-109773810D01*
X183015771Y-109773810D02*
X183111009Y-109726191D01*
X183111009Y-109726191D02*
X183206247Y-109726191D01*
X183206247Y-109726191D02*
X183301485Y-110202381D01*
X183634819Y-108869048D02*
X182634819Y-108869048D01*
X183587200Y-108869048D02*
X183634819Y-108964286D01*
X183634819Y-108964286D02*
X183634819Y-109154762D01*
X183634819Y-109154762D02*
X183587200Y-109250000D01*
X183587200Y-109250000D02*
X183539580Y-109297619D01*
X183539580Y-109297619D02*
X183444342Y-109345238D01*
X183444342Y-109345238D02*
X183158628Y-109345238D01*
X183158628Y-109345238D02*
X183063390Y-109297619D01*
X183063390Y-109297619D02*
X183015771Y-109250000D01*
X183015771Y-109250000D02*
X182968152Y-109154762D01*
X182968152Y-109154762D02*
X182968152Y-108964286D01*
X182968152Y-108964286D02*
X183015771Y-108869048D01*
X182634819Y-107440476D02*
X182634819Y-107250000D01*
X182634819Y-107250000D02*
X182682438Y-107154762D01*
X182682438Y-107154762D02*
X182777676Y-107059524D01*
X182777676Y-107059524D02*
X182968152Y-107011905D01*
X182968152Y-107011905D02*
X183301485Y-107011905D01*
X183301485Y-107011905D02*
X183491961Y-107059524D01*
X183491961Y-107059524D02*
X183587200Y-107154762D01*
X183587200Y-107154762D02*
X183634819Y-107250000D01*
X183634819Y-107250000D02*
X183634819Y-107440476D01*
X183634819Y-107440476D02*
X183587200Y-107535714D01*
X183587200Y-107535714D02*
X183491961Y-107630952D01*
X183491961Y-107630952D02*
X183301485Y-107678571D01*
X183301485Y-107678571D02*
X182968152Y-107678571D01*
X182968152Y-107678571D02*
X182777676Y-107630952D01*
X182777676Y-107630952D02*
X182682438Y-107535714D01*
X182682438Y-107535714D02*
X182634819Y-107440476D01*
X182968152Y-106154762D02*
X183634819Y-106154762D01*
X182968152Y-106583333D02*
X183491961Y-106583333D01*
X183491961Y-106583333D02*
X183587200Y-106535714D01*
X183587200Y-106535714D02*
X183634819Y-106440476D01*
X183634819Y-106440476D02*
X183634819Y-106297619D01*
X183634819Y-106297619D02*
X183587200Y-106202381D01*
X183587200Y-106202381D02*
X183539580Y-106154762D01*
X182968152Y-105821428D02*
X182968152Y-105440476D01*
X182634819Y-105678571D02*
X183491961Y-105678571D01*
X183491961Y-105678571D02*
X183587200Y-105630952D01*
X183587200Y-105630952D02*
X183634819Y-105535714D01*
X183634819Y-105535714D02*
X183634819Y-105440476D01*
X182968152Y-105107142D02*
X183968152Y-105107142D01*
X183015771Y-105107142D02*
X182968152Y-105011904D01*
X182968152Y-105011904D02*
X182968152Y-104821428D01*
X182968152Y-104821428D02*
X183015771Y-104726190D01*
X183015771Y-104726190D02*
X183063390Y-104678571D01*
X183063390Y-104678571D02*
X183158628Y-104630952D01*
X183158628Y-104630952D02*
X183444342Y-104630952D01*
X183444342Y-104630952D02*
X183539580Y-104678571D01*
X183539580Y-104678571D02*
X183587200Y-104726190D01*
X183587200Y-104726190D02*
X183634819Y-104821428D01*
X183634819Y-104821428D02*
X183634819Y-105011904D01*
X183634819Y-105011904D02*
X183587200Y-105107142D01*
X182968152Y-103773809D02*
X183634819Y-103773809D01*
X182968152Y-104202380D02*
X183491961Y-104202380D01*
X183491961Y-104202380D02*
X183587200Y-104154761D01*
X183587200Y-104154761D02*
X183634819Y-104059523D01*
X183634819Y-104059523D02*
X183634819Y-103916666D01*
X183634819Y-103916666D02*
X183587200Y-103821428D01*
X183587200Y-103821428D02*
X183539580Y-103773809D01*
X182968152Y-103440475D02*
X182968152Y-103059523D01*
X182634819Y-103297618D02*
X183491961Y-103297618D01*
X183491961Y-103297618D02*
X183587200Y-103249999D01*
X183587200Y-103249999D02*
X183634819Y-103154761D01*
X183634819Y-103154761D02*
X183634819Y-103059523D01*
X170584819Y-84166666D02*
X170108628Y-84499999D01*
X170584819Y-84738094D02*
X169584819Y-84738094D01*
X169584819Y-84738094D02*
X169584819Y-84357142D01*
X169584819Y-84357142D02*
X169632438Y-84261904D01*
X169632438Y-84261904D02*
X169680057Y-84214285D01*
X169680057Y-84214285D02*
X169775295Y-84166666D01*
X169775295Y-84166666D02*
X169918152Y-84166666D01*
X169918152Y-84166666D02*
X170013390Y-84214285D01*
X170013390Y-84214285D02*
X170061009Y-84261904D01*
X170061009Y-84261904D02*
X170108628Y-84357142D01*
X170108628Y-84357142D02*
X170108628Y-84738094D01*
X169584819Y-83309523D02*
X169584819Y-83499999D01*
X169584819Y-83499999D02*
X169632438Y-83595237D01*
X169632438Y-83595237D02*
X169680057Y-83642856D01*
X169680057Y-83642856D02*
X169822914Y-83738094D01*
X169822914Y-83738094D02*
X170013390Y-83785713D01*
X170013390Y-83785713D02*
X170394342Y-83785713D01*
X170394342Y-83785713D02*
X170489580Y-83738094D01*
X170489580Y-83738094D02*
X170537200Y-83690475D01*
X170537200Y-83690475D02*
X170584819Y-83595237D01*
X170584819Y-83595237D02*
X170584819Y-83404761D01*
X170584819Y-83404761D02*
X170537200Y-83309523D01*
X170537200Y-83309523D02*
X170489580Y-83261904D01*
X170489580Y-83261904D02*
X170394342Y-83214285D01*
X170394342Y-83214285D02*
X170156247Y-83214285D01*
X170156247Y-83214285D02*
X170061009Y-83261904D01*
X170061009Y-83261904D02*
X170013390Y-83309523D01*
X170013390Y-83309523D02*
X169965771Y-83404761D01*
X169965771Y-83404761D02*
X169965771Y-83595237D01*
X169965771Y-83595237D02*
X170013390Y-83690475D01*
X170013390Y-83690475D02*
X170061009Y-83738094D01*
X170061009Y-83738094D02*
X170156247Y-83785713D01*
X175324819Y-84190476D02*
X175324819Y-84761904D01*
X175324819Y-84476190D02*
X174324819Y-84476190D01*
X174324819Y-84476190D02*
X174467676Y-84571428D01*
X174467676Y-84571428D02*
X174562914Y-84666666D01*
X174562914Y-84666666D02*
X174610533Y-84761904D01*
X174324819Y-83571428D02*
X174324819Y-83476190D01*
X174324819Y-83476190D02*
X174372438Y-83380952D01*
X174372438Y-83380952D02*
X174420057Y-83333333D01*
X174420057Y-83333333D02*
X174515295Y-83285714D01*
X174515295Y-83285714D02*
X174705771Y-83238095D01*
X174705771Y-83238095D02*
X174943866Y-83238095D01*
X174943866Y-83238095D02*
X175134342Y-83285714D01*
X175134342Y-83285714D02*
X175229580Y-83333333D01*
X175229580Y-83333333D02*
X175277200Y-83380952D01*
X175277200Y-83380952D02*
X175324819Y-83476190D01*
X175324819Y-83476190D02*
X175324819Y-83571428D01*
X175324819Y-83571428D02*
X175277200Y-83666666D01*
X175277200Y-83666666D02*
X175229580Y-83714285D01*
X175229580Y-83714285D02*
X175134342Y-83761904D01*
X175134342Y-83761904D02*
X174943866Y-83809523D01*
X174943866Y-83809523D02*
X174705771Y-83809523D01*
X174705771Y-83809523D02*
X174515295Y-83761904D01*
X174515295Y-83761904D02*
X174420057Y-83714285D01*
X174420057Y-83714285D02*
X174372438Y-83666666D01*
X174372438Y-83666666D02*
X174324819Y-83571428D01*
X143974819Y-81478094D02*
X142974819Y-81478094D01*
X142974819Y-81478094D02*
X142974819Y-81239999D01*
X142974819Y-81239999D02*
X143022438Y-81097142D01*
X143022438Y-81097142D02*
X143117676Y-81001904D01*
X143117676Y-81001904D02*
X143212914Y-80954285D01*
X143212914Y-80954285D02*
X143403390Y-80906666D01*
X143403390Y-80906666D02*
X143546247Y-80906666D01*
X143546247Y-80906666D02*
X143736723Y-80954285D01*
X143736723Y-80954285D02*
X143831961Y-81001904D01*
X143831961Y-81001904D02*
X143927200Y-81097142D01*
X143927200Y-81097142D02*
X143974819Y-81239999D01*
X143974819Y-81239999D02*
X143974819Y-81478094D01*
X143974819Y-79954285D02*
X143974819Y-80525713D01*
X143974819Y-80239999D02*
X142974819Y-80239999D01*
X142974819Y-80239999D02*
X143117676Y-80335237D01*
X143117676Y-80335237D02*
X143212914Y-80430475D01*
X143212914Y-80430475D02*
X143260533Y-80525713D01*
X148914819Y-82882857D02*
X148914819Y-83454285D01*
X148914819Y-83168571D02*
X147914819Y-83168571D01*
X147914819Y-83168571D02*
X148057676Y-83263809D01*
X148057676Y-83263809D02*
X148152914Y-83359047D01*
X148152914Y-83359047D02*
X148200533Y-83454285D01*
X148914819Y-82454285D02*
X147914819Y-82454285D01*
X147914819Y-82454285D02*
X148914819Y-81882857D01*
X148914819Y-81882857D02*
X147914819Y-81882857D01*
X148248152Y-80978095D02*
X148914819Y-80978095D01*
X147867200Y-81216190D02*
X148581485Y-81454285D01*
X148581485Y-81454285D02*
X148581485Y-80835238D01*
X147914819Y-80263809D02*
X147914819Y-80168571D01*
X147914819Y-80168571D02*
X147962438Y-80073333D01*
X147962438Y-80073333D02*
X148010057Y-80025714D01*
X148010057Y-80025714D02*
X148105295Y-79978095D01*
X148105295Y-79978095D02*
X148295771Y-79930476D01*
X148295771Y-79930476D02*
X148533866Y-79930476D01*
X148533866Y-79930476D02*
X148724342Y-79978095D01*
X148724342Y-79978095D02*
X148819580Y-80025714D01*
X148819580Y-80025714D02*
X148867200Y-80073333D01*
X148867200Y-80073333D02*
X148914819Y-80168571D01*
X148914819Y-80168571D02*
X148914819Y-80263809D01*
X148914819Y-80263809D02*
X148867200Y-80359047D01*
X148867200Y-80359047D02*
X148819580Y-80406666D01*
X148819580Y-80406666D02*
X148724342Y-80454285D01*
X148724342Y-80454285D02*
X148533866Y-80501904D01*
X148533866Y-80501904D02*
X148295771Y-80501904D01*
X148295771Y-80501904D02*
X148105295Y-80454285D01*
X148105295Y-80454285D02*
X148010057Y-80406666D01*
X148010057Y-80406666D02*
X147962438Y-80359047D01*
X147962438Y-80359047D02*
X147914819Y-80263809D01*
X147914819Y-79311428D02*
X147914819Y-79216190D01*
X147914819Y-79216190D02*
X147962438Y-79120952D01*
X147962438Y-79120952D02*
X148010057Y-79073333D01*
X148010057Y-79073333D02*
X148105295Y-79025714D01*
X148105295Y-79025714D02*
X148295771Y-78978095D01*
X148295771Y-78978095D02*
X148533866Y-78978095D01*
X148533866Y-78978095D02*
X148724342Y-79025714D01*
X148724342Y-79025714D02*
X148819580Y-79073333D01*
X148819580Y-79073333D02*
X148867200Y-79120952D01*
X148867200Y-79120952D02*
X148914819Y-79216190D01*
X148914819Y-79216190D02*
X148914819Y-79311428D01*
X148914819Y-79311428D02*
X148867200Y-79406666D01*
X148867200Y-79406666D02*
X148819580Y-79454285D01*
X148819580Y-79454285D02*
X148724342Y-79501904D01*
X148724342Y-79501904D02*
X148533866Y-79549523D01*
X148533866Y-79549523D02*
X148295771Y-79549523D01*
X148295771Y-79549523D02*
X148105295Y-79501904D01*
X148105295Y-79501904D02*
X148010057Y-79454285D01*
X148010057Y-79454285D02*
X147962438Y-79406666D01*
X147962438Y-79406666D02*
X147914819Y-79311428D01*
X148010057Y-78597142D02*
X147962438Y-78549523D01*
X147962438Y-78549523D02*
X147914819Y-78454285D01*
X147914819Y-78454285D02*
X147914819Y-78216190D01*
X147914819Y-78216190D02*
X147962438Y-78120952D01*
X147962438Y-78120952D02*
X148010057Y-78073333D01*
X148010057Y-78073333D02*
X148105295Y-78025714D01*
X148105295Y-78025714D02*
X148200533Y-78025714D01*
X148200533Y-78025714D02*
X148343390Y-78073333D01*
X148343390Y-78073333D02*
X148914819Y-78644761D01*
X148914819Y-78644761D02*
X148914819Y-78025714D01*
X120044819Y-79286666D02*
X119568628Y-79619999D01*
X120044819Y-79858094D02*
X119044819Y-79858094D01*
X119044819Y-79858094D02*
X119044819Y-79477142D01*
X119044819Y-79477142D02*
X119092438Y-79381904D01*
X119092438Y-79381904D02*
X119140057Y-79334285D01*
X119140057Y-79334285D02*
X119235295Y-79286666D01*
X119235295Y-79286666D02*
X119378152Y-79286666D01*
X119378152Y-79286666D02*
X119473390Y-79334285D01*
X119473390Y-79334285D02*
X119521009Y-79381904D01*
X119521009Y-79381904D02*
X119568628Y-79477142D01*
X119568628Y-79477142D02*
X119568628Y-79858094D01*
X120044819Y-78334285D02*
X120044819Y-78905713D01*
X120044819Y-78619999D02*
X119044819Y-78619999D01*
X119044819Y-78619999D02*
X119187676Y-78715237D01*
X119187676Y-78715237D02*
X119282914Y-78810475D01*
X119282914Y-78810475D02*
X119330533Y-78905713D01*
X123880057Y-80286666D02*
X123832438Y-80239047D01*
X123832438Y-80239047D02*
X123784819Y-80143809D01*
X123784819Y-80143809D02*
X123784819Y-79905714D01*
X123784819Y-79905714D02*
X123832438Y-79810476D01*
X123832438Y-79810476D02*
X123880057Y-79762857D01*
X123880057Y-79762857D02*
X123975295Y-79715238D01*
X123975295Y-79715238D02*
X124070533Y-79715238D01*
X124070533Y-79715238D02*
X124213390Y-79762857D01*
X124213390Y-79762857D02*
X124784819Y-80334285D01*
X124784819Y-80334285D02*
X124784819Y-79715238D01*
X123784819Y-79381904D02*
X123784819Y-78715238D01*
X123784819Y-78715238D02*
X124784819Y-79143809D01*
X124784819Y-78334285D02*
X123784819Y-78334285D01*
X124403866Y-78239047D02*
X124784819Y-77953333D01*
X124118152Y-77953333D02*
X124499104Y-78334285D01*
X127084819Y-106675238D02*
X126608628Y-107008571D01*
X127084819Y-107246666D02*
X126084819Y-107246666D01*
X126084819Y-107246666D02*
X126084819Y-106865714D01*
X126084819Y-106865714D02*
X126132438Y-106770476D01*
X126132438Y-106770476D02*
X126180057Y-106722857D01*
X126180057Y-106722857D02*
X126275295Y-106675238D01*
X126275295Y-106675238D02*
X126418152Y-106675238D01*
X126418152Y-106675238D02*
X126513390Y-106722857D01*
X126513390Y-106722857D02*
X126561009Y-106770476D01*
X126561009Y-106770476D02*
X126608628Y-106865714D01*
X126608628Y-106865714D02*
X126608628Y-107246666D01*
X127037200Y-105865714D02*
X127084819Y-105960952D01*
X127084819Y-105960952D02*
X127084819Y-106151428D01*
X127084819Y-106151428D02*
X127037200Y-106246666D01*
X127037200Y-106246666D02*
X126941961Y-106294285D01*
X126941961Y-106294285D02*
X126561009Y-106294285D01*
X126561009Y-106294285D02*
X126465771Y-106246666D01*
X126465771Y-106246666D02*
X126418152Y-106151428D01*
X126418152Y-106151428D02*
X126418152Y-105960952D01*
X126418152Y-105960952D02*
X126465771Y-105865714D01*
X126465771Y-105865714D02*
X126561009Y-105818095D01*
X126561009Y-105818095D02*
X126656247Y-105818095D01*
X126656247Y-105818095D02*
X126751485Y-106294285D01*
X127084819Y-104865714D02*
X127084819Y-105437142D01*
X127084819Y-105151428D02*
X126084819Y-105151428D01*
X126084819Y-105151428D02*
X126227676Y-105246666D01*
X126227676Y-105246666D02*
X126322914Y-105341904D01*
X126322914Y-105341904D02*
X126370533Y-105437142D01*
X130824819Y-106318095D02*
X130824819Y-106794285D01*
X130824819Y-106794285D02*
X131301009Y-106841904D01*
X131301009Y-106841904D02*
X131253390Y-106794285D01*
X131253390Y-106794285D02*
X131205771Y-106699047D01*
X131205771Y-106699047D02*
X131205771Y-106460952D01*
X131205771Y-106460952D02*
X131253390Y-106365714D01*
X131253390Y-106365714D02*
X131301009Y-106318095D01*
X131301009Y-106318095D02*
X131396247Y-106270476D01*
X131396247Y-106270476D02*
X131634342Y-106270476D01*
X131634342Y-106270476D02*
X131729580Y-106318095D01*
X131729580Y-106318095D02*
X131777200Y-106365714D01*
X131777200Y-106365714D02*
X131824819Y-106460952D01*
X131824819Y-106460952D02*
X131824819Y-106699047D01*
X131824819Y-106699047D02*
X131777200Y-106794285D01*
X131777200Y-106794285D02*
X131729580Y-106841904D01*
X130824819Y-105365714D02*
X130824819Y-105841904D01*
X130824819Y-105841904D02*
X131301009Y-105889523D01*
X131301009Y-105889523D02*
X131253390Y-105841904D01*
X131253390Y-105841904D02*
X131205771Y-105746666D01*
X131205771Y-105746666D02*
X131205771Y-105508571D01*
X131205771Y-105508571D02*
X131253390Y-105413333D01*
X131253390Y-105413333D02*
X131301009Y-105365714D01*
X131301009Y-105365714D02*
X131396247Y-105318095D01*
X131396247Y-105318095D02*
X131634342Y-105318095D01*
X131634342Y-105318095D02*
X131729580Y-105365714D01*
X131729580Y-105365714D02*
X131777200Y-105413333D01*
X131777200Y-105413333D02*
X131824819Y-105508571D01*
X131824819Y-105508571D02*
X131824819Y-105746666D01*
X131824819Y-105746666D02*
X131777200Y-105841904D01*
X131777200Y-105841904D02*
X131729580Y-105889523D01*
X137878221Y-111859580D02*
X137830602Y-111907200D01*
X137830602Y-111907200D02*
X137687745Y-111954819D01*
X137687745Y-111954819D02*
X137592507Y-111954819D01*
X137592507Y-111954819D02*
X137449650Y-111907200D01*
X137449650Y-111907200D02*
X137354412Y-111811961D01*
X137354412Y-111811961D02*
X137306793Y-111716723D01*
X137306793Y-111716723D02*
X137259174Y-111526247D01*
X137259174Y-111526247D02*
X137259174Y-111383390D01*
X137259174Y-111383390D02*
X137306793Y-111192914D01*
X137306793Y-111192914D02*
X137354412Y-111097676D01*
X137354412Y-111097676D02*
X137449650Y-111002438D01*
X137449650Y-111002438D02*
X137592507Y-110954819D01*
X137592507Y-110954819D02*
X137687745Y-110954819D01*
X137687745Y-110954819D02*
X137830602Y-111002438D01*
X137830602Y-111002438D02*
X137878221Y-111050057D01*
X138211555Y-110954819D02*
X138830602Y-110954819D01*
X138830602Y-110954819D02*
X138497269Y-111335771D01*
X138497269Y-111335771D02*
X138640126Y-111335771D01*
X138640126Y-111335771D02*
X138735364Y-111383390D01*
X138735364Y-111383390D02*
X138782983Y-111431009D01*
X138782983Y-111431009D02*
X138830602Y-111526247D01*
X138830602Y-111526247D02*
X138830602Y-111764342D01*
X138830602Y-111764342D02*
X138782983Y-111859580D01*
X138782983Y-111859580D02*
X138735364Y-111907200D01*
X138735364Y-111907200D02*
X138640126Y-111954819D01*
X138640126Y-111954819D02*
X138354412Y-111954819D01*
X138354412Y-111954819D02*
X138259174Y-111907200D01*
X138259174Y-111907200D02*
X138211555Y-111859580D01*
X133499707Y-107797619D02*
X133499707Y-108369047D01*
X133499707Y-108083333D02*
X132499707Y-108083333D01*
X132499707Y-108083333D02*
X132642564Y-108178571D01*
X132642564Y-108178571D02*
X132737802Y-108273809D01*
X132737802Y-108273809D02*
X132785421Y-108369047D01*
X132499707Y-107178571D02*
X132499707Y-107083333D01*
X132499707Y-107083333D02*
X132547326Y-106988095D01*
X132547326Y-106988095D02*
X132594945Y-106940476D01*
X132594945Y-106940476D02*
X132690183Y-106892857D01*
X132690183Y-106892857D02*
X132880659Y-106845238D01*
X132880659Y-106845238D02*
X133118754Y-106845238D01*
X133118754Y-106845238D02*
X133309230Y-106892857D01*
X133309230Y-106892857D02*
X133404468Y-106940476D01*
X133404468Y-106940476D02*
X133452088Y-106988095D01*
X133452088Y-106988095D02*
X133499707Y-107083333D01*
X133499707Y-107083333D02*
X133499707Y-107178571D01*
X133499707Y-107178571D02*
X133452088Y-107273809D01*
X133452088Y-107273809D02*
X133404468Y-107321428D01*
X133404468Y-107321428D02*
X133309230Y-107369047D01*
X133309230Y-107369047D02*
X133118754Y-107416666D01*
X133118754Y-107416666D02*
X132880659Y-107416666D01*
X132880659Y-107416666D02*
X132690183Y-107369047D01*
X132690183Y-107369047D02*
X132594945Y-107321428D01*
X132594945Y-107321428D02*
X132547326Y-107273809D01*
X132547326Y-107273809D02*
X132499707Y-107178571D01*
X132499707Y-106226190D02*
X132499707Y-106130952D01*
X132499707Y-106130952D02*
X132547326Y-106035714D01*
X132547326Y-106035714D02*
X132594945Y-105988095D01*
X132594945Y-105988095D02*
X132690183Y-105940476D01*
X132690183Y-105940476D02*
X132880659Y-105892857D01*
X132880659Y-105892857D02*
X133118754Y-105892857D01*
X133118754Y-105892857D02*
X133309230Y-105940476D01*
X133309230Y-105940476D02*
X133404468Y-105988095D01*
X133404468Y-105988095D02*
X133452088Y-106035714D01*
X133452088Y-106035714D02*
X133499707Y-106130952D01*
X133499707Y-106130952D02*
X133499707Y-106226190D01*
X133499707Y-106226190D02*
X133452088Y-106321428D01*
X133452088Y-106321428D02*
X133404468Y-106369047D01*
X133404468Y-106369047D02*
X133309230Y-106416666D01*
X133309230Y-106416666D02*
X133118754Y-106464285D01*
X133118754Y-106464285D02*
X132880659Y-106464285D01*
X132880659Y-106464285D02*
X132690183Y-106416666D01*
X132690183Y-106416666D02*
X132594945Y-106369047D01*
X132594945Y-106369047D02*
X132547326Y-106321428D01*
X132547326Y-106321428D02*
X132499707Y-106226190D01*
X132833040Y-105035714D02*
X133499707Y-105035714D01*
X132833040Y-105464285D02*
X133356849Y-105464285D01*
X133356849Y-105464285D02*
X133452088Y-105416666D01*
X133452088Y-105416666D02*
X133499707Y-105321428D01*
X133499707Y-105321428D02*
X133499707Y-105178571D01*
X133499707Y-105178571D02*
X133452088Y-105083333D01*
X133452088Y-105083333D02*
X133404468Y-105035714D01*
X132975897Y-104226190D02*
X132975897Y-104559523D01*
X133499707Y-104559523D02*
X132499707Y-104559523D01*
X132499707Y-104559523D02*
X132499707Y-104083333D01*
X120084819Y-106246666D02*
X119608628Y-106579999D01*
X120084819Y-106818094D02*
X119084819Y-106818094D01*
X119084819Y-106818094D02*
X119084819Y-106437142D01*
X119084819Y-106437142D02*
X119132438Y-106341904D01*
X119132438Y-106341904D02*
X119180057Y-106294285D01*
X119180057Y-106294285D02*
X119275295Y-106246666D01*
X119275295Y-106246666D02*
X119418152Y-106246666D01*
X119418152Y-106246666D02*
X119513390Y-106294285D01*
X119513390Y-106294285D02*
X119561009Y-106341904D01*
X119561009Y-106341904D02*
X119608628Y-106437142D01*
X119608628Y-106437142D02*
X119608628Y-106818094D01*
X119180057Y-105865713D02*
X119132438Y-105818094D01*
X119132438Y-105818094D02*
X119084819Y-105722856D01*
X119084819Y-105722856D02*
X119084819Y-105484761D01*
X119084819Y-105484761D02*
X119132438Y-105389523D01*
X119132438Y-105389523D02*
X119180057Y-105341904D01*
X119180057Y-105341904D02*
X119275295Y-105294285D01*
X119275295Y-105294285D02*
X119370533Y-105294285D01*
X119370533Y-105294285D02*
X119513390Y-105341904D01*
X119513390Y-105341904D02*
X120084819Y-105913332D01*
X120084819Y-105913332D02*
X120084819Y-105294285D01*
X123920057Y-107484761D02*
X123872438Y-107437142D01*
X123872438Y-107437142D02*
X123824819Y-107341904D01*
X123824819Y-107341904D02*
X123824819Y-107103809D01*
X123824819Y-107103809D02*
X123872438Y-107008571D01*
X123872438Y-107008571D02*
X123920057Y-106960952D01*
X123920057Y-106960952D02*
X124015295Y-106913333D01*
X124015295Y-106913333D02*
X124110533Y-106913333D01*
X124110533Y-106913333D02*
X124253390Y-106960952D01*
X124253390Y-106960952D02*
X124824819Y-107532380D01*
X124824819Y-107532380D02*
X124824819Y-106913333D01*
X124729580Y-106484761D02*
X124777200Y-106437142D01*
X124777200Y-106437142D02*
X124824819Y-106484761D01*
X124824819Y-106484761D02*
X124777200Y-106532380D01*
X124777200Y-106532380D02*
X124729580Y-106484761D01*
X124729580Y-106484761D02*
X124824819Y-106484761D01*
X123920057Y-106056190D02*
X123872438Y-106008571D01*
X123872438Y-106008571D02*
X123824819Y-105913333D01*
X123824819Y-105913333D02*
X123824819Y-105675238D01*
X123824819Y-105675238D02*
X123872438Y-105580000D01*
X123872438Y-105580000D02*
X123920057Y-105532381D01*
X123920057Y-105532381D02*
X124015295Y-105484762D01*
X124015295Y-105484762D02*
X124110533Y-105484762D01*
X124110533Y-105484762D02*
X124253390Y-105532381D01*
X124253390Y-105532381D02*
X124824819Y-106103809D01*
X124824819Y-106103809D02*
X124824819Y-105484762D01*
X124824819Y-105056190D02*
X123824819Y-105056190D01*
X124443866Y-104960952D02*
X124824819Y-104675238D01*
X124158152Y-104675238D02*
X124539104Y-105056190D01*
D12*
%TO.C,C2*%
X135240113Y-91525000D02*
X135740113Y-91525000D01*
X135490113Y-91275000D02*
X135490113Y-91775000D01*
X138044888Y-90420000D02*
X138044888Y-91960000D01*
X138044888Y-94040000D02*
X138044888Y-95580000D01*
X138084888Y-90420000D02*
X138084888Y-91960000D01*
X138084888Y-94040000D02*
X138084888Y-95580000D01*
X138124888Y-90421000D02*
X138124888Y-91960000D01*
X138124888Y-94040000D02*
X138124888Y-95579000D01*
X138164888Y-90422000D02*
X138164888Y-91960000D01*
X138164888Y-94040000D02*
X138164888Y-95578000D01*
X138204888Y-90424000D02*
X138204888Y-91960000D01*
X138204888Y-94040000D02*
X138204888Y-95576000D01*
X138244888Y-90427000D02*
X138244888Y-91960000D01*
X138244888Y-94040000D02*
X138244888Y-95573000D01*
X138284888Y-90431000D02*
X138284888Y-91960000D01*
X138284888Y-94040000D02*
X138284888Y-95569000D01*
X138324888Y-90435000D02*
X138324888Y-91960000D01*
X138324888Y-94040000D02*
X138324888Y-95565000D01*
X138364888Y-90439000D02*
X138364888Y-91960000D01*
X138364888Y-94040000D02*
X138364888Y-95561000D01*
X138404888Y-90444000D02*
X138404888Y-91960000D01*
X138404888Y-94040000D02*
X138404888Y-95556000D01*
X138444888Y-90450000D02*
X138444888Y-91960000D01*
X138444888Y-94040000D02*
X138444888Y-95550000D01*
X138484888Y-90457000D02*
X138484888Y-91960000D01*
X138484888Y-94040000D02*
X138484888Y-95543000D01*
X138524888Y-90464000D02*
X138524888Y-91960000D01*
X138524888Y-94040000D02*
X138524888Y-95536000D01*
X138564888Y-90472000D02*
X138564888Y-91960000D01*
X138564888Y-94040000D02*
X138564888Y-95528000D01*
X138604888Y-90480000D02*
X138604888Y-91960000D01*
X138604888Y-94040000D02*
X138604888Y-95520000D01*
X138644888Y-90489000D02*
X138644888Y-91960000D01*
X138644888Y-94040000D02*
X138644888Y-95511000D01*
X138684888Y-90499000D02*
X138684888Y-91960000D01*
X138684888Y-94040000D02*
X138684888Y-95501000D01*
X138724888Y-90509000D02*
X138724888Y-91960000D01*
X138724888Y-94040000D02*
X138724888Y-95491000D01*
X138765888Y-90520000D02*
X138765888Y-91960000D01*
X138765888Y-94040000D02*
X138765888Y-95480000D01*
X138805888Y-90532000D02*
X138805888Y-91960000D01*
X138805888Y-94040000D02*
X138805888Y-95468000D01*
X138845888Y-90545000D02*
X138845888Y-91960000D01*
X138845888Y-94040000D02*
X138845888Y-95455000D01*
X138885888Y-90558000D02*
X138885888Y-91960000D01*
X138885888Y-94040000D02*
X138885888Y-95442000D01*
X138925888Y-90572000D02*
X138925888Y-91960000D01*
X138925888Y-94040000D02*
X138925888Y-95428000D01*
X138965888Y-90586000D02*
X138965888Y-91960000D01*
X138965888Y-94040000D02*
X138965888Y-95414000D01*
X139005888Y-90602000D02*
X139005888Y-91960000D01*
X139005888Y-94040000D02*
X139005888Y-95398000D01*
X139045888Y-90618000D02*
X139045888Y-91960000D01*
X139045888Y-94040000D02*
X139045888Y-95382000D01*
X139085888Y-90635000D02*
X139085888Y-91960000D01*
X139085888Y-94040000D02*
X139085888Y-95365000D01*
X139125888Y-90652000D02*
X139125888Y-91960000D01*
X139125888Y-94040000D02*
X139125888Y-95348000D01*
X139165888Y-90671000D02*
X139165888Y-91960000D01*
X139165888Y-94040000D02*
X139165888Y-95329000D01*
X139205888Y-90690000D02*
X139205888Y-91960000D01*
X139205888Y-94040000D02*
X139205888Y-95310000D01*
X139245888Y-90710000D02*
X139245888Y-91960000D01*
X139245888Y-94040000D02*
X139245888Y-95290000D01*
X139285888Y-90732000D02*
X139285888Y-91960000D01*
X139285888Y-94040000D02*
X139285888Y-95268000D01*
X139325888Y-90753000D02*
X139325888Y-91960000D01*
X139325888Y-94040000D02*
X139325888Y-95247000D01*
X139365888Y-90776000D02*
X139365888Y-91960000D01*
X139365888Y-94040000D02*
X139365888Y-95224000D01*
X139405888Y-90800000D02*
X139405888Y-91960000D01*
X139405888Y-94040000D02*
X139405888Y-95200000D01*
X139445888Y-90825000D02*
X139445888Y-91960000D01*
X139445888Y-94040000D02*
X139445888Y-95175000D01*
X139485888Y-90851000D02*
X139485888Y-91960000D01*
X139485888Y-94040000D02*
X139485888Y-95149000D01*
X139525888Y-90878000D02*
X139525888Y-91960000D01*
X139525888Y-94040000D02*
X139525888Y-95122000D01*
X139565888Y-90905000D02*
X139565888Y-91960000D01*
X139565888Y-94040000D02*
X139565888Y-95095000D01*
X139605888Y-90935000D02*
X139605888Y-91960000D01*
X139605888Y-94040000D02*
X139605888Y-95065000D01*
X139645888Y-90965000D02*
X139645888Y-91960000D01*
X139645888Y-94040000D02*
X139645888Y-95035000D01*
X139685888Y-90996000D02*
X139685888Y-91960000D01*
X139685888Y-94040000D02*
X139685888Y-95004000D01*
X139725888Y-91029000D02*
X139725888Y-91960000D01*
X139725888Y-94040000D02*
X139725888Y-94971000D01*
X139765888Y-91063000D02*
X139765888Y-91960000D01*
X139765888Y-94040000D02*
X139765888Y-94937000D01*
X139805888Y-91099000D02*
X139805888Y-91960000D01*
X139805888Y-94040000D02*
X139805888Y-94901000D01*
X139845888Y-91136000D02*
X139845888Y-91960000D01*
X139845888Y-94040000D02*
X139845888Y-94864000D01*
X139885888Y-91174000D02*
X139885888Y-91960000D01*
X139885888Y-94040000D02*
X139885888Y-94826000D01*
X139925888Y-91215000D02*
X139925888Y-91960000D01*
X139925888Y-94040000D02*
X139925888Y-94785000D01*
X139965888Y-91257000D02*
X139965888Y-91960000D01*
X139965888Y-94040000D02*
X139965888Y-94743000D01*
X140005888Y-91301000D02*
X140005888Y-91960000D01*
X140005888Y-94040000D02*
X140005888Y-94699000D01*
X140045888Y-91347000D02*
X140045888Y-91960000D01*
X140045888Y-94040000D02*
X140045888Y-94653000D01*
X140085888Y-91395000D02*
X140085888Y-94605000D01*
X140125888Y-91446000D02*
X140125888Y-94554000D01*
X140165888Y-91500000D02*
X140165888Y-94500000D01*
X140205888Y-91557000D02*
X140205888Y-94443000D01*
X140245888Y-91617000D02*
X140245888Y-94383000D01*
X140285888Y-91681000D02*
X140285888Y-94319000D01*
X140325888Y-91749000D02*
X140325888Y-94251000D01*
X140365888Y-91822000D02*
X140365888Y-94178000D01*
X140405888Y-91902000D02*
X140405888Y-94098000D01*
X140445888Y-91989000D02*
X140445888Y-94011000D01*
X140485888Y-92085000D02*
X140485888Y-93915000D01*
X140525888Y-92195000D02*
X140525888Y-93805000D01*
X140565888Y-92323000D02*
X140565888Y-93677000D01*
X140605888Y-92482000D02*
X140605888Y-93518000D01*
X140645888Y-92716000D02*
X140645888Y-93284000D01*
X140664888Y-93000000D02*
G75*
G03*
X135424888Y-93000000I-2620000J0D01*
G01*
X135424888Y-93000000D02*
G75*
G03*
X140664888Y-93000000I2620000J0D01*
G01*
%TO.C,R3a1*%
X152470000Y-83070000D02*
X152470000Y-82300000D01*
X151100000Y-82300000D02*
X153840000Y-82300000D01*
X153840000Y-82300000D02*
X153840000Y-75760000D01*
X151100000Y-75760000D02*
X151100000Y-82300000D01*
X153840000Y-75760000D02*
X151100000Y-75760000D01*
X152470000Y-74990000D02*
X152470000Y-75760000D01*
%TO.C,D2*%
X146000000Y-109240000D02*
X146000000Y-108220000D01*
X144530000Y-108220000D02*
X147470000Y-108220000D01*
X147470000Y-108220000D02*
X147470000Y-102780000D01*
X144530000Y-107440000D02*
X147470000Y-107440000D01*
X144530000Y-107320000D02*
X147470000Y-107320000D01*
X144530000Y-107200000D02*
X147470000Y-107200000D01*
X144530000Y-102780000D02*
X144530000Y-108220000D01*
X147470000Y-102780000D02*
X144530000Y-102780000D01*
X146000000Y-101760000D02*
X146000000Y-102780000D01*
%TO.C,J3*%
X106030000Y-79520000D02*
X105390000Y-79520000D01*
X105390000Y-79520000D02*
X105390000Y-79920000D01*
X112370000Y-79760000D02*
X105630000Y-79760000D01*
X112370000Y-79760000D02*
X112370000Y-90621000D01*
X111250000Y-79760000D02*
X111250000Y-90621000D01*
X106150000Y-79760000D02*
X106150000Y-90621000D01*
X105630000Y-79760000D02*
X105630000Y-90621000D01*
X112370000Y-90621000D02*
X105630000Y-90621000D01*
%TO.C,RLoad1*%
X179000000Y-100120000D02*
X179000000Y-99350000D01*
X177630000Y-99350000D02*
X180370000Y-99350000D01*
X180370000Y-99350000D02*
X180370000Y-92810000D01*
X177630000Y-92810000D02*
X177630000Y-99350000D01*
X180370000Y-92810000D02*
X177630000Y-92810000D01*
X179000000Y-92040000D02*
X179000000Y-92810000D01*
%TO.C,R4a1*%
X152500000Y-101460000D02*
X152500000Y-102230000D01*
X153870000Y-102230000D02*
X151130000Y-102230000D01*
X151130000Y-102230000D02*
X151130000Y-108770000D01*
X153870000Y-108770000D02*
X153870000Y-102230000D01*
X151130000Y-108770000D02*
X153870000Y-108770000D01*
X152500000Y-109540000D02*
X152500000Y-108770000D01*
%TO.C,C6*%
X107630000Y-111620000D02*
X108075000Y-111620000D01*
X107630000Y-111620000D02*
X107630000Y-105380000D01*
X109925000Y-111620000D02*
X110370000Y-111620000D01*
X110370000Y-111620000D02*
X110370000Y-105380000D01*
X107630000Y-105380000D02*
X108075000Y-105380000D01*
X109925000Y-105380000D02*
X110370000Y-105380000D01*
%TO.C,J1*%
X106030000Y-95100000D02*
X105390000Y-95100000D01*
X105390000Y-95100000D02*
X105390000Y-95500000D01*
X112370000Y-95340000D02*
X105630000Y-95340000D01*
X112370000Y-95340000D02*
X112370000Y-101120000D01*
X111250000Y-95340000D02*
X111250000Y-101120000D01*
X106150000Y-95340000D02*
X106150000Y-101120000D01*
X105630000Y-95340000D02*
X105630000Y-101120000D01*
X112370000Y-101120000D02*
X105630000Y-101120000D01*
%TO.C,R4b1*%
X159500000Y-101540000D02*
X159500000Y-102310000D01*
X160870000Y-102310000D02*
X158130000Y-102310000D01*
X158130000Y-102310000D02*
X158130000Y-108850000D01*
X160870000Y-108850000D02*
X160870000Y-102310000D01*
X158130000Y-108850000D02*
X160870000Y-108850000D01*
X159500000Y-109620000D02*
X159500000Y-108850000D01*
%TO.C,Q3*%
X163661522Y-109338478D02*
G75*
G03*
X168100000Y-107500000I1838478J1838478D01*
G01*
X168100000Y-107500000D02*
G75*
G03*
X163661522Y-105661522I-2600000J0D01*
G01*
X163650000Y-105700000D02*
X163650000Y-109300000D01*
%TO.C,Q2*%
X168210000Y-83800000D02*
X168210000Y-80200000D01*
X163760000Y-82000000D02*
G75*
G03*
X168198478Y-83838478I2600000J0D01*
G01*
X168198478Y-80161522D02*
G75*
G03*
X163760000Y-82000000I-1838478J-1838478D01*
G01*
%TO.C,Q1*%
X130850000Y-94800000D02*
X130850000Y-91200000D01*
X126400000Y-93000000D02*
G75*
G03*
X130838478Y-94838478I2600000J0D01*
G01*
X130838478Y-91161522D02*
G75*
G03*
X126400000Y-93000000I-1838478J-1838478D01*
G01*
%TO.C,R3b1*%
X159410000Y-84490000D02*
X159410000Y-83720000D01*
X158040000Y-83720000D02*
X160780000Y-83720000D01*
X160780000Y-83720000D02*
X160780000Y-77180000D01*
X158040000Y-77180000D02*
X158040000Y-83720000D01*
X160780000Y-77180000D02*
X158040000Y-77180000D01*
X159410000Y-76410000D02*
X159410000Y-77180000D01*
%TO.C,C1*%
X113740113Y-91525000D02*
X114240113Y-91525000D01*
X113990113Y-91275000D02*
X113990113Y-91775000D01*
X116544888Y-90420000D02*
X116544888Y-91960000D01*
X116544888Y-94040000D02*
X116544888Y-95580000D01*
X116584888Y-90420000D02*
X116584888Y-91960000D01*
X116584888Y-94040000D02*
X116584888Y-95580000D01*
X116624888Y-90421000D02*
X116624888Y-91960000D01*
X116624888Y-94040000D02*
X116624888Y-95579000D01*
X116664888Y-90422000D02*
X116664888Y-91960000D01*
X116664888Y-94040000D02*
X116664888Y-95578000D01*
X116704888Y-90424000D02*
X116704888Y-91960000D01*
X116704888Y-94040000D02*
X116704888Y-95576000D01*
X116744888Y-90427000D02*
X116744888Y-91960000D01*
X116744888Y-94040000D02*
X116744888Y-95573000D01*
X116784888Y-90431000D02*
X116784888Y-91960000D01*
X116784888Y-94040000D02*
X116784888Y-95569000D01*
X116824888Y-90435000D02*
X116824888Y-91960000D01*
X116824888Y-94040000D02*
X116824888Y-95565000D01*
X116864888Y-90439000D02*
X116864888Y-91960000D01*
X116864888Y-94040000D02*
X116864888Y-95561000D01*
X116904888Y-90444000D02*
X116904888Y-91960000D01*
X116904888Y-94040000D02*
X116904888Y-95556000D01*
X116944888Y-90450000D02*
X116944888Y-91960000D01*
X116944888Y-94040000D02*
X116944888Y-95550000D01*
X116984888Y-90457000D02*
X116984888Y-91960000D01*
X116984888Y-94040000D02*
X116984888Y-95543000D01*
X117024888Y-90464000D02*
X117024888Y-91960000D01*
X117024888Y-94040000D02*
X117024888Y-95536000D01*
X117064888Y-90472000D02*
X117064888Y-91960000D01*
X117064888Y-94040000D02*
X117064888Y-95528000D01*
X117104888Y-90480000D02*
X117104888Y-91960000D01*
X117104888Y-94040000D02*
X117104888Y-95520000D01*
X117144888Y-90489000D02*
X117144888Y-91960000D01*
X117144888Y-94040000D02*
X117144888Y-95511000D01*
X117184888Y-90499000D02*
X117184888Y-91960000D01*
X117184888Y-94040000D02*
X117184888Y-95501000D01*
X117224888Y-90509000D02*
X117224888Y-91960000D01*
X117224888Y-94040000D02*
X117224888Y-95491000D01*
X117265888Y-90520000D02*
X117265888Y-91960000D01*
X117265888Y-94040000D02*
X117265888Y-95480000D01*
X117305888Y-90532000D02*
X117305888Y-91960000D01*
X117305888Y-94040000D02*
X117305888Y-95468000D01*
X117345888Y-90545000D02*
X117345888Y-91960000D01*
X117345888Y-94040000D02*
X117345888Y-95455000D01*
X117385888Y-90558000D02*
X117385888Y-91960000D01*
X117385888Y-94040000D02*
X117385888Y-95442000D01*
X117425888Y-90572000D02*
X117425888Y-91960000D01*
X117425888Y-94040000D02*
X117425888Y-95428000D01*
X117465888Y-90586000D02*
X117465888Y-91960000D01*
X117465888Y-94040000D02*
X117465888Y-95414000D01*
X117505888Y-90602000D02*
X117505888Y-91960000D01*
X117505888Y-94040000D02*
X117505888Y-95398000D01*
X117545888Y-90618000D02*
X117545888Y-91960000D01*
X117545888Y-94040000D02*
X117545888Y-95382000D01*
X117585888Y-90635000D02*
X117585888Y-91960000D01*
X117585888Y-94040000D02*
X117585888Y-95365000D01*
X117625888Y-90652000D02*
X117625888Y-91960000D01*
X117625888Y-94040000D02*
X117625888Y-95348000D01*
X117665888Y-90671000D02*
X117665888Y-91960000D01*
X117665888Y-94040000D02*
X117665888Y-95329000D01*
X117705888Y-90690000D02*
X117705888Y-91960000D01*
X117705888Y-94040000D02*
X117705888Y-95310000D01*
X117745888Y-90710000D02*
X117745888Y-91960000D01*
X117745888Y-94040000D02*
X117745888Y-95290000D01*
X117785888Y-90732000D02*
X117785888Y-91960000D01*
X117785888Y-94040000D02*
X117785888Y-95268000D01*
X117825888Y-90753000D02*
X117825888Y-91960000D01*
X117825888Y-94040000D02*
X117825888Y-95247000D01*
X117865888Y-90776000D02*
X117865888Y-91960000D01*
X117865888Y-94040000D02*
X117865888Y-95224000D01*
X117905888Y-90800000D02*
X117905888Y-91960000D01*
X117905888Y-94040000D02*
X117905888Y-95200000D01*
X117945888Y-90825000D02*
X117945888Y-91960000D01*
X117945888Y-94040000D02*
X117945888Y-95175000D01*
X117985888Y-90851000D02*
X117985888Y-91960000D01*
X117985888Y-94040000D02*
X117985888Y-95149000D01*
X118025888Y-90878000D02*
X118025888Y-91960000D01*
X118025888Y-94040000D02*
X118025888Y-95122000D01*
X118065888Y-90905000D02*
X118065888Y-91960000D01*
X118065888Y-94040000D02*
X118065888Y-95095000D01*
X118105888Y-90935000D02*
X118105888Y-91960000D01*
X118105888Y-94040000D02*
X118105888Y-95065000D01*
X118145888Y-90965000D02*
X118145888Y-91960000D01*
X118145888Y-94040000D02*
X118145888Y-95035000D01*
X118185888Y-90996000D02*
X118185888Y-91960000D01*
X118185888Y-94040000D02*
X118185888Y-95004000D01*
X118225888Y-91029000D02*
X118225888Y-91960000D01*
X118225888Y-94040000D02*
X118225888Y-94971000D01*
X118265888Y-91063000D02*
X118265888Y-91960000D01*
X118265888Y-94040000D02*
X118265888Y-94937000D01*
X118305888Y-91099000D02*
X118305888Y-91960000D01*
X118305888Y-94040000D02*
X118305888Y-94901000D01*
X118345888Y-91136000D02*
X118345888Y-91960000D01*
X118345888Y-94040000D02*
X118345888Y-94864000D01*
X118385888Y-91174000D02*
X118385888Y-91960000D01*
X118385888Y-94040000D02*
X118385888Y-94826000D01*
X118425888Y-91215000D02*
X118425888Y-91960000D01*
X118425888Y-94040000D02*
X118425888Y-94785000D01*
X118465888Y-91257000D02*
X118465888Y-91960000D01*
X118465888Y-94040000D02*
X118465888Y-94743000D01*
X118505888Y-91301000D02*
X118505888Y-91960000D01*
X118505888Y-94040000D02*
X118505888Y-94699000D01*
X118545888Y-91347000D02*
X118545888Y-91960000D01*
X118545888Y-94040000D02*
X118545888Y-94653000D01*
X118585888Y-91395000D02*
X118585888Y-94605000D01*
X118625888Y-91446000D02*
X118625888Y-94554000D01*
X118665888Y-91500000D02*
X118665888Y-94500000D01*
X118705888Y-91557000D02*
X118705888Y-94443000D01*
X118745888Y-91617000D02*
X118745888Y-94383000D01*
X118785888Y-91681000D02*
X118785888Y-94319000D01*
X118825888Y-91749000D02*
X118825888Y-94251000D01*
X118865888Y-91822000D02*
X118865888Y-94178000D01*
X118905888Y-91902000D02*
X118905888Y-94098000D01*
X118945888Y-91989000D02*
X118945888Y-94011000D01*
X118985888Y-92085000D02*
X118985888Y-93915000D01*
X119025888Y-92195000D02*
X119025888Y-93805000D01*
X119065888Y-92323000D02*
X119065888Y-93677000D01*
X119105888Y-92482000D02*
X119105888Y-93518000D01*
X119145888Y-92716000D02*
X119145888Y-93284000D01*
X119164888Y-93000000D02*
G75*
G03*
X113924888Y-93000000I-2620000J0D01*
G01*
X113924888Y-93000000D02*
G75*
G03*
X119164888Y-93000000I2620000J0D01*
G01*
%TO.C,R5*%
X172510000Y-102110000D02*
X172510000Y-101340000D01*
X171140000Y-101340000D02*
X173880000Y-101340000D01*
X173880000Y-101340000D02*
X173880000Y-94800000D01*
X171140000Y-94800000D02*
X171140000Y-101340000D01*
X173880000Y-94800000D02*
X171140000Y-94800000D01*
X172510000Y-94030000D02*
X172510000Y-94800000D01*
%TO.C,Rc1*%
X128980000Y-83110000D02*
X128980000Y-82340000D01*
X127610000Y-82340000D02*
X130350000Y-82340000D01*
X130350000Y-82340000D02*
X130350000Y-75800000D01*
X127610000Y-75800000D02*
X127610000Y-82340000D01*
X130350000Y-75800000D02*
X127610000Y-75800000D01*
X128980000Y-75030000D02*
X128980000Y-75800000D01*
%TO.C,C5*%
X150880000Y-91630000D02*
X150880000Y-92075000D01*
X150880000Y-91630000D02*
X157120000Y-91630000D01*
X150880000Y-93925000D02*
X150880000Y-94370000D01*
X150880000Y-94370000D02*
X157120000Y-94370000D01*
X157120000Y-91630000D02*
X157120000Y-92075000D01*
X157120000Y-93925000D02*
X157120000Y-94370000D01*
%TO.C,C4*%
X114100000Y-79660000D02*
X114545000Y-79660000D01*
X114100000Y-79660000D02*
X114100000Y-73420000D01*
X116395000Y-79660000D02*
X116840000Y-79660000D01*
X116840000Y-79660000D02*
X116840000Y-73420000D01*
X114100000Y-73420000D02*
X114545000Y-73420000D01*
X116395000Y-73420000D02*
X116840000Y-73420000D01*
%TO.C,J2*%
X175670000Y-106030000D02*
X175030000Y-106030000D01*
X175030000Y-106030000D02*
X175030000Y-106430000D01*
X182010000Y-106270000D02*
X175270000Y-106270000D01*
X182010000Y-106270000D02*
X182010000Y-112050000D01*
X180890000Y-106270000D02*
X180890000Y-112050000D01*
X175790000Y-106270000D02*
X175790000Y-112050000D01*
X175270000Y-106270000D02*
X175270000Y-112050000D01*
X182010000Y-112050000D02*
X175270000Y-112050000D01*
%TO.C,R6*%
X172500000Y-88040000D02*
X172500000Y-87270000D01*
X171130000Y-87270000D02*
X173870000Y-87270000D01*
X173870000Y-87270000D02*
X173870000Y-80730000D01*
X171130000Y-80730000D02*
X171130000Y-87270000D01*
X173870000Y-80730000D02*
X171130000Y-80730000D01*
X172500000Y-79960000D02*
X172500000Y-80730000D01*
%TO.C,D1*%
X145990000Y-84480000D02*
X145990000Y-83460000D01*
X144520000Y-83460000D02*
X147460000Y-83460000D01*
X147460000Y-83460000D02*
X147460000Y-78020000D01*
X144520000Y-82680000D02*
X147460000Y-82680000D01*
X144520000Y-82560000D02*
X147460000Y-82560000D01*
X144520000Y-82440000D02*
X147460000Y-82440000D01*
X144520000Y-78020000D02*
X144520000Y-83460000D01*
X147460000Y-78020000D02*
X144520000Y-78020000D01*
X145990000Y-77000000D02*
X145990000Y-78020000D01*
%TO.C,R1*%
X121960000Y-83160000D02*
X121960000Y-82390000D01*
X120590000Y-82390000D02*
X123330000Y-82390000D01*
X123330000Y-82390000D02*
X123330000Y-75850000D01*
X120590000Y-75850000D02*
X120590000Y-82390000D01*
X123330000Y-75850000D02*
X120590000Y-75850000D01*
X121960000Y-75080000D02*
X121960000Y-75850000D01*
%TO.C,Re1*%
X129000000Y-110120000D02*
X129000000Y-109350000D01*
X127630000Y-109350000D02*
X130370000Y-109350000D01*
X130370000Y-109350000D02*
X130370000Y-102810000D01*
X127630000Y-102810000D02*
X127630000Y-109350000D01*
X130370000Y-102810000D02*
X127630000Y-102810000D01*
X129000000Y-102040000D02*
X129000000Y-102810000D01*
%TO.C,C3*%
X140219888Y-102107789D02*
X140219888Y-102857789D01*
X140594888Y-102482789D02*
X139844888Y-102482789D01*
X141874888Y-106250000D02*
X134214888Y-106250000D01*
X141874888Y-106290000D02*
X134214888Y-106290000D01*
X141874888Y-106330000D02*
X134214888Y-106330000D01*
X141873888Y-106370000D02*
X134215888Y-106370000D01*
X141871888Y-106410000D02*
X134217888Y-106410000D01*
X141869888Y-106450000D02*
X134219888Y-106450000D01*
X141867888Y-106490000D02*
X139084888Y-106490000D01*
X137004888Y-106490000D02*
X134221888Y-106490000D01*
X141864888Y-106530000D02*
X139084888Y-106530000D01*
X137004888Y-106530000D02*
X134224888Y-106530000D01*
X141861888Y-106570000D02*
X139084888Y-106570000D01*
X137004888Y-106570000D02*
X134227888Y-106570000D01*
X141858888Y-106610000D02*
X139084888Y-106610000D01*
X137004888Y-106610000D02*
X134230888Y-106610000D01*
X141854888Y-106650000D02*
X139084888Y-106650000D01*
X137004888Y-106650000D02*
X134234888Y-106650000D01*
X141849888Y-106690000D02*
X139084888Y-106690000D01*
X137004888Y-106690000D02*
X134239888Y-106690000D01*
X141845888Y-106730000D02*
X139084888Y-106730000D01*
X137004888Y-106730000D02*
X134243888Y-106730000D01*
X141839888Y-106770000D02*
X139084888Y-106770000D01*
X137004888Y-106770000D02*
X134249888Y-106770000D01*
X141834888Y-106810000D02*
X139084888Y-106810000D01*
X137004888Y-106810000D02*
X134254888Y-106810000D01*
X141828888Y-106850000D02*
X139084888Y-106850000D01*
X137004888Y-106850000D02*
X134260888Y-106850000D01*
X141821888Y-106890000D02*
X139084888Y-106890000D01*
X137004888Y-106890000D02*
X134267888Y-106890000D01*
X141814888Y-106930000D02*
X139084888Y-106930000D01*
X137004888Y-106930000D02*
X134274888Y-106930000D01*
X141807888Y-106971000D02*
X139084888Y-106971000D01*
X137004888Y-106971000D02*
X134281888Y-106971000D01*
X141799888Y-107011000D02*
X139084888Y-107011000D01*
X137004888Y-107011000D02*
X134289888Y-107011000D01*
X141791888Y-107051000D02*
X139084888Y-107051000D01*
X137004888Y-107051000D02*
X134297888Y-107051000D01*
X141782888Y-107091000D02*
X139084888Y-107091000D01*
X137004888Y-107091000D02*
X134306888Y-107091000D01*
X141773888Y-107131000D02*
X139084888Y-107131000D01*
X137004888Y-107131000D02*
X134315888Y-107131000D01*
X141764888Y-107171000D02*
X139084888Y-107171000D01*
X137004888Y-107171000D02*
X134324888Y-107171000D01*
X141754888Y-107211000D02*
X139084888Y-107211000D01*
X137004888Y-107211000D02*
X134334888Y-107211000D01*
X141743888Y-107251000D02*
X139084888Y-107251000D01*
X137004888Y-107251000D02*
X134345888Y-107251000D01*
X141732888Y-107291000D02*
X139084888Y-107291000D01*
X137004888Y-107291000D02*
X134356888Y-107291000D01*
X141721888Y-107331000D02*
X139084888Y-107331000D01*
X137004888Y-107331000D02*
X134367888Y-107331000D01*
X141709888Y-107371000D02*
X139084888Y-107371000D01*
X137004888Y-107371000D02*
X134379888Y-107371000D01*
X141697888Y-107411000D02*
X139084888Y-107411000D01*
X137004888Y-107411000D02*
X134391888Y-107411000D01*
X141684888Y-107451000D02*
X139084888Y-107451000D01*
X137004888Y-107451000D02*
X134404888Y-107451000D01*
X141670888Y-107491000D02*
X139084888Y-107491000D01*
X137004888Y-107491000D02*
X134418888Y-107491000D01*
X141657888Y-107531000D02*
X139084888Y-107531000D01*
X137004888Y-107531000D02*
X134431888Y-107531000D01*
X141642888Y-107571000D02*
X139084888Y-107571000D01*
X137004888Y-107571000D02*
X134446888Y-107571000D01*
X141628888Y-107611000D02*
X139084888Y-107611000D01*
X137004888Y-107611000D02*
X134460888Y-107611000D01*
X141612888Y-107651000D02*
X139084888Y-107651000D01*
X137004888Y-107651000D02*
X134476888Y-107651000D01*
X141597888Y-107691000D02*
X139084888Y-107691000D01*
X137004888Y-107691000D02*
X134491888Y-107691000D01*
X141580888Y-107731000D02*
X139084888Y-107731000D01*
X137004888Y-107731000D02*
X134508888Y-107731000D01*
X141564888Y-107771000D02*
X139084888Y-107771000D01*
X137004888Y-107771000D02*
X134524888Y-107771000D01*
X141546888Y-107811000D02*
X139084888Y-107811000D01*
X137004888Y-107811000D02*
X134542888Y-107811000D01*
X141528888Y-107851000D02*
X139084888Y-107851000D01*
X137004888Y-107851000D02*
X134560888Y-107851000D01*
X141510888Y-107891000D02*
X139084888Y-107891000D01*
X137004888Y-107891000D02*
X134578888Y-107891000D01*
X141491888Y-107931000D02*
X139084888Y-107931000D01*
X137004888Y-107931000D02*
X134597888Y-107931000D01*
X141471888Y-107971000D02*
X139084888Y-107971000D01*
X137004888Y-107971000D02*
X134617888Y-107971000D01*
X141451888Y-108011000D02*
X139084888Y-108011000D01*
X137004888Y-108011000D02*
X134637888Y-108011000D01*
X141430888Y-108051000D02*
X139084888Y-108051000D01*
X137004888Y-108051000D02*
X134658888Y-108051000D01*
X141409888Y-108091000D02*
X139084888Y-108091000D01*
X137004888Y-108091000D02*
X134679888Y-108091000D01*
X141387888Y-108131000D02*
X139084888Y-108131000D01*
X137004888Y-108131000D02*
X134701888Y-108131000D01*
X141365888Y-108171000D02*
X139084888Y-108171000D01*
X137004888Y-108171000D02*
X134723888Y-108171000D01*
X141341888Y-108211000D02*
X139084888Y-108211000D01*
X137004888Y-108211000D02*
X134747888Y-108211000D01*
X141318888Y-108251000D02*
X139084888Y-108251000D01*
X137004888Y-108251000D02*
X134770888Y-108251000D01*
X141293888Y-108291000D02*
X139084888Y-108291000D01*
X137004888Y-108291000D02*
X134795888Y-108291000D01*
X141268888Y-108331000D02*
X139084888Y-108331000D01*
X137004888Y-108331000D02*
X134820888Y-108331000D01*
X141242888Y-108371000D02*
X139084888Y-108371000D01*
X137004888Y-108371000D02*
X134846888Y-108371000D01*
X141216888Y-108411000D02*
X139084888Y-108411000D01*
X137004888Y-108411000D02*
X134872888Y-108411000D01*
X141188888Y-108451000D02*
X139084888Y-108451000D01*
X137004888Y-108451000D02*
X134900888Y-108451000D01*
X141160888Y-108491000D02*
X139084888Y-108491000D01*
X137004888Y-108491000D02*
X134928888Y-108491000D01*
X141132888Y-108531000D02*
X139084888Y-108531000D01*
X137004888Y-108531000D02*
X134956888Y-108531000D01*
X141102888Y-108571000D02*
X134986888Y-108571000D01*
X141072888Y-108611000D02*
X135016888Y-108611000D01*
X141040888Y-108651000D02*
X135048888Y-108651000D01*
X141008888Y-108691000D02*
X135080888Y-108691000D01*
X140975888Y-108731000D02*
X135113888Y-108731000D01*
X140942888Y-108771000D02*
X135146888Y-108771000D01*
X140907888Y-108811000D02*
X135181888Y-108811000D01*
X140871888Y-108851000D02*
X135217888Y-108851000D01*
X140834888Y-108891000D02*
X135254888Y-108891000D01*
X140796888Y-108931000D02*
X135292888Y-108931000D01*
X140757888Y-108971000D02*
X135331888Y-108971000D01*
X140717888Y-109011000D02*
X135371888Y-109011000D01*
X140676888Y-109051000D02*
X135412888Y-109051000D01*
X140633888Y-109091000D02*
X135455888Y-109091000D01*
X140590888Y-109131000D02*
X135498888Y-109131000D01*
X140544888Y-109171000D02*
X135544888Y-109171000D01*
X140498888Y-109211000D02*
X135590888Y-109211000D01*
X140449888Y-109251000D02*
X135639888Y-109251000D01*
X140399888Y-109291000D02*
X135689888Y-109291000D01*
X140348888Y-109331000D02*
X135740888Y-109331000D01*
X140294888Y-109371000D02*
X135794888Y-109371000D01*
X140239888Y-109411000D02*
X135849888Y-109411000D01*
X140181888Y-109451000D02*
X135907888Y-109451000D01*
X140121888Y-109491000D02*
X135967888Y-109491000D01*
X140058888Y-109531000D02*
X136030888Y-109531000D01*
X139993888Y-109571000D02*
X136095888Y-109571000D01*
X139925888Y-109611000D02*
X136163888Y-109611000D01*
X139853888Y-109651000D02*
X136235888Y-109651000D01*
X139777888Y-109691000D02*
X136311888Y-109691000D01*
X139698888Y-109731000D02*
X136390888Y-109731000D01*
X139613888Y-109771000D02*
X136475888Y-109771000D01*
X139522888Y-109811000D02*
X136566888Y-109811000D01*
X139425888Y-109851000D02*
X136663888Y-109851000D01*
X139319888Y-109891000D02*
X136769888Y-109891000D01*
X139202888Y-109931000D02*
X136886888Y-109931000D01*
X139072888Y-109971000D02*
X137016888Y-109971000D01*
X138921888Y-110011000D02*
X137167888Y-110011000D01*
X138737888Y-110051000D02*
X137351888Y-110051000D01*
X138485888Y-110091000D02*
X137603888Y-110091000D01*
X141914888Y-106250000D02*
G75*
G03*
X134174888Y-106250000I-3870000J0D01*
G01*
X134174888Y-106250000D02*
G75*
G03*
X141914888Y-106250000I3870000J0D01*
G01*
%TO.C,R2*%
X122000000Y-110120000D02*
X122000000Y-109350000D01*
X120630000Y-109350000D02*
X123370000Y-109350000D01*
X123370000Y-109350000D02*
X123370000Y-102810000D01*
X120630000Y-102810000D02*
X120630000Y-109350000D01*
X123370000Y-102810000D02*
X120630000Y-102810000D01*
X122000000Y-102040000D02*
X122000000Y-102810000D01*
%TD*%
M02*
