%TF.GenerationSoftware,KiCad,Pcbnew,7.0.11-7.0.11~ubuntu20.04.1*%
%TF.CreationDate,2024-05-02T13:22:55-04:00*%
%TF.ProjectId,AudioAmpEELv2,41756469-6f41-46d7-9045-454c76322e6b,rev?*%
%TF.SameCoordinates,Original*%
%TF.FileFunction,Copper,L1,Top*%
%TF.FilePolarity,Positive*%
%FSLAX46Y46*%
G04 Gerber Fmt 4.6, Leading zero omitted, Abs format (unit mm)*
G04 Created by KiCad (PCBNEW 7.0.11-7.0.11~ubuntu20.04.1) date 2024-05-02 13:22:55*
%MOMM*%
%LPD*%
G01*
G04 APERTURE LIST*
%TA.AperFunction,ComponentPad*%
%ADD10R,1.600000X1.600000*%
%TD*%
%TA.AperFunction,ComponentPad*%
%ADD11C,1.600000*%
%TD*%
%TA.AperFunction,ComponentPad*%
%ADD12O,1.600000X1.600000*%
%TD*%
%TA.AperFunction,ComponentPad*%
%ADD13R,2.200000X2.200000*%
%TD*%
%TA.AperFunction,ComponentPad*%
%ADD14O,2.200000X2.200000*%
%TD*%
%TA.AperFunction,ComponentPad*%
%ADD15R,2.100000X2.100000*%
%TD*%
%TA.AperFunction,ComponentPad*%
%ADD16C,2.100000*%
%TD*%
%TA.AperFunction,ComponentPad*%
%ADD17O,1.500000X1.050000*%
%TD*%
%TA.AperFunction,ComponentPad*%
%ADD18R,1.500000X1.050000*%
%TD*%
G04 APERTURE END LIST*
D10*
%TO.P,C2,1*%
%TO.N,Net-(Q1-C)*%
X137044888Y-93000000D03*
D11*
%TO.P,C2,2*%
%TO.N,Net-(D1-K)*%
X139044888Y-93000000D03*
%TD*%
%TO.P,R3a1,1*%
%TO.N,Net-(R3a1-Pad1)*%
X152470000Y-84110000D03*
D12*
%TO.P,R3a1,2*%
%TO.N,/Vcc (+9V)*%
X152470000Y-73950000D03*
%TD*%
D13*
%TO.P,D2,1,K*%
%TO.N,Net-(D2-K)*%
X146000000Y-110580000D03*
D14*
%TO.P,D2,2,A*%
%TO.N,Net-(D1-K)*%
X146000000Y-100420000D03*
%TD*%
D15*
%TO.P,J3,1,Pin_1*%
%TO.N,/Vcc (+9V)*%
X109000000Y-81380000D03*
D16*
%TO.P,J3,2,Pin_2*%
%TO.N,GNDREF*%
X109000000Y-83920000D03*
%TO.P,J3,3,Pin_3*%
X109000000Y-86460000D03*
%TO.P,J3,4,Pin_4*%
%TO.N,/Vee (-9V)*%
X109000000Y-89000000D03*
%TD*%
D11*
%TO.P,RLoad1,1*%
%TO.N,/Vee (-9V)*%
X179000000Y-101160000D03*
D12*
%TO.P,RLoad1,2*%
%TO.N,/Vout*%
X179000000Y-91000000D03*
%TD*%
%TO.P,R4a1,2*%
%TO.N,Net-(D2-K)*%
X152500000Y-100420000D03*
D11*
%TO.P,R4a1,1*%
%TO.N,Net-(R4a1-Pad1)*%
X152500000Y-110580000D03*
%TD*%
%TO.P,C6,1*%
%TO.N,/Vee (-9V)*%
X109000000Y-111000000D03*
%TO.P,C6,2*%
%TO.N,GNDREF*%
X109000000Y-106000000D03*
%TD*%
D15*
%TO.P,J1,1,Pin_1*%
%TO.N,/Vin*%
X109000000Y-96960000D03*
D16*
%TO.P,J1,2,Pin_2*%
%TO.N,GNDREF*%
X109000000Y-99500000D03*
%TD*%
D12*
%TO.P,R4b1,2*%
%TO.N,Net-(R4a1-Pad1)*%
X159500000Y-100500000D03*
D11*
%TO.P,R4b1,1*%
%TO.N,/Vee (-9V)*%
X159500000Y-110660000D03*
%TD*%
D17*
%TO.P,Q3,3,C*%
%TO.N,/Vee (-9V)*%
X165500000Y-108770000D03*
%TO.P,Q3,2,B*%
%TO.N,Net-(D2-K)*%
X165500000Y-107500000D03*
D18*
%TO.P,Q3,1,E*%
%TO.N,Net-(Q3-E)*%
X165500000Y-106230000D03*
%TD*%
%TO.P,Q2,1,E*%
%TO.N,Net-(Q2-E)*%
X166360000Y-83270000D03*
D17*
%TO.P,Q2,2,B*%
%TO.N,Net-(D1-A)*%
X166360000Y-82000000D03*
%TO.P,Q2,3,C*%
%TO.N,/Vcc (+9V)*%
X166360000Y-80730000D03*
%TD*%
D18*
%TO.P,Q1,1,E*%
%TO.N,Net-(Q1-E)*%
X129000000Y-94270000D03*
D17*
%TO.P,Q1,2,B*%
%TO.N,Net-(Q1-B)*%
X129000000Y-93000000D03*
%TO.P,Q1,3,C*%
%TO.N,Net-(Q1-C)*%
X129000000Y-91730000D03*
%TD*%
D11*
%TO.P,R3b1,1*%
%TO.N,Net-(D1-A)*%
X159410000Y-85530000D03*
D12*
%TO.P,R3b1,2*%
%TO.N,Net-(R3a1-Pad1)*%
X159410000Y-75370000D03*
%TD*%
D10*
%TO.P,C1,1*%
%TO.N,/Vin*%
X115544888Y-93000000D03*
D11*
%TO.P,C1,2*%
%TO.N,Net-(Q1-B)*%
X117544888Y-93000000D03*
%TD*%
%TO.P,R5,1*%
%TO.N,Net-(Q3-E)*%
X172510000Y-103150000D03*
D12*
%TO.P,R5,2*%
%TO.N,/Vout*%
X172510000Y-92990000D03*
%TD*%
D11*
%TO.P,Rc1,1*%
%TO.N,Net-(Q1-C)*%
X128980000Y-84150000D03*
D12*
%TO.P,Rc1,2*%
%TO.N,/Vcc (+9V)*%
X128980000Y-73990000D03*
%TD*%
D11*
%TO.P,C5,1*%
%TO.N,Net-(D1-K)*%
X151500000Y-93000000D03*
%TO.P,C5,2*%
%TO.N,GNDREF*%
X156500000Y-93000000D03*
%TD*%
%TO.P,C4,1*%
%TO.N,GNDREF*%
X115470000Y-79040000D03*
%TO.P,C4,2*%
%TO.N,/Vcc (+9V)*%
X115470000Y-74040000D03*
%TD*%
D15*
%TO.P,J2,1,Pin_1*%
%TO.N,/Vout*%
X178640000Y-107890000D03*
D16*
%TO.P,J2,2,Pin_2*%
%TO.N,/Vee (-9V)*%
X178640000Y-110430000D03*
%TD*%
D11*
%TO.P,R6,1*%
%TO.N,/Vout*%
X172500000Y-89080000D03*
D12*
%TO.P,R6,2*%
%TO.N,Net-(Q2-E)*%
X172500000Y-78920000D03*
%TD*%
D13*
%TO.P,D1,1,K*%
%TO.N,Net-(D1-K)*%
X145990000Y-85820000D03*
D14*
%TO.P,D1,2,A*%
%TO.N,Net-(D1-A)*%
X145990000Y-75660000D03*
%TD*%
D11*
%TO.P,R1,1*%
%TO.N,Net-(Q1-B)*%
X121960000Y-84200000D03*
D12*
%TO.P,R1,2*%
%TO.N,/Vcc (+9V)*%
X121960000Y-74040000D03*
%TD*%
D11*
%TO.P,Re1,1*%
%TO.N,/Vee (-9V)*%
X129000000Y-111160000D03*
D12*
%TO.P,Re1,2*%
%TO.N,Net-(Q1-E)*%
X129000000Y-101000000D03*
%TD*%
D10*
%TO.P,C3,1*%
%TO.N,Net-(Q1-E)*%
X138044888Y-105000000D03*
D11*
%TO.P,C3,2*%
%TO.N,/Vee (-9V)*%
X138044888Y-107500000D03*
%TD*%
%TO.P,R2,1*%
%TO.N,/Vee (-9V)*%
X122000000Y-111160000D03*
D12*
%TO.P,R2,2*%
%TO.N,Net-(Q1-B)*%
X122000000Y-101000000D03*
%TD*%
M02*
