%TF.GenerationSoftware,KiCad,Pcbnew,7.0.11-7.0.11~ubuntu20.04.1*%
%TF.CreationDate,2024-05-02T13:22:55-04:00*%
%TF.ProjectId,AudioAmpEELv2,41756469-6f41-46d7-9045-454c76322e6b,rev?*%
%TF.SameCoordinates,Original*%
%TF.FileFunction,Soldermask,Top*%
%TF.FilePolarity,Negative*%
%FSLAX46Y46*%
G04 Gerber Fmt 4.6, Leading zero omitted, Abs format (unit mm)*
G04 Created by KiCad (PCBNEW 7.0.11-7.0.11~ubuntu20.04.1) date 2024-05-02 13:22:55*
%MOMM*%
%LPD*%
G01*
G04 APERTURE LIST*
%ADD10R,1.600000X1.600000*%
%ADD11C,1.600000*%
%ADD12O,1.600000X1.600000*%
%ADD13R,2.200000X2.200000*%
%ADD14O,2.200000X2.200000*%
%ADD15R,2.100000X2.100000*%
%ADD16C,2.100000*%
%ADD17O,1.500000X1.050000*%
%ADD18R,1.500000X1.050000*%
G04 APERTURE END LIST*
D10*
%TO.C,C2*%
X137044888Y-93000000D03*
D11*
X139044888Y-93000000D03*
%TD*%
%TO.C,R3a1*%
X152470000Y-84110000D03*
D12*
X152470000Y-73950000D03*
%TD*%
D13*
%TO.C,D2*%
X146000000Y-110580000D03*
D14*
X146000000Y-100420000D03*
%TD*%
D15*
%TO.C,J3*%
X109000000Y-81380000D03*
D16*
X109000000Y-83920000D03*
X109000000Y-86460000D03*
X109000000Y-89000000D03*
%TD*%
D11*
%TO.C,RLoad1*%
X179000000Y-101160000D03*
D12*
X179000000Y-91000000D03*
%TD*%
%TO.C,R4a1*%
X152500000Y-100420000D03*
D11*
X152500000Y-110580000D03*
%TD*%
%TO.C,C6*%
X109000000Y-111000000D03*
X109000000Y-106000000D03*
%TD*%
D15*
%TO.C,J1*%
X109000000Y-96960000D03*
D16*
X109000000Y-99500000D03*
%TD*%
D12*
%TO.C,R4b1*%
X159500000Y-100500000D03*
D11*
X159500000Y-110660000D03*
%TD*%
D17*
%TO.C,Q3*%
X165500000Y-108770000D03*
X165500000Y-107500000D03*
D18*
X165500000Y-106230000D03*
%TD*%
%TO.C,Q2*%
X166360000Y-83270000D03*
D17*
X166360000Y-82000000D03*
X166360000Y-80730000D03*
%TD*%
D18*
%TO.C,Q1*%
X129000000Y-94270000D03*
D17*
X129000000Y-93000000D03*
X129000000Y-91730000D03*
%TD*%
D11*
%TO.C,R3b1*%
X159410000Y-85530000D03*
D12*
X159410000Y-75370000D03*
%TD*%
D10*
%TO.C,C1*%
X115544888Y-93000000D03*
D11*
X117544888Y-93000000D03*
%TD*%
%TO.C,R5*%
X172510000Y-103150000D03*
D12*
X172510000Y-92990000D03*
%TD*%
D11*
%TO.C,Rc1*%
X128980000Y-84150000D03*
D12*
X128980000Y-73990000D03*
%TD*%
D11*
%TO.C,C5*%
X151500000Y-93000000D03*
X156500000Y-93000000D03*
%TD*%
%TO.C,C4*%
X115470000Y-79040000D03*
X115470000Y-74040000D03*
%TD*%
D15*
%TO.C,J2*%
X178640000Y-107890000D03*
D16*
X178640000Y-110430000D03*
%TD*%
D11*
%TO.C,R6*%
X172500000Y-89080000D03*
D12*
X172500000Y-78920000D03*
%TD*%
D13*
%TO.C,D1*%
X145990000Y-85820000D03*
D14*
X145990000Y-75660000D03*
%TD*%
D11*
%TO.C,R1*%
X121960000Y-84200000D03*
D12*
X121960000Y-74040000D03*
%TD*%
D11*
%TO.C,Re1*%
X129000000Y-111160000D03*
D12*
X129000000Y-101000000D03*
%TD*%
D10*
%TO.C,C3*%
X138044888Y-105000000D03*
D11*
X138044888Y-107500000D03*
%TD*%
%TO.C,R2*%
X122000000Y-111160000D03*
D12*
X122000000Y-101000000D03*
%TD*%
M02*
